<svg width="20" height="20" viewBox="0 0 20 20" fill="none" xmlns="http://www.w3.org/2000/svg">
<path d="M14.5012 14.8187C14.7572 14.5548 14.7509 14.1333 14.4874 13.8768L7.61154 7.00096L10.7162 7.00096C10.8962 7.00357 11.0696 6.93298 11.1968 6.80577C11.3886 6.61395 11.4449 6.325 11.3395 6.07503C11.2339 5.82521 10.9875 5.66409 10.7162 5.66777L6.085 5.66777C5.87937 5.64015 5.67252 5.70951 5.52551 5.8559C5.37851 6.00229 5.30777 6.20869 5.33462 6.41447L5.33554 6.41907L5.33554 11.0484C5.33063 11.2899 5.45661 11.5151 5.66485 11.6371C5.87308 11.7594 6.13119 11.7594 6.33942 11.6371C6.54766 11.5151 6.67364 11.2899 6.66873 11.0484L6.66873 7.94377L13.5446 14.8196C13.6703 14.9487 13.8429 15.0216 14.0232 15.0214C14.2032 15.0213 14.3759 14.9481 14.5012 14.8187Z" fill="#333333" fill-opacity="0.5"/>
</svg>
