<svg width="15" height="10" viewBox="0 0 15 10" fill="none" xmlns="http://www.w3.org/2000/svg">
<path d="M1 5.6C0.668629 5.6 0.4 5.33137 0.4 5C0.4 4.66863 0.668629 4.4 1 4.4L1 5.6ZM14.4243 4.57574C14.6586 4.81005 14.6586 5.18995 14.4243 5.42427L10.6059 9.24264C10.3716 9.47696 9.99167 9.47696 9.75736 9.24264C9.52304 9.00833 9.52304 8.62843 9.75736 8.39411L13.1515 5L9.75736 1.60589C9.52304 1.37157 9.52304 0.991674 9.75736 0.757359C9.99167 0.523045 10.3716 0.523045 10.6059 0.75736L14.4243 4.57574ZM1 4.4L14 4.4L14 5.6L1 5.6L1 4.4Z" fill="#00B134"/>
</svg>
