<svg width="20" height="20" viewBox="0 0 20 20" fill="none" xmlns="http://www.w3.org/2000/svg">
<path d="M14.5012 14.8177C14.7571 14.5538 14.7508 14.1323 14.4874 13.8759L7.61148 6.99998L10.7161 6.99998C10.8961 7.00259 11.0695 6.932 11.1967 6.80479C11.3885 6.61298 11.4449 6.32403 11.3394 6.07405C11.2339 5.82423 10.9874 5.66311 10.7161 5.66679L6.08494 5.66679C5.87931 5.63917 5.67246 5.70853 5.52545 5.85492C5.37845 6.00132 5.30771 6.20771 5.33456 6.41349L5.33548 6.41809L5.33548 11.0474C5.33057 11.289 5.45655 11.5141 5.66479 11.6361C5.87302 11.7584 6.13113 11.7584 6.33936 11.6361C6.5476 11.5141 6.67358 11.289 6.66867 11.0474L6.66867 7.94279L13.5445 14.8187C13.6702 14.9477 13.8429 15.0206 14.0232 15.0205C14.2032 15.0203 14.3758 14.9471 14.5012 14.8177Z" fill="white" fill-opacity="0.5"/>
</svg>
