<svg width="17" height="21" viewBox="0 0 17 21" fill="none" xmlns="http://www.w3.org/2000/svg">
<path d="M7.93866 13.3325H0.830688L7.93866 6.6626V13.3325Z" fill="white"/>
<path d="M7.93866 20.1175L0.830688 13.3325H7.93866V20.1175Z" fill="white"/>
<path d="M14.2327 10.1319C14.3984 9.66468 14.8405 9.32798 15.3645 9.32798C16.0303 9.32798 16.5704 9.8681 16.5704 10.5338C16.5704 11.1996 16.0303 11.7397 15.3645 11.7397C14.8405 11.7397 14.3991 11.403 14.2327 10.9358H7.72771V13.3475H11.3452C11.5671 13.3475 11.7471 13.5276 11.7471 13.7495V16.6372C12.2143 16.8029 12.551 17.245 12.551 17.769C12.551 18.4348 12.0109 18.9749 11.3452 18.9749C10.6794 18.9749 10.1393 18.4348 10.1393 17.769C10.1393 17.245 10.476 16.8036 10.9432 16.6372V14.1514H7.72771H6.92383V6.91624H7.72771H11.7471V4.43054C11.2799 4.2648 10.9432 3.82272 10.9432 3.29864C10.9432 2.6329 11.4833 2.09277 12.149 2.09277C12.8147 2.09277 13.3549 2.6329 13.3549 3.29864C13.3549 3.82272 13.0182 4.2641 12.551 4.43054V7.3182C12.551 7.54011 12.3709 7.72015 12.149 7.72015H7.72771V10.1319H14.2327Z" fill="white"/>
<path d="M7.93976 7.69442H0.831787L7.93976 0.82373V7.69442Z" fill="white"/>
<path d="M7.93866 14.5324L0.830688 7.69434H7.93866V14.5324Z" fill="white"/>
</svg>
