<svg width="15" height="19" viewBox="0 0 15 19" fill="none" xmlns="http://www.w3.org/2000/svg">
<path d="M6.78934 12.1698H0.158035L6.78934 5.94727V12.1698Z" fill="white"/>
<path d="M6.78934 18.4999L0.158035 12.1699H6.78934V18.4999Z" fill="white"/>
<path d="M12.6613 9.18408C12.8159 8.74821 13.2283 8.43408 13.7172 8.43408C14.3383 8.43408 14.8422 8.93799 14.8422 9.55908C14.8422 10.1802 14.3383 10.6841 13.7172 10.6841C13.2283 10.6841 12.8166 10.37 12.6613 9.93408H6.59253V12.1841H9.96739C10.1744 12.1841 10.3424 12.352 10.3424 12.5591V15.2531C10.7782 15.4077 11.0923 15.8201 11.0923 16.3091C11.0923 16.9302 10.5885 17.4341 9.96739 17.4341C9.34632 17.4341 8.84243 16.9302 8.84243 16.3091C8.84243 15.8201 9.15655 15.4084 9.5924 15.2531V12.9341H6.59253H5.84256V6.18408H6.59253H10.3424V3.86507C9.90652 3.71045 9.5924 3.29801 9.5924 2.80908C9.5924 2.18799 10.0963 1.68408 10.7174 1.68408C11.3384 1.68408 11.8423 2.18799 11.8423 2.80908C11.8423 3.29801 11.5282 3.7098 11.0923 3.86507V6.55908C11.0923 6.76611 10.9244 6.93408 10.7174 6.93408H6.59253V9.18408H12.6613Z" fill="white"/>
<path d="M6.79045 6.90993H0.159149L6.79045 0.5V6.90993Z" fill="white"/>
<path d="M6.78934 13.2896L0.158035 6.91016H6.78934V13.2896Z" fill="white"/>
</svg>
