<svg width="12" height="12" viewBox="0 0 12 12" fill="none" xmlns="http://www.w3.org/2000/svg">
<path d="M2.1192 1.49414C1.86486 1.49414 1.63591 1.64844 1.54021 1.88411C1.44451 2.11979 1.50115 2.38997 1.68366 2.56727L5.11638 6L1.68062 9.43468C1.43626 9.67882 1.43626 10.0751 1.68062 10.3194C1.92498 10.5638 2.32124 10.5638 2.5656 10.3194L6.00006 6.88368L9.43257 10.3164C9.58947 10.4796 9.82233 10.5454 10.0413 10.4883C10.2603 10.4312 10.4313 10.2602 10.4883 10.0412C10.5454 9.82227 10.4797 9.58941 10.3165 9.43251L6.88374 6L10.3126 2.57118C10.4758 2.4145 10.5415 2.18164 10.4844 1.96267C10.4274 1.74371 10.2564 1.5727 10.0374 1.51563C9.81842 1.45855 9.58557 1.52431 9.42888 1.6875L6.00006 5.11632L2.56734 1.68359C2.44971 1.5625 2.28804 1.49414 2.1192 1.49414Z" fill="white"/>
</svg>
