<svg width="16" height="16" viewBox="0 0 16 16" fill="none" xmlns="http://www.w3.org/2000/svg">
<path d="M2.82544 1.99219C2.48632 1.99219 2.18105 2.19792 2.05345 2.51215C1.92585 2.82639 2.00137 3.18663 2.24471 3.42303L6.82168 8L2.24066 12.5796C1.91485 12.9051 1.91485 13.4334 2.24066 13.7593C2.56647 14.0851 3.09483 14.0851 3.42064 13.7593L7.99992 9.17824L12.5766 13.7552C12.7858 13.9728 13.0963 14.0605 13.3882 13.9844C13.6802 13.9083 13.9082 13.6803 13.9843 13.3883C14.0604 13.0964 13.9727 12.7859 13.7551 12.5767L9.17816 8L13.7499 3.42824C13.9675 3.21933 14.0552 2.90885 13.9791 2.6169C13.903 2.32494 13.675 2.09693 13.383 2.02083C13.0911 1.94473 12.7806 2.03241 12.5717 2.25L7.99992 6.82176L3.42295 2.24479C3.26612 2.08333 3.05056 1.99219 2.82544 1.99219Z" fill="#333333"/>
</svg>
