<svg width="16" height="16" viewBox="0 0 16 16" fill="none" xmlns="http://www.w3.org/2000/svg">
<path d="M12.9916 2.20898C13.3136 2.20158 13.6069 2.39307 13.7308 2.69043L13.7679 2.80371C13.8336 3.07074 13.7538 3.35553 13.5511 3.55078L13.5521 3.55176L9.10388 8L13.5502 12.4463L13.6205 12.5234C13.7723 12.7139 13.828 12.9676 13.765 13.207C13.7026 13.4464 13.5311 13.6392 13.306 13.7314L13.2064 13.7646C12.9334 13.8364 12.6429 13.7541 12.4476 13.5508V13.5518L7.99939 9.10352L3.55212 13.5518L3.55115 13.5508C3.38023 13.7284 3.137 13.8148 2.89587 13.7852L2.79333 13.7646C2.51975 13.6935 2.30608 13.4806 2.23474 13.207L2.21521 13.1035C2.18564 12.8618 2.27105 12.6172 2.44958 12.4463L6.8949 8L2.44763 3.55176V3.55078C2.22133 3.32969 2.1509 2.99365 2.2699 2.7002L2.32166 2.59473C2.46079 2.36076 2.71415 2.21303 2.99255 2.21289C3.20326 2.21221 3.40511 2.29703 3.55212 2.44824L7.99939 6.89551L12.4476 2.44727C12.5899 2.29979 12.7855 2.21371 12.9916 2.20898Z" fill="white" stroke="white" stroke-width="0.228571"/>
</svg>
