<svg width="18" height="18" viewBox="0 0 18 18" fill="none" xmlns="http://www.w3.org/2000/svg">
<path d="M2.8125 1.125C1.88525 1.125 1.125 1.88525 1.125 2.8125V11.8125C1.125 12.7397 1.88525 13.5 2.8125 13.5H4.5V14.0625C4.5 14.9897 5.26025 15.75 6.1875 15.75H15.1875C16.1147 15.75 16.875 14.9897 16.875 14.0625V5.0625C16.875 4.13525 16.1147 3.375 15.1875 3.375H13.5V2.8125C13.5 1.88525 12.7397 1.125 11.8125 1.125H2.8125ZM2.8125 2.25H11.8125C12.1289 2.25 12.375 2.49609 12.375 2.8125V11.8125C12.375 12.1289 12.1289 12.375 11.8125 12.375H2.8125C2.49609 12.375 2.25 12.1289 2.25 11.8125V2.8125C2.25 2.49609 2.49609 2.25 2.8125 2.25ZM13.5 4.5H15.1875C15.5039 4.5 15.75 4.74609 15.75 5.0625V14.0625C15.75 14.3789 15.5039 14.625 15.1875 14.625H6.1875C5.87109 14.625 5.625 14.3789 5.625 14.0625V13.5H11.8125C12.7397 13.5 13.5 12.7397 13.5 11.8125V4.5Z" fill="#222222"/>
</svg>
