<svg width="14" height="14" viewBox="0 0 14 14" fill="none" xmlns="http://www.w3.org/2000/svg">
<path d="M2.1875 0.875C1.46631 0.875 0.875 1.46631 0.875 2.1875V9.1875C0.875 9.90869 1.46631 10.5 2.1875 10.5H3.5V10.9375C3.5 11.6587 4.09131 12.25 4.8125 12.25H11.8125C12.5337 12.25 13.125 11.6587 13.125 10.9375V3.9375C13.125 3.21631 12.5337 2.625 11.8125 2.625H10.5V2.1875C10.5 1.46631 9.90869 0.875 9.1875 0.875H2.1875ZM2.1875 1.75H9.1875C9.43359 1.75 9.625 1.94141 9.625 2.1875V9.1875C9.625 9.43359 9.43359 9.625 9.1875 9.625H2.1875C1.94141 9.625 1.75 9.43359 1.75 9.1875V2.1875C1.75 1.94141 1.94141 1.75 2.1875 1.75ZM10.5 3.5H11.8125C12.0586 3.5 12.25 3.69141 12.25 3.9375V10.9375C12.25 11.1836 12.0586 11.375 11.8125 11.375H4.8125C4.56641 11.375 4.375 11.1836 4.375 10.9375V10.5H9.1875C9.90869 10.5 10.5 9.90869 10.5 9.1875V3.5Z" fill="#9595B5"/>
</svg>
