<svg width="14" height="14" viewBox="0 0 14 14" fill="none" xmlns="http://www.w3.org/2000/svg">
<path d="M11.8123 1.75C11.7004 1.75 11.5885 1.79253 11.5029 1.87811L6.26004 7.12203L5.83317 8.16667L6.8778 7.7398L12.1217 2.49689C12.2924 2.32574 12.2924 2.04926 12.1217 1.87811C12.0362 1.79253 11.9242 1.75 11.8123 1.75ZM3.64567 2.04167C2.7651 2.04167 2.0415 2.76526 2.0415 3.64583V10.3542C2.0415 11.2347 2.7651 11.9583 3.64567 11.9583H10.354C11.2346 11.9583 11.9582 11.2347 11.9582 10.3542V5.39583C11.9602 5.23785 11.8777 5.09151 11.7414 5.01201C11.6047 4.932 11.4366 4.932 11.2999 5.01201C11.1637 5.09151 11.0811 5.23785 11.0832 5.39583V10.3542C11.0832 10.7618 10.7616 11.0833 10.354 11.0833H3.64567C3.23805 11.0833 2.9165 10.7618 2.9165 10.3542V3.64583C2.9165 3.23821 3.23805 2.91667 3.64567 2.91667H8.604C8.76199 2.91869 8.90833 2.83615 8.98783 2.69994C9.06784 2.56322 9.06784 2.39511 8.98783 2.25839C8.90833 2.12218 8.76199 2.03964 8.604 2.04167H3.64567Z" fill="#9595B5"/>
</svg>
