<svg width="14" height="14" viewBox="0 0 14 14" fill="none" xmlns="http://www.w3.org/2000/svg">
<path d="M11.8125 1.75C11.7006 1.75 11.5886 1.79253 11.5031 1.87811L6.26016 7.12203L5.83329 8.16667L6.87793 7.7398L12.1219 2.49689C12.2925 2.32574 12.2925 2.04926 12.1219 1.87811C12.0363 1.79253 11.9244 1.75 11.8125 1.75ZM3.64579 2.04167C2.76522 2.04167 2.04163 2.76526 2.04163 3.64583V10.3542C2.04163 11.2347 2.76522 11.9583 3.64579 11.9583H10.3541C11.2347 11.9583 11.9583 11.2347 11.9583 10.3542V5.39583C11.9603 5.23785 11.8778 5.09151 11.7416 5.01201C11.6049 4.932 11.4367 4.932 11.3 5.01201C11.1638 5.09151 11.0813 5.23785 11.0833 5.39583V10.3542C11.0833 10.7618 10.7618 11.0833 10.3541 11.0833H3.64579C3.23817 11.0833 2.91663 10.7618 2.91663 10.3542V3.64583C2.91663 3.23821 3.23817 2.91667 3.64579 2.91667H8.60413C8.76211 2.91869 8.90845 2.83615 8.98795 2.69994C9.06796 2.56322 9.06796 2.39511 8.98795 2.25839C8.90845 2.12218 8.76211 2.03964 8.60413 2.04167H3.64579Z" fill="#9595B5"/>
</svg>
