<svg width="24" height="24" viewBox="0 0 24 24" fill="none" xmlns="http://www.w3.org/2000/svg">
<path d="M5.60005 4.7998C5.15812 4.7998 4.80005 5.15788 4.80005 5.5998C4.80005 5.60085 4.80005 5.60189 4.80005 5.60293V18.3967C4.80005 18.3977 4.80005 18.3988 4.80005 18.3998C4.80005 18.8417 5.15812 19.1998 5.60005 19.1998C5.77036 19.1995 5.93625 19.1449 6.07349 19.0436H6.07505C6.08234 19.0378 6.08963 19.0321 6.09692 19.0264L14.8329 12.6732C15.062 12.5258 15.2003 12.2722 15.2 11.9998C15.1998 11.7331 15.067 11.4842 14.8454 11.3357L6.07505 4.95605C5.93755 4.85449 5.77088 4.7998 5.60005 4.7998ZM18 4.7998C17.3375 4.7998 16.8 5.3373 16.8 5.9998V17.9998C16.8 18.6623 17.3375 19.1998 18 19.1998C18.6625 19.1998 19.2 18.6623 19.2 17.9998V5.9998C19.2 5.3373 18.6625 4.7998 18 4.7998Z" fill="white"/>
</svg>
