<svg width="18" height="18" viewBox="0 0 18 18" fill="none" xmlns="http://www.w3.org/2000/svg">
<path d="M10.9453 1.54688C10.4004 1.54688 9.8584 1.7666 9.44531 2.17969L2.17969 9.44531C1.35059 10.2744 1.35059 11.6162 2.17969 12.4453L5.25 15.5391C5.38769 15.6738 5.57227 15.7471 5.76562 15.75H16.5V14.25H10.2891L15.9141 8.625C16.7432 7.7959 16.7432 6.4541 15.9141 5.625L12.4453 2.17969C12.0322 1.7666 11.4902 1.54688 10.9453 1.54688ZM6.60937 7.125L10.9453 11.4609L8.15625 14.25H6.09375L3.23437 11.3906C3.01172 11.168 3.01172 10.7227 3.23437 10.5L6.60937 7.125Z" fill="white"/>
</svg>
