<svg width="18" height="18" viewBox="0 0 18 18" fill="none" xmlns="http://www.w3.org/2000/svg">
<path d="M10.9451 1.54688C10.4001 1.54688 9.85815 1.7666 9.44507 2.17969L2.17944 9.44531C1.35034 10.2744 1.35034 11.6162 2.17944 12.4453L5.24976 15.5391C5.38745 15.6738 5.57202 15.7471 5.76538 15.75H16.4998V14.25H10.2888L15.9138 8.625C16.7429 7.7959 16.7429 6.4541 15.9138 5.625L12.4451 2.17969C12.032 1.7666 11.49 1.54688 10.9451 1.54688ZM6.60913 7.125L10.9451 11.4609L8.156 14.25H6.09351L3.23413 11.3906C3.01147 11.168 3.01147 10.7227 3.23413 10.5L6.60913 7.125Z" fill="#333333"/>
</svg>
