<svg width="12" height="13" viewBox="0 0 12 13" fill="none" xmlns="http://www.w3.org/2000/svg">
<path d="M5.99974 0.875C5.53314 0.875 5.06601 1.10601 4.81368 1.56802L0.164843 10.0835C-0.325221 10.9816 0.338451 12.125 1.3509 12.125H10.6491C11.6615 12.125 12.3252 10.9816 11.8352 10.0835L7.1858 1.56802C6.93347 1.10601 6.46634 0.875 5.99974 0.875ZM5.99974 1.75726C6.15249 1.75726 6.30525 1.84131 6.39753 2.01047L11.0469 10.5259C11.2247 10.8521 11.0161 11.2116 10.6491 11.2116H1.3509C0.983877 11.2116 0.775339 10.8521 0.953117 10.5259L5.60195 2.01047C5.69423 1.84131 5.84699 1.75726 5.99974 1.75726ZM5.99244 4.20211C5.74428 4.20581 5.54565 4.41303 5.5493 4.66517V7.71C5.54721 7.87493 5.63219 8.0277 5.77243 8.11069C5.9132 8.19421 6.08628 8.19421 6.22705 8.11069C6.36729 8.0277 6.45227 7.87493 6.45018 7.71V4.66517C6.45175 4.54148 6.4043 4.42254 6.31828 4.33532C6.23174 4.2481 6.11444 4.19999 5.99244 4.20211ZM5.99974 9.08017C5.66816 9.08017 5.39915 9.35294 5.39915 9.68914C5.39915 10.0253 5.66816 10.2981 5.99974 10.2981C6.33132 10.2981 6.60033 10.0253 6.60033 9.68914C6.60033 9.35294 6.33132 9.08017 5.99974 9.08017Z" fill="#FF3D00"/>
</svg>
