<svg width="20" height="20" viewBox="0 0 20 20" fill="none" xmlns="http://www.w3.org/2000/svg">
<path d="M6.66659 1.66699C6.16501 1.66699 5.71606 1.97732 5.54028 2.44661L2.16626 11.4456C1.97556 11.9556 2.35208 12.5003 2.89705 12.5003C3.22203 12.5003 3.51364 12.299 3.62785 11.9941L4.68742 9.16699H8.84432L9.57837 7.21061L7.79289 2.44661C7.61711 1.97732 7.16816 1.66699 6.66659 1.66699ZM6.66659 3.8903L8.02075 7.50033H5.31242L6.66659 3.8903ZM13.3333 4.16699C12.8317 4.16699 12.3827 4.47732 12.207 4.94661L8.83293 13.9456C8.64114 14.4556 9.01875 15.0003 9.56372 15.0003C9.8887 15.0003 10.1803 14.799 10.2945 14.4941L11.3541 11.667H15.3124L16.372 14.4941C16.4862 14.7982 16.7778 15.0003 17.1028 15.0003C17.6478 15.0003 18.0243 14.4556 17.8336 13.9456L14.4596 4.94661C14.2838 4.47732 13.8348 4.16699 13.3333 4.16699ZM13.3333 6.3903L14.6874 10.0003H11.9791L13.3333 6.3903ZM9.16659 16.667C8.70652 16.667 8.33325 17.0403 8.33325 17.5003C8.33325 17.9604 8.70652 18.3337 9.16659 18.3337H17.4999C17.96 18.3337 18.3333 17.9604 18.3333 17.5003C18.3333 17.0403 17.96 16.667 17.4999 16.667H9.16659Z" fill="white"/>
</svg>
