<svg width="15" height="19" viewBox="0 0 15 19" fill="none" xmlns="http://www.w3.org/2000/svg">
<path d="M6.78902 12.1698H0.157715L6.78902 5.94727V12.1698Z" fill="#333333"/>
<path d="M6.78902 18.4999L0.157715 12.1699H6.78902V18.4999Z" fill="#333333"/>
<path d="M12.661 9.18408C12.8156 8.74821 13.228 8.43408 13.717 8.43408C14.338 8.43408 14.8419 8.93799 14.8419 9.55908C14.8419 10.1802 14.338 10.6841 13.717 10.6841C13.228 10.6841 12.8163 10.37 12.661 9.93408H6.59225V12.1841H9.96711C10.1741 12.1841 10.3421 12.352 10.3421 12.5591V15.2531C10.778 15.4077 11.0921 15.8201 11.0921 16.3091C11.0921 16.9302 10.5882 17.4341 9.96711 17.4341C9.34604 17.4341 8.84216 16.9302 8.84216 16.3091C8.84216 15.8201 9.15627 15.4084 9.59213 15.2531V12.9341H6.59225H5.84229V6.18408H6.59225H10.3421V3.86507C9.90624 3.71045 9.59213 3.29801 9.59213 2.80908C9.59213 2.18799 10.096 1.68408 10.7171 1.68408C11.3382 1.68408 11.842 2.18799 11.842 2.80908C11.842 3.29801 11.5279 3.7098 11.0921 3.86507V6.55908C11.0921 6.76611 10.9241 6.93408 10.7171 6.93408H6.59225V9.18408H12.661Z" fill="#333333"/>
<path d="M6.79048 6.90993H0.15918L6.79048 0.5V6.90993Z" fill="#333333"/>
<path d="M6.78902 13.2896L0.157715 6.91016H6.78902V13.2896Z" fill="#333333"/>
</svg>
