<svg width="17" height="21" viewBox="0 0 17 21" fill="none" xmlns="http://www.w3.org/2000/svg">
<path d="M7.93805 13.3325H0.830078L7.93805 6.6626V13.3325Z" fill="#333333"/>
<path d="M7.93805 20.1175L0.830078 13.3325H7.93805V20.1175Z" fill="#333333"/>
<path d="M14.2322 10.1319C14.3979 9.66468 14.84 9.32798 15.3641 9.32798C16.0298 9.32798 16.5699 9.8681 16.5699 10.5338C16.5699 11.1996 16.0298 11.7397 15.3641 11.7397C14.84 11.7397 14.3986 11.403 14.2322 10.9358H7.72722V13.3475H11.3447C11.5666 13.3475 11.7466 13.5276 11.7466 13.7495V16.6372C12.2138 16.8029 12.5505 17.245 12.5505 17.769C12.5505 18.4348 12.0104 18.9749 11.3447 18.9749C10.679 18.9749 10.1389 18.4348 10.1389 17.769C10.1389 17.245 10.4755 16.8036 10.9427 16.6372V14.1514H7.72722H6.92334V6.91624H7.72722H11.7466V4.43054C11.2794 4.2648 10.9427 3.82272 10.9427 3.29864C10.9427 2.6329 11.4828 2.09277 12.1485 2.09277C12.8143 2.09277 13.3544 2.6329 13.3544 3.29864C13.3544 3.82272 13.0177 4.2641 12.5505 4.43054V7.3182C12.5505 7.54011 12.3705 7.72015 12.1485 7.72015H7.72722V10.1319H14.2322Z" fill="#333333"/>
<path d="M7.93952 7.69442H0.831543L7.93952 0.82373V7.69442Z" fill="#333333"/>
<path d="M7.93805 14.5324L0.830078 7.69434H7.93805V14.5324Z" fill="#333333"/>
</svg>
