<svg width="24" height="24" viewBox="0 0 24 24" fill="none" xmlns="http://www.w3.org/2000/svg">
<path d="M12 3.27246C7.18786 3.27246 3.27271 7.18761 3.27271 11.9997C3.27271 16.8119 7.18786 20.727 12 20.727C16.8121 20.727 20.7273 16.8119 20.7273 11.9997C20.7273 7.18761 16.8121 3.27246 12 3.27246ZM12 4.58155C12.3197 4.58155 12.6439 4.71489 13.0007 5.04292C13.3568 5.37095 13.7182 5.8914 14.0273 6.56489C14.2765 7.10579 14.4598 7.80049 14.6273 8.50882H9.37271C9.54013 7.80049 9.72346 7.10579 9.97271 6.56489C10.2818 5.8914 10.6432 5.37095 10.9992 5.04292C11.356 4.71489 11.6803 4.58155 12 4.58155ZM9.28483 5.09973C9.10452 5.38307 8.93483 5.68686 8.78255 6.01867C8.45074 6.7414 8.20149 7.5967 8.00755 8.50882H5.45301C6.27801 6.96034 7.63634 5.7467 9.28483 5.09973ZM14.7151 5.09973C16.3636 5.7467 17.7219 6.96034 18.5469 8.50882H15.9924C15.7985 7.5967 15.5492 6.7414 15.2174 6.01867C15.0651 5.68686 14.8954 5.38307 14.7151 5.09973ZM4.90831 9.81792H7.83786C7.74771 10.53 7.63634 11.2285 7.63634 11.9997C7.63634 12.7709 7.74771 13.4694 7.83786 14.1816H4.90831C4.69695 13.4922 4.5818 12.7596 4.5818 11.9997C4.5818 11.2399 4.69695 10.5073 4.90831 9.81792ZM9.14922 9.81792H14.8507C14.9485 10.5217 15.0545 11.2232 15.0545 11.9997C15.0545 12.7762 14.9485 13.4778 14.8507 14.1816H9.14922C9.05149 13.4778 8.94543 12.7762 8.94543 11.9997C8.94543 11.2232 9.05149 10.5217 9.14922 9.81792ZM16.1621 9.81792H19.0916C19.303 10.5073 19.4182 11.2399 19.4182 11.9997C19.4182 12.7596 19.303 13.4922 19.0916 14.1816H16.1621C16.2523 13.4694 16.3636 12.7709 16.3636 11.9997C16.3636 11.2285 16.2523 10.53 16.1621 9.81792ZM5.45301 15.4906H8.00755C8.20149 16.4028 8.45074 17.2581 8.78255 17.9808C8.93483 18.3126 9.10452 18.6164 9.28483 18.8997C7.63634 18.2528 6.27801 17.0391 5.45301 15.4906ZM9.37271 15.4906H14.6273C14.4598 16.199 14.2765 16.8937 14.0273 17.4346C13.7182 18.1081 13.3568 18.6285 13.0007 18.9566C12.6439 19.2846 12.3197 19.4179 12 19.4179C11.6803 19.4179 11.356 19.2846 10.9992 18.9566C10.6432 18.6285 10.2818 18.1081 9.97271 17.4346C9.72346 16.8937 9.54013 16.199 9.37271 15.4906ZM15.9924 15.4906H18.5469C17.7219 17.0391 16.3636 18.2528 14.7151 18.8997C14.8954 18.6164 15.0651 18.3126 15.2174 17.9808C15.5492 17.2581 15.7985 16.4028 15.9924 15.4906Z" fill="#222222"/>
</svg>
