<svg width="24" height="24" viewBox="0 0 24 24" fill="none" xmlns="http://www.w3.org/2000/svg">
<path d="M12 3.27246C7.18792 3.27246 3.27277 7.18761 3.27277 11.9997C3.27277 16.8119 7.18792 20.727 12 20.727C16.8122 20.727 20.7273 16.8119 20.7273 11.9997C20.7273 7.18761 16.8122 3.27246 12 3.27246ZM12 4.58155C12.3197 4.58155 12.644 4.71489 13.0008 5.04292C13.3569 5.37095 13.7182 5.8914 14.0273 6.56489C14.2766 7.10579 14.4599 7.80049 14.6273 8.50882H9.37277C9.54019 7.80049 9.72353 7.10579 9.97277 6.56489C10.2819 5.8914 10.6432 5.37095 10.9993 5.04292C11.3561 4.71489 11.6803 4.58155 12 4.58155ZM9.28489 5.09973C9.10459 5.38307 8.93489 5.68686 8.78262 6.01867C8.4508 6.7414 8.20156 7.5967 8.00762 8.50882H5.45307C6.27807 6.96034 7.63641 5.7467 9.28489 5.09973ZM14.7152 5.09973C16.3637 5.7467 17.722 6.96034 18.547 8.50882H15.9925C15.7985 7.5967 15.5493 6.7414 15.2175 6.01867C15.0652 5.68686 14.8955 5.38307 14.7152 5.09973ZM4.90838 9.81792H7.83792C7.74777 10.53 7.63641 11.2285 7.63641 11.9997C7.63641 12.7709 7.74777 13.4694 7.83792 14.1816H4.90838C4.69701 13.4922 4.58186 12.7596 4.58186 11.9997C4.58186 11.2399 4.69701 10.5073 4.90838 9.81792ZM9.14929 9.81792H14.8508C14.9485 10.5217 15.0546 11.2232 15.0546 11.9997C15.0546 12.7762 14.9485 13.4778 14.8508 14.1816H9.14929C9.05156 13.4778 8.9455 12.7762 8.9455 11.9997C8.9455 11.2232 9.05156 10.5217 9.14929 9.81792ZM16.1622 9.81792H19.0917C19.3031 10.5073 19.4182 11.2399 19.4182 11.9997C19.4182 12.7596 19.3031 13.4922 19.0917 14.1816H16.1622C16.2523 13.4694 16.3637 12.7709 16.3637 11.9997C16.3637 11.2285 16.2523 10.53 16.1622 9.81792ZM5.45307 15.4906H8.00762C8.20156 16.4028 8.4508 17.2581 8.78262 17.9808C8.93489 18.3126 9.10459 18.6164 9.28489 18.8997C7.63641 18.2528 6.27807 17.0391 5.45307 15.4906ZM9.37277 15.4906H14.6273C14.4599 16.199 14.2766 16.8937 14.0273 17.4346C13.7182 18.1081 13.3569 18.6285 13.0008 18.9566C12.644 19.2846 12.3197 19.4179 12 19.4179C11.6803 19.4179 11.3561 19.2846 10.9993 18.9566C10.6432 18.6285 10.2819 18.1081 9.97277 17.4346C9.72353 16.8937 9.54019 16.199 9.37277 15.4906ZM15.9925 15.4906H18.547C17.722 17.0391 16.3637 18.2528 14.7152 18.8997C14.8955 18.6164 15.0652 18.3126 15.2175 17.9808C15.5493 17.2581 15.7985 16.4028 15.9925 15.4906Z" fill="white"/>
</svg>
