<svg width="24" height="24" viewBox="0 0 24 24" fill="none" xmlns="http://www.w3.org/2000/svg">
<path d="M17.7178 4.34488C17.133 4.35348 16.6649 4.83508 16.6735 5.42111V8.78495C16.655 8.89921 16.655 9.01592 16.6735 9.12895V14.6207C16.6686 15.004 16.8688 15.359 17.1993 15.5519C17.531 15.7461 17.9389 15.7461 18.2706 15.5519C18.6011 15.359 18.8014 15.004 18.7965 14.6207V10.0209H19.8579C20.2413 10.0258 20.5963 9.82555 20.7892 9.49507C20.9833 9.16335 20.9833 8.75546 20.7892 8.42375C20.5963 8.09326 20.2413 7.89301 19.8579 7.89792H18.7965V5.42111C18.8001 5.13363 18.6883 4.8572 18.4856 4.65448C18.2817 4.45177 18.0053 4.33997 17.7178 4.34488ZM9.95072 4.35963C9.5674 4.35471 9.21235 4.55497 9.01946 4.88546C8.82535 5.21717 8.82535 5.62506 9.01946 5.95677C9.21235 6.28726 9.5674 6.48752 9.95072 6.4826H13.1352V7.19026C13.1352 8.07606 12.7359 8.85375 12.1056 9.37466C11.6535 9.74692 11.5884 10.4165 11.9619 10.8686C12.3354 11.3207 13.005 11.3858 13.4571 11.0124C14.5566 10.1044 15.2582 8.72106 15.2582 7.19026V5.42111C15.2582 4.83508 14.7827 4.35963 14.1967 4.35963H9.95072ZM8.53908 7.89792C8.09926 7.89546 7.70243 8.16698 7.54394 8.57855L4.00565 17.7781C3.79556 18.3248 4.0683 18.9391 4.61625 19.1504C5.16296 19.3605 5.77725 19.0878 5.98856 18.5398L6.81417 16.3898H10.2566L11.0822 18.5398C11.2935 19.0878 11.9078 19.3605 12.4546 19.1504C13.0025 18.9391 13.2752 18.3248 13.0652 17.7781L9.52686 8.57855C9.3696 8.16943 8.97769 7.89915 8.53908 7.89792ZM8.5354 11.9178L9.43963 14.2668H7.63117L8.5354 11.9178Z" fill="white"/>
</svg>
