<svg width="20" height="20" viewBox="0 0 20 20" fill="none" xmlns="http://www.w3.org/2000/svg">
<path d="M18.6667 10.3333C18.6667 14.9357 14.9357 18.6667 10.3333 18.6667C5.73101 18.6667 2 14.9357 2 10.3333C2 5.73101 5.73101 2 10.3333 2C14.9357 2 18.6667 5.73101 18.6667 10.3333Z" fill="#2D2D37"/>
<path d="M13 7.5C13 8.88075 11.8808 10 10.5 10C9.11925 10 8 8.88075 8 7.5C8 6.11925 9.11925 5 10.5 5C11.8808 5 13 6.11925 13 7.5Z" fill="white"/>
<path d="M15 12.4271C14.7635 11.6039 14.0414 11 13.1771 11H7.82286C6.95861 11 6.23654 11.6039 6 12.4271C6.95239 13.9737 8.60992 15 10.5 15C12.3901 15 14.0476 13.9737 15 12.4271Z" fill="white"/>
</svg>
