<svg width="20" height="19" viewBox="0 0 20 19" fill="none" xmlns="http://www.w3.org/2000/svg">
<path d="M9.72059 1.26709C7.97885 1.26709 6.55392 2.69201 6.55392 4.43372V9.18367C6.55392 10.9254 7.97885 12.3503 9.72059 12.3503C11.4623 12.3503 12.8873 10.9254 12.8873 9.18367V4.43372C12.8873 2.69201 11.4623 1.26709 9.72059 1.26709ZM9.72059 2.45458C10.8208 2.45458 11.6998 3.33351 11.6998 4.43372V9.18367C11.6998 10.2839 10.8208 11.1628 9.72059 11.1628C8.62036 11.1628 7.74142 10.2839 7.74142 9.18367V4.43372C7.74142 3.33351 8.62036 2.45458 9.72059 2.45458ZM3.97173 8.58203C3.64427 8.58718 3.38313 8.85622 3.38726 9.18367C3.38726 12.4637 5.92753 15.0816 9.12684 15.3963V17.2982C9.12375 17.5122 9.23645 17.7115 9.42131 17.8194C9.60617 17.9273 9.83501 17.9273 10.0199 17.8194C10.2047 17.7115 10.3174 17.5122 10.3143 17.2982V15.3963C13.5136 15.0816 16.0539 12.4637 16.0539 9.18367C16.057 8.96961 15.9443 8.77032 15.7595 8.66243C15.5746 8.55454 15.3458 8.55454 15.1609 8.66243C14.976 8.77032 14.8633 8.96961 14.8664 9.18367C14.8664 12.0211 12.5859 14.3047 9.75323 14.3233C9.73158 14.3222 9.70959 14.3222 9.68795 14.3233C6.85526 14.3047 4.57476 12.0211 4.57476 9.18367C4.57682 9.02321 4.51394 8.86893 4.4002 8.75554C4.28681 8.64216 4.13219 8.57962 3.97173 8.58203Z" fill="#333333"/>
</svg>
