<svg width="20" height="19" viewBox="0 0 20 19" fill="none" xmlns="http://www.w3.org/2000/svg">
<path d="M9.72083 1.26709C7.9791 1.26709 6.55417 2.69201 6.55417 4.43372V9.18367C6.55417 10.9254 7.9791 12.3503 9.72083 12.3503C11.4626 12.3503 12.8875 10.9254 12.8875 9.18367V4.43372C12.8875 2.69201 11.4626 1.26709 9.72083 1.26709ZM9.72083 2.45458C10.8211 2.45458 11.7 3.33351 11.7 4.43372V9.18367C11.7 10.2839 10.8211 11.1628 9.72083 11.1628C8.62061 11.1628 7.74167 10.2839 7.74167 9.18367V4.43372C7.74167 3.33351 8.62061 2.45458 9.72083 2.45458ZM3.97197 8.58203C3.64452 8.58718 3.38338 8.85622 3.3875 9.18367C3.3875 12.4637 5.92777 15.0816 9.12708 15.3963V17.2982C9.12399 17.5122 9.23669 17.7115 9.42155 17.8194C9.60641 17.9273 9.83525 17.9273 10.0201 17.8194C10.205 17.7115 10.3177 17.5122 10.3146 17.2982V15.3963C13.5139 15.0816 16.0542 12.4637 16.0542 9.18367C16.0573 8.96961 15.9446 8.77032 15.7597 8.66243C15.5748 8.55454 15.346 8.55454 15.1611 8.66243C14.9763 8.77032 14.8636 8.96961 14.8667 9.18367C14.8667 12.0211 12.5862 14.3047 9.75347 14.3233C9.73183 14.3222 9.70984 14.3222 9.68819 14.3233C6.85551 14.3047 4.575 12.0211 4.575 9.18367C4.57706 9.02321 4.51418 8.86893 4.40045 8.75554C4.28706 8.64216 4.13244 8.57962 3.97197 8.58203Z" fill="white"/>
</svg>
