<svg width="20" height="20" viewBox="0 0 20 20" fill="none" xmlns="http://www.w3.org/2000/svg">
<path d="M10 1.6665C8.61929 1.6665 7.50004 2.78575 7.50004 4.1665V9.1665C7.50004 10.5473 8.61929 11.6665 10 11.6665C11.3808 11.6665 12.5 10.5473 12.5 9.1665V4.1665C12.5 2.78575 11.3808 1.6665 10 1.6665ZM5.07328 9.1665C4.56818 9.1665 4.16128 9.61464 4.24321 10.1138C4.65119 12.6138 6.65097 14.5739 9.16671 14.9347V16.6665C9.16671 17.1266 9.53997 17.4998 10 17.4998C10.4601 17.4998 10.8334 17.1266 10.8334 16.6665V14.9347C13.3491 14.5739 15.3489 12.6138 15.7569 10.1138C15.8388 9.61464 15.4319 9.1665 14.9268 9.1665C14.515 9.1665 14.1754 9.46924 14.1065 9.87614C13.769 11.8385 12.059 13.3332 10 13.3332C7.94112 13.3332 6.23105 11.8385 5.8936 9.87614C5.82469 9.46924 5.48561 9.1665 5.07328 9.1665Z" fill="white"/>
</svg>
