<svg width="20" height="4" viewBox="0 0 20 4" fill="none" xmlns="http://www.w3.org/2000/svg">
<path fill-rule="evenodd" clip-rule="evenodd" d="M4.55301 1.81764C4.55301 2.8215 3.73922 3.63528 2.73537 3.63528C1.73151 3.63528 0.917725 2.8215 0.917725 1.81764C0.917725 0.813785 1.73151 0 2.73537 0C3.73922 0 4.55301 0.813785 4.55301 1.81764ZM11.8236 1.81764C11.8236 2.8215 11.0099 3.63528 10.006 3.63528C9.00215 3.63528 8.18836 2.8215 8.18836 1.81764C8.18836 0.813786 9.00215 0 10.006 0C11.0099 0 11.8236 0.813786 11.8236 1.81764ZM17.2765 3.63528C18.2804 3.63528 19.0942 2.8215 19.0942 1.81764C19.0942 0.813786 18.2804 0 17.2765 0C16.2727 0 15.4589 0.813786 15.4589 1.81764C15.4589 2.8215 16.2727 3.63528 17.2765 3.63528Z" fill="#F9F9F9"/>
</svg>
