<svg width="20" height="4" viewBox="0 0 20 4" fill="none" xmlns="http://www.w3.org/2000/svg">
<path fill-rule="evenodd" clip-rule="evenodd" d="M4.55325 1.81764C4.55325 2.8215 3.73946 3.63528 2.73561 3.63528C1.73175 3.63528 0.917969 2.8215 0.917969 1.81764C0.917969 0.813785 1.73175 0 2.73561 0C3.73946 0 4.55325 0.813785 4.55325 1.81764ZM11.8239 1.81764C11.8239 2.8215 11.0101 3.63528 10.0062 3.63528C9.00239 3.63528 8.18861 2.8215 8.18861 1.81764C8.18861 0.813786 9.00239 0 10.0062 0C11.0101 0 11.8239 0.813786 11.8239 1.81764ZM17.2768 3.63528C18.2806 3.63528 19.0944 2.8215 19.0944 1.81764C19.0944 0.813786 18.2806 0 17.2768 0C16.2729 0 15.4591 0.813786 15.4591 1.81764C15.4591 2.8215 16.2729 3.63528 17.2768 3.63528Z" fill="#333333"/>
</svg>
