<svg width="24" height="24" viewBox="0 0 24 24" fill="none" xmlns="http://www.w3.org/2000/svg">
<path d="M18.4001 4.7998C18.842 4.7998 19.2001 5.15788 19.2001 5.5998C19.2001 5.60085 19.2001 5.60189 19.2001 5.60293V18.3967C19.2001 18.3977 19.2001 18.3988 19.2001 18.3998C19.2001 18.8417 18.842 19.1998 18.4001 19.1998C18.2298 19.1995 18.0639 19.1449 17.9266 19.0436H17.9251C17.9178 19.0378 17.9105 19.0321 17.9032 19.0264L9.16726 12.6732C8.9381 12.5258 8.79981 12.2722 8.80007 11.9998C8.80033 11.7331 8.93315 11.4842 9.15476 11.3357L17.9251 4.95605C18.0626 4.85449 18.2292 4.7998 18.4001 4.7998ZM6.00007 4.7998C6.66257 4.7998 7.20007 5.3373 7.20007 5.9998V17.9998C7.20007 18.6623 6.66257 19.1998 6.00007 19.1998C5.33757 19.1998 4.80007 18.6623 4.80007 17.9998V5.9998C4.80007 5.3373 5.33757 4.7998 6.00007 4.7998Z" fill="white"/>
</svg>
