<svg width="18" height="18" viewBox="0 0 18 18" fill="none" xmlns="http://www.w3.org/2000/svg">
<path d="M17.8594 1.96875C17.8594 0.956543 17.0435 0.140625 16.0312 0.140625H13.9219C13.6831 0.140625 13.5 0.32373 13.5 0.5625C13.5 0.80127 13.6831 0.984375 13.9219 0.984375H16.0312C16.5798 0.984375 17.0156 1.42017 17.0156 1.96875V4.07812C17.0156 4.31689 17.1987 4.5 17.4375 4.5C17.6763 4.5 17.8594 4.31689 17.8594 4.07812V1.96875ZM0.5625 4.5C0.80127 4.5 0.984375 4.31689 0.984375 4.07812V1.96875C0.984375 1.42017 1.42017 0.984375 1.96875 0.984375H4.07812C4.31689 0.984375 4.5 0.80127 4.5 0.5625C4.5 0.32373 4.31689 0.140625 4.07812 0.140625H1.96875C0.956543 0.140625 0.140625 0.956543 0.140625 1.96875V4.07812C0.140625 4.31689 0.32373 4.5 0.5625 4.5ZM1.96875 17.8594H4.07812C4.31689 17.8594 4.5 17.6763 4.5 17.4375C4.5 17.1987 4.31689 17.0156 4.07812 17.0156H1.96875C1.42017 17.0156 0.984375 16.5798 0.984375 16.0312V13.9219C0.984375 13.6831 0.80127 13.5 0.5625 13.5C0.32373 13.5 0.140625 13.6831 0.140625 13.9219V16.0312C0.140625 17.0435 0.956543 17.8594 1.96875 17.8594ZM17.8594 16.0312V13.9219C17.8594 13.6831 17.6763 13.5 17.4375 13.5C17.1987 13.5 17.0156 13.6831 17.0156 13.9219V16.0312C17.0156 16.5798 16.5798 17.0156 16.0312 17.0156H13.9219C13.6831 17.0156 13.5 17.1987 13.5 17.4375C13.5 17.6763 13.6831 17.8594 13.9219 17.8594H16.0312C17.0435 17.8594 17.8594 17.0435 17.8594 16.0312ZM14.625 11.3906H11.8125C11.5737 11.3906 11.3906 11.5737 11.3906 11.8125V14.625C11.3906 14.8638 11.5737 15.0469 11.8125 15.0469H14.625C14.8638 15.0469 15.0469 14.8638 15.0469 14.625V11.8125C15.0469 11.5737 14.8638 11.3906 14.625 11.3906ZM14.2031 14.2031H12.2344V12.2344H14.2031V14.2031ZM8.15625 15.0469C8.39502 15.0469 8.57812 14.8638 8.57812 14.625V13.6406H9.84375C10.0825 13.6406 10.2656 13.4575 10.2656 13.2188V10.4062C10.2656 10.1675 10.0825 9.98438 9.84375 9.98438C9.60498 9.98438 9.42188 10.1675 9.42188 10.4062V12.7969H8.15625C7.91748 12.7969 7.73438 12.98 7.73438 13.2188V14.625C7.73438 14.8638 7.91748 15.0469 8.15625 15.0469ZM14.625 6.60938C14.8638 6.60938 15.0469 6.42627 15.0469 6.1875V3.375C15.0469 3.13623 14.8638 2.95312 14.625 2.95312H11.8125C11.5737 2.95312 11.3906 3.13623 11.3906 3.375V6.1875C11.3906 6.42627 11.5737 6.60938 11.8125 6.60938H14.625ZM12.2344 3.79688H14.2031V5.76562H12.2344V3.79688ZM3.375 6.60938H6.1875C6.42627 6.60938 6.60938 6.42627 6.60938 6.1875V3.375C6.60938 3.13623 6.42627 2.95312 6.1875 2.95312H3.375C3.13623 2.95312 2.95312 3.13623 2.95312 3.375V6.1875C2.95312 6.42627 3.13623 6.60938 3.375 6.60938ZM3.79688 3.79688H5.76562V5.76562H3.79688V3.79688ZM3.375 9.42188H4.07812C4.31689 9.42188 4.5 9.23877 4.5 9C4.5 8.76123 4.31689 8.57812 4.07812 8.57812H3.375C3.13623 8.57812 2.95312 8.76123 2.95312 9C2.95312 9.23877 3.13623 9.42188 3.375 9.42188ZM8.15625 9.42188C8.39502 9.42188 8.57812 9.23877 8.57812 9V6.60938H9.84375C10.0825 6.60938 10.2656 6.42627 10.2656 6.1875V3.375C10.2656 3.13623 10.0825 2.95312 9.84375 2.95312C9.60498 2.95312 9.42188 3.13623 9.42188 3.375V5.76562H8.15625C7.91748 5.76562 7.73438 5.94873 7.73438 6.1875V8.57812H6.89062C6.65186 8.57812 6.46875 8.76123 6.46875 9C6.46875 9.23877 6.65186 9.42188 6.89062 9.42188H8.15625ZM10.6875 8.15625C10.6875 8.39502 10.8706 8.57812 11.1094 8.57812H12.375V9.84375C12.375 10.0825 12.5581 10.2656 12.7969 10.2656H14.625C14.8638 10.2656 15.0469 10.0825 15.0469 9.84375C15.0469 9.60498 14.8638 9.42188 14.625 9.42188H13.2188V8.15625C13.2188 7.91748 13.0356 7.73438 12.7969 7.73438H11.1094C10.8706 7.73438 10.6875 7.91748 10.6875 8.15625ZM6.60938 14.625V11.8125C6.60938 11.5737 6.42627 11.3906 6.1875 11.3906H3.375C3.13623 11.3906 2.95312 11.5737 2.95312 11.8125V14.625C2.95312 14.8638 3.13623 15.0469 3.375 15.0469H6.1875C6.42627 15.0469 6.60938 14.8638 6.60938 14.625ZM5.76562 14.2031H3.79688V12.2344H5.76562V14.2031Z" fill="white"/>
</svg>
