<svg width="226" height="225" viewBox="0 0 226 225" fill="none" xmlns="http://www.w3.org/2000/svg">
<path d="M0 49V21C1.03088e-06 9.40202 9.40202 0 21 0H49C50.6569 0 52 1.34315 52 3C52 4.65685 50.6569 6 49 6H21C12.7157 6 6 12.7157 6 21V49C6 50.6569 4.65685 52 3 52C1.34315 52 0 50.6569 0 49Z" fill="#EBEBEB" fill-opacity="0.8"/>
<path d="M0 176V204C1.03088e-06 215.598 9.40202 225 21 225H49C50.6569 225 52 223.657 52 222C52 220.343 50.6569 219 49 219H21C12.7157 219 6 212.284 6 204V176C6 174.343 4.65685 173 3 173C1.34315 173 0 174.343 0 176Z" fill="#EBEBEB" fill-opacity="0.8"/>
<path d="M226 49V21C226 9.40202 216.598 0 205 0H177C175.343 0 174 1.34315 174 3C174 4.65685 175.343 6 177 6H205C213.284 6 220 12.7157 220 21V49C220 50.6569 221.343 52 223 52C224.657 52 226 50.6569 226 49Z" fill="#EBEBEB" fill-opacity="0.8"/>
<path d="M226 176V204C226 215.598 216.598 225 205 225H177C175.343 225 174 223.657 174 222C174 220.343 175.343 219 177 219H205C213.284 219 220 212.284 220 204V176C220 174.343 221.343 173 223 173C224.657 173 226 174.343 226 176Z" fill="#EBEBEB" fill-opacity="0.8"/>
</svg>
