<svg width="20" height="20" viewBox="0 0 20 20" fill="none" xmlns="http://www.w3.org/2000/svg">
<path d="M6.50024 4.96777C5.89403 4.96777 5.35143 5.34284 5.13898 5.91003L1.06111 16.7863C0.829319 17.4027 1.28569 18.061 1.94436 18.061C2.33713 18.061 2.68957 17.8177 2.8276 17.4492L4.1082 14.0323H8.89227L10.1729 17.4492C10.3109 17.8168 10.6633 18.061 11.0561 18.061C11.7148 18.061 12.1698 17.4027 11.9394 16.7863L7.86149 5.91003C7.64904 5.34284 7.10644 4.96777 6.50024 4.96777ZM6.50024 7.65488L8.13689 12.018H4.86358L6.50024 7.65488Z" fill="white"/>
<path d="M12.8851 1.71504C12.6679 1.78043 12.5081 1.96595 12.4758 2.19052C12.4434 2.41516 12.5442 2.63804 12.7341 2.76225C14.091 3.67699 15.1639 5.02209 15.707 6.69352C16.2117 8.24682 16.181 9.84086 15.7254 11.2936C15.6534 11.4951 15.6976 11.7196 15.8403 11.8789C15.9829 12.0383 16.2013 12.1069 16.4095 12.0574C16.6176 12.0082 16.7821 11.8489 16.8381 11.6426C17.3624 9.97085 17.3986 8.12357 16.8168 6.33292C16.1908 4.40625 14.9479 2.84777 13.3869 1.79525C13.2407 1.69318 13.0558 1.66378 12.8851 1.71504ZM10.4758 4.30484C10.2487 4.37321 10.0858 4.57235 10.0632 4.80835C10.0409 5.04447 10.1635 5.27064 10.3735 5.38053C11.2941 5.87685 12.0299 6.70561 12.3775 7.77534C12.6882 8.73163 12.635 9.71489 12.2977 10.5872C12.2149 10.7832 12.2452 11.0088 12.377 11.1759C12.5088 11.343 12.7212 11.4251 12.9311 11.3901C13.1411 11.355 13.3152 11.2086 13.3858 11.0077C13.8153 9.89696 13.8831 8.63277 13.4873 7.41474C13.0444 6.05165 12.0988 4.98471 10.9277 4.35332C10.7897 4.27671 10.6267 4.2592 10.4758 4.30484Z" fill="white" stroke="white" stroke-width="0.2"/>
</svg>
