<svg width="18" height="18" viewBox="0 0 18 18" fill="none" xmlns="http://www.w3.org/2000/svg">
<g clip-path="url(#clip0_4656_2432)">
<path d="M12.8742 9.35765C12.7924 9.35765 12.7088 9.38867 12.6407 9.45627L10.3519 11.7451H9.3992C8.87275 11.7451 8.44647 12.1713 8.44647 12.6978V13.6505C8.44647 14.177 8.87275 14.6032 9.3992 14.6032H10.3519L12.6407 16.892C12.7088 16.9601 12.7924 16.9907 12.8742 16.9907C13.0457 16.9907 13.2101 16.8576 13.2101 16.6566V9.69167C13.2101 9.4907 13.0457 9.35765 12.8742 9.35765ZM15.5631 10.3346C15.3688 10.3343 15.1939 10.4518 15.1208 10.6318C15.0478 10.8119 15.0914 11.0183 15.2309 11.1533C16.3513 12.2737 16.3511 14.0751 15.2309 15.195C15.1064 15.3145 15.0563 15.4919 15.0999 15.6588C15.1433 15.8258 15.2737 15.9562 15.4408 15.9996C15.6076 16.0432 15.785 15.9931 15.9046 15.8686C17.389 14.3846 17.389 11.9642 15.9046 10.4797C15.8151 10.3871 15.6918 10.3349 15.5631 10.3346ZM14.2159 11.6827C14.022 11.6827 13.8476 11.8003 13.7746 11.9798C13.7017 12.1594 13.7448 12.3653 13.8837 12.5005C14.2601 12.8769 14.2601 13.4714 13.8837 13.8478C13.6973 14.0337 13.6972 14.3356 13.8831 14.522C14.0692 14.7082 14.3711 14.7084 14.5573 14.5223C15.2976 13.782 15.2976 12.5672 14.5573 11.8269C14.4677 11.7347 14.3444 11.6827 14.2159 11.6827Z" fill="#222222"/>
<path d="M11.6956 1.8418C13.6485 1.84193 14.927 2.70312 14.927 2.70312L15.1584 2.85938V8.95801C14.9456 9.00511 14.7441 9.08783 14.5618 9.20117C14.488 8.94036 14.3568 8.71402 14.1887 8.52734V3.50098C13.9219 3.34298 13.1261 2.91024 11.6956 2.91016C9.74402 2.91016 8.72771 3.83822 8.53735 4.02148V10.4873C8.1575 10.6355 7.82412 10.8766 7.5686 11.1855V4.02148C7.37824 3.83822 6.36194 2.91016 4.4104 2.91016C2.97781 2.91016 2.18203 3.34337 1.91626 3.50098V11.8994C2.47079 11.684 3.26181 11.4531 4.4104 11.4531C5.60779 11.4531 6.46424 11.7657 7.0979 12.1211C7.05182 12.3057 7.02566 12.4984 7.02563 12.6973V13.2529C6.47018 12.9063 5.58762 12.5205 4.4104 12.5205C2.70361 12.5205 1.67599 13.1379 1.66333 13.1455L0.94751 13.5732V2.85938L1.177 2.70312C1.177 2.70312 2.45664 1.84181 4.4104 1.8418C6.50996 1.8418 7.6703 2.77679 8.05298 3.11426C8.43586 2.77664 9.59635 1.8418 11.6956 1.8418Z" fill="#222222"/>
</g>
<defs>
<clipPath id="clip0_4656_2432">
<rect width="18" height="18" fill="white" transform="translate(0.000244141)"/>
</clipPath>
</defs>
</svg>
