<svg width="16" height="15" viewBox="0 0 16 15" fill="none" xmlns="http://www.w3.org/2000/svg">
<path d="M15.7831 12L9.28573 0.746419C9.01587 0.278971 8.5328 0 7.99276 0C7.45272 0 6.96965 0.278971 6.69979 0.746419L0.202393 12C-0.0674642 12.4674 -0.0674642 13.0254 0.202393 13.4935C0.472575 13.9606 0.955648 14.2396 1.49536 14.2396H14.4902C15.0299 14.2396 15.5129 13.9606 15.7831 13.4935C16.053 13.0254 16.053 12.4674 15.7831 12ZM7.43026 5.05208C7.43026 4.74154 7.68221 4.48958 7.99276 4.48958C8.3033 4.48958 8.55526 4.74154 8.55526 5.05208V8.42708C8.55526 8.73763 8.3033 8.98958 7.99276 8.98958C7.68221 8.98958 7.43026 8.73763 7.43026 8.42708V5.05208ZM7.99276 11.9896C7.57869 11.9896 7.24276 11.6536 7.24276 11.2396C7.24276 10.8255 7.57869 10.4896 7.99276 10.4896C8.40682 10.4896 8.74276 10.8255 8.74276 11.2396C8.74276 11.6536 8.40682 11.9896 7.99276 11.9896Z" fill="white"/>
</svg>
