<svg width="12" height="13" viewBox="0 0 12 13" fill="none" xmlns="http://www.w3.org/2000/svg">
<path d="M5.32622 0.375017C5.15712 0.373281 5 0.507656 5 0.69776V1.46772C2.4434 1.9396 0.5 4.18387 0.5 6.87502C0.5 9.90783 2.96719 12.375 6 12.375C9.03281 12.375 11.5 9.90783 11.5 6.87502C11.5 5.13509 10.6627 3.47901 9.26076 2.44533C9.03854 2.28127 8.72483 2.32884 8.56146 2.55071C8.39757 2.77311 8.44497 3.08647 8.66753 3.25054C9.81493 4.09654 10.5 5.45158 10.5 6.87502C10.5 9.35627 8.48125 11.375 6 11.375C3.51875 11.375 1.5 9.35627 1.5 6.87502C1.5 4.73786 2.99913 2.94776 5 2.49116V3.05227C5 3.30575 5.27917 3.46026 5.49358 3.32519L7.32917 2.16946C7.54618 2.033 7.54618 1.71651 7.32917 1.58005L5.49358 0.424843C5.4401 0.390989 5.38247 0.375537 5.32622 0.375017Z" fill="#00B134" stroke="#00B134" stroke-width="0.16"/>
</svg>
