<svg width="14" height="14" viewBox="0 0 14 14" fill="none" xmlns="http://www.w3.org/2000/svg">
<path d="M5.97917 1.75C3.64887 1.75 1.75 3.64887 1.75 5.97917C1.75 8.30946 3.64887 10.2083 5.97917 10.2083C6.98734 10.2083 7.91399 9.85236 8.64164 9.26042L11.5031 12.1219C11.613 12.2363 11.776 12.2819 11.929 12.2424C12.0824 12.2024 12.2024 12.0824 12.2424 11.929C12.2819 11.776 12.2363 11.613 12.1219 11.5031L9.26042 8.64164C9.85236 7.91399 10.2083 6.98734 10.2083 5.97917C10.2083 3.64887 8.30946 1.75 5.97917 1.75ZM5.97917 2.625C7.83702 2.625 9.33333 4.12131 9.33333 5.97917C9.33333 6.88404 8.97635 7.70182 8.39757 8.30389C8.36162 8.33022 8.33022 8.36162 8.30389 8.39757C7.70182 8.97635 6.88404 9.33333 5.97917 9.33333C4.12131 9.33333 2.625 7.83702 2.625 5.97917C2.625 4.12131 4.12131 2.625 5.97917 2.625Z" fill="white" fill-opacity="0.5"/>
</svg>
