<svg width="14" height="14" viewBox="0 0 14 14" fill="none" xmlns="http://www.w3.org/2000/svg">
<path d="M10.7895 1C9.57401 1 8.57895 1.99507 8.57895 3.21053C8.57895 3.39529 8.64145 3.56086 8.68531 3.733L4.89857 5.62719C4.49232 5.12884 3.89967 4.78947 3.21053 4.78947C1.99507 4.78947 1 5.78454 1 7C1 8.21546 1.99507 9.21053 3.21053 9.21053C3.89967 9.21053 4.49232 8.87116 4.89857 8.37281L8.68531 10.267C8.64145 10.4391 8.57895 10.6047 8.57895 10.7895C8.57895 12.0049 9.57401 13 10.7895 13C12.0049 13 13 12.0049 13 10.7895C13 9.57401 12.0049 8.57895 10.7895 8.57895C10.1003 8.57895 9.50768 8.91831 9.10143 9.41667L5.31469 7.52248C5.35855 7.35033 5.42105 7.18476 5.42105 7C5.42105 6.81524 5.35855 6.64967 5.31469 6.47752L9.10143 4.58333C9.50768 5.08169 10.1003 5.42105 10.7895 5.42105C12.0049 5.42105 13 4.42599 13 3.21053C13 1.99507 12.0049 1 10.7895 1ZM10.7895 1.94737C11.4929 1.94737 12.0526 2.50713 12.0526 3.21053C12.0526 3.91393 11.4929 4.47368 10.7895 4.47368C10.0861 4.47368 9.52632 3.91393 9.52632 3.21053C9.52632 2.50713 10.0861 1.94737 10.7895 1.94737ZM3.21053 5.73684C3.91393 5.73684 4.47368 6.2966 4.47368 7C4.47368 7.7034 3.91393 8.26316 3.21053 8.26316C2.50713 8.26316 1.94737 7.7034 1.94737 7C1.94737 6.2966 2.50713 5.73684 3.21053 5.73684ZM10.7895 9.52632C11.4929 9.52632 12.0526 10.0861 12.0526 10.7895C12.0526 11.4929 11.4929 12.0526 10.7895 12.0526C10.0861 12.0526 9.52632 11.4929 9.52632 10.7895C9.52632 10.0861 10.0861 9.52632 10.7895 9.52632Z" fill="#9595B5"/>
</svg>
