<svg width="18" height="18" viewBox="0 0 18 18" fill="none" xmlns="http://www.w3.org/2000/svg">
<path d="M13.5 1.5C12.8301 1.50078 12.1955 1.8002 11.7688 2.31641C11.3418 2.83281 11.1674 3.5123 11.2926 4.17051L5.95312 7.28457C5.54727 6.94023 5.03242 6.75078 4.5 6.75C3.25742 6.75 2.25 7.75742 2.25 9C2.25 10.2426 3.25742 11.25 4.5 11.25C5.03262 11.25 5.54805 11.0611 5.95449 10.7168L11.291 13.8295C11.1658 14.4879 11.3406 15.1678 11.7678 15.6842C12.1947 16.2006 12.8299 16.4996 13.5 16.5C14.7426 16.5 15.75 15.4926 15.75 14.25C15.75 13.0074 14.7426 12 13.5 12C12.9674 12 12.452 12.1889 12.0455 12.5332L6.70898 9.42051C6.76133 9.14258 6.76074 8.85723 6.70762 8.57949L12.0469 5.46543C12.4527 5.80977 12.9676 5.99922 13.5 6C14.7426 6 15.75 4.99258 15.75 3.75C15.75 2.50742 14.7426 1.5 13.5 1.5Z" fill="#EBEBEB"/>
</svg>
