<svg width="21" height="21" viewBox="0 0 21 21" fill="none" xmlns="http://www.w3.org/2000/svg">
<path d="M10.5 2.1665C5.90252 2.1665 2.16663 5.9024 2.16663 10.4998C2.16663 15.0973 5.90252 18.8332 10.5 18.8332C15.0974 18.8332 18.8333 15.0973 18.8333 10.4998C18.8333 5.9024 15.0974 2.1665 10.5 2.1665ZM10.5 2.99984C14.6471 2.99984 18 6.3527 18 10.4998C18 14.647 14.6471 17.9998 10.5 17.9998C6.35282 17.9998 2.99996 14.647 2.99996 10.4998C2.99996 6.3527 6.35282 2.99984 10.5 2.99984ZM7.99996 7.58317C7.76992 7.58317 7.58329 7.7698 7.58329 7.99984V12.9998C7.58329 13.2299 7.76992 13.4165 7.99996 13.4165H13C13.23 13.4165 13.4166 13.2299 13.4166 12.9998V7.99984C13.4166 7.7698 13.23 7.58317 13 7.58317H7.99996Z" fill="white"/>
</svg>
