<svg width="21" height="21" viewBox="0 0 21 21" fill="none" xmlns="http://www.w3.org/2000/svg">
<path d="M10.4998 2.1665C5.9024 2.1665 2.1665 5.9024 2.1665 10.4998C2.1665 15.0973 5.9024 18.8332 10.4998 18.8332C15.0973 18.8332 18.8332 15.0973 18.8332 10.4998C18.8332 5.9024 15.0973 2.1665 10.4998 2.1665ZM10.4998 2.99984C14.647 2.99984 17.9998 6.3527 17.9998 10.4998C17.9998 14.647 14.647 17.9998 10.4998 17.9998C6.3527 17.9998 2.99984 14.647 2.99984 10.4998C2.99984 6.3527 6.3527 2.99984 10.4998 2.99984ZM7.99984 7.58317C7.7698 7.58317 7.58317 7.7698 7.58317 7.99984V12.9998C7.58317 13.2299 7.7698 13.4165 7.99984 13.4165H12.9998C13.2299 13.4165 13.4165 13.2299 13.4165 12.9998V7.99984C13.4165 7.7698 13.2299 7.58317 12.9998 7.58317H7.99984Z" fill="#333333"/>
</svg>
