<svg width="21" height="20" viewBox="0 0 21 20" fill="none" xmlns="http://www.w3.org/2000/svg">
<path d="M10.5 0.5C5.25892 0.5 1 4.75892 1 10C1 15.2411 5.25892 19.5 10.5 19.5C15.7411 19.5 20 15.2411 20 10C20 4.75892 15.7411 0.5 10.5 0.5ZM10.5 1.45C15.2277 1.45 19.05 5.27227 19.05 10C19.05 14.7277 15.2277 18.55 10.5 18.55C5.77227 18.55 1.95 14.7277 1.95 10C1.95 5.27227 5.77227 1.45 10.5 1.45ZM7.65 6.675C7.38776 6.675 7.175 6.88776 7.175 7.15V12.85C7.175 13.1122 7.38776 13.325 7.65 13.325H13.35C13.6122 13.325 13.825 13.1122 13.825 12.85V7.15C13.825 6.88776 13.6122 6.675 13.35 6.675H7.65Z" fill="#FF3D00"/>
</svg>
