<svg width="20" height="20" viewBox="0 0 20 20" fill="none" xmlns="http://www.w3.org/2000/svg">
<path d="M4.93869 4.90555C2.23475 7.60949 2.23475 12.0136 4.93869 14.7175C7.64262 17.4214 12.0467 17.4214 14.7506 14.7175C15.7274 13.7407 16.3494 12.5387 16.6207 11.2827C16.6697 11.0575 16.6008 10.8232 16.4379 10.6603C16.275 10.4975 16.0411 10.4289 15.8159 10.478C14.0215 10.8656 12.0791 10.3708 10.6823 8.97392C9.28542 7.57708 8.79059 5.63472 9.17823 3.84027C9.22726 3.61508 9.1587 3.38116 8.99583 3.21829C8.83297 3.05543 8.59864 2.98646 8.37345 3.03548C7.11745 3.30679 5.91548 3.92876 4.93869 4.90555ZM5.89595 5.86282C6.44023 5.31854 7.08214 4.9633 7.75189 4.69241C7.66007 6.57827 8.28703 8.49321 9.725 9.93118C11.163 11.3692 13.0779 11.9961 14.9638 11.9043C14.6929 12.574 14.3376 13.216 13.7934 13.7602C11.6071 15.9465 8.0822 15.9465 5.89595 13.7602C3.7097 11.574 3.7097 8.04906 5.89595 5.86282Z" fill="white"/>
</svg>
