<svg width="20" height="20" viewBox="0 0 20 20" fill="none" xmlns="http://www.w3.org/2000/svg">
<path d="M13.2338 3.66608C13.0346 3.66868 12.8445 3.75005 12.7052 3.89327C12.5665 4.03583 12.4897 4.22852 12.4929 4.42772V5.18025H10.2549C9.98473 5.17699 9.73281 5.31891 9.59675 5.55261C9.46005 5.78631 9.46005 6.07469 9.59675 6.30839C9.73281 6.54209 9.98473 6.68401 10.2549 6.6801H13.1316C13.2032 6.69117 13.2767 6.69117 13.3483 6.6801H15.3195C14.9907 7.30439 14.5006 8.08426 13.4889 9.63879L12.2794 8.43513C12.0906 8.23984 11.8107 8.16172 11.5484 8.23073C11.286 8.30038 11.081 8.50609 11.0133 8.76908C10.9456 9.03208 11.025 9.3107 11.2216 9.49818L12.5574 10.8255C11.6643 12.0858 10.8219 13.421 9.76535 14.3792C9.55834 14.5563 9.46395 14.8329 9.51929 15.1005C9.57397 15.368 9.77056 15.5842 10.0316 15.6649C10.2926 15.7456 10.5765 15.6786 10.7731 15.4891C11.8973 14.4697 12.7123 13.1495 13.6237 11.886L15.7036 13.9574C15.9978 14.249 16.4737 14.2471 16.7653 13.9528C17.0576 13.6579 17.0556 13.1827 16.7614 12.8904L14.5611 10.7025C15.9763 8.56077 16.9144 6.94505 17.0452 6.6801H17.7398C18.01 6.68401 18.2613 6.54209 18.398 6.30839C18.534 6.07469 18.534 5.78631 18.398 5.55261C18.2613 5.31891 18.01 5.17699 17.7398 5.18025H13.9928V4.42772C13.9961 4.22527 13.9173 4.02997 13.7741 3.88676C13.6315 3.74354 13.4362 3.66347 13.2338 3.66608ZM3.24777 5.17765C2.97762 5.17374 2.72569 5.31565 2.58964 5.54935C2.45293 5.78305 2.45293 6.07209 2.58964 6.30579C2.72569 6.53949 2.97762 6.6814 3.24777 6.6775C4.45013 6.6775 5.2951 6.84805 5.75859 7.18135C6.04828 7.39032 6.25464 7.69562 6.37637 8.17735H4.24963C2.18733 8.17735 0.5 9.86468 0.5 11.927C0.5 13.9893 2.18733 15.6766 4.24963 15.6766H7.12955C7.34632 15.7118 7.56831 15.6493 7.73561 15.5067L7.74147 15.5041C7.75904 15.4891 7.77532 15.4735 7.79094 15.4572L7.7942 15.4507C7.81047 15.4351 7.82609 15.4188 7.84107 15.4012C7.97712 15.2339 8.03506 15.0165 7.99925 14.8036V9.25276C7.99925 9.19938 7.98884 9.15511 7.98754 9.10304C8.02594 8.94615 8.01292 8.78015 7.94978 8.63108C7.83391 7.45021 7.40621 6.52061 6.63415 5.96533C5.72865 5.31435 4.57121 5.17765 3.24777 5.17765ZM4.24963 9.6772H6.4994V14.1767H4.24963C2.99715 14.1767 1.99985 13.1795 1.99985 11.927C1.99985 10.6745 2.99715 9.6772 4.24963 9.6772Z" fill="white"/>
</svg>
