<svg width="20" height="20" viewBox="0 0 20 20" fill="none" xmlns="http://www.w3.org/2000/svg">
<path d="M11.25 2.1875C12.1115 2.1875 12.8125 2.88845 12.8125 3.75V4.6875H15.9375C16.2826 4.6875 16.5625 4.96745 16.5625 5.3125C16.5625 5.65755 16.2826 5.9375 15.9375 5.9375H15.2782L14.7522 15.4162C14.6966 16.4093 13.875 17.1875 12.8802 17.1875H7.11979C6.12543 17.1875 5.30339 16.4093 5.24783 15.4162L4.72179 5.9375H4.0625C3.71745 5.9375 3.4375 5.65755 3.4375 5.3125C3.4375 4.96745 3.71745 4.6875 4.0625 4.6875H7.1875V3.75C7.1875 2.88845 7.88845 2.1875 8.75 2.1875H11.25ZM11.25 3.4375H8.75C8.57747 3.4375 8.4375 3.57791 8.4375 3.75V4.6875H11.5625V3.75C11.5625 3.57791 11.4225 3.4375 11.25 3.4375ZM14.0271 5.9375H5.97287L6.49588 15.3468C6.51432 15.678 6.78819 15.9375 7.11979 15.9375H12.8802C13.2116 15.9375 13.4857 15.6782 13.5041 15.3472L14.0271 5.9375ZM10 7.26562C10.3021 7.26562 10.5469 7.51063 10.5469 7.8125V14.0625C10.5469 14.3644 10.3021 14.6094 10 14.6094C9.69792 14.6094 9.45312 14.3644 9.45312 14.0625V7.8125C9.45312 7.51063 9.69792 7.26562 10 7.26562ZM12.2993 7.26628C12.6007 7.27691 12.8368 7.52951 12.8266 7.83138L12.6087 14.1083C12.5983 14.4036 12.3555 14.6363 12.0623 14.6363C12.0558 14.6363 12.0495 14.6363 12.0428 14.6363C11.7413 14.6257 11.5052 14.3724 11.5154 14.0705L11.7335 7.79362C11.7439 7.49197 11.998 7.25911 12.2993 7.26628ZM7.70139 7.26628C8.00369 7.25781 8.25608 7.49197 8.26649 7.79362L8.48459 14.0705C8.49523 14.3724 8.25911 14.6257 7.95725 14.6363C7.95052 14.6365 7.94423 14.6363 7.93772 14.6363C7.64453 14.6363 7.40169 14.4036 7.39128 14.1083L7.17339 7.83138C7.16276 7.52951 7.39952 7.27691 7.70139 7.26628Z" fill="#222222"/>
</svg>
