<svg width="12" height="12" viewBox="0 0 12 12" fill="none" xmlns="http://www.w3.org/2000/svg">
<path d="M6 0C2.9477 0 0.420356 2.29362 0.0507812 5.2513C0.014974 5.49089 0.111979 5.7309 0.303819 5.87847C0.495877 6.02604 0.752821 6.05794 0.975043 5.96181C1.19727 5.86545 1.34983 5.65647 1.3737 5.41536C1.66146 3.11306 3.6135 1.33333 6 1.33333C7.34288 1.33333 8.5434 1.89996 9.39193 2.80339L8.09766 4.09766C7.96767 4.22765 7.96767 4.43902 8.09766 4.56901C8.16233 4.63433 8.24805 4.66667 8.33333 4.66667H11.3333C11.7016 4.66667 12 4.36827 12 4V1C12 0.914714 11.967 0.829644 11.9023 0.764323C11.7724 0.634332 11.561 0.634332 11.431 0.764323L10.3359 1.85938C9.24371 0.714193 7.70378 0 6 0ZM11.2943 5.99089C10.9523 5.98828 10.6636 6.24479 10.6263 6.58464C10.3385 8.88694 8.3865 10.6667 6 10.6667C4.65712 10.6667 3.45877 10.0994 2.60938 9.19531L3.90234 7.90234C4.03234 7.77235 4.03234 7.56098 3.90234 7.43099C3.83767 7.36567 3.75195 7.33333 3.66667 7.33333H0.666667C0.298394 7.33333 0 7.63173 0 8V11C0 11.0853 0.0329861 11.1704 0.0976562 11.2357C0.227648 11.3657 0.439019 11.3657 0.56901 11.2357L1.66536 10.1393C2.75716 11.2836 4.29688 12 6 12C9.0523 12 11.5796 9.70638 11.9492 6.7487C11.9755 6.55881 11.9186 6.36675 11.7932 6.22157C11.6678 6.07661 11.4861 5.9924 11.2943 5.99089Z" fill="#00B134"/>
</svg>
