<svg width="302" height="71" viewBox="0 0 302 71" fill="none" xmlns="http://www.w3.org/2000/svg">
<g filter="url(#filter0_b_2156_499)">
<rect y="0.9375" width="70" height="69.125" rx="14" fill="#F3F3F3"/>
<rect x="0.4375" y="1.375" width="69.125" height="68.25" rx="13.5625" stroke="#DADADA" stroke-width="0.875"/>
</g>
<path d="M47.3017 34.7617C47.6703 33.7228 48.6533 32.974 49.8186 32.974C51.299 32.974 52.5 34.1751 52.5 35.6556C52.5 37.136 51.299 38.3371 49.8186 38.3371C48.6533 38.3371 47.6718 37.5883 47.3017 36.5494H32.8364V41.9125H40.8806C41.3741 41.9125 41.7744 42.3129 41.7744 42.8063V49.2278C42.8133 49.5963 43.562 50.5794 43.562 51.7448C43.562 53.2252 42.361 54.4263 40.8806 54.4263C39.4003 54.4263 38.1992 53.2252 38.1992 51.7448C38.1992 50.5794 38.9479 49.5979 39.9868 49.2278V43.7002H32.8364H31.0488V27.6109H32.8364H41.7744V22.0834C40.7355 21.7148 39.9868 20.7317 39.9868 19.5663C39.9868 18.0859 41.1879 16.8848 42.6682 16.8848C44.1486 16.8848 45.3496 18.0859 45.3496 19.5663C45.3496 20.7317 44.6009 21.7132 43.562 22.0834V28.5048C43.562 28.9983 43.1617 29.3986 42.6682 29.3986H32.8364V34.7617H47.3017Z" fill="url(#paint0_linear_2156_499)"/>
<path d="M17.5 41.8775H33.3062V27.0454L17.5 41.8775Z" fill="url(#paint1_linear_2156_499)"/>
<path d="M17.5 41.8775L33.3062 56.9658V41.8775H17.5Z" fill="url(#paint2_linear_2156_499)"/>
<path d="M17.5023 29.3412H33.3085V14.0625L17.5023 29.3412Z" fill="url(#paint3_linear_2156_499)"/>
<path d="M17.5 29.3417L33.3062 44.5478V29.3417H17.5Z" fill="url(#paint4_linear_2156_499)"/>
<path d="M93.772 24L88.806 5.748H90.054L94.422 22.362L99.44 5.748H100.74L105.706 22.466L110.1 5.748H111.374L106.33 24H105.056L100.064 7.568L94.994 24H93.772ZM120.388 10.688C117.502 10.688 114.876 12.534 114.746 16.434H125.822C126.004 12.508 123.248 10.688 120.388 10.688ZM126.888 19.372C126.342 22.154 124.028 24.208 120.414 24.208C116.462 24.208 113.55 21.452 113.55 16.928C113.55 12.43 116.41 9.7 120.414 9.7C124.652 9.7 126.992 12.716 126.992 15.992C126.992 16.616 126.992 16.928 126.94 17.396H114.746C114.85 21.322 117.502 23.194 120.414 23.194C123.196 23.194 125.198 21.712 125.666 19.372H126.888ZM130.528 24V4.76H131.698V24H130.528ZM135.259 16.928C135.259 12.43 138.119 9.7 142.097 9.7C145.685 9.7 148.025 11.65 148.571 14.588H147.349C146.881 12.17 144.853 10.688 142.097 10.688C139.081 10.688 136.455 12.69 136.455 16.928C136.455 21.192 139.081 23.194 142.097 23.194C144.853 23.194 146.881 21.738 147.349 19.294H148.571C148.025 22.18 145.685 24.208 142.097 24.208C138.119 24.208 135.259 21.452 135.259 16.928ZM165.344 16.928C165.344 21.452 162.302 24.208 158.35 24.208C154.398 24.208 151.408 21.452 151.408 16.928C151.408 12.43 154.45 9.7 158.402 9.7C162.354 9.7 165.344 12.43 165.344 16.928ZM152.604 16.928C152.604 21.218 155.386 23.168 158.35 23.168C161.314 23.168 164.174 21.218 164.174 16.928C164.174 12.664 161.34 10.714 158.376 10.714C155.412 10.714 152.604 12.664 152.604 16.928ZM189.928 24V15.81C189.928 12.378 188.134 10.61 185.404 10.61C182.622 10.61 180.568 12.534 180.568 16.486V24H179.424V15.81C179.424 12.378 177.63 10.61 174.9 10.61C172.092 10.61 170.064 12.534 170.064 16.486V24H168.894V9.882H170.064V12.95C170.896 10.662 172.846 9.596 175.082 9.596C177.526 9.596 179.606 10.844 180.308 13.548C181.01 10.844 183.142 9.596 185.586 9.596C188.602 9.596 191.072 11.494 191.072 15.732V24H189.928ZM201.334 10.688C198.448 10.688 195.822 12.534 195.692 16.434H206.768C206.95 12.508 204.194 10.688 201.334 10.688ZM207.834 19.372C207.288 22.154 204.974 24.208 201.36 24.208C197.408 24.208 194.496 21.452 194.496 16.928C194.496 12.43 197.356 9.7 201.36 9.7C205.598 9.7 207.938 12.716 207.938 15.992C207.938 16.616 207.938 16.928 207.886 17.396H195.692C195.796 21.322 198.448 23.194 201.36 23.194C204.142 23.194 206.144 21.712 206.612 19.372H207.834ZM219.384 20.23V10.896H217.252V9.882H219.384V6.294H220.554V9.882H224.74V10.896H220.554V20.23C220.554 22.362 221.256 22.96 223.154 22.96H224.74V24H222.972C220.554 24 219.384 23.012 219.384 20.23ZM241.033 16.928C241.033 21.452 237.991 24.208 234.039 24.208C230.087 24.208 227.097 21.452 227.097 16.928C227.097 12.43 230.139 9.7 234.091 9.7C238.043 9.7 241.033 12.43 241.033 16.928ZM228.293 16.928C228.293 21.218 231.075 23.168 234.039 23.168C237.003 23.168 239.863 21.218 239.863 16.928C239.863 12.664 237.029 10.714 234.065 10.714C231.101 10.714 228.293 12.664 228.293 16.928ZM105.062 55.868C105.062 53.968 103.732 52.866 101.566 52.866H96.854V58.756H101.642C103.808 58.756 105.062 57.768 105.062 55.868ZM104.416 45.342C104.416 43.518 103.238 42.53 101.11 42.53H96.854V48.116H101.11C103.238 48.116 104.416 47.166 104.416 45.342ZM111.636 56.742C111.636 61.15 108.406 64 102.782 64H90.356V37.324H102.364C107.798 37.324 111.028 40.022 111.028 44.24C111.028 47.47 109.09 49.56 106.506 50.32C109.622 50.966 111.636 53.702 111.636 56.742ZM124.753 47.698C122.625 47.698 120.991 48.99 120.611 51.346H128.743C128.743 49.028 126.919 47.698 124.753 47.698ZM134.899 56.97C133.873 61.112 130.111 64.304 124.829 64.304C118.597 64.304 114.113 60.124 114.113 53.398C114.113 46.672 118.521 42.492 124.829 42.492C131.023 42.492 135.393 46.596 135.393 53.056C135.393 53.664 135.355 54.31 135.279 54.956H120.573C120.801 57.73 122.511 59.022 124.601 59.022C126.425 59.022 127.451 58.11 127.983 56.97H134.899ZM138.821 64V35.88H145.319V64H138.821ZM148.736 53.36C148.736 46.672 152.878 42.492 158.084 42.492C160.896 42.492 163.328 43.784 164.62 45.722V35.88H171.118V64H164.62V60.96C163.442 62.898 161.2 64.304 158.084 64.304C152.878 64.304 148.736 60.048 148.736 53.36ZM164.62 53.398C164.62 50.016 162.454 48.154 159.984 48.154C157.552 48.154 155.348 49.978 155.348 53.36C155.348 56.742 157.552 58.642 159.984 58.642C162.454 58.642 164.62 56.78 164.62 53.398ZM185.167 47.698C183.039 47.698 181.405 48.99 181.025 51.346H189.157C189.157 49.028 187.333 47.698 185.167 47.698ZM195.313 56.97C194.287 61.112 190.525 64.304 185.243 64.304C179.011 64.304 174.527 60.124 174.527 53.398C174.527 46.672 178.935 42.492 185.243 42.492C191.437 42.492 195.807 46.596 195.807 53.056C195.807 53.664 195.769 54.31 195.693 54.956H180.987C181.215 57.73 182.925 59.022 185.015 59.022C186.839 59.022 187.865 58.11 188.397 56.97H195.313ZM211.775 64L207.709 58.11L204.289 64H197.259L204.251 53.17L197.069 42.796H204.365L208.431 48.648L211.851 42.796H218.881L211.775 53.474L219.071 64H211.775Z" fill="#222222"/>
<path d="M247.829 64L246.233 59.288H236.277L234.681 64H227.879L237.531 37.324H245.055L254.707 64H247.829ZM244.561 54.272L241.255 44.506L237.987 54.272H244.561ZM257.645 64V37.324H264.143V64H257.645Z" fill="url(#paint5_linear_2156_499)"/>
<defs>
<filter id="filter0_b_2156_499" x="-14" y="-13.0625" width="98" height="97.125" filterUnits="userSpaceOnUse" color-interpolation-filters="sRGB">
<feFlood flood-opacity="0" result="BackgroundImageFix"/>
<feGaussianBlur in="BackgroundImageFix" stdDeviation="7"/>
<feComposite in2="SourceAlpha" operator="in" result="effect1_backgroundBlur_2156_499"/>
<feBlend mode="normal" in="SourceGraphic" in2="effect1_backgroundBlur_2156_499" result="shape"/>
</filter>
<linearGradient id="paint0_linear_2156_499" x1="50.4541" y1="18.3524" x2="50.4541" y2="53.5767" gradientUnits="userSpaceOnUse">
<stop stop-color="#2FFF2F"/>
<stop offset="0.15" stop-color="#01DC01"/>
<stop offset="0.58" stop-color="#00881A"/>
<stop offset="0.98" stop-color="#326B3D"/>
</linearGradient>
<linearGradient id="paint1_linear_2156_499" x1="31.7986" y1="28.2151" x2="31.7986" y2="56.2886" gradientUnits="userSpaceOnUse">
<stop stop-color="#55B0FF"/>
<stop offset="0.15" stop-color="#0099FF"/>
<stop offset="0.58" stop-color="#005AC7"/>
<stop offset="0.98" stop-color="#0046C7"/>
</linearGradient>
<linearGradient id="paint2_linear_2156_499" x1="31.7986" y1="28.2151" x2="31.7986" y2="56.2886" gradientUnits="userSpaceOnUse">
<stop stop-color="#55B0FF"/>
<stop offset="0.15" stop-color="#0099FF"/>
<stop offset="0.58" stop-color="#005AC7"/>
<stop offset="0.98" stop-color="#0046C7"/>
</linearGradient>
<linearGradient id="paint3_linear_2156_499" x1="31.8007" y1="15.2543" x2="31.8007" y2="43.8578" gradientUnits="userSpaceOnUse">
<stop stop-color="#2FFF2F"/>
<stop offset="0.15" stop-color="#01DC01"/>
<stop offset="0.81" stop-color="#00881A"/>
<stop offset="0.98" stop-color="#326B3D"/>
</linearGradient>
<linearGradient id="paint4_linear_2156_499" x1="31.8007" y1="15.2543" x2="31.8007" y2="43.8578" gradientUnits="userSpaceOnUse">
<stop stop-color="#2FFF2F"/>
<stop offset="0.15" stop-color="#01DC01"/>
<stop offset="0.81" stop-color="#00881A"/>
<stop offset="0.98" stop-color="#326B3D"/>
</linearGradient>
<linearGradient id="paint5_linear_2156_499" x1="265.089" y1="35.5" x2="246.55" y2="64.4743" gradientUnits="userSpaceOnUse">
<stop stop-color="#2CFB2C"/>
<stop offset="0.23" stop-color="#01D001"/>
<stop offset="0.645" stop-color="#01D001"/>
<stop offset="1" stop-color="#016A01"/>
</linearGradient>
</defs>
</svg>
