<svg width="16" height="17" viewBox="0 0 16 17" fill="none" xmlns="http://www.w3.org/2000/svg">
<g clip-path="url(#clip0_17_1646)">
<path d="M8.00002 2.22958C11.8294 2.22958 14.9333 4.85632 14.9333 8.09625C14.9333 9.52351 14.3295 10.8301 13.3281 11.8473C13.308 11.8976 12.7941 13.2199 14.3156 14.5681C14.3695 14.6186 14.4 14.6891 14.4 14.7629C14.4 14.9101 14.2806 15.0296 14.1333 15.0296C14.1141 15.0296 14.0948 15.0275 14.0761 15.0233C12.5422 14.9325 11.2302 14.1712 10.4292 13.5848C9.67224 13.8249 8.85609 13.9629 8.00002 13.9629C4.17068 13.9629 1.06668 11.3362 1.06668 8.09625C1.06668 4.85632 4.17068 2.22958 8.00002 2.22958ZM8.00002 4.62958C7.55835 4.62958 7.20002 4.98792 7.20002 5.42958C7.20002 5.87125 7.55835 6.22958 8.00002 6.22958C8.44168 6.22958 8.80002 5.87125 8.80002 5.42958C8.80002 4.98792 8.44168 4.62958 8.00002 4.62958ZM8.53335 7.56292H7.46668V11.2962H8.53335V7.56292Z" fill="white"/>
</g>
<defs>
<clipPath id="clip0_17_1646">
<rect width="16" height="16" fill="white" transform="matrix(-1 0 0 -1 16 16.3333)"/>
</clipPath>
</defs>
</svg>
