<svg width="24" height="24" viewBox="0 0 24 24" fill="none" xmlns="http://www.w3.org/2000/svg">
<circle cx="12" cy="12" r="12" fill="#00B134"/>
<path d="M11.9875 6.819C11.512 6.82601 11.1322 7.21682 11.1386 7.69232V11.1385H7.69245C7.38171 11.1341 7.09271 11.2973 6.93608 11.5657C6.77945 11.834 6.77945 12.166 6.93608 12.4343C7.09271 12.7027 7.38171 12.8659 7.69245 12.8615H11.1386V16.3077C11.1343 16.6184 11.2975 16.9074 11.5659 17.0641C11.8341 17.2207 12.1662 17.2207 12.4344 17.0641C12.7028 16.9074 12.866 16.6184 12.8617 16.3077V12.8615H16.3078C16.6186 12.8659 16.9076 12.7027 17.0642 12.4343C17.2208 12.166 17.2208 11.834 17.0642 11.5657C16.9076 11.2973 16.6186 11.1341 16.3078 11.1385H12.8617V7.69232C12.8649 7.45954 12.7738 7.23547 12.6091 7.07098C12.4445 6.9065 12.2203 6.81563 11.9875 6.819Z" fill="white"/>
</svg>
