<svg width="26" height="26" viewBox="0 0 26 26" fill="none" xmlns="http://www.w3.org/2000/svg">
<path d="M10.7656 20.9727C10.6617 20.9727 10.5577 20.933 10.4784 20.8537L2.8104 13.1857C2.8102 13.1855 2.81 13.1853 2.80979 13.185L2.80964 13.1849C2.73773 13.1126 2.69863 13.0201 2.69234 12.9257C2.69056 12.8995 2.69132 12.8729 2.69472 12.8465C2.70457 12.7697 2.73636 12.6952 2.79009 12.633C2.7973 12.6247 2.80476 12.6167 2.81259 12.609L10.4784 4.9432C10.637 4.78456 10.8942 4.78456 11.0529 4.9432C11.2115 5.10184 11.2115 5.35905 11.0529 5.51769L4.07841 12.4922H23.3086C23.533 12.4922 23.7149 12.6741 23.7149 12.8984C23.7149 13.1228 23.533 13.3047 23.3086 13.3047H4.07841L11.0529 20.2791C11.1322 20.3585 11.1718 20.4624 11.1718 20.5664C11.1718 20.6704 11.1322 20.7744 11.0529 20.8537C10.9736 20.933 10.8696 20.9727 10.7656 20.9727Z" fill="white"/>
</svg>
