<svg width="18" height="18" viewBox="0 0 18 18" fill="none" xmlns="http://www.w3.org/2000/svg">
<g clip-path="url(#clip0_4953_548)">
<g clip-path="url(#clip1_4953_548)">
<path d="M3.67194 8.96929C5.56705 8.56234 5.30885 6.29758 5.25212 5.80259C5.15931 5.03948 4.26173 3.70561 3.04288 3.81111C1.5091 3.94874 1.28502 6.16432 1.28502 6.16432C1.07757 7.18843 1.78159 9.37664 3.67194 8.96929ZM5.68444 12.9086C5.62892 13.0677 5.50517 13.475 5.61227 13.8296C5.82367 14.6252 6.5142 14.6609 6.5142 14.6609H7.50657V12.2351H6.444C5.96645 12.3775 5.736 12.7492 5.68444 12.9086ZM7.18926 5.17154C8.23598 5.17154 9.08198 3.96696 9.08198 2.47762C9.08198 0.989873 8.23598 -0.214294 7.18926 -0.214294C6.14415 -0.214294 5.29615 0.989874 5.29615 2.47763C5.29615 3.96698 6.14452 5.17155 7.18926 5.17155V5.17154ZM11.6974 5.34961C13.0963 5.53127 13.9958 4.03836 14.1747 2.90678C14.3572 1.77678 13.4544 0.464317 12.4641 0.238647C11.4717 0.0109831 10.2326 1.60068 10.1196 2.63706C9.98471 3.90391 10.3008 5.16995 11.6974 5.34961ZM15.125 12.0011C15.125 12.0011 12.9606 10.3265 11.697 8.51671C9.98432 5.84822 7.5514 6.93421 6.73751 8.29145C5.92719 9.64831 4.66432 10.5066 4.48503 10.7339C4.30298 10.9576 1.87045 12.2708 2.41065 14.6693C2.95048 17.0661 4.84717 17.0205 4.84717 17.0205C4.84717 17.0205 6.24489 17.1581 7.86632 16.7952C9.48854 16.4355 10.8851 16.8849 10.8851 16.8849C10.8851 16.8849 14.6741 18.1537 15.7109 15.7112C16.7465 13.268 15.125 12.0011 15.125 12.0011ZM8.64213 15.6363H6.17865C5.11489 15.4241 4.69128 14.6982 4.63774 14.5745C4.58538 14.4488 4.28315 13.8653 4.44299 12.8725C4.90268 11.3852 6.21354 11.2785 6.21354 11.2785H7.52481V9.66659L8.64172 9.68363V15.6363H8.64213ZM13.2299 15.6192H10.3952C9.29657 15.336 9.2454 14.5554 9.2454 14.5554V11.4209L10.3952 11.4022V14.2195C10.4654 14.5201 10.8387 14.5745 10.8387 14.5745H12.0067V11.4209H13.2299V15.6192V15.6192ZM17.2427 7.2499C17.2427 6.70852 16.7929 5.07836 15.1251 5.07836C13.4544 5.07836 13.2311 6.61689 13.2311 7.70444C13.2311 8.74243 13.3188 10.1913 15.394 10.1453C17.4699 10.0993 17.2427 7.79407 17.2427 7.2499Z" fill="#3245DF"/>
</g>
</g>
<defs>
<clipPath id="clip0_4953_548">
<rect width="18" height="18" fill="white"/>
</clipPath>
<clipPath id="clip1_4953_548">
<rect width="18" height="18" fill="white"/>
</clipPath>
</defs>
</svg>
