<svg width="42" height="42" viewBox="0 0 42 42" fill="none" xmlns="http://www.w3.org/2000/svg">
<g clip-path="url(#clip0_8_686)">
<path d="M31.2537 12.9744V20.7186H13.8706C12.0555 20.7186 10.586 22.1118 10.586 23.8347V28.3239H5.51186C3.57156 28.3239 2 26.6941 2 24.6818V4L7.06256 9.33238H27.7465C29.6829 9.33238 31.2537 10.9622 31.2537 12.9744Z" fill="#00DC00"/>
<path d="M35.0506 38.3269H14.2284C11.9897 38.3269 10.1692 36.5815 10.1692 34.4374V24.4281C10.1692 22.2832 11.9904 20.5386 14.2284 20.5386H33.2866L39.1098 14.9409V34.4382C39.1098 36.5831 37.2885 38.3277 35.0506 38.3277V38.3269ZM14.2284 22.0893C12.8423 22.0893 11.7152 23.1381 11.7152 24.4273V34.4366C11.7152 35.7259 12.8431 36.7747 14.2284 36.7747H35.0506C36.4367 36.7747 37.5637 35.7259 37.5637 34.4366V18.5744L33.9073 22.0893H14.2284Z" fill="#0094E0"/>
</g>
<defs>
<clipPath id="clip0_8_686">
<rect width="37.11" height="34.3269" fill="white" transform="translate(2 4)"/>
</clipPath>
</defs>
</svg>
