<svg width="328" height="442" viewBox="0 0 328 442" fill="none" xmlns="http://www.w3.org/2000/svg">
<rect y="-0.00891113" width="328" height="442" rx="12" fill="#F3F3F3"/>
<mask id="mask0_328_18" style="mask-type:alpha" maskUnits="userSpaceOnUse" x="16" y="25" width="296" height="392">
<rect x="16.5" y="26.4911" width="295" height="390" rx="11.5" fill="#282836" stroke="#42425F"/>
</mask>
<g mask="url(#mask0_328_18)">
<rect x="16.5" y="26.4911" width="295" height="390" rx="11.5" fill="#F3F3F3" stroke="#DADADA"/>
<path d="M231.5 168.991C241.165 168.991 249 161.38 249 151.991C249 142.602 241.165 134.991 231.5 134.991C221.835 134.991 214 142.602 214 151.991C214 161.38 221.835 168.991 231.5 168.991Z" fill="white"/>
<path d="M257.099 126.09C265.186 118.003 260 99.7045 245.514 85.2191C231.029 70.7337 212.73 65.547 204.643 73.6342C196.556 81.7214 201.743 100.02 216.228 114.505C230.713 128.991 249.012 134.177 257.099 126.09Z" fill="white"/>
<path d="M203.029 169.205C215.957 126.479 194.734 82.2502 155.627 70.417C116.519 58.5838 74.3364 83.6274 61.4083 126.353C48.4803 169.08 69.7029 213.309 108.81 225.142C147.918 236.975 190.101 211.931 203.029 169.205Z" fill="white"/>
<path d="M228.482 232.304H99.5901C94.2053 232.304 89.8516 227.95 89.8516 222.565V101.12C89.8516 95.7348 94.2053 91.3811 99.5901 91.3811H228.482C233.867 91.3811 238.221 95.7348 238.221 101.12V222.565C238.221 227.95 233.867 232.304 228.482 232.304Z" fill="#E3E3E3"/>
<path d="M229.342 94.8182H98.7308C93.8329 94.8182 89.8516 98.7996 89.8516 103.698V112.577H238.221V103.698C238.221 98.7996 234.24 94.8182 229.342 94.8182Z" fill="#DEDEE2"/>
<path d="M229.342 91.0947H98.7308C93.8329 91.0947 89.8516 95.0761 89.8516 99.974V108.853H238.221V99.974C238.221 95.0761 234.24 91.0947 229.342 91.0947Z" fill="#00E000"/>
<path d="M103.6 103.268C105.419 103.268 106.893 101.793 106.893 99.9739C106.893 98.1547 105.419 96.6799 103.6 96.6799C101.78 96.6799 100.306 98.1547 100.306 99.9739C100.306 101.793 101.78 103.268 103.6 103.268Z" fill="white"/>
<path d="M115.2 103.268C117.019 103.268 118.494 101.793 118.494 99.9739C118.494 98.1547 117.019 96.6799 115.2 96.6799C113.381 96.6799 111.906 98.1547 111.906 99.9739C111.906 101.793 113.381 103.268 115.2 103.268Z" fill="white"/>
<path d="M126.801 103.268C128.62 103.268 130.095 101.793 130.095 99.9739C130.095 98.1547 128.62 96.6799 126.801 96.6799C124.982 96.6799 123.507 98.1547 123.507 99.9739C123.507 101.793 124.982 103.268 126.801 103.268Z" fill="white"/>
<path d="M200.67 133.457H102.196C101.165 133.457 100.306 132.627 100.306 131.567V129.762C100.306 128.731 101.136 127.872 102.196 127.872H200.67C201.701 127.872 202.56 128.703 202.56 129.762V131.567C202.56 132.598 201.701 133.457 200.67 133.457Z" fill="white"/>
<path d="M200.67 152.361H102.196C101.165 152.361 100.306 151.531 100.306 150.471V148.667C100.306 147.635 101.136 146.776 102.196 146.776H200.67C201.701 146.776 202.56 147.607 202.56 148.667V150.471C202.56 151.502 201.701 152.361 200.67 152.361Z" fill="white"/>
<path d="M180.22 171.266H102.197C101.166 171.266 100.307 170.436 100.307 169.376V167.571C100.307 166.54 101.137 165.681 102.197 165.681H180.22C181.251 165.681 182.11 166.512 182.11 167.571V169.376C182.11 170.436 181.251 171.266 180.22 171.266Z" fill="white"/>
<path d="M160.972 215.635H103.371C101.681 215.635 100.307 214.26 100.307 212.57V187.651C100.307 185.961 101.681 184.586 103.371 184.586H160.972C162.662 184.586 164.037 185.961 164.037 187.651V212.57C164.037 214.26 162.662 215.635 160.972 215.635Z" fill="white"/>
<path d="M217.085 243.661C236.185 243.661 251.67 228.177 251.67 209.076C251.67 189.975 236.185 174.491 217.085 174.491C197.984 174.491 182.5 189.975 182.5 209.076C182.5 228.177 197.984 243.661 217.085 243.661Z" fill="white" stroke="#00B134"/>
<path d="M230.965 214.128H204.045L217.505 200.668L230.965 214.128Z" fill="#38A5F4"/>
<path d="M217.505 227.563L204.045 214.128H230.965L217.505 227.563Z" fill="#0094FF"/>
<path d="M230.965 203.023H204.045L217.505 189.563L230.965 203.023Z" fill="#00DC00"/>
<path d="M217.505 216.483L204.045 203.023H230.965L217.505 216.483Z" fill="#00A61F"/>
<path d="M76.5329 138.298C78.099 138.298 79.3685 137.028 79.3685 135.462C79.3685 133.896 78.099 132.627 76.5329 132.627C74.9668 132.627 73.6973 133.896 73.6973 135.462C73.6973 137.028 74.9668 138.298 76.5329 138.298Z" stroke="#0097FF" stroke-width="1.60303" stroke-miterlimit="10"/>
<path d="M267.379 171.466C270.274 171.466 272.621 169.12 272.621 166.225C272.621 163.33 270.274 160.983 267.379 160.983C264.484 160.983 262.138 163.33 262.138 166.225C262.138 169.12 264.484 171.466 267.379 171.466Z" fill="#0097FF"/>
<path d="M80.01 85.0111C82.2246 85.0111 84.02 83.2157 84.02 81.0011C84.02 78.7864 82.2246 76.9911 80.01 76.9911C77.7953 76.9911 76 78.7864 76 81.0011C76 83.2157 77.7953 85.0111 80.01 85.0111Z" fill="#00A61F"/>
<path d="M89.9873 170.199H92.3438V175.441H97.3693V177.701H92.3438V182.991H89.9873V177.701H84.9618V175.441H89.9873V170.199Z" fill="#00E000"/>
<path d="M261.975 100.746H263.499V104.136H266.749V105.598H263.499V109.019H261.975V105.598H258.725V104.136H261.975V100.746Z" fill="#00E000"/>
<path d="M6 322.496C-29.2 320.096 -50 351.162 -56 366.996V224.996C-34 224.829 16.1 229.096 40.5 247.496C71 270.496 50 325.496 6 322.496Z" fill="#E3E3E3"/>
<path d="M261.5 18.9911C263.9 -16.2089 232.834 -37.0089 217 -43.0089L359 -43.0089C359.167 -21.0089 354.9 29.0911 336.5 53.4911C313.5 83.9911 258.5 62.9911 261.5 18.9911Z" fill="#E3E3E3"/>
<path d="M330.505 438.888C328.105 474.088 359.171 494.888 375.005 500.888L233.005 500.888C232.838 478.888 237.105 428.788 255.505 404.388C278.505 373.888 333.505 394.888 330.505 438.888Z" fill="#E3E3E3"/>
<path d="M246.068 364.233L245.914 371.233H244.85L244.696 364.233H246.068ZM245.438 374.075C245.196 374.075 244.99 373.991 244.822 373.823C244.654 373.655 244.57 373.45 244.57 373.207C244.57 372.964 244.654 372.759 244.822 372.591C244.99 372.423 245.196 372.339 245.438 372.339C245.672 372.339 245.868 372.423 246.026 372.591C246.194 372.759 246.278 372.964 246.278 373.207C246.278 373.45 246.194 373.655 246.026 373.823C245.868 373.991 245.672 374.075 245.438 374.075Z" fill="#56566B"/>
<path d="M243.136 366.319L238.516 377.603H237.2L238.712 373.907L235.618 366.319H237.032L239.44 372.535L241.82 366.319H243.136Z" fill="#56566B"/>
<path d="M227.548 370.141C227.548 369.348 227.707 368.657 228.024 368.069C228.341 367.472 228.78 367.01 229.34 366.683C229.909 366.356 230.558 366.193 231.286 366.193C232.229 366.193 233.003 366.422 233.61 366.879C234.226 367.336 234.632 367.971 234.828 368.783H233.456C233.325 368.316 233.069 367.948 232.686 367.677C232.313 367.406 231.846 367.271 231.286 367.271C230.558 367.271 229.97 367.523 229.522 368.027C229.074 368.522 228.85 369.226 228.85 370.141C228.85 371.065 229.074 371.779 229.522 372.283C229.97 372.787 230.558 373.039 231.286 373.039C231.846 373.039 232.313 372.908 232.686 372.647C233.059 372.386 233.316 372.012 233.456 371.527H234.828C234.623 372.311 234.212 372.941 233.596 373.417C232.98 373.884 232.21 374.117 231.286 374.117C230.558 374.117 229.909 373.954 229.34 373.627C228.78 373.3 228.341 372.838 228.024 372.241C227.707 371.644 227.548 370.944 227.548 370.141Z" fill="#56566B"/>
<path d="M218.087 370.127C218.087 369.343 218.246 368.657 218.563 368.069C218.88 367.472 219.314 367.01 219.865 366.683C220.425 366.356 221.046 366.193 221.727 366.193C222.399 366.193 222.982 366.338 223.477 366.627C223.972 366.916 224.34 367.28 224.583 367.719V366.319H225.871V373.991H224.583V372.563C224.331 373.011 223.953 373.384 223.449 373.683C222.954 373.972 222.376 374.117 221.713 374.117C221.032 374.117 220.416 373.949 219.865 373.613C219.314 373.277 218.88 372.806 218.563 372.199C218.246 371.592 218.087 370.902 218.087 370.127ZM224.583 370.141C224.583 369.562 224.466 369.058 224.233 368.629C224 368.2 223.682 367.873 223.281 367.649C222.889 367.416 222.455 367.299 221.979 367.299C221.503 367.299 221.069 367.411 220.677 367.635C220.285 367.859 219.972 368.186 219.739 368.615C219.506 369.044 219.389 369.548 219.389 370.127C219.389 370.715 219.506 371.228 219.739 371.667C219.972 372.096 220.285 372.428 220.677 372.661C221.069 372.885 221.503 372.997 221.979 372.997C222.455 372.997 222.889 372.885 223.281 372.661C223.682 372.428 224 372.096 224.233 371.667C224.466 371.228 224.583 370.72 224.583 370.141Z" fill="#56566B"/>
<path d="M213.572 372.815L215.952 366.319H217.31L214.3 373.991H212.816L209.806 366.319H211.178L213.572 372.815Z" fill="#56566B"/>
<path d="M207.929 365.073C207.686 365.073 207.481 364.989 207.313 364.821C207.145 364.653 207.061 364.448 207.061 364.205C207.061 363.962 207.145 363.757 207.313 363.589C207.481 363.421 207.686 363.337 207.929 363.337C208.162 363.337 208.358 363.421 208.517 363.589C208.685 363.757 208.769 363.962 208.769 364.205C208.769 364.448 208.685 364.653 208.517 364.821C208.358 364.989 208.162 365.073 207.929 365.073ZM208.545 366.319V373.991H207.271V366.319H208.545Z" fill="#56566B"/>
<path d="M203.322 367.565C203.546 367.126 203.863 366.786 204.274 366.543C204.694 366.3 205.203 366.179 205.8 366.179V367.495H205.464C204.036 367.495 203.322 368.27 203.322 369.819V373.991H202.048V366.319H203.322V367.565Z" fill="#56566B"/>
<path d="M200.464 367.089C200.464 367.901 200.184 368.578 199.624 369.119C199.074 369.651 198.229 369.917 197.09 369.917H195.214V373.991H193.94V364.233H197.09C198.192 364.233 199.027 364.499 199.596 365.031C200.175 365.563 200.464 366.249 200.464 367.089ZM197.09 368.867C197.8 368.867 198.322 368.713 198.658 368.405C198.994 368.097 199.162 367.658 199.162 367.089C199.162 365.885 198.472 365.283 197.09 365.283H195.214V368.867H197.09Z" fill="#56566B"/>
<path d="M186.259 367.565C186.483 367.126 186.801 366.786 187.211 366.543C187.631 366.3 188.14 366.179 188.737 366.179V367.495H188.401C186.973 367.495 186.259 368.27 186.259 369.819V373.991H184.985V366.319H186.259V367.565Z" fill="#56566B"/>
<path d="M182.834 366.319V373.991H181.56V372.857C181.317 373.249 180.977 373.557 180.538 373.781C180.109 373.996 179.633 374.103 179.11 374.103C178.513 374.103 177.976 373.982 177.5 373.739C177.024 373.487 176.646 373.114 176.366 372.619C176.095 372.124 175.96 371.522 175.96 370.813V366.319H177.22V370.645C177.22 371.401 177.411 371.984 177.794 372.395C178.177 372.796 178.699 372.997 179.362 372.997C180.043 372.997 180.58 372.787 180.972 372.367C181.364 371.947 181.56 371.336 181.56 370.533V366.319H182.834Z" fill="#56566B"/>
<path d="M170.421 374.117C169.702 374.117 169.049 373.954 168.461 373.627C167.882 373.3 167.425 372.838 167.089 372.241C166.762 371.634 166.599 370.934 166.599 370.141C166.599 369.357 166.767 368.666 167.103 368.069C167.448 367.462 167.915 367 168.503 366.683C169.091 366.356 169.749 366.193 170.477 366.193C171.205 366.193 171.863 366.356 172.451 366.683C173.039 367 173.501 367.458 173.837 368.055C174.182 368.652 174.355 369.348 174.355 370.141C174.355 370.934 174.177 371.634 173.823 372.241C173.477 372.838 173.006 373.3 172.409 373.627C171.811 373.954 171.149 374.117 170.421 374.117ZM170.421 372.997C170.878 372.997 171.307 372.89 171.709 372.675C172.11 372.46 172.432 372.138 172.675 371.709C172.927 371.28 173.053 370.757 173.053 370.141C173.053 369.525 172.931 369.002 172.689 368.573C172.446 368.144 172.129 367.826 171.737 367.621C171.345 367.406 170.92 367.299 170.463 367.299C169.996 367.299 169.567 367.406 169.175 367.621C168.792 367.826 168.484 368.144 168.251 368.573C168.017 369.002 167.901 369.525 167.901 370.141C167.901 370.766 168.013 371.294 168.237 371.723C168.47 372.152 168.778 372.474 169.161 372.689C169.543 372.894 169.963 372.997 170.421 372.997Z" fill="#56566B"/>
<path d="M165.794 366.319L161.174 377.603H159.858L161.37 373.907L158.276 366.319H159.69L162.098 372.535L164.478 366.319H165.794Z" fill="#56566B"/>
<path d="M149.157 366.193C149.819 366.193 150.398 366.338 150.893 366.627C151.397 366.916 151.77 367.28 152.013 367.719V366.319H153.301V374.159C153.301 374.859 153.151 375.48 152.853 376.021C152.554 376.572 152.125 377.001 151.565 377.309C151.014 377.617 150.37 377.771 149.633 377.771C148.625 377.771 147.785 377.533 147.113 377.057C146.441 376.581 146.044 375.932 145.923 375.111H147.183C147.323 375.578 147.612 375.951 148.051 376.231C148.489 376.52 149.017 376.665 149.633 376.665C150.333 376.665 150.902 376.446 151.341 376.007C151.789 375.568 152.013 374.952 152.013 374.159V372.549C151.761 372.997 151.387 373.37 150.893 373.669C150.398 373.968 149.819 374.117 149.157 374.117C148.475 374.117 147.855 373.949 147.295 373.613C146.744 373.277 146.31 372.806 145.993 372.199C145.675 371.592 145.517 370.902 145.517 370.127C145.517 369.343 145.675 368.657 145.993 368.069C146.31 367.472 146.744 367.01 147.295 366.683C147.855 366.356 148.475 366.193 149.157 366.193ZM152.013 370.141C152.013 369.562 151.896 369.058 151.663 368.629C151.429 368.2 151.112 367.873 150.711 367.649C150.319 367.416 149.885 367.299 149.409 367.299C148.933 367.299 148.499 367.411 148.107 367.635C147.715 367.859 147.402 368.186 147.169 368.615C146.935 369.044 146.819 369.548 146.819 370.127C146.819 370.715 146.935 371.228 147.169 371.667C147.402 372.096 147.715 372.428 148.107 372.661C148.499 372.885 148.933 372.997 149.409 372.997C149.885 372.997 150.319 372.885 150.711 372.661C151.112 372.428 151.429 372.096 151.663 371.667C151.896 371.228 152.013 370.72 152.013 370.141Z" fill="#56566B"/>
<path d="M140.776 366.179C141.709 366.179 142.465 366.464 143.044 367.033C143.623 367.593 143.912 368.405 143.912 369.469V373.991H142.652V369.651C142.652 368.886 142.461 368.302 142.078 367.901C141.695 367.49 141.173 367.285 140.51 367.285C139.838 367.285 139.301 367.495 138.9 367.915C138.508 368.335 138.312 368.946 138.312 369.749V373.991H137.038V366.319H138.312V367.411C138.564 367.019 138.905 366.716 139.334 366.501C139.773 366.286 140.253 366.179 140.776 366.179Z" fill="#56566B"/>
<path d="M134.251 365.073C134.008 365.073 133.803 364.989 133.635 364.821C133.467 364.653 133.383 364.448 133.383 364.205C133.383 363.962 133.467 363.757 133.635 363.589C133.803 363.421 134.008 363.337 134.251 363.337C134.484 363.337 134.68 363.421 134.839 363.589C135.007 363.757 135.091 363.962 135.091 364.205C135.091 364.448 135.007 364.653 134.839 364.821C134.68 364.989 134.484 365.073 134.251 365.073ZM134.867 366.319V373.991H133.593V366.319H134.867Z" fill="#56566B"/>
<path d="M130.047 367.369V371.891C130.047 372.264 130.127 372.53 130.285 372.689C130.444 372.838 130.719 372.913 131.111 372.913H132.049V373.991H130.901C130.192 373.991 129.66 373.828 129.305 373.501C128.951 373.174 128.773 372.638 128.773 371.891V367.369H127.779V366.319H128.773V364.387H130.047V366.319H132.049V367.369H130.047Z" fill="#56566B"/>
<path d="M119.513 370.141C119.513 369.348 119.671 368.657 119.989 368.069C120.306 367.472 120.745 367.01 121.305 366.683C121.874 366.356 122.523 366.193 123.251 366.193C124.193 366.193 124.968 366.422 125.575 366.879C126.191 367.336 126.597 367.971 126.793 368.783H125.421C125.29 368.316 125.033 367.948 124.651 367.677C124.277 367.406 123.811 367.271 123.251 367.271C122.523 367.271 121.935 367.523 121.487 368.027C121.039 368.522 120.815 369.226 120.815 370.141C120.815 371.065 121.039 371.779 121.487 372.283C121.935 372.787 122.523 373.039 123.251 373.039C123.811 373.039 124.277 372.908 124.651 372.647C125.024 372.386 125.281 372.012 125.421 371.527H126.793C126.587 372.311 126.177 372.941 125.561 373.417C124.945 373.884 124.175 374.117 123.251 374.117C122.523 374.117 121.874 373.954 121.305 373.627C120.745 373.3 120.306 372.838 119.989 372.241C119.671 371.644 119.513 370.944 119.513 370.141Z" fill="#56566B"/>
<path d="M118.307 369.861C118.307 370.104 118.293 370.36 118.265 370.631H112.133C112.18 371.387 112.436 371.98 112.903 372.409C113.379 372.829 113.953 373.039 114.625 373.039C115.176 373.039 115.633 372.913 115.997 372.661C116.37 372.4 116.632 372.054 116.781 371.625H118.153C117.948 372.362 117.537 372.964 116.921 373.431C116.305 373.888 115.54 374.117 114.625 374.117C113.897 374.117 113.244 373.954 112.665 373.627C112.096 373.3 111.648 372.838 111.321 372.241C110.994 371.634 110.831 370.934 110.831 370.141C110.831 369.348 110.99 368.652 111.307 368.055C111.624 367.458 112.068 367 112.637 366.683C113.216 366.356 113.878 366.193 114.625 366.193C115.353 366.193 115.997 366.352 116.557 366.669C117.117 366.986 117.546 367.425 117.845 367.985C118.153 368.536 118.307 369.161 118.307 369.861ZM116.991 369.595C116.991 369.11 116.884 368.694 116.669 368.349C116.454 367.994 116.16 367.728 115.787 367.551C115.423 367.364 115.017 367.271 114.569 367.271C113.925 367.271 113.374 367.476 112.917 367.887C112.469 368.298 112.212 368.867 112.147 369.595H116.991Z" fill="#56566B"/>
<path d="M107.762 367.369V371.891C107.762 372.264 107.841 372.53 108 372.689C108.159 372.838 108.434 372.913 108.826 372.913H109.764V373.991H108.616C107.907 373.991 107.375 373.828 107.02 373.501C106.665 373.174 106.488 372.638 106.488 371.891V367.369H105.494V366.319H106.488V364.387H107.762V366.319H109.764V367.369H107.762Z" fill="#56566B"/>
<path d="M100.598 374.117C99.8797 374.117 99.2264 373.954 98.6384 373.627C98.0597 373.3 97.6024 372.838 97.2664 372.241C96.9397 371.634 96.7764 370.934 96.7764 370.141C96.7764 369.357 96.9444 368.666 97.2804 368.069C97.6257 367.462 98.0924 367 98.6804 366.683C99.2684 366.356 99.9264 366.193 100.654 366.193C101.382 366.193 102.04 366.356 102.628 366.683C103.216 367 103.678 367.458 104.014 368.055C104.36 368.652 104.532 369.348 104.532 370.141C104.532 370.934 104.355 371.634 104 372.241C103.655 372.838 103.184 373.3 102.586 373.627C101.989 373.954 101.326 374.117 100.598 374.117ZM100.598 372.997C101.056 372.997 101.485 372.89 101.886 372.675C102.288 372.46 102.61 372.138 102.852 371.709C103.104 371.28 103.23 370.757 103.23 370.141C103.23 369.525 103.109 369.002 102.866 368.573C102.624 368.144 102.306 367.826 101.914 367.621C101.522 367.406 101.098 367.299 100.64 367.299C100.174 367.299 99.7444 367.406 99.3524 367.621C98.9697 367.826 98.6617 368.144 98.4284 368.573C98.195 369.002 98.0784 369.525 98.0784 370.141C98.0784 370.766 98.1904 371.294 98.4144 371.723C98.6477 372.152 98.9557 372.474 99.3384 372.689C99.721 372.894 100.141 372.997 100.598 372.997Z" fill="#56566B"/>
<path d="M93.3043 367.565C93.5283 367.126 93.8456 366.786 94.2563 366.543C94.6763 366.3 95.1849 366.179 95.7823 366.179V367.495H95.4463C94.0183 367.495 93.3043 368.27 93.3043 369.819V373.991H92.0303V366.319H93.3043V367.565Z" fill="#56566B"/>
<path d="M83.8433 367.733C84.0953 367.294 84.4687 366.93 84.9633 366.641C85.4673 366.342 86.0507 366.193 86.7133 366.193C87.3947 366.193 88.0107 366.356 88.5613 366.683C89.1213 367.01 89.56 367.472 89.8773 368.069C90.1947 368.657 90.3533 369.343 90.3533 370.127C90.3533 370.902 90.1947 371.592 89.8773 372.199C89.56 372.806 89.1213 373.277 88.5613 373.613C88.0107 373.949 87.3947 374.117 86.7133 374.117C86.06 374.117 85.4813 373.972 84.9773 373.683C84.4827 373.384 84.1047 373.016 83.8433 372.577V377.631H82.5693V366.319H83.8433V367.733ZM89.0513 370.127C89.0513 369.548 88.9347 369.044 88.7013 368.615C88.468 368.186 88.1507 367.859 87.7493 367.635C87.3573 367.411 86.9233 367.299 86.4473 367.299C85.9807 367.299 85.5467 367.416 85.1453 367.649C84.7533 367.873 84.436 368.204 84.1933 368.643C83.96 369.072 83.8433 369.572 83.8433 370.141C83.8433 370.72 83.96 371.228 84.1933 371.667C84.436 372.096 84.7533 372.428 85.1453 372.661C85.5467 372.885 85.9807 372.997 86.4473 372.997C86.9233 372.997 87.3573 372.885 87.7493 372.661C88.1507 372.428 88.468 372.096 88.7013 371.667C88.9347 371.228 89.0513 370.715 89.0513 370.127Z" fill="#56566B"/>
<path d="M262.774 356.117C262.186 356.117 261.658 356.019 261.192 355.823C260.725 355.618 260.356 355.338 260.086 354.983C259.815 354.619 259.666 354.204 259.638 353.737H260.954C260.991 354.12 261.168 354.432 261.486 354.675C261.812 354.918 262.237 355.039 262.76 355.039C263.245 355.039 263.628 354.932 263.908 354.717C264.188 354.502 264.328 354.232 264.328 353.905C264.328 353.569 264.178 353.322 263.88 353.163C263.581 352.995 263.119 352.832 262.494 352.673C261.924 352.524 261.458 352.374 261.094 352.225C260.739 352.066 260.431 351.838 260.17 351.539C259.918 351.231 259.792 350.83 259.792 350.335C259.792 349.943 259.908 349.584 260.142 349.257C260.375 348.93 260.706 348.674 261.136 348.487C261.565 348.291 262.055 348.193 262.606 348.193C263.455 348.193 264.141 348.408 264.664 348.837C265.186 349.266 265.466 349.854 265.504 350.601H264.23C264.202 350.2 264.038 349.878 263.74 349.635C263.45 349.392 263.058 349.271 262.564 349.271C262.106 349.271 261.742 349.369 261.472 349.565C261.201 349.761 261.066 350.018 261.066 350.335C261.066 350.587 261.145 350.797 261.304 350.965C261.472 351.124 261.677 351.254 261.92 351.357C262.172 351.45 262.517 351.558 262.956 351.679C263.506 351.828 263.954 351.978 264.3 352.127C264.645 352.267 264.939 352.482 265.182 352.771C265.434 353.06 265.564 353.438 265.574 353.905C265.574 354.325 265.457 354.703 265.224 355.039C264.99 355.375 264.659 355.641 264.23 355.837C263.81 356.024 263.324 356.117 262.774 356.117Z" fill="#56566B"/>
<path d="M257.27 347.073C257.028 347.073 256.822 346.989 256.654 346.821C256.486 346.653 256.402 346.448 256.402 346.205C256.402 345.962 256.486 345.757 256.654 345.589C256.822 345.421 257.028 345.337 257.27 345.337C257.504 345.337 257.7 345.421 257.858 345.589C258.026 345.757 258.11 345.962 258.11 346.205C258.11 346.448 258.026 346.653 257.858 346.821C257.7 346.989 257.504 347.073 257.27 347.073ZM257.886 348.319V355.991H256.612V348.319H257.886Z" fill="#56566B"/>
<path d="M242.942 352.127C242.942 351.343 243.101 350.657 243.418 350.069C243.736 349.472 244.17 349.01 244.72 348.683C245.28 348.356 245.906 348.193 246.596 348.193C247.194 348.193 247.749 348.333 248.262 348.613C248.776 348.884 249.168 349.243 249.438 349.691V345.631H250.726V355.991H249.438V354.549C249.186 355.006 248.813 355.384 248.318 355.683C247.824 355.972 247.245 356.117 246.582 356.117C245.901 356.117 245.28 355.949 244.72 355.613C244.17 355.277 243.736 354.806 243.418 354.199C243.101 353.592 242.942 352.902 242.942 352.127ZM249.438 352.141C249.438 351.562 249.322 351.058 249.088 350.629C248.855 350.2 248.538 349.873 248.136 349.649C247.744 349.416 247.31 349.299 246.834 349.299C246.358 349.299 245.924 349.411 245.532 349.635C245.14 349.859 244.828 350.186 244.594 350.615C244.361 351.044 244.244 351.548 244.244 352.127C244.244 352.715 244.361 353.228 244.594 353.667C244.828 354.096 245.14 354.428 245.532 354.661C245.924 354.885 246.358 354.997 246.834 354.997C247.31 354.997 247.744 354.885 248.136 354.661C248.538 354.428 248.855 354.096 249.088 353.667C249.322 353.228 249.438 352.72 249.438 352.141Z" fill="#56566B"/>
<path d="M240.632 347.073C240.389 347.073 240.184 346.989 240.016 346.821C239.848 346.653 239.764 346.448 239.764 346.205C239.764 345.962 239.848 345.757 240.016 345.589C240.184 345.421 240.389 345.337 240.632 345.337C240.865 345.337 241.061 345.421 241.22 345.589C241.388 345.757 241.472 345.962 241.472 346.205C241.472 346.448 241.388 346.653 241.22 346.821C241.061 346.989 240.865 347.073 240.632 347.073ZM241.248 348.319V355.991H239.974V348.319H241.248Z" fill="#56566B"/>
<path d="M234.364 356.117C233.645 356.117 232.992 355.954 232.404 355.627C231.825 355.3 231.368 354.838 231.032 354.241C230.705 353.634 230.542 352.934 230.542 352.141C230.542 351.357 230.71 350.666 231.046 350.069C231.391 349.462 231.858 349 232.446 348.683C233.034 348.356 233.692 348.193 234.42 348.193C235.148 348.193 235.806 348.356 236.394 348.683C236.982 349 237.444 349.458 237.78 350.055C238.125 350.652 238.298 351.348 238.298 352.141C238.298 352.934 238.121 353.634 237.766 354.241C237.421 354.838 236.949 355.3 236.352 355.627C235.755 355.954 235.092 356.117 234.364 356.117ZM234.364 354.997C234.821 354.997 235.251 354.89 235.652 354.675C236.053 354.46 236.375 354.138 236.618 353.709C236.87 353.28 236.996 352.757 236.996 352.141C236.996 351.525 236.875 351.002 236.632 350.573C236.389 350.144 236.072 349.826 235.68 349.621C235.288 349.406 234.863 349.299 234.406 349.299C233.939 349.299 233.51 349.406 233.118 349.621C232.735 349.826 232.427 350.144 232.194 350.573C231.961 351.002 231.844 351.525 231.844 352.141C231.844 352.766 231.956 353.294 232.18 353.723C232.413 354.152 232.721 354.474 233.104 354.689C233.487 354.894 233.907 354.997 234.364 354.997Z" fill="#56566B"/>
<path d="M227.07 349.565C227.294 349.126 227.611 348.786 228.022 348.543C228.442 348.3 228.951 348.179 229.548 348.179V349.495H229.212C227.784 349.495 227.07 350.27 227.07 351.819V355.991H225.796V348.319H227.07V349.565Z" fill="#56566B"/>
<path d="M215.858 352.127C215.858 351.343 216.017 350.657 216.334 350.069C216.652 349.472 217.086 349.01 217.636 348.683C218.196 348.356 218.822 348.193 219.512 348.193C220.11 348.193 220.665 348.333 221.178 348.613C221.692 348.884 222.084 349.243 222.354 349.691V345.631H223.642V355.991H222.354V354.549C222.102 355.006 221.729 355.384 221.234 355.683C220.74 355.972 220.161 356.117 219.498 356.117C218.817 356.117 218.196 355.949 217.636 355.613C217.086 355.277 216.652 354.806 216.334 354.199C216.017 353.592 215.858 352.902 215.858 352.127ZM222.354 352.141C222.354 351.562 222.238 351.058 222.004 350.629C221.771 350.2 221.454 349.873 221.052 349.649C220.66 349.416 220.226 349.299 219.75 349.299C219.274 349.299 218.84 349.411 218.448 349.635C218.056 349.859 217.744 350.186 217.51 350.615C217.277 351.044 217.16 351.548 217.16 352.127C217.16 352.715 217.277 353.228 217.51 353.667C217.744 354.096 218.056 354.428 218.448 354.661C218.84 354.885 219.274 354.997 219.75 354.997C220.226 354.997 220.66 354.885 221.052 354.661C221.454 354.428 221.771 354.096 222.004 353.667C222.238 353.228 222.354 352.72 222.354 352.141Z" fill="#56566B"/>
<path d="M211.118 348.179C212.051 348.179 212.807 348.464 213.386 349.033C213.965 349.593 214.254 350.405 214.254 351.469V355.991H212.994V351.651C212.994 350.886 212.803 350.302 212.42 349.901C212.037 349.49 211.515 349.285 210.852 349.285C210.18 349.285 209.643 349.495 209.242 349.915C208.85 350.335 208.654 350.946 208.654 351.749V355.991H207.38V348.319H208.654V349.411C208.906 349.019 209.247 348.716 209.676 348.501C210.115 348.286 210.595 348.179 211.118 348.179Z" fill="#56566B"/>
<path d="M197.442 352.127C197.442 351.343 197.601 350.657 197.918 350.069C198.236 349.472 198.67 349.01 199.22 348.683C199.78 348.356 200.401 348.193 201.082 348.193C201.754 348.193 202.338 348.338 202.832 348.627C203.327 348.916 203.696 349.28 203.938 349.719V348.319H205.226V355.991H203.938V354.563C203.686 355.011 203.308 355.384 202.804 355.683C202.31 355.972 201.731 356.117 201.068 356.117C200.387 356.117 199.771 355.949 199.22 355.613C198.67 355.277 198.236 354.806 197.918 354.199C197.601 353.592 197.442 352.902 197.442 352.127ZM203.938 352.141C203.938 351.562 203.822 351.058 203.588 350.629C203.355 350.2 203.038 349.873 202.636 349.649C202.244 349.416 201.81 349.299 201.334 349.299C200.858 349.299 200.424 349.411 200.032 349.635C199.64 349.859 199.328 350.186 199.094 350.615C198.861 351.044 198.744 351.548 198.744 352.127C198.744 352.715 198.861 353.228 199.094 353.667C199.328 354.096 199.64 354.428 200.032 354.661C200.424 354.885 200.858 354.997 201.334 354.997C201.81 354.997 202.244 354.885 202.636 354.661C203.038 354.428 203.355 354.096 203.588 353.667C203.822 353.228 203.938 352.72 203.938 352.141Z" fill="#56566B"/>
<path d="M190.238 349.565C190.462 349.126 190.779 348.786 191.19 348.543C191.61 348.3 192.119 348.179 192.716 348.179V349.495H192.38C190.952 349.495 190.238 350.27 190.238 351.819V355.991H188.964V348.319H190.238V349.565Z" fill="#56566B"/>
<path d="M183.354 356.117C182.636 356.117 181.982 355.954 181.394 355.627C180.816 355.3 180.358 354.838 180.022 354.241C179.696 353.634 179.532 352.934 179.532 352.141C179.532 351.357 179.7 350.666 180.036 350.069C180.382 349.462 180.848 349 181.436 348.683C182.024 348.356 182.682 348.193 183.41 348.193C184.138 348.193 184.796 348.356 185.384 348.683C185.972 349 186.434 349.458 186.77 350.055C187.116 350.652 187.288 351.348 187.288 352.141C187.288 352.934 187.111 353.634 186.756 354.241C186.411 354.838 185.94 355.3 185.342 355.627C184.745 355.954 184.082 356.117 183.354 356.117ZM183.354 354.997C183.812 354.997 184.241 354.89 184.642 354.675C185.044 354.46 185.366 354.138 185.608 353.709C185.86 353.28 185.986 352.757 185.986 352.141C185.986 351.525 185.865 351.002 185.622 350.573C185.38 350.144 185.062 349.826 184.67 349.621C184.278 349.406 183.854 349.299 183.396 349.299C182.93 349.299 182.5 349.406 182.108 349.621C181.726 349.826 181.418 350.144 181.184 350.573C180.951 351.002 180.834 351.525 180.834 352.141C180.834 352.766 180.946 353.294 181.17 353.723C181.404 354.152 181.712 354.474 182.094 354.689C182.477 354.894 182.897 354.997 183.354 354.997Z" fill="#56566B"/>
<path d="M178.524 349.369H176.914V355.991H175.64V349.369H174.646V348.319H175.64V347.773C175.64 346.914 175.859 346.289 176.298 345.897C176.746 345.496 177.46 345.295 178.44 345.295V346.359C177.88 346.359 177.483 346.471 177.25 346.695C177.026 346.91 176.914 347.269 176.914 347.773V348.319H178.524V349.369Z" fill="#56566B"/>
<path d="M167.856 349.439C168.108 349.028 168.435 348.706 168.836 348.473C169.247 348.24 169.714 348.123 170.236 348.123V350.181H169.718C169.102 350.181 168.636 350.326 168.318 350.615C168.01 350.904 167.856 351.408 167.856 352.127V355.991H165.896V348.235H167.856V349.439Z" fill="#00D73F"/>
<path d="M164.466 351.945C164.466 352.225 164.447 352.477 164.41 352.701H158.74C158.787 353.261 158.983 353.7 159.328 354.017C159.673 354.334 160.098 354.493 160.602 354.493C161.33 354.493 161.848 354.18 162.156 353.555H164.27C164.046 354.302 163.617 354.918 162.982 355.403C162.347 355.879 161.568 356.117 160.644 356.117C159.897 356.117 159.225 355.954 158.628 355.627C158.04 355.291 157.578 354.82 157.242 354.213C156.915 353.606 156.752 352.906 156.752 352.113C156.752 351.31 156.915 350.606 157.242 349.999C157.569 349.392 158.026 348.926 158.614 348.599C159.202 348.272 159.879 348.109 160.644 348.109C161.381 348.109 162.039 348.268 162.618 348.585C163.206 348.902 163.659 349.355 163.976 349.943C164.303 350.522 164.466 351.189 164.466 351.945ZM162.436 351.385C162.427 350.881 162.245 350.48 161.89 350.181C161.535 349.873 161.101 349.719 160.588 349.719C160.103 349.719 159.692 349.868 159.356 350.167C159.029 350.456 158.829 350.862 158.754 351.385H162.436Z" fill="#00D73F"/>
<path d="M152.595 356.117C151.96 356.117 151.391 356.005 150.887 355.781C150.383 355.548 149.982 355.235 149.683 354.843C149.394 354.451 149.235 354.017 149.207 353.541H151.181C151.218 353.84 151.363 354.087 151.615 354.283C151.876 354.479 152.198 354.577 152.581 354.577C152.954 354.577 153.244 354.502 153.449 354.353C153.664 354.204 153.771 354.012 153.771 353.779C153.771 353.527 153.64 353.34 153.379 353.219C153.127 353.088 152.721 352.948 152.161 352.799C151.582 352.659 151.106 352.514 150.733 352.365C150.369 352.216 150.052 351.987 149.781 351.679C149.52 351.371 149.389 350.956 149.389 350.433C149.389 350.004 149.51 349.612 149.753 349.257C150.005 348.902 150.36 348.622 150.817 348.417C151.284 348.212 151.83 348.109 152.455 348.109C153.379 348.109 154.116 348.342 154.667 348.809C155.218 349.266 155.521 349.887 155.577 350.671H153.701C153.673 350.363 153.542 350.12 153.309 349.943C153.085 349.756 152.782 349.663 152.399 349.663C152.044 349.663 151.769 349.728 151.573 349.859C151.386 349.99 151.293 350.172 151.293 350.405C151.293 350.666 151.424 350.867 151.685 351.007C151.946 351.138 152.352 351.273 152.903 351.413C153.463 351.553 153.925 351.698 154.289 351.847C154.653 351.996 154.966 352.23 155.227 352.547C155.498 352.855 155.638 353.266 155.647 353.779C155.647 354.227 155.521 354.628 155.269 354.983C155.026 355.338 154.672 355.618 154.205 355.823C153.748 356.019 153.211 356.117 152.595 356.117Z" fill="#00D73F"/>
<path d="M148.566 348.235L146.298 355.991H144.184L142.77 350.573L141.356 355.991H139.228L136.946 348.235H138.934L140.306 354.143L141.79 348.235H143.862L145.318 354.129L146.69 348.235H148.566Z" fill="#00D73F"/>
<path d="M132.33 356.117C131.584 356.117 130.912 355.954 130.314 355.627C129.717 355.291 129.246 354.82 128.9 354.213C128.564 353.606 128.396 352.906 128.396 352.113C128.396 351.32 128.569 350.62 128.914 350.013C129.269 349.406 129.75 348.94 130.356 348.613C130.963 348.277 131.64 348.109 132.386 348.109C133.133 348.109 133.81 348.277 134.416 348.613C135.023 348.94 135.499 349.406 135.844 350.013C136.199 350.62 136.376 351.32 136.376 352.113C136.376 352.906 136.194 353.606 135.83 354.213C135.476 354.82 134.99 355.291 134.374 355.627C133.768 355.954 133.086 356.117 132.33 356.117ZM132.33 354.409C132.685 354.409 133.016 354.325 133.324 354.157C133.642 353.98 133.894 353.718 134.08 353.373C134.267 353.028 134.36 352.608 134.36 352.113C134.36 351.376 134.164 350.811 133.772 350.419C133.39 350.018 132.918 349.817 132.358 349.817C131.798 349.817 131.327 350.018 130.944 350.419C130.571 350.811 130.384 351.376 130.384 352.113C130.384 352.85 130.566 353.42 130.93 353.821C131.304 354.213 131.77 354.409 132.33 354.409Z" fill="#00D73F"/>
<path d="M125.187 349.439C125.439 349.028 125.765 348.706 126.167 348.473C126.577 348.24 127.044 348.123 127.567 348.123V350.181H127.049C126.433 350.181 125.966 350.326 125.649 350.615C125.341 350.904 125.187 351.408 125.187 352.127V355.991H123.227V348.235H125.187V349.439Z" fill="#00D73F"/>
<path d="M119.774 350.979C120.325 351.082 120.778 351.357 121.132 351.805C121.487 352.253 121.664 352.766 121.664 353.345C121.664 353.868 121.534 354.33 121.272 354.731C121.02 355.123 120.652 355.431 120.166 355.655C119.681 355.879 119.107 355.991 118.444 355.991H114.23V346.219H118.262C118.925 346.219 119.494 346.326 119.97 346.541C120.456 346.756 120.82 347.054 121.062 347.437C121.314 347.82 121.44 348.254 121.44 348.739C121.44 349.308 121.286 349.784 120.978 350.167C120.68 350.55 120.278 350.82 119.774 350.979ZM116.19 350.251H117.982C118.449 350.251 118.808 350.148 119.06 349.943C119.312 349.728 119.438 349.425 119.438 349.033C119.438 348.641 119.312 348.338 119.06 348.123C118.808 347.908 118.449 347.801 117.982 347.801H116.19V350.251ZM118.164 354.395C118.64 354.395 119.009 354.283 119.27 354.059C119.541 353.835 119.676 353.518 119.676 353.107C119.676 352.687 119.536 352.36 119.256 352.127C118.976 351.884 118.598 351.763 118.122 351.763H116.19V354.395H118.164Z" fill="#00D73F"/>
<path d="M107.618 355.991L106.022 353.583L104.608 355.991H102.508L105.042 352.099L102.48 348.235H104.692L106.274 350.629L107.702 348.235H109.802L107.254 352.099L109.83 355.991H107.618Z" fill="#00D73F"/>
<path d="M101.903 351.945C101.903 352.225 101.885 352.477 101.847 352.701H96.1775C96.2241 353.261 96.4201 353.7 96.7655 354.017C97.1108 354.334 97.5355 354.493 98.0395 354.493C98.7675 354.493 99.2855 354.18 99.5935 353.555H101.707C101.483 354.302 101.054 354.918 100.419 355.403C99.7848 355.879 99.0055 356.117 98.0815 356.117C97.3348 356.117 96.6628 355.954 96.0655 355.627C95.4775 355.291 95.0155 354.82 94.6795 354.213C94.3528 353.606 94.1895 352.906 94.1895 352.113C94.1895 351.31 94.3528 350.606 94.6795 349.999C95.0061 349.392 95.4635 348.926 96.0515 348.599C96.6395 348.272 97.3161 348.109 98.0815 348.109C98.8188 348.109 99.4768 348.268 100.055 348.585C100.643 348.902 101.096 349.355 101.413 349.943C101.74 350.522 101.903 351.189 101.903 351.945ZM99.8735 351.385C99.8641 350.881 99.6821 350.48 99.3274 350.181C98.9728 349.873 98.5388 349.719 98.0255 349.719C97.5401 349.719 97.1295 349.868 96.7935 350.167C96.4668 350.456 96.2661 350.862 96.1915 351.385H99.8735Z" fill="#00D73F"/>
<path d="M84.7012 352.085C84.7012 351.301 84.8552 350.606 85.1632 349.999C85.4805 349.392 85.9098 348.926 86.4512 348.599C86.9925 348.272 87.5945 348.109 88.2572 348.109C88.7612 348.109 89.2418 348.221 89.6992 348.445C90.1565 348.66 90.5205 348.949 90.7912 349.313V345.631H92.7792V355.991H90.7912V354.843C90.5485 355.226 90.2078 355.534 89.7692 355.767C89.3305 356 88.8218 356.117 88.2432 356.117C87.5898 356.117 86.9925 355.949 86.4512 355.613C85.9098 355.277 85.4805 354.806 85.1632 354.199C84.8552 353.583 84.7012 352.878 84.7012 352.085ZM90.8052 352.113C90.8052 351.637 90.7118 351.231 90.5252 350.895C90.3385 350.55 90.0865 350.288 89.7692 350.111C89.4518 349.924 89.1112 349.831 88.7472 349.831C88.3832 349.831 88.0472 349.92 87.7392 350.097C87.4312 350.274 87.1792 350.536 86.9832 350.881C86.7965 351.217 86.7032 351.618 86.7032 352.085C86.7032 352.552 86.7965 352.962 86.9832 353.317C87.1792 353.662 87.4312 353.928 87.7392 354.115C88.0565 354.302 88.3925 354.395 88.7472 354.395C89.1112 354.395 89.4518 354.306 89.7692 354.129C90.0865 353.942 90.3385 353.681 90.5252 353.345C90.7118 353 90.8052 352.589 90.8052 352.113Z" fill="#00D73F"/>
<path d="M83.2686 345.631V355.991H81.3086V345.631H83.2686Z" fill="#00D73F"/>
<path d="M79.8781 351.945C79.8781 352.225 79.8594 352.477 79.8221 352.701H74.1521C74.1987 353.261 74.3947 353.7 74.7401 354.017C75.0854 354.334 75.5101 354.493 76.0141 354.493C76.7421 354.493 77.2601 354.18 77.5681 353.555H79.6821C79.4581 354.302 79.0287 354.918 78.3941 355.403C77.7594 355.879 76.9801 356.117 76.0561 356.117C75.3094 356.117 74.6374 355.954 74.0401 355.627C73.4521 355.291 72.9901 354.82 72.6541 354.213C72.3274 353.606 72.1641 352.906 72.1641 352.113C72.1641 351.31 72.3274 350.606 72.6541 349.999C72.9807 349.392 73.4381 348.926 74.0261 348.599C74.6141 348.272 75.2907 348.109 76.0561 348.109C76.7934 348.109 77.4514 348.268 78.0301 348.585C78.6181 348.902 79.0707 349.355 79.3881 349.943C79.7147 350.522 79.8781 351.189 79.8781 351.945ZM77.8481 351.385C77.8387 350.881 77.6567 350.48 77.3021 350.181C76.9474 349.873 76.5134 349.719 76.0001 349.719C75.5147 349.719 75.1041 349.868 74.7681 350.167C74.4414 350.456 74.2407 350.862 74.1661 351.385H77.8481Z" fill="#00D73F"/>
<path d="M69.2159 350.979C69.7665 351.082 70.2192 351.357 70.5739 351.805C70.9285 352.253 71.1059 352.766 71.1059 353.345C71.1059 353.868 70.9752 354.33 70.7139 354.731C70.4619 355.123 70.0932 355.431 69.6079 355.655C69.1225 355.879 68.5485 355.991 67.8859 355.991H63.6719V346.219H67.7039C68.3665 346.219 68.9359 346.326 69.4119 346.541C69.8972 346.756 70.2612 347.054 70.5039 347.437C70.7559 347.82 70.8819 348.254 70.8819 348.739C70.8819 349.308 70.7279 349.784 70.4199 350.167C70.1212 350.55 69.7199 350.82 69.2159 350.979ZM65.6319 350.251H67.4239C67.8905 350.251 68.2499 350.148 68.5019 349.943C68.7539 349.728 68.8799 349.425 68.8799 349.033C68.8799 348.641 68.7539 348.338 68.5019 348.123C68.2499 347.908 67.8905 347.801 67.4239 347.801H65.6319V350.251ZM67.6059 354.395C68.0819 354.395 68.4505 354.283 68.7119 354.059C68.9825 353.835 69.1179 353.518 69.1179 353.107C69.1179 352.687 68.9779 352.36 68.6979 352.127C68.4179 351.884 68.0399 351.763 67.5639 351.763H65.6319V354.395H67.6059Z" fill="#00D73F"/>
<path d="M230.173 306.567V314.991H225.229V298.239C225.229 297.759 225.453 297.519 225.901 297.519H239.557C240.645 297.519 241.565 297.647 242.317 297.903C243.069 298.159 243.677 298.535 244.141 299.031C244.605 299.511 244.941 300.095 245.149 300.783C245.357 301.471 245.461 302.247 245.461 303.111V304.359C245.461 305.207 245.357 305.967 245.149 306.639C244.941 307.311 244.605 307.887 244.141 308.367C243.693 308.831 243.109 309.191 242.389 309.447C241.669 309.703 240.789 309.831 239.749 309.831H239.245C239.005 309.831 238.789 309.831 238.597 309.831C238.421 309.831 238.245 309.823 238.069 309.807V309.975C238.277 310.167 238.485 310.383 238.693 310.623C238.901 310.847 239.101 311.079 239.293 311.319L242.077 314.799V314.991H236.509L230.341 306.567H230.173ZM230.509 301.887C230.285 301.887 230.173 302.023 230.173 302.295V306.111H238.669C239.325 306.111 239.789 305.983 240.061 305.727C240.349 305.471 240.493 304.983 240.493 304.263V303.663C240.493 302.991 240.349 302.527 240.061 302.271C239.789 302.015 239.325 301.887 238.669 301.887H230.509Z" fill="#0094FF"/>
<path d="M208.192 304.887H208.024V310.119C208.024 310.343 208.136 310.455 208.36 310.455H223.096V314.991H203.776C203.312 314.991 203.08 314.751 203.08 314.271V298.239C203.08 297.759 203.312 297.519 203.776 297.519H222.544C223.024 297.519 223.264 297.759 223.264 298.239V302.775L218.68 304.479H218.488V302.151C218.488 301.975 218.408 301.887 218.248 301.887H208.336C208.208 301.887 208.12 301.927 208.072 302.007C208.04 302.071 208.024 302.143 208.024 302.223V304.407H216.184V307.959H209.344L208.192 304.887Z" fill="#0094FF"/>
<path d="M196.159 303.567H195.967V301.647C195.967 301.455 195.871 301.359 195.679 301.359H186.463C186.127 301.359 185.895 301.431 185.767 301.575C185.639 301.719 185.575 301.927 185.575 302.199V302.631C185.575 302.967 185.631 303.183 185.743 303.279C185.855 303.375 186.071 303.447 186.391 303.495L197.239 305.007C197.927 305.103 198.511 305.255 198.991 305.463C199.471 305.655 199.863 305.919 200.167 306.255C200.471 306.575 200.687 306.975 200.815 307.455C200.943 307.935 201.007 308.503 201.007 309.159V310.551C201.007 311.271 200.919 311.911 200.743 312.471C200.567 313.015 200.279 313.479 199.879 313.863C199.479 314.231 198.951 314.511 198.295 314.703C197.639 314.895 196.831 314.991 195.871 314.991H180.319V310.455H194.263C194.679 310.455 194.951 310.383 195.079 310.239C195.223 310.079 195.295 309.807 195.295 309.423V308.943C195.295 308.639 195.239 308.431 195.127 308.319C195.031 308.191 194.831 308.111 194.527 308.079L184.063 306.759C183.359 306.663 182.751 306.519 182.239 306.327C181.743 306.135 181.335 305.879 181.015 305.559C180.695 305.239 180.463 304.847 180.319 304.383C180.175 303.919 180.103 303.367 180.103 302.727V301.503C180.103 300.239 180.439 299.263 181.111 298.575C181.783 297.871 182.903 297.519 184.471 297.519H199.999C200.495 297.519 200.743 297.775 200.743 298.287V301.887L196.159 303.567Z" fill="#0094FF"/>
<path d="M179.084 297.519V297.711L176.563 314.319C176.531 314.559 176.46 314.735 176.348 314.847C176.252 314.943 176.068 314.991 175.796 314.991H168.62C168.012 314.991 167.659 314.751 167.563 314.271L164.876 301.959C164.844 301.815 164.756 301.743 164.612 301.743H164.396C164.22 301.743 164.116 301.815 164.084 301.959L161.731 314.271C161.635 314.751 161.283 314.991 160.675 314.991H153.715C153.459 314.991 153.275 314.935 153.163 314.823C153.051 314.711 152.98 314.543 152.948 314.319L150.188 297.711V297.519H155.132L157.196 310.743C157.228 310.951 157.348 311.055 157.556 311.055H157.796C157.988 311.055 158.108 310.951 158.156 310.743L160.652 298.143C160.684 297.919 160.764 297.759 160.892 297.663C161.036 297.567 161.259 297.519 161.563 297.519H167.612C168.124 297.519 168.428 297.727 168.524 298.143L171.308 310.743C171.356 310.951 171.468 311.055 171.644 311.055H171.908C172.164 311.055 172.3 310.951 172.316 310.743L174.02 297.519H179.084Z" fill="#0094FF"/>
<path d="M149.544 308.055C149.544 309.111 149.416 310.071 149.16 310.935C148.904 311.783 148.496 312.511 147.936 313.119C147.376 313.711 146.64 314.175 145.728 314.511C144.832 314.831 143.736 314.991 142.44 314.991H134.664C133.368 314.991 132.264 314.831 131.352 314.511C130.44 314.175 129.704 313.711 129.144 313.119C128.584 312.511 128.176 311.783 127.92 310.935C127.664 310.071 127.536 309.111 127.536 308.055V304.455C127.536 303.399 127.664 302.447 127.92 301.599C128.176 300.735 128.584 300.007 129.144 299.415C129.704 298.807 130.44 298.343 131.352 298.023C132.264 297.687 133.368 297.519 134.664 297.519H142.44C143.736 297.519 144.832 297.687 145.728 298.023C146.64 298.343 147.376 298.807 147.936 299.415C148.496 300.007 148.904 300.735 149.16 301.599C149.416 302.447 149.544 303.399 149.544 304.455V308.055ZM132.48 307.623C132.48 308.231 132.536 308.719 132.648 309.087C132.776 309.455 132.968 309.743 133.224 309.951C133.496 310.143 133.84 310.279 134.256 310.359C134.688 310.423 135.216 310.455 135.84 310.455H141.984C142.512 310.455 142.944 310.399 143.28 310.287C143.632 310.175 143.904 309.991 144.096 309.735C144.288 309.463 144.416 309.103 144.48 308.655C144.56 308.207 144.6 307.655 144.6 306.999V304.695C144.6 303.623 144.4 302.887 144 302.487C143.6 302.087 142.928 301.887 141.984 301.887H135.096C134.568 301.887 134.128 301.943 133.776 302.055C133.44 302.167 133.176 302.359 132.984 302.631C132.792 302.887 132.656 303.239 132.576 303.687C132.512 304.119 132.48 304.663 132.48 305.319V307.623Z" fill="#0094FF"/>
<path d="M110.829 306.567V314.991H105.885V298.239C105.885 297.759 106.109 297.519 106.557 297.519H120.213C121.301 297.519 122.221 297.647 122.973 297.903C123.725 298.159 124.333 298.535 124.797 299.031C125.261 299.511 125.597 300.095 125.805 300.783C126.013 301.471 126.117 302.247 126.117 303.111V304.359C126.117 305.207 126.013 305.967 125.805 306.639C125.597 307.311 125.261 307.887 124.797 308.367C124.349 308.831 123.765 309.191 123.045 309.447C122.325 309.703 121.445 309.831 120.405 309.831H119.901C119.661 309.831 119.445 309.831 119.253 309.831C119.077 309.831 118.901 309.823 118.725 309.807V309.975C118.933 310.167 119.141 310.383 119.349 310.623C119.557 310.847 119.757 311.079 119.949 311.319L122.733 314.799V314.991H117.165L110.997 306.567H110.829ZM111.165 301.887C110.941 301.887 110.829 302.023 110.829 302.295V306.111H119.325C119.981 306.111 120.445 305.983 120.717 305.727C121.005 305.471 121.149 304.983 121.149 304.263V303.663C121.149 302.991 121.005 302.527 120.717 302.271C120.445 302.015 119.981 301.887 119.325 301.887H111.165Z" fill="#0094FF"/>
<path d="M89.0553 311.415V314.991H84.1113V298.239C84.1113 297.759 84.3433 297.519 84.8073 297.519H99.1593C100.791 297.519 101.967 297.887 102.687 298.623C103.407 299.343 103.767 300.367 103.767 301.695V303.231C103.767 303.935 103.623 304.503 103.335 304.935C103.047 305.367 102.719 305.711 102.351 305.967C102.863 306.223 103.287 306.599 103.623 307.095C103.959 307.591 104.127 308.207 104.127 308.943V310.479C104.127 311.951 103.775 313.071 103.071 313.839C102.383 314.607 101.191 314.991 99.4953 314.991H90.5913L89.2233 311.415H89.0553ZM89.0553 307.599V310.887H97.6473C98.0793 310.887 98.3913 310.783 98.5833 310.575C98.7913 310.367 98.8953 310.007 98.8953 309.495V308.991C98.8953 308.479 98.7993 308.119 98.6073 307.911C98.4313 307.703 98.1113 307.599 97.6473 307.599H89.0553ZM89.4633 301.407C89.1913 301.407 89.0553 301.543 89.0553 301.815V304.767H97.3593C97.9033 304.767 98.2873 304.663 98.5113 304.455C98.7353 304.247 98.8473 303.887 98.8473 303.375V302.847C98.8473 302.319 98.7353 301.951 98.5113 301.743C98.2873 301.519 97.9033 301.407 97.3593 301.407H89.4633Z" fill="#0094FF"/>
<path d="M230.916 267.519V267.711L222.756 275.727L231.276 284.799V284.991H224.988L219.3 278.895L213.42 284.991H207.42V284.799L216.156 275.751L208.236 267.711V267.519H214.38L219.468 272.919L224.94 267.519H230.916Z" fill="#00DC00"/>
<path d="M191.223 274.887H191.055V280.119C191.055 280.343 191.167 280.455 191.391 280.455H206.127V284.991H186.807C186.343 284.991 186.111 284.751 186.111 284.271V268.239C186.111 267.759 186.343 267.519 186.807 267.519H205.575C206.055 267.519 206.295 267.759 206.295 268.239V272.775L201.711 274.479H201.519V272.151C201.519 271.975 201.439 271.887 201.279 271.887H191.367C191.239 271.887 191.151 271.927 191.103 272.007C191.071 272.071 191.055 272.143 191.055 272.223V274.407H199.215V277.959H192.375L191.223 274.887Z" fill="#00DC00"/>
<path d="M163.213 268.239C163.213 267.759 163.437 267.519 163.885 267.519H176.989C178.285 267.519 179.389 267.687 180.301 268.023C181.213 268.343 181.949 268.807 182.509 269.415C183.069 270.007 183.477 270.735 183.733 271.599C183.989 272.447 184.117 273.399 184.117 274.455V278.055C184.117 279.111 183.989 280.071 183.733 280.935C183.477 281.783 183.069 282.511 182.509 283.119C181.949 283.711 181.213 284.175 180.301 284.511C179.389 284.831 178.285 284.991 176.989 284.991H169.933L168.349 280.911H168.157V284.991H163.213V268.239ZM168.157 280.455H176.533C177.477 280.455 178.149 280.247 178.549 279.831C178.949 279.415 179.149 278.679 179.149 277.623V274.695C179.149 273.607 178.949 272.871 178.549 272.487C178.149 272.087 177.477 271.887 176.533 271.887H168.517C168.405 271.887 168.317 271.927 168.253 272.007C168.189 272.071 168.157 272.151 168.157 272.247V280.455Z" fill="#00DC00"/>
<path d="M147.485 267.519V279.855C147.485 280.047 147.525 280.191 147.605 280.287C147.685 280.383 147.837 280.431 148.061 280.431H161.741V284.991H143.813C143.349 284.991 143.021 284.879 142.829 284.655C142.637 284.415 142.541 284.079 142.541 283.647V267.519H147.485Z" fill="#00DC00"/>
<path d="M125.505 274.887H125.337V280.119C125.337 280.343 125.449 280.455 125.673 280.455H140.409V284.991H121.089C120.625 284.991 120.393 284.751 120.393 284.271V268.239C120.393 267.759 120.625 267.519 121.089 267.519H139.857C140.337 267.519 140.577 267.759 140.577 268.239V272.775L135.993 274.479H135.801V272.151C135.801 271.975 135.721 271.887 135.561 271.887H125.649C125.521 271.887 125.433 271.927 125.385 272.007C125.353 272.071 125.337 272.143 125.337 272.223V274.407H133.497V277.959H126.657L125.505 274.887Z" fill="#00DC00"/>
<path d="M103.563 281.415V284.991H98.6191V268.239C98.6191 267.759 98.8511 267.519 99.3151 267.519H113.667C115.299 267.519 116.475 267.887 117.195 268.623C117.915 269.343 118.275 270.367 118.275 271.695V273.231C118.275 273.935 118.131 274.503 117.843 274.935C117.555 275.367 117.227 275.711 116.859 275.967C117.371 276.223 117.795 276.599 118.131 277.095C118.467 277.591 118.635 278.207 118.635 278.943V280.479C118.635 281.951 118.283 283.071 117.579 283.839C116.891 284.607 115.699 284.991 114.003 284.991H105.099L103.731 281.415H103.563ZM103.563 277.599V280.887H112.155C112.587 280.887 112.899 280.783 113.091 280.575C113.299 280.367 113.403 280.007 113.403 279.495V278.991C113.403 278.479 113.307 278.119 113.115 277.911C112.939 277.703 112.619 277.599 112.155 277.599H103.563ZM103.971 271.407C103.699 271.407 103.563 271.543 103.563 271.815V274.767H111.867C112.411 274.767 112.795 274.663 113.019 274.455C113.243 274.247 113.355 273.887 113.355 273.375V272.847C113.355 272.319 113.243 271.951 113.019 271.743C112.795 271.519 112.411 271.407 111.867 271.407H103.971Z" fill="#00DC00"/>
</g>
</svg>
