<svg width="328" height="442" viewBox="0 0 328 442" fill="none" xmlns="http://www.w3.org/2000/svg">
<path d="M316 0H12C5.37258 0 0 5.37258 0 12V430C0 436.627 5.37258 442 12 442H316C322.627 442 328 436.627 328 430V12C328 5.37258 322.627 0 316 0Z" fill="#F3F3F3"/>
<mask id="mask0_8_117" style="mask-type:alpha" maskUnits="userSpaceOnUse" x="16" y="25" width="296" height="392">
<path d="M300 26.49H28C21.6487 26.49 16.5 31.6387 16.5 37.99V404.99C16.5 411.341 21.6487 416.49 28 416.49H300C306.351 416.49 311.5 411.341 311.5 404.99V37.99C311.5 31.6387 306.351 26.49 300 26.49Z" fill="#F3F3F3" stroke="#DADADA"/>
</mask>
<g mask="url(#mask0_8_117)">
<path d="M300 26.49H28C21.6487 26.49 16.5 31.6387 16.5 37.99V404.99C16.5 411.341 21.6487 416.49 28 416.49H300C306.351 416.49 311.5 411.341 311.5 404.99V37.99C311.5 31.6387 306.351 26.49 300 26.49Z" fill="#F3F3F3" stroke="#DADADA"/>
<path d="M6 322.5C-29.2 320.1 -50 351.17 -56 367V225C-34 224.83 16.1 229.1 40.5 247.5C71 270.5 50 325.5 6 322.5Z" fill="#E3E3E3"/>
<path d="M261.5 18.99C263.9 -16.21 232.83 -37.01 217 -43.01H359C359.17 -21.01 354.9 29.09 336.5 53.49C313.5 83.99 258.5 62.99 261.5 18.99Z" fill="#E3E3E3"/>
<path d="M330.51 438.89C328.11 474.09 359.18 494.89 375.01 500.89H233.01C232.84 478.89 237.11 428.79 255.51 404.39C278.51 373.89 333.51 394.89 330.51 438.89Z" fill="#E3E3E3"/>
</g>
<path d="M231.5 168.99C241.16 168.99 249 161.38 249 151.99C249 142.6 241.16 134.99 231.5 134.99C221.84 134.99 214 142.6 214 151.99C214 161.38 221.84 168.99 231.5 168.99Z" fill="white"/>
<path d="M257.1 126.09C265.19 118 260 99.7 245.52 85.22C231.03 70.73 212.74 65.55 204.65 73.64C196.56 81.73 201.75 100.03 216.23 114.51C230.72 129 249.01 134.18 257.1 126.09Z" fill="white"/>
<path d="M203.03 169.21C215.96 126.48 194.73 82.26 155.63 70.42C116.52 58.59 74.34 83.63 61.41 126.36C48.48 169.09 69.7 213.32 108.81 225.15C147.92 236.98 190.1 211.94 203.03 169.21Z" fill="white"/>
<path d="M228.48 232.3H99.59C94.21 232.3 89.85 227.95 89.85 222.56V101.12C89.85 95.73 94.2 91.38 99.59 91.38H228.48C233.87 91.38 238.22 95.73 238.22 101.12V222.56C238.22 227.94 233.87 232.3 228.48 232.3Z" fill="#E3E3E3"/>
<path d="M229.34 94.82H98.73C93.83 94.82 89.85 98.8 89.85 103.7V112.58H238.22V103.7C238.22 98.8 234.24 94.82 229.34 94.82Z" fill="#DEDEE2"/>
<path d="M229.34 91.09H98.73C93.83 91.09 89.85 95.07 89.85 99.97V108.85H238.22V99.97C238.22 95.07 234.24 91.09 229.34 91.09Z" fill="#00E000"/>
<path d="M103.6 103.27C105.42 103.27 106.89 101.8 106.89 99.98C106.89 98.16 105.42 96.69 103.6 96.69C101.78 96.69 100.31 98.16 100.31 99.98C100.31 101.8 101.78 103.27 103.6 103.27Z" fill="white"/>
<path d="M115.2 103.27C117.02 103.27 118.49 101.8 118.49 99.98C118.49 98.16 117.01 96.69 115.2 96.69C113.39 96.69 111.91 98.16 111.91 99.98C111.91 101.8 113.38 103.27 115.2 103.27Z" fill="white"/>
<path d="M126.8 103.27C128.62 103.27 130.09 101.8 130.09 99.98C130.09 98.16 128.61 96.69 126.8 96.69C124.99 96.69 123.51 98.16 123.51 99.98C123.51 101.8 124.98 103.27 126.8 103.27Z" fill="white"/>
<path d="M200.67 133.46H102.2C101.17 133.46 100.31 132.63 100.31 131.57V129.76C100.31 128.73 101.14 127.87 102.2 127.87H200.67C201.7 127.87 202.56 128.7 202.56 129.76V131.57C202.56 132.6 201.7 133.46 200.67 133.46Z" fill="white"/>
<path d="M200.67 152.36H102.2C101.17 152.36 100.31 151.53 100.31 150.47V148.67C100.31 147.64 101.14 146.78 102.2 146.78H200.67C201.7 146.78 202.56 147.61 202.56 148.67V150.47C202.56 151.5 201.7 152.36 200.67 152.36Z" fill="white"/>
<path d="M180.22 171.27H102.2C101.17 171.27 100.31 170.44 100.31 169.38V167.57C100.31 166.54 101.14 165.68 102.2 165.68H180.22C181.25 165.68 182.11 166.51 182.11 167.57V169.38C182.11 170.44 181.25 171.27 180.22 171.27Z" fill="white"/>
<path d="M160.97 215.63H103.37C101.68 215.63 100.31 214.25 100.31 212.57V187.65C100.31 185.96 101.68 184.58 103.37 184.58H160.97C162.66 184.58 164.04 185.96 164.04 187.65V212.57C164.04 214.26 162.66 215.63 160.97 215.63Z" fill="white"/>
<path d="M217.09 243.66C236.19 243.66 251.67 228.18 251.67 209.08C251.67 189.98 236.18 174.49 217.09 174.49C198 174.49 182.5 189.97 182.5 209.08C182.5 228.19 197.98 243.66 217.09 243.66Z" fill="white" stroke="#00B134"/>
<path d="M230.96 214.13H204.04L217.5 200.67L230.96 214.13Z" fill="#38A5F4"/>
<path d="M217.51 227.56L204.05 214.13H230.97L217.51 227.56Z" fill="#0094FF"/>
<path d="M230.96 203.02H204.04L217.5 189.56L230.96 203.02Z" fill="#00DC00"/>
<path d="M217.51 216.48L204.05 203.02H230.97L217.51 216.48Z" fill="#00A61F"/>
<path d="M76.53 138.3C78.1 138.3 79.37 137.03 79.37 135.46C79.37 133.89 78.1 132.62 76.53 132.62C74.96 132.62 73.69 133.89 73.69 135.46C73.69 137.03 74.96 138.3 76.53 138.3Z" stroke="#0097FF" stroke-width="1.6" stroke-miterlimit="10"/>
<path d="M267.38 171.47C270.27 171.47 272.62 169.12 272.62 166.23C272.62 163.34 270.27 160.99 267.38 160.99C264.49 160.99 262.14 163.34 262.14 166.23C262.14 169.12 264.49 171.47 267.38 171.47Z" fill="#0097FF"/>
<path d="M80.01 85.01C82.22 85.01 84.02 83.21 84.02 81C84.02 78.79 82.22 76.99 80.01 76.99C77.8 76.99 76 78.79 76 81C76 83.21 77.8 85.01 80.01 85.01Z" fill="#00A61F"/>
<path d="M89.99 170.2H92.35V175.44H97.38V177.7H92.35V182.99H89.99V177.7H84.96V175.44H89.99V170.2Z" fill="#00E000"/>
<path d="M261.98 100.75H263.5V104.14H266.75V105.6H263.5V109.02H261.98V105.6H258.73V104.14H261.98V100.75Z" fill="#00E000"/>
<path d="M246.07 364.23L245.92 371.23H244.86L244.71 364.23H246.08H246.07ZM245.44 374.08C245.2 374.08 244.99 374 244.82 373.83C244.65 373.66 244.57 373.46 244.57 373.21C244.57 372.96 244.65 372.76 244.82 372.59C244.99 372.42 245.19 372.34 245.44 372.34C245.69 372.34 245.87 372.42 246.03 372.59C246.2 372.76 246.28 372.96 246.28 373.21C246.28 373.46 246.2 373.66 246.03 373.83C245.87 374 245.68 374.08 245.44 374.08Z" fill="#56566B"/>
<path d="M243.14 366.32L238.52 377.6H237.2L238.71 373.9L235.62 366.31H237.03L239.44 372.53L241.82 366.31H243.14V366.32Z" fill="#56566B"/>
<path d="M227.55 370.14C227.55 369.35 227.71 368.66 228.03 368.07C228.35 367.47 228.79 367.01 229.35 366.68C229.92 366.35 230.57 366.19 231.3 366.19C232.24 366.19 233.02 366.42 233.62 366.88C234.24 367.34 234.64 367.97 234.84 368.78H233.47C233.34 368.31 233.08 367.95 232.7 367.67C232.33 367.4 231.86 367.26 231.3 367.26C230.57 367.26 229.98 367.51 229.54 368.02C229.09 368.51 228.87 369.22 228.87 370.13C228.87 371.04 229.09 371.77 229.54 372.27C229.99 372.77 230.58 373.03 231.3 373.03C231.86 373.03 232.33 372.9 232.7 372.64C233.07 372.38 233.33 372 233.47 371.52H234.84C234.63 372.3 234.22 372.93 233.61 373.41C232.99 373.88 232.22 374.11 231.3 374.11C230.57 374.11 229.92 373.95 229.35 373.62C228.79 373.29 228.35 372.83 228.03 372.23C227.71 371.63 227.55 370.93 227.55 370.13V370.14Z" fill="#56566B"/>
<path d="M218.09 370.13C218.09 369.35 218.25 368.66 218.57 368.07C218.89 367.47 219.32 367.01 219.87 366.68C220.43 366.35 221.05 366.19 221.73 366.19C222.41 366.19 222.98 366.34 223.48 366.62C223.97 366.91 224.34 367.27 224.59 367.71V366.31H225.88V373.98H224.59V372.55C224.34 373 223.96 373.37 223.46 373.67C222.96 373.96 222.39 374.1 221.72 374.1C221.05 374.1 220.42 373.93 219.87 373.6C219.32 373.26 218.88 372.79 218.57 372.19C218.26 371.59 218.09 370.89 218.09 370.12V370.13ZM224.58 370.14C224.58 369.56 224.46 369.06 224.23 368.63C224 368.2 223.68 367.87 223.28 367.65C222.89 367.42 222.45 367.3 221.98 367.3C221.51 367.3 221.07 367.41 220.68 367.64C220.29 367.87 219.97 368.19 219.74 368.62C219.51 369.05 219.39 369.55 219.39 370.13C219.39 370.71 219.51 371.23 219.74 371.67C219.97 372.1 220.29 372.43 220.68 372.66C221.07 372.88 221.51 373 221.98 373C222.45 373 222.89 372.89 223.28 372.66C223.68 372.43 224 372.09 224.23 371.67C224.46 371.23 224.58 370.72 224.58 370.14Z" fill="#56566B"/>
<path d="M213.57 372.82L215.95 366.32H217.31L214.3 373.99H212.82L209.81 366.32H211.18L213.57 372.82Z" fill="#56566B"/>
<path d="M207.93 365.07C207.69 365.07 207.48 364.99 207.31 364.82C207.14 364.65 207.06 364.45 207.06 364.2C207.06 363.95 207.14 363.75 207.31 363.58C207.48 363.41 207.68 363.33 207.93 363.33C208.18 363.33 208.36 363.41 208.52 363.58C208.69 363.75 208.77 363.95 208.77 364.2C208.77 364.45 208.69 364.65 208.52 364.82C208.36 364.99 208.17 365.07 207.93 365.07ZM208.54 366.32V373.99H207.27V366.32H208.54Z" fill="#56566B"/>
<path d="M203.32 367.57C203.54 367.13 203.86 366.79 204.27 366.55C204.69 366.31 205.2 366.19 205.8 366.19V367.51H205.46C204.03 367.51 203.32 368.28 203.32 369.83V374H202.05V366.33H203.32V367.58V367.57Z" fill="#56566B"/>
<path d="M200.46 367.09C200.46 367.9 200.18 368.58 199.62 369.12C199.07 369.65 198.23 369.92 197.09 369.92H195.21V373.99H193.94V364.23H197.09C198.19 364.23 199.03 364.5 199.6 365.03C200.18 365.56 200.47 366.25 200.47 367.09H200.46ZM197.09 368.87C197.8 368.87 198.32 368.72 198.66 368.41C199 368.1 199.16 367.66 199.16 367.09C199.16 365.89 198.47 365.28 197.09 365.28H195.21V368.86H197.09V368.87Z" fill="#56566B"/>
<path d="M186.26 367.57C186.48 367.13 186.8 366.79 187.21 366.55C187.63 366.31 188.14 366.19 188.74 366.19V367.51H188.4C186.97 367.51 186.26 368.28 186.26 369.83V374H184.99V366.33H186.26V367.58V367.57Z" fill="#56566B"/>
<path d="M182.83 366.32V373.99H181.56V372.86C181.32 373.25 180.98 373.56 180.54 373.78C180.11 373.99 179.64 374.1 179.11 374.1C178.51 374.1 177.98 373.98 177.5 373.74C177.02 373.49 176.65 373.12 176.37 372.62C176.1 372.13 175.96 371.52 175.96 370.81V366.32H177.22V370.65C177.22 371.41 177.41 371.99 177.79 372.4C178.17 372.8 178.69 373 179.36 373C180.03 373 180.58 372.79 180.97 372.37C181.36 371.95 181.56 371.34 181.56 370.54V366.33H182.83V366.32Z" fill="#56566B"/>
<path d="M170.42 374.12C169.7 374.12 169.05 373.96 168.46 373.63C167.88 373.3 167.42 372.84 167.09 372.24C166.76 371.63 166.6 370.93 166.6 370.14C166.6 369.35 166.77 368.66 167.1 368.07C167.45 367.46 167.91 367 168.5 366.68C169.09 366.35 169.75 366.19 170.47 366.19C171.19 366.19 171.86 366.35 172.44 366.68C173.03 367 173.49 367.45 173.83 368.05C174.18 368.65 174.35 369.34 174.35 370.14C174.35 370.94 174.17 371.63 173.82 372.24C173.47 372.84 173 373.3 172.41 373.63C171.81 373.96 171.15 374.12 170.42 374.12ZM170.42 373C170.88 373 171.31 372.89 171.71 372.68C172.11 372.47 172.43 372.14 172.68 371.71C172.93 371.28 173.06 370.76 173.06 370.14C173.06 369.52 172.94 369 172.7 368.57C172.46 368.14 172.14 367.82 171.75 367.62C171.36 367.41 170.93 367.3 170.48 367.3C170.03 367.3 169.58 367.41 169.19 367.62C168.81 367.82 168.5 368.14 168.27 368.57C168.04 369 167.92 369.52 167.92 370.14C167.92 370.76 168.03 371.29 168.26 371.72C168.49 372.15 168.8 372.47 169.18 372.69C169.56 372.9 169.98 373 170.44 373H170.42Z" fill="#56566B"/>
<path d="M165.79 366.32L161.17 377.6H159.85L161.36 373.9L158.27 366.31H159.68L162.09 372.53L164.47 366.31H165.79V366.32Z" fill="#56566B"/>
<path d="M149.16 366.19C149.82 366.19 150.4 366.34 150.9 366.62C151.4 366.91 151.78 367.27 152.02 367.71V366.31H153.31V374.15C153.31 374.85 153.16 375.47 152.86 376.01C152.56 376.56 152.13 376.99 151.57 377.3C151.02 377.61 150.37 377.76 149.64 377.76C148.63 377.76 147.79 377.52 147.12 377.05C146.45 376.57 146.05 375.93 145.93 375.1H147.19C147.33 375.57 147.62 375.94 148.06 376.22C148.5 376.51 149.03 376.65 149.64 376.65C150.34 376.65 150.91 376.43 151.35 375.99C151.8 375.55 152.02 374.94 152.02 374.14V372.53C151.77 372.98 151.39 373.35 150.9 373.65C150.4 373.95 149.83 374.1 149.16 374.1C148.49 374.1 147.86 373.93 147.3 373.6C146.75 373.26 146.31 372.79 146 372.19C145.68 371.58 145.52 370.89 145.52 370.12C145.52 369.35 145.68 368.65 146 368.06C146.32 367.46 146.75 367 147.3 366.67C147.86 366.34 148.48 366.18 149.16 366.18V366.19ZM152.01 370.14C152.01 369.56 151.89 369.06 151.66 368.63C151.43 368.2 151.11 367.87 150.71 367.65C150.32 367.42 149.88 367.3 149.41 367.3C148.94 367.3 148.5 367.41 148.11 367.64C147.72 367.87 147.4 368.19 147.17 368.62C146.94 369.05 146.82 369.55 146.82 370.13C146.82 370.71 146.94 371.23 147.17 371.67C147.4 372.1 147.72 372.43 148.11 372.66C148.5 372.88 148.94 373 149.41 373C149.88 373 150.32 372.89 150.71 372.66C151.11 372.43 151.43 372.09 151.66 371.67C151.89 371.23 152.01 370.72 152.01 370.14Z" fill="#56566B"/>
<path d="M140.78 366.18C141.71 366.18 142.47 366.47 143.05 367.03C143.63 367.59 143.92 368.4 143.92 369.47V373.99H142.66V369.65C142.66 368.88 142.47 368.3 142.09 367.9C141.71 367.49 141.19 367.28 140.52 367.28C139.85 367.28 139.31 367.49 138.91 367.91C138.52 368.33 138.32 368.94 138.32 369.74V373.98H137.05V366.31H138.32V367.4C138.57 367.01 138.91 366.7 139.34 366.49C139.78 366.28 140.26 366.17 140.78 366.17V366.18Z" fill="#56566B"/>
<path d="M134.25 365.07C134.01 365.07 133.8 364.99 133.63 364.82C133.46 364.65 133.38 364.45 133.38 364.2C133.38 363.95 133.46 363.75 133.63 363.58C133.8 363.41 134 363.33 134.25 363.33C134.5 363.33 134.68 363.41 134.84 363.58C135.01 363.75 135.09 363.95 135.09 364.2C135.09 364.45 135.01 364.65 134.84 364.82C134.68 364.99 134.48 365.07 134.25 365.07ZM134.87 366.32V373.99H133.6V366.32H134.87Z" fill="#56566B"/>
<path d="M130.05 367.37V371.89C130.05 372.26 130.13 372.53 130.29 372.69C130.45 372.84 130.72 372.91 131.12 372.91H132.06V373.99H130.91C130.2 373.99 129.67 373.83 129.31 373.5C128.96 373.17 128.78 372.64 128.78 371.89V367.37H127.79V366.32H128.78V364.39H130.05V366.32H132.05V367.37H130.05Z" fill="#56566B"/>
<path d="M119.51 370.14C119.51 369.35 119.67 368.66 119.99 368.07C120.31 367.47 120.75 367.01 121.31 366.68C121.88 366.35 122.53 366.19 123.26 366.19C124.2 366.19 124.98 366.42 125.58 366.88C126.2 367.34 126.6 367.97 126.8 368.78H125.43C125.3 368.31 125.04 367.95 124.66 367.67C124.29 367.4 123.82 367.26 123.26 367.26C122.53 367.26 121.94 367.51 121.5 368.02C121.05 368.51 120.83 369.22 120.83 370.13C120.83 371.04 121.05 371.77 121.5 372.27C121.95 372.77 122.54 373.03 123.26 373.03C123.82 373.03 124.29 372.9 124.66 372.64C125.03 372.38 125.29 372 125.43 371.52H126.8C126.59 372.3 126.18 372.93 125.57 373.41C124.95 373.88 124.18 374.11 123.26 374.11C122.53 374.11 121.88 373.95 121.31 373.62C120.75 373.29 120.31 372.83 119.99 372.23C119.67 371.63 119.51 370.93 119.51 370.13V370.14Z" fill="#56566B"/>
<path d="M118.31 369.86C118.31 370.1 118.3 370.36 118.27 370.63H112.14C112.19 371.39 112.44 371.98 112.91 372.41C113.39 372.83 113.96 373.04 114.63 373.04C115.18 373.04 115.64 372.91 116 372.66C116.37 372.4 116.64 372.05 116.78 371.62H118.15C117.94 372.36 117.53 372.96 116.92 373.43C116.3 373.89 115.54 374.12 114.62 374.12C113.89 374.12 113.24 373.96 112.66 373.63C112.09 373.3 111.64 372.84 111.32 372.24C110.99 371.63 110.83 370.93 110.83 370.14C110.83 369.35 110.99 368.65 111.31 368.05C111.63 367.45 112.07 367 112.64 366.68C113.22 366.35 113.88 366.19 114.63 366.19C115.38 366.19 116 366.35 116.56 366.67C117.12 366.99 117.55 367.43 117.85 367.99C118.16 368.54 118.31 369.17 118.31 369.87V369.86ZM116.99 369.6C116.99 369.11 116.88 368.7 116.67 368.35C116.46 367.99 116.16 367.73 115.79 367.55C115.43 367.36 115.02 367.27 114.57 367.27C113.93 367.27 113.38 367.48 112.92 367.89C112.47 368.3 112.21 368.87 112.15 369.6H116.99Z" fill="#56566B"/>
<path d="M107.76 367.37V371.89C107.76 372.26 107.84 372.53 108 372.69C108.16 372.84 108.43 372.91 108.83 372.91H109.77V373.99H108.62C107.91 373.99 107.38 373.83 107.02 373.5C106.67 373.17 106.49 372.64 106.49 371.89V367.37H105.5V366.32H106.49V364.39H107.76V366.32H109.76V367.37H107.76Z" fill="#56566B"/>
<path d="M100.6 374.12C99.88 374.12 99.23 373.96 98.64 373.63C98.06 373.3 97.6 372.84 97.27 372.24C96.94 371.63 96.78 370.93 96.78 370.14C96.78 369.35 96.95 368.66 97.28 368.07C97.63 367.46 98.09 367 98.68 366.68C99.27 366.35 99.93 366.19 100.65 366.19C101.37 366.19 102.04 366.35 102.62 366.68C103.21 367 103.67 367.45 104.01 368.05C104.36 368.65 104.53 369.34 104.53 370.14C104.53 370.94 104.35 371.63 104 372.24C103.65 372.84 103.18 373.3 102.59 373.63C101.99 373.96 101.33 374.12 100.6 374.12ZM100.6 373C101.06 373 101.49 372.89 101.89 372.68C102.29 372.47 102.61 372.14 102.86 371.71C103.11 371.28 103.24 370.76 103.24 370.14C103.24 369.52 103.12 369 102.88 368.57C102.64 368.14 102.32 367.82 101.93 367.62C101.54 367.41 101.11 367.3 100.66 367.3C100.21 367.3 99.76 367.41 99.37 367.62C98.99 367.82 98.68 368.14 98.45 368.57C98.22 369 98.1 369.52 98.1 370.14C98.1 370.76 98.21 371.29 98.44 371.72C98.67 372.15 98.98 372.47 99.36 372.69C99.74 372.9 100.16 373 100.62 373H100.6Z" fill="#56566B"/>
<path d="M93.3 367.57C93.52 367.13 93.84 366.79 94.25 366.55C94.67 366.31 95.18 366.19 95.78 366.19V367.51H95.44C94.01 367.51 93.3 368.28 93.3 369.83V374H92.03V366.33H93.3V367.58V367.57Z" fill="#56566B"/>
<path d="M83.84 367.73C84.09 367.29 84.47 366.93 84.96 366.64C85.46 366.34 86.05 366.19 86.71 366.19C87.37 366.19 88.01 366.35 88.56 366.68C89.12 367.01 89.56 367.47 89.88 368.07C90.2 368.66 90.36 369.34 90.36 370.13C90.36 370.92 90.2 371.59 89.88 372.2C89.56 372.81 89.12 373.28 88.56 373.61C88.01 373.95 87.39 374.11 86.71 374.11C86.03 374.11 85.48 373.96 84.97 373.68C84.48 373.38 84.1 373.01 83.84 372.57V377.62H82.57V366.31H83.84V367.72V367.73ZM89.05 370.13C89.05 369.55 88.93 369.05 88.7 368.62C88.47 368.19 88.15 367.86 87.75 367.64C87.36 367.42 86.92 367.3 86.45 367.3C85.98 367.3 85.55 367.42 85.15 367.65C84.76 367.87 84.44 368.21 84.2 368.64C83.97 369.07 83.85 369.57 83.85 370.14C83.85 370.71 83.97 371.23 84.2 371.67C84.44 372.1 84.76 372.43 85.15 372.66C85.55 372.88 85.99 373 86.45 373C86.91 373 87.36 372.89 87.75 372.66C88.15 372.43 88.47 372.09 88.7 371.67C88.93 371.23 89.05 370.72 89.05 370.13Z" fill="#56566B"/>
<path d="M262.77 356.12C262.18 356.12 261.65 356.02 261.19 355.83C260.72 355.63 260.35 355.35 260.08 354.99C259.81 354.63 259.66 354.21 259.63 353.74H260.95C260.99 354.12 261.16 354.44 261.48 354.68C261.81 354.92 262.23 355.04 262.75 355.04C263.23 355.04 263.62 354.93 263.9 354.72C264.18 354.51 264.32 354.23 264.32 353.91C264.32 353.59 264.17 353.33 263.87 353.17C263.57 353 263.11 352.84 262.48 352.68C261.91 352.53 261.44 352.38 261.08 352.23C260.73 352.07 260.42 351.84 260.16 351.54C259.91 351.23 259.78 350.83 259.78 350.34C259.78 349.95 259.9 349.59 260.13 349.26C260.36 348.93 260.69 348.68 261.12 348.49C261.55 348.29 262.04 348.2 262.59 348.2C263.44 348.2 264.13 348.41 264.65 348.84C265.17 349.27 265.45 349.86 265.49 350.6H264.22C264.19 350.2 264.03 349.88 263.73 349.63C263.44 349.39 263.05 349.27 262.55 349.27C262.09 349.27 261.73 349.37 261.46 349.56C261.19 349.76 261.05 350.01 261.05 350.33C261.05 350.58 261.13 350.79 261.29 350.96C261.46 351.12 261.66 351.25 261.91 351.35C262.16 351.44 262.51 351.55 262.95 351.67C263.5 351.82 263.95 351.97 264.29 352.12C264.64 352.26 264.93 352.47 265.17 352.76C265.42 353.05 265.55 353.43 265.56 353.89C265.56 354.31 265.44 354.69 265.21 355.02C264.98 355.36 264.64 355.62 264.22 355.82C263.8 356.01 263.31 356.1 262.76 356.1L262.77 356.12Z" fill="#56566B"/>
<path d="M257.27 347.07C257.03 347.07 256.82 346.99 256.65 346.82C256.48 346.65 256.4 346.45 256.4 346.2C256.4 345.95 256.48 345.75 256.65 345.58C256.82 345.41 257.02 345.33 257.27 345.33C257.52 345.33 257.7 345.41 257.86 345.58C258.03 345.75 258.11 345.95 258.11 346.2C258.11 346.45 258.03 346.65 257.86 346.82C257.7 346.99 257.51 347.07 257.27 347.07ZM257.89 348.32V355.99H256.62V348.32H257.89Z" fill="#56566B"/>
<path d="M242.94 352.13C242.94 351.35 243.1 350.66 243.42 350.07C243.74 349.47 244.17 349.01 244.72 348.68C245.28 348.35 245.91 348.19 246.6 348.19C247.2 348.19 247.75 348.33 248.27 348.61C248.78 348.88 249.18 349.24 249.45 349.69V345.63H250.74V355.99H249.45V354.55C249.2 355.01 248.83 355.38 248.33 355.68C247.84 355.97 247.26 356.11 246.59 356.11C245.92 356.11 245.29 355.94 244.73 355.61C244.18 355.27 243.75 354.8 243.43 354.2C243.11 353.59 242.95 352.9 242.95 352.13H242.94ZM249.44 352.14C249.44 351.56 249.32 351.06 249.09 350.63C248.86 350.2 248.54 349.87 248.14 349.65C247.75 349.42 247.31 349.3 246.84 349.3C246.37 349.3 245.93 349.41 245.54 349.64C245.15 349.87 244.84 350.19 244.6 350.62C244.37 351.05 244.25 351.55 244.25 352.13C244.25 352.71 244.37 353.23 244.6 353.67C244.83 354.1 245.15 354.43 245.54 354.66C245.93 354.88 246.37 355 246.84 355C247.31 355 247.75 354.89 248.14 354.66C248.54 354.43 248.86 354.09 249.09 353.67C249.32 353.23 249.44 352.72 249.44 352.14Z" fill="#56566B"/>
<path d="M240.63 347.07C240.39 347.07 240.18 346.99 240.01 346.82C239.84 346.65 239.76 346.45 239.76 346.2C239.76 345.95 239.84 345.75 240.01 345.58C240.18 345.41 240.38 345.33 240.63 345.33C240.88 345.33 241.06 345.41 241.22 345.58C241.39 345.75 241.47 345.95 241.47 346.2C241.47 346.45 241.39 346.65 241.22 346.82C241.06 346.99 240.87 347.07 240.63 347.07ZM241.25 348.32V355.99H239.98V348.32H241.25Z" fill="#56566B"/>
<path d="M234.36 356.12C233.64 356.12 232.99 355.96 232.4 355.63C231.82 355.3 231.36 354.84 231.03 354.24C230.7 353.63 230.54 352.93 230.54 352.14C230.54 351.35 230.71 350.66 231.04 350.07C231.39 349.46 231.85 349 232.44 348.68C233.03 348.35 233.69 348.19 234.41 348.19C235.13 348.19 235.8 348.35 236.38 348.68C236.97 349 237.43 349.45 237.77 350.05C238.12 350.65 238.29 351.34 238.29 352.14C238.29 352.94 238.11 353.63 237.76 354.24C237.41 354.84 236.94 355.3 236.35 355.63C235.75 355.96 235.09 356.12 234.36 356.12ZM234.36 355C234.82 355 235.25 354.89 235.65 354.68C236.05 354.47 236.37 354.14 236.62 353.71C236.87 353.28 237 352.76 237 352.14C237 351.52 236.88 351 236.64 350.57C236.4 350.14 236.08 349.82 235.69 349.62C235.3 349.41 234.87 349.3 234.42 349.3C233.97 349.3 233.52 349.41 233.13 349.62C232.75 349.82 232.44 350.14 232.21 350.57C231.98 351 231.86 351.52 231.86 352.14C231.86 352.76 231.97 353.29 232.2 353.72C232.43 354.15 232.74 354.47 233.12 354.69C233.5 354.9 233.92 355 234.38 355H234.36Z" fill="#56566B"/>
<path d="M227.07 349.57C227.29 349.13 227.61 348.79 228.02 348.55C228.44 348.31 228.95 348.19 229.55 348.19V349.51H229.21C227.78 349.51 227.07 350.28 227.07 351.83V356H225.8V348.33H227.07V349.58V349.57Z" fill="#56566B"/>
<path d="M215.86 352.13C215.86 351.35 216.02 350.66 216.34 350.07C216.66 349.47 217.09 349.01 217.64 348.68C218.2 348.35 218.83 348.19 219.52 348.19C220.12 348.19 220.67 348.33 221.19 348.61C221.7 348.88 222.1 349.24 222.37 349.69V345.63H223.66V355.99H222.37V354.55C222.12 355.01 221.75 355.38 221.25 355.68C220.76 355.97 220.18 356.11 219.51 356.11C218.84 356.11 218.21 355.94 217.65 355.61C217.1 355.27 216.67 354.8 216.35 354.2C216.03 353.59 215.87 352.9 215.87 352.13H215.86ZM222.35 352.14C222.35 351.56 222.23 351.06 222 350.63C221.77 350.2 221.45 349.87 221.05 349.65C220.66 349.42 220.22 349.3 219.75 349.3C219.28 349.3 218.84 349.41 218.45 349.64C218.06 349.87 217.75 350.19 217.51 350.62C217.28 351.05 217.16 351.55 217.16 352.13C217.16 352.71 217.28 353.23 217.51 353.67C217.74 354.1 218.06 354.43 218.45 354.66C218.84 354.88 219.28 355 219.75 355C220.22 355 220.66 354.89 221.05 354.66C221.45 354.43 221.77 354.09 222 353.67C222.23 353.23 222.35 352.72 222.35 352.14Z" fill="#56566B"/>
<path d="M211.12 348.18C212.05 348.18 212.81 348.47 213.39 349.03C213.97 349.59 214.26 350.4 214.26 351.47V355.99H213V351.65C213 350.88 212.81 350.3 212.43 349.9C212.05 349.49 211.53 349.28 210.86 349.28C210.19 349.28 209.65 349.49 209.25 349.91C208.86 350.33 208.66 350.94 208.66 351.74V355.98H207.39V348.31H208.66V349.4C208.91 349.01 209.25 348.7 209.68 348.49C210.12 348.28 210.6 348.17 211.12 348.17V348.18Z" fill="#56566B"/>
<path d="M197.44 352.13C197.44 351.35 197.6 350.66 197.92 350.07C198.24 349.47 198.67 349.01 199.22 348.68C199.78 348.35 200.4 348.19 201.08 348.19C201.76 348.19 202.34 348.34 202.83 348.62C203.32 348.91 203.69 349.27 203.94 349.71V348.31H205.23V355.98H203.94V354.55C203.69 355 203.31 355.37 202.81 355.67C202.32 355.96 201.74 356.1 201.07 356.1C200.4 356.1 199.77 355.93 199.22 355.6C198.67 355.26 198.24 354.79 197.92 354.19C197.6 353.58 197.44 352.89 197.44 352.12V352.13ZM203.94 352.14C203.94 351.56 203.82 351.06 203.59 350.63C203.36 350.2 203.04 349.87 202.64 349.65C202.25 349.42 201.81 349.3 201.34 349.3C200.87 349.3 200.43 349.41 200.04 349.64C199.65 349.87 199.34 350.19 199.1 350.62C198.87 351.05 198.75 351.55 198.75 352.13C198.75 352.71 198.87 353.23 199.1 353.67C199.33 354.1 199.65 354.43 200.04 354.66C200.43 354.88 200.87 355 201.34 355C201.81 355 202.25 354.89 202.64 354.66C203.04 354.43 203.36 354.09 203.59 353.67C203.82 353.23 203.94 352.72 203.94 352.14Z" fill="#56566B"/>
<path d="M190.24 349.57C190.46 349.13 190.78 348.79 191.19 348.55C191.61 348.31 192.12 348.19 192.72 348.19V349.51H192.38C190.95 349.51 190.24 350.28 190.24 351.83V356H188.97V348.33H190.24V349.58V349.57Z" fill="#56566B"/>
<path d="M183.35 356.12C182.63 356.12 181.98 355.96 181.39 355.63C180.81 355.3 180.35 354.84 180.02 354.24C179.69 353.63 179.53 352.93 179.53 352.14C179.53 351.35 179.7 350.66 180.03 350.07C180.38 349.46 180.84 349 181.43 348.68C182.02 348.35 182.68 348.19 183.4 348.19C184.12 348.19 184.79 348.35 185.37 348.68C185.96 349 186.42 349.45 186.76 350.05C187.11 350.65 187.28 351.34 187.28 352.14C187.28 352.94 187.1 353.63 186.75 354.24C186.4 354.84 185.93 355.3 185.34 355.63C184.74 355.96 184.08 356.12 183.35 356.12ZM183.35 355C183.81 355 184.24 354.89 184.64 354.68C185.04 354.47 185.36 354.14 185.61 353.71C185.86 353.28 185.99 352.76 185.99 352.14C185.99 351.52 185.87 351 185.63 350.57C185.39 350.14 185.07 349.82 184.68 349.62C184.29 349.41 183.86 349.3 183.41 349.3C182.96 349.3 182.51 349.41 182.12 349.62C181.74 349.82 181.43 350.14 181.2 350.57C180.97 351 180.85 351.52 180.85 352.14C180.85 352.76 180.96 353.29 181.19 353.72C181.42 354.15 181.73 354.47 182.11 354.69C182.49 354.9 182.91 355 183.37 355H183.35Z" fill="#56566B"/>
<path d="M178.52 349.37H176.91V355.99H175.64V349.37H174.65V348.32H175.64V347.77C175.64 346.91 175.86 346.29 176.3 345.89C176.75 345.49 177.46 345.29 178.44 345.29V346.35C177.88 346.35 177.48 346.46 177.25 346.69C177.03 346.9 176.91 347.26 176.91 347.77V348.32H178.52V349.37Z" fill="#56566B"/>
<path d="M167.86 349.44C168.11 349.03 168.44 348.71 168.84 348.47C169.25 348.24 169.72 348.12 170.24 348.12V350.18H169.72C169.1 350.18 168.64 350.32 168.32 350.61C168.01 350.9 167.86 351.4 167.86 352.12V355.98H165.9V348.22H167.86V349.42V349.44Z" fill="#00D73F"/>
<path d="M164.47 351.95C164.47 352.23 164.45 352.48 164.41 352.71H158.74C158.79 353.27 158.98 353.71 159.33 354.03C159.68 354.35 160.1 354.51 160.6 354.51C161.33 354.51 161.85 354.2 162.15 353.57H164.26C164.04 354.32 163.61 354.93 162.97 355.42C162.34 355.9 161.56 356.13 160.63 356.13C159.88 356.13 159.21 355.97 158.61 355.64C158.02 355.3 157.56 354.83 157.22 354.23C156.89 353.62 156.73 352.92 156.73 352.13C156.73 351.34 156.89 350.62 157.22 350.02C157.55 349.41 158 348.95 158.59 348.62C159.18 348.29 159.85 348.13 160.62 348.13C161.39 348.13 162.02 348.29 162.59 348.61C163.18 348.93 163.63 349.38 163.95 349.97C164.28 350.55 164.44 351.22 164.44 351.97L164.47 351.95ZM162.44 351.39C162.44 350.89 162.25 350.49 161.89 350.19C161.54 349.88 161.1 349.73 160.59 349.73C160.1 349.73 159.69 349.88 159.36 350.18C159.03 350.47 158.83 350.88 158.76 351.4H162.44V351.39Z" fill="#00D73F"/>
<path d="M152.6 356.12C151.97 356.12 151.4 356.01 150.89 355.78C150.39 355.55 149.99 355.23 149.69 354.84C149.4 354.45 149.24 354.01 149.21 353.54H151.18C151.22 353.84 151.36 354.09 151.61 354.28C151.87 354.48 152.19 354.57 152.58 354.57C152.97 354.57 153.24 354.5 153.45 354.35C153.66 354.2 153.77 354.01 153.77 353.78C153.77 353.53 153.64 353.34 153.38 353.22C153.13 353.09 152.72 352.95 152.16 352.8C151.58 352.66 151.11 352.51 150.73 352.37C150.37 352.22 150.05 351.99 149.78 351.68C149.52 351.37 149.39 350.96 149.39 350.43C149.39 350 149.51 349.61 149.75 349.25C150 348.9 150.36 348.62 150.81 348.41C151.28 348.21 151.82 348.1 152.45 348.1C153.37 348.1 154.11 348.33 154.66 348.8C155.21 349.26 155.51 349.88 155.57 350.66H153.69C153.66 350.35 153.53 350.11 153.3 349.93C153.08 349.74 152.77 349.65 152.39 349.65C152.04 349.65 151.76 349.72 151.56 349.85C151.37 349.98 151.28 350.16 151.28 350.4C151.28 350.66 151.41 350.86 151.67 351C151.93 351.13 152.34 351.27 152.89 351.41C153.45 351.55 153.91 351.7 154.28 351.84C154.64 351.99 154.96 352.22 155.22 352.54C155.49 352.85 155.63 353.26 155.64 353.77C155.64 354.22 155.51 354.62 155.26 354.97C155.02 355.33 154.66 355.61 154.2 355.81C153.74 356.01 153.21 356.1 152.59 356.1L152.6 356.12Z" fill="#00D73F"/>
<path d="M148.57 348.23L146.3 355.99H144.19L142.78 350.57L141.37 355.99H139.24L136.96 348.23H138.95L140.32 354.14L141.8 348.23H143.87L145.33 354.12L146.7 348.23H148.58H148.57Z" fill="#00D73F"/>
<path d="M132.33 356.12C131.58 356.12 130.91 355.96 130.31 355.63C129.71 355.29 129.24 354.82 128.9 354.22C128.56 353.61 128.4 352.91 128.4 352.12C128.4 351.33 128.57 350.63 128.92 350.02C129.27 349.41 129.76 348.95 130.36 348.62C130.97 348.28 131.64 348.12 132.39 348.12C133.14 348.12 133.81 348.29 134.42 348.62C135.03 348.95 135.5 349.41 135.85 350.02C136.21 350.63 136.38 351.33 136.38 352.12C136.38 352.91 136.2 353.61 135.83 354.22C135.48 354.83 134.99 355.3 134.37 355.63C133.76 355.96 133.08 356.12 132.33 356.12ZM132.33 354.41C132.68 354.41 133.02 354.33 133.32 354.16C133.64 353.98 133.89 353.72 134.08 353.38C134.27 353.04 134.36 352.62 134.36 352.12C134.36 351.38 134.16 350.82 133.77 350.43C133.39 350.03 132.92 349.83 132.36 349.83C131.8 349.83 131.33 350.03 130.95 350.43C130.58 350.82 130.39 351.39 130.39 352.12C130.39 352.85 130.57 353.43 130.94 353.83C131.31 354.22 131.78 354.42 132.34 354.42L132.33 354.41Z" fill="#00D73F"/>
<path d="M125.19 349.44C125.44 349.03 125.77 348.71 126.17 348.47C126.58 348.24 127.05 348.12 127.57 348.12V350.18H127.05C126.43 350.18 125.97 350.32 125.65 350.61C125.34 350.9 125.19 351.4 125.19 352.12V355.98H123.23V348.22H125.19V349.42V349.44Z" fill="#00D73F"/>
<path d="M119.77 350.98C120.32 351.08 120.77 351.36 121.13 351.81C121.48 352.26 121.66 352.77 121.66 353.35C121.66 353.87 121.53 354.33 121.27 354.74C121.02 355.13 120.65 355.44 120.16 355.66C119.67 355.88 119.1 356 118.44 356H114.23V346.23H118.26C118.92 346.23 119.49 346.34 119.97 346.55C120.46 346.77 120.82 347.06 121.06 347.45C121.31 347.83 121.44 348.27 121.44 348.75C121.44 349.32 121.29 349.79 120.98 350.18C120.68 350.56 120.28 350.83 119.78 350.99L119.77 350.98ZM116.19 350.25H117.98C118.45 350.25 118.81 350.15 119.06 349.94C119.31 349.73 119.44 349.42 119.44 349.03C119.44 348.64 119.31 348.34 119.06 348.12C118.81 347.91 118.45 347.8 117.98 347.8H116.19V350.25ZM118.16 354.39C118.64 354.39 119.01 354.28 119.27 354.05C119.54 353.83 119.68 353.51 119.68 353.1C119.68 352.69 119.54 352.35 119.26 352.12C118.98 351.88 118.6 351.76 118.13 351.76H116.2V354.39H118.17H118.16Z" fill="#00D73F"/>
<path d="M107.62 355.99L106.02 353.58L104.61 355.99H102.51L105.04 352.1L102.48 348.24H104.69L106.27 350.63L107.7 348.24H109.8L107.25 352.1L109.83 355.99H107.62Z" fill="#00D73F"/>
<path d="M101.9 351.95C101.9 352.23 101.88 352.48 101.84 352.71H96.17C96.22 353.27 96.41 353.71 96.76 354.03C97.11 354.35 97.53 354.51 98.03 354.51C98.76 354.51 99.28 354.2 99.58 353.57H101.69C101.47 354.32 101.04 354.93 100.4 355.42C99.77 355.9 98.99 356.13 98.06 356.13C97.31 356.13 96.64 355.97 96.04 355.64C95.45 355.3 94.99 354.83 94.65 354.23C94.32 353.62 94.16 352.92 94.16 352.13C94.16 351.34 94.32 350.62 94.65 350.02C94.98 349.41 95.43 348.95 96.02 348.62C96.61 348.29 97.28 348.13 98.05 348.13C98.82 348.13 99.45 348.29 100.02 348.61C100.61 348.93 101.06 349.38 101.38 349.97C101.71 350.55 101.87 351.22 101.87 351.97L101.9 351.95ZM99.87 351.39C99.87 350.89 99.68 350.49 99.32 350.19C98.97 349.88 98.53 349.73 98.02 349.73C97.53 349.73 97.12 349.88 96.79 350.18C96.46 350.47 96.26 350.88 96.19 351.4H99.87V351.39Z" fill="#00D73F"/>
<path d="M84.7 352.08C84.7 351.3 84.85 350.6 85.16 349.99C85.48 349.38 85.91 348.92 86.45 348.59C86.99 348.26 87.59 348.1 88.26 348.1C88.76 348.1 89.24 348.21 89.7 348.44C90.16 348.65 90.52 348.94 90.79 349.31V345.63H92.78V355.99H90.79V354.84C90.55 355.22 90.21 355.53 89.77 355.76C89.33 355.99 88.82 356.11 88.24 356.11C87.59 356.11 86.99 355.94 86.45 355.61C85.91 355.27 85.48 354.8 85.16 354.2C84.85 353.58 84.7 352.88 84.7 352.09V352.08ZM90.81 352.11C90.81 351.63 90.72 351.23 90.53 350.89C90.34 350.54 90.09 350.28 89.77 350.11C89.45 349.92 89.11 349.83 88.75 349.83C88.39 349.83 88.05 349.92 87.74 350.1C87.43 350.28 87.18 350.54 86.98 350.88C86.79 351.22 86.7 351.62 86.7 352.08C86.7 352.54 86.79 352.96 86.98 353.31C87.18 353.66 87.43 353.92 87.74 354.11C88.06 354.3 88.39 354.39 88.75 354.39C89.11 354.39 89.45 354.3 89.77 354.12C90.09 353.93 90.34 353.67 90.53 353.34C90.72 352.99 90.81 352.58 90.81 352.11Z" fill="#00D73F"/>
<path d="M83.27 345.63V355.99H81.31V345.63H83.27Z" fill="#00D73F"/>
<path d="M79.88 351.95C79.88 352.23 79.86 352.48 79.82 352.71H74.15C74.2 353.27 74.39 353.71 74.74 354.03C75.09 354.35 75.51 354.51 76.01 354.51C76.74 354.51 77.26 354.2 77.56 353.57H79.67C79.45 354.32 79.02 354.93 78.38 355.42C77.75 355.9 76.97 356.13 76.04 356.13C75.29 356.13 74.62 355.97 74.02 355.64C73.43 355.3 72.97 354.83 72.63 354.23C72.3 353.62 72.14 352.92 72.14 352.13C72.14 351.34 72.3 350.62 72.63 350.02C72.96 349.41 73.41 348.95 74 348.62C74.59 348.29 75.26 348.13 76.03 348.13C76.8 348.13 77.43 348.29 78 348.61C78.59 348.93 79.04 349.38 79.36 349.97C79.69 350.55 79.85 351.22 79.85 351.97L79.88 351.95ZM77.85 351.39C77.85 350.89 77.66 350.49 77.3 350.19C76.95 349.88 76.51 349.73 76 349.73C75.51 349.73 75.1 349.88 74.77 350.18C74.44 350.47 74.24 350.88 74.17 351.4H77.85V351.39Z" fill="#00D73F"/>
<path d="M69.22 350.98C69.77 351.08 70.22 351.36 70.58 351.81C70.93 352.26 71.11 352.77 71.11 353.35C71.11 353.87 70.98 354.33 70.72 354.74C70.47 355.13 70.1 355.44 69.61 355.66C69.12 355.88 68.55 356 67.89 356H63.68V346.23H67.71C68.37 346.23 68.94 346.34 69.42 346.55C69.91 346.77 70.27 347.06 70.51 347.45C70.76 347.83 70.89 348.27 70.89 348.75C70.89 349.32 70.74 349.79 70.43 350.18C70.13 350.56 69.73 350.83 69.23 350.99L69.22 350.98ZM65.63 350.25H67.42C67.89 350.25 68.25 350.15 68.5 349.94C68.75 349.73 68.88 349.42 68.88 349.03C68.88 348.64 68.75 348.34 68.5 348.12C68.25 347.91 67.89 347.8 67.42 347.8H65.63V350.25ZM67.61 354.39C68.09 354.39 68.45 354.28 68.72 354.05C68.99 353.83 69.13 353.51 69.13 353.1C69.13 352.69 68.99 352.35 68.71 352.12C68.43 351.88 68.05 351.76 67.58 351.76H65.65V354.39H67.62H67.61Z" fill="#00D73F"/>
<path d="M230.17 306.57V314.99H225.23V298.24C225.23 297.76 225.45 297.52 225.9 297.52H239.56C240.65 297.52 241.57 297.65 242.32 297.9C243.07 298.16 243.68 298.53 244.14 299.03C244.6 299.51 244.94 300.09 245.15 300.78C245.36 301.47 245.46 302.24 245.46 303.11V304.36C245.46 305.21 245.36 305.97 245.15 306.64C244.94 307.31 244.61 307.89 244.14 308.37C243.69 308.83 243.11 309.19 242.39 309.45C241.67 309.71 240.79 309.83 239.75 309.83H238.6C238.42 309.83 238.25 309.83 238.07 309.81V309.98C238.28 310.17 238.49 310.39 238.69 310.63C238.9 310.85 239.1 311.09 239.29 311.33L242.07 314.81V315H236.5L230.33 306.58H230.16L230.17 306.57ZM230.51 301.89C230.29 301.89 230.17 302.03 230.17 302.3V306.12H238.67C239.33 306.12 239.79 305.99 240.06 305.74C240.35 305.48 240.49 305 240.49 304.28V303.68C240.49 303.01 240.35 302.54 240.06 302.29C239.79 302.03 239.32 301.91 238.67 301.91H230.51V301.89Z" fill="#0094FF"/>
<path d="M208.19 304.89H208.02V310.12C208.02 310.34 208.13 310.46 208.36 310.46H223.1V315H203.78C203.32 315 203.08 314.76 203.08 314.28V298.25C203.08 297.77 203.31 297.53 203.78 297.53H222.55C223.03 297.53 223.27 297.77 223.27 298.25V302.79L218.69 304.49H218.5V302.16C218.5 301.98 218.42 301.9 218.26 301.9H208.35C208.22 301.9 208.13 301.94 208.09 302.02C208.06 302.08 208.04 302.16 208.04 302.24V304.42H216.2V307.97H209.36L208.21 304.9L208.19 304.89Z" fill="#0094FF"/>
<path d="M196.16 303.57H195.97V301.65C195.97 301.46 195.87 301.36 195.68 301.36H186.46C186.12 301.36 185.89 301.43 185.76 301.58C185.63 301.72 185.57 301.93 185.57 302.2V302.63C185.57 302.97 185.63 303.18 185.74 303.28C185.85 303.38 186.07 303.45 186.39 303.5L197.24 305.01C197.93 305.11 198.51 305.26 198.99 305.47C199.47 305.66 199.86 305.93 200.17 306.26C200.47 306.58 200.69 306.98 200.82 307.46C200.95 307.94 201.01 308.51 201.01 309.16V310.55C201.01 311.27 200.92 311.91 200.75 312.47C200.57 313.01 200.29 313.48 199.89 313.86C199.49 314.23 198.96 314.51 198.31 314.7C197.65 314.89 196.85 314.99 195.89 314.99H180.34V310.45H194.28C194.7 310.45 194.97 310.38 195.1 310.23C195.24 310.07 195.32 309.8 195.32 309.41V308.93C195.32 308.63 195.26 308.42 195.15 308.31C195.05 308.18 194.85 308.1 194.55 308.07L184.09 306.75C183.39 306.65 182.78 306.51 182.27 306.32C181.77 306.13 181.37 305.87 181.05 305.55C180.73 305.23 180.5 304.84 180.35 304.37C180.2 303.9 180.13 303.35 180.13 302.71V301.49C180.13 300.23 180.47 299.25 181.14 298.56C181.81 297.86 182.93 297.5 184.5 297.5H200.03C200.53 297.5 200.77 297.76 200.77 298.27V301.87L196.19 303.55L196.16 303.57Z" fill="#0094FF"/>
<path d="M179.08 297.52V297.71L176.56 314.32C176.53 314.56 176.46 314.74 176.35 314.85C176.25 314.95 176.07 314.99 175.8 314.99H168.62C168.01 314.99 167.66 314.75 167.56 314.27L164.87 301.96C164.84 301.82 164.75 301.74 164.61 301.74H164.39C164.21 301.74 164.11 301.81 164.08 301.96L161.73 314.27C161.63 314.75 161.28 314.99 160.67 314.99H153.71C153.45 314.99 153.27 314.93 153.16 314.82C153.05 314.71 152.98 314.54 152.95 314.32L150.19 297.71V297.52H155.13L157.19 310.74C157.22 310.95 157.34 311.05 157.55 311.05H157.79C157.98 311.05 158.1 310.95 158.15 310.74L160.65 298.14C160.68 297.92 160.76 297.76 160.89 297.66C161.03 297.56 161.26 297.52 161.56 297.52H167.61C168.12 297.52 168.43 297.73 168.52 298.14L171.3 310.74C171.35 310.95 171.46 311.05 171.64 311.05H171.9C172.16 311.05 172.29 310.95 172.31 310.74L174.01 297.52H179.07H179.08Z" fill="#0094FF"/>
<path d="M149.54 308.05C149.54 309.11 149.41 310.07 149.16 310.93C148.9 311.78 148.5 312.51 147.94 313.11C147.38 313.7 146.64 314.17 145.73 314.5C144.83 314.82 143.74 314.98 142.44 314.98H134.66C133.36 314.98 132.26 314.82 131.35 314.5C130.44 314.16 129.7 313.7 129.14 313.11C128.58 312.5 128.17 311.77 127.92 310.93C127.66 310.07 127.54 309.11 127.54 308.05V304.45C127.54 303.39 127.67 302.44 127.92 301.59C128.18 300.73 128.58 300 129.14 299.41C129.7 298.8 130.44 298.34 131.35 298.02C132.26 297.68 133.37 297.52 134.66 297.52H142.44C143.74 297.52 144.83 297.69 145.73 298.02C146.64 298.34 147.38 298.8 147.94 299.41C148.5 300 148.91 300.73 149.16 301.59C149.42 302.44 149.54 303.39 149.54 304.45V308.05ZM132.48 307.62C132.48 308.23 132.54 308.72 132.65 309.08C132.78 309.45 132.97 309.74 133.23 309.94C133.5 310.13 133.85 310.27 134.26 310.35C134.69 310.41 135.22 310.45 135.84 310.45H141.98C142.51 310.45 142.94 310.39 143.28 310.28C143.63 310.17 143.9 309.98 144.1 309.73C144.29 309.46 144.42 309.1 144.48 308.65C144.56 308.2 144.6 307.65 144.6 306.99V304.69C144.6 303.62 144.4 302.88 144 302.48C143.6 302.08 142.93 301.88 141.98 301.88H135.09C134.56 301.88 134.12 301.94 133.77 302.05C133.43 302.16 133.17 302.35 132.98 302.63C132.79 302.89 132.65 303.24 132.57 303.69C132.51 304.12 132.47 304.67 132.47 305.32V307.62H132.48Z" fill="#0094FF"/>
<path d="M110.83 306.57V314.99H105.89V298.24C105.89 297.76 106.11 297.52 106.56 297.52H120.22C121.31 297.52 122.23 297.65 122.98 297.9C123.73 298.16 124.34 298.53 124.8 299.03C125.26 299.51 125.6 300.09 125.81 300.78C126.02 301.47 126.12 302.24 126.12 303.11V304.36C126.12 305.21 126.02 305.97 125.81 306.64C125.6 307.31 125.27 307.89 124.8 308.37C124.35 308.83 123.77 309.19 123.05 309.45C122.33 309.71 121.45 309.83 120.41 309.83H119.26C119.08 309.83 118.91 309.83 118.73 309.81V309.98C118.94 310.17 119.15 310.39 119.35 310.63C119.56 310.85 119.76 311.09 119.95 311.33L122.73 314.81V315H117.16L110.99 306.58H110.82L110.83 306.57ZM111.17 301.89C110.95 301.89 110.83 302.03 110.83 302.3V306.12H119.33C119.99 306.12 120.45 305.99 120.72 305.74C121.01 305.48 121.15 305 121.15 304.28V303.68C121.15 303.01 121.01 302.54 120.72 302.29C120.45 302.03 119.98 301.91 119.33 301.91H111.17V301.89Z" fill="#0094FF"/>
<path d="M89.06 311.42V315H84.12V298.25C84.12 297.77 84.35 297.53 84.82 297.53H99.17C100.8 297.53 101.98 297.9 102.7 298.63C103.42 299.35 103.78 300.37 103.78 301.7V303.24C103.78 303.94 103.64 304.51 103.35 304.94C103.06 305.37 102.73 305.72 102.37 305.97C102.88 306.23 103.31 306.6 103.64 307.1C103.97 307.6 104.14 308.21 104.14 308.95V310.49C104.14 311.96 103.79 313.08 103.08 313.85C102.39 314.62 101.2 315 99.5 315H90.6L89.23 311.42H89.06ZM89.06 307.6V310.89H97.65C98.08 310.89 98.39 310.79 98.59 310.58C98.8 310.37 98.9 310.01 98.9 309.5V309C98.9 308.49 98.8 308.13 98.61 307.92C98.43 307.71 98.11 307.61 97.65 307.61H89.06V307.6ZM89.46 301.41C89.19 301.41 89.05 301.55 89.05 301.82V304.77H97.35C97.89 304.77 98.28 304.67 98.5 304.46C98.72 304.25 98.84 303.89 98.84 303.38V302.85C98.84 302.32 98.73 301.95 98.5 301.75C98.28 301.53 97.89 301.41 97.35 301.41H89.45H89.46Z" fill="#0094FF"/>
<path d="M230.92 267.52V267.71L222.76 275.73L231.28 284.8V284.99H224.99L219.3 278.89L213.42 284.99H207.42V284.8L216.16 275.75L208.24 267.71V267.52H214.38L219.47 272.92L224.94 267.52H230.92Z" fill="#00DC00"/>
<path d="M191.22 274.89H191.05V280.12C191.05 280.34 191.16 280.46 191.39 280.46H206.13V285H186.81C186.35 285 186.11 284.76 186.11 284.28V268.25C186.11 267.77 186.34 267.53 186.81 267.53H205.58C206.06 267.53 206.3 267.77 206.3 268.25V272.79L201.72 274.49H201.53V272.16C201.53 271.98 201.45 271.9 201.29 271.9H191.38C191.25 271.9 191.16 271.94 191.12 272.02C191.09 272.08 191.07 272.16 191.07 272.24V274.42H199.23V277.97H192.39L191.24 274.9L191.22 274.89Z" fill="#00DC00"/>
<path d="M163.21 268.24C163.21 267.76 163.43 267.52 163.88 267.52H176.98C178.28 267.52 179.38 267.69 180.29 268.02C181.2 268.34 181.94 268.8 182.5 269.41C183.06 270 183.47 270.73 183.72 271.59C183.98 272.44 184.1 273.39 184.1 274.45V278.05C184.1 279.11 183.97 280.07 183.72 280.93C183.46 281.78 183.06 282.51 182.5 283.11C181.94 283.7 181.2 284.17 180.29 284.5C179.38 284.82 178.27 284.98 176.98 284.98H169.92L168.34 280.9H168.15V284.98H163.21V268.23V268.24ZM168.16 280.45H176.54C177.48 280.45 178.16 280.24 178.56 279.83C178.96 279.41 179.16 278.68 179.16 277.62V274.69C179.16 273.6 178.96 272.87 178.56 272.48C178.16 272.08 177.49 271.88 176.54 271.88H168.52C168.41 271.88 168.32 271.92 168.26 272C168.2 272.06 168.16 272.14 168.16 272.24V280.45Z" fill="#00DC00"/>
<path d="M147.49 267.52V279.86C147.49 280.05 147.53 280.2 147.61 280.29C147.69 280.39 147.84 280.43 148.07 280.43H161.75V284.99H143.82C143.36 284.99 143.03 284.88 142.84 284.65C142.65 284.41 142.55 284.07 142.55 283.64V267.51H147.49V267.52Z" fill="#00DC00"/>
<path d="M125.5 274.89H125.33V280.12C125.33 280.34 125.44 280.46 125.67 280.46H140.41V285H121.09C120.63 285 120.39 284.76 120.39 284.28V268.25C120.39 267.77 120.62 267.53 121.09 267.53H139.86C140.34 267.53 140.58 267.77 140.58 268.25V272.79L136 274.49H135.81V272.16C135.81 271.98 135.73 271.9 135.57 271.9H125.66C125.53 271.9 125.44 271.94 125.4 272.02C125.37 272.08 125.35 272.16 125.35 272.24V274.42H133.51V277.97H126.67L125.52 274.9L125.5 274.89Z" fill="#00DC00"/>
<path d="M103.56 281.42V285H98.62V268.25C98.62 267.77 98.85 267.53 99.32 267.53H113.67C115.3 267.53 116.48 267.9 117.2 268.63C117.92 269.35 118.28 270.37 118.28 271.7V273.24C118.28 273.94 118.14 274.51 117.85 274.94C117.56 275.37 117.23 275.72 116.87 275.97C117.38 276.23 117.81 276.6 118.14 277.1C118.48 277.6 118.64 278.21 118.64 278.95V280.49C118.64 281.96 118.29 283.08 117.58 283.85C116.89 284.62 115.7 285 114 285H105.1L103.73 281.42H103.56ZM103.56 277.6V280.89H112.15C112.58 280.89 112.89 280.79 113.09 280.58C113.3 280.37 113.4 280.01 113.4 279.5V279C113.4 278.49 113.3 278.13 113.11 277.92C112.93 277.71 112.61 277.61 112.15 277.61H103.56V277.6ZM103.97 271.41C103.7 271.41 103.56 271.55 103.56 271.82V274.77H111.86C112.4 274.77 112.79 274.67 113.01 274.46C113.23 274.25 113.35 273.89 113.35 273.38V272.85C113.35 272.32 113.24 271.95 113.01 271.75C112.79 271.53 112.4 271.41 111.86 271.41H103.96H103.97Z" fill="#00DC00"/>
</svg>
