<svg width="42" height="42" viewBox="0 0 42 42" fill="none" xmlns="http://www.w3.org/2000/svg">
<path d="M9.52429 21.6011V21.9019L9.53543 21.3378C9.52429 21.4253 9.52429 21.5072 9.52429 21.6011Z" fill="#0A0A0A"/>
<path d="M31.086 15.396L31.0971 15.9609V26.0297C31.0971 26.3587 31.0323 26.6844 30.9064 26.9883C30.7804 27.2923 30.5959 27.5684 30.3632 27.801C30.1306 28.0336 29.8544 28.2181 29.5504 28.3439C29.2464 28.4697 28.9206 28.5344 28.5917 28.5343H25.1187V25.2022H26.3734C26.5487 25.2026 26.7224 25.1685 26.8845 25.1018C27.0466 25.0351 27.1939 24.9371 27.3181 24.8134C27.4423 24.6897 27.5409 24.5427 27.6083 24.3809C27.6757 24.2191 27.7106 24.0456 27.7109 23.8703V17.8187C27.7111 17.643 27.6767 17.469 27.6095 17.3067C27.5424 17.1443 27.4439 16.9968 27.3196 16.8725C27.1954 16.7483 27.0479 16.6498 26.8855 16.5827C26.7231 16.5155 26.5491 16.4811 26.3734 16.4813H20.2073C20.0316 16.4811 19.8576 16.5155 19.6953 16.5827C19.5329 16.6498 19.3854 16.7483 19.2611 16.8725C19.1369 16.9968 19.0384 17.1443 18.9712 17.3067C18.9041 17.469 18.8697 17.643 18.8699 17.8187V23.8703C18.8702 24.0456 18.905 24.2191 18.9724 24.3809C19.0398 24.5427 19.1384 24.6897 19.2626 24.8134C19.3868 24.9371 19.5342 25.0351 19.6963 25.1018C19.8584 25.1685 20.032 25.2026 20.2073 25.2022H21.7477V28.5343H18.0002C17.6713 28.5344 17.3456 28.4697 17.0416 28.3439C16.7377 28.2181 16.4616 28.0336 16.229 27.801C15.9964 27.5684 15.8119 27.2922 15.686 26.9883C15.5602 26.6844 15.4955 26.3586 15.4956 26.0297V15.6594C15.4955 15.3304 15.5602 15.0047 15.686 14.7008C15.8119 14.3969 15.9964 14.1207 16.229 13.8881C16.4616 13.6555 16.7377 13.471 17.0416 13.3452C17.3456 13.2193 17.6713 13.1546 18.0002 13.1547H27.2797L31.1162 7.52563L31.086 15.396Z" fill="#1574AD"/>
<path d="M26.3863 25.2021H19.629V28.5342H25.7514C26.2731 28.5338 26.7733 28.3264 27.1422 27.9575C27.5111 27.5886 27.7186 27.0884 27.719 26.5666V23.8702C27.7186 24.2235 27.578 24.5621 27.3281 24.8118C27.0783 25.0616 26.7396 25.2019 26.3863 25.2021Z" fill="url(#paint0_linear_8_606)"/>
<path d="M22.62 19.0957H18.871V22.4286H20.4113C20.5866 22.4281 20.7602 22.4623 20.9223 22.529C21.0844 22.5957 21.2318 22.6937 21.356 22.8174C21.4802 22.9411 21.5788 23.088 21.6462 23.2498C21.7136 23.4117 21.7484 23.5852 21.7487 23.7605V29.8073C21.749 29.983 21.7145 30.157 21.6474 30.3193C21.5802 30.4817 21.4817 30.6292 21.3575 30.7535C21.2333 30.8777 21.0857 30.9762 20.9234 31.0433C20.761 31.1105 20.587 31.1449 20.4113 31.1447H14.234C14.0583 31.1449 13.8843 31.1105 13.722 31.0433C13.5596 30.9762 13.4121 30.8777 13.2879 30.7535C13.1636 30.6292 13.0651 30.4817 12.998 30.3193C12.9308 30.157 12.8964 29.983 12.8966 29.8073V23.7605C12.8969 23.5852 12.9317 23.4117 12.9991 23.2498C13.0665 23.088 13.1651 22.9411 13.2894 22.8174C13.4136 22.6937 13.5609 22.5957 13.723 22.529C13.8851 22.4623 14.0588 22.4281 14.234 22.4286H15.4911V19.0957H13.3429L9.50403 13.4666L9.53188 21.3378L9.52392 21.9019V31.9706C9.52381 32.2996 9.58852 32.6254 9.71434 32.9293C9.84017 33.2333 10.0246 33.5095 10.2572 33.7422C10.4898 33.9748 10.766 34.1594 11.0699 34.2853C11.3738 34.4112 11.6996 34.476 12.0286 34.476H22.6255C22.9545 34.476 23.2803 34.4112 23.5842 34.2853C23.8881 34.1594 24.1643 33.9748 24.3969 33.7422C24.6294 33.5095 24.8139 33.2333 24.9397 32.9293C25.0656 32.6254 25.1303 32.2996 25.1302 31.9706V21.6011C25.1293 20.9361 24.8644 20.2985 24.3937 19.8287C23.923 19.3589 23.285 19.0952 22.62 19.0957Z" fill="#3EC745"/>
<path d="M12.897 29.8057V26.4298H9.53784V28.5454C9.53763 28.8866 9.60468 29.2245 9.73516 29.5398C9.86563 29.855 10.057 30.1415 10.2982 30.3827C10.5395 30.624 10.8259 30.8154 11.1412 30.9458C11.4565 31.0763 11.7944 31.1434 12.1356 31.1431H14.2344C13.8799 31.1427 13.5399 31.0017 13.2892 30.7509C13.0385 30.5002 12.8974 30.1603 12.897 29.8057Z" fill="url(#paint1_linear_8_606)"/>
<path d="M25.1255 31.9705V26.4297H21.7488V29.543C21.7488 29.543 22.1761 34.4704 18.9641 34.4704H22.624C22.9525 34.4707 23.2777 34.4062 23.5813 34.2807C23.8848 34.1552 24.1606 33.9711 24.3929 33.739C24.6253 33.5068 24.8095 33.2311 24.9352 32.9276C25.0609 32.6242 25.1256 32.2989 25.1255 31.9705Z" fill="url(#paint2_linear_8_606)"/>
<path d="M20.2033 19.0957H14.2345V22.4278H20.2033V19.0957Z" fill="url(#paint3_linear_8_606)"/>
<path d="M18.8723 19.0957H15.4956V22.4278H18.8723V19.0957Z" fill="#1574AD"/>
<path d="M18.8715 23.8646V17.9061H15.4956V22.9051C15.4964 23.5139 15.7386 24.0975 16.169 24.5281C16.5994 24.9587 17.183 25.201 17.7918 25.2021H20.2089C20.0332 25.2023 19.8592 25.1678 19.6968 25.1007C19.5345 25.0336 19.387 24.9351 19.2627 24.8108C19.1385 24.6866 19.04 24.5391 18.9728 24.3767C18.9057 24.2143 18.8712 24.0403 18.8715 23.8646Z" fill="url(#paint4_linear_8_606)"/>
<path d="M21.0005 39.4782C17.3455 39.4788 13.7724 38.3955 10.7331 36.3652C7.69381 34.3349 5.32495 31.4488 3.92614 28.072C2.52732 24.6952 2.1614 20.9794 2.87465 17.3946C3.5879 13.8098 5.34828 10.5171 7.93312 7.9329C11.3986 4.46741 16.0988 2.52051 20.9997 2.52051C25.9007 2.52051 30.6009 4.46741 34.0663 7.9329C37.5318 11.3984 39.4787 16.0986 39.4787 20.9996C39.4787 25.9005 37.5318 30.6008 34.0663 34.0663C32.3546 35.7876 30.3184 37.1523 28.0756 38.0812C25.8328 39.0102 23.4281 39.485 21.0005 39.4782ZM21.0005 3.79561C11.5134 3.79561 3.79585 11.5133 3.79585 21.0004C3.79585 30.4875 11.5134 38.2052 21.0005 38.2052C30.4876 38.2052 38.2052 30.4875 38.2052 21.0004C38.2052 11.5133 30.4876 3.79561 21.0005 3.79561Z" fill="#34AF3A"/>
<defs>
<linearGradient id="paint0_linear_8_606" x1="27.7182" y1="26.2022" x2="19.6282" y2="26.2022" gradientUnits="userSpaceOnUse">
<stop stop-opacity="0.3"/>
<stop offset="1" stop-color="#1574AD"/>
</linearGradient>
<linearGradient id="paint1_linear_8_606" x1="11.8857" y1="31.1439" x2="11.8857" y2="26.4298" gradientUnits="userSpaceOnUse">
<stop stop-opacity="0.3"/>
<stop offset="0.07" stop-color="#071808" stop-opacity="0.35"/>
<stop offset="0.25" stop-color="#184D1B" stop-opacity="0.47"/>
<stop offset="0.42" stop-color="#26792A" stop-opacity="0.59"/>
<stop offset="0.58" stop-color="#309B36" stop-opacity="0.71"/>
<stop offset="0.74" stop-color="#38B33E" stop-opacity="0.82"/>
<stop offset="0.88" stop-color="#3CC243" stop-opacity="0.92"/>
<stop offset="1" stop-color="#3EC745"/>
</linearGradient>
<linearGradient id="paint2_linear_8_606" x1="22.0448" y1="34.4704" x2="22.0448" y2="26.4297" gradientUnits="userSpaceOnUse">
<stop stop-opacity="0.3"/>
<stop offset="0.23" stop-color="#123914" stop-opacity="0.46"/>
<stop offset="0.49" stop-color="#257529" stop-opacity="0.65"/>
<stop offset="0.72" stop-color="#32A238" stop-opacity="0.8"/>
<stop offset="0.9" stop-color="#3BBD41" stop-opacity="0.93"/>
<stop offset="1" stop-color="#3EC745"/>
</linearGradient>
<linearGradient id="paint3_linear_8_606" x1="20.2033" y1="20.7626" x2="14.2345" y2="20.7626" gradientUnits="userSpaceOnUse">
<stop stop-color="#3EC745"/>
<stop offset="0.06" stop-color="#3AB940" stop-opacity="0.92"/>
<stop offset="0.16" stop-color="#2F9534" stop-opacity="0.78"/>
<stop offset="0.3" stop-color="#1C5B20" stop-opacity="0.58"/>
<stop offset="0.48" stop-color="#040B04" stop-opacity="0.33"/>
<stop offset="0.5" stop-opacity="0.3"/>
<stop offset="0.61" stop-color="#123914" stop-opacity="0.46"/>
<stop offset="0.75" stop-color="#257529" stop-opacity="0.65"/>
<stop offset="0.86" stop-color="#32A238" stop-opacity="0.8"/>
<stop offset="0.95" stop-color="#3BBD41" stop-opacity="0.93"/>
<stop offset="1" stop-color="#3EC745"/>
</linearGradient>
<linearGradient id="paint4_linear_8_606" x1="17.8523" y1="25.2021" x2="17.8523" y2="17.9069" gradientUnits="userSpaceOnUse">
<stop stop-opacity="0.3"/>
<stop offset="0.18" stop-color="#062233" stop-opacity="0.43"/>
<stop offset="0.37" stop-color="#0B3F5F" stop-opacity="0.56"/>
<stop offset="0.55" stop-color="#105681" stop-opacity="0.68"/>
<stop offset="0.72" stop-color="#136799" stop-opacity="0.8"/>
<stop offset="0.87" stop-color="#1471A8" stop-opacity="0.91"/>
<stop offset="1" stop-color="#1574AD"/>
</linearGradient>
</defs>
</svg>
