<svg width="14" height="14" viewBox="0 0 14 14" fill="none" xmlns="http://www.w3.org/2000/svg">
<g clip-path="url(#clip0_320_192)">
<path d="M2.65234 7.22756V7.34149L2.65656 7.12779C2.65234 7.16095 2.65234 7.19199 2.65234 7.22756Z" fill="#0A0A0A"/>
<path d="M10.8206 4.87685L10.8248 5.09085V8.90523C10.8248 9.02985 10.8003 9.15326 10.7526 9.2684C10.7049 9.38354 10.6349 9.48815 10.5468 9.57627C10.4587 9.66438 10.354 9.73426 10.2389 9.78193C10.1237 9.8296 10.0003 9.85411 9.87568 9.85407H8.56001V8.59176H9.03534C9.10174 8.59191 9.16753 8.57899 9.22893 8.55371C9.29034 8.52844 9.34617 8.49131 9.39322 8.44445C9.44027 8.3976 9.47763 8.34193 9.50316 8.28063C9.52869 8.21933 9.54189 8.1536 9.54201 8.08719V5.79465C9.54209 5.72809 9.52904 5.66217 9.50361 5.60066C9.47817 5.53915 9.44085 5.48327 9.39379 5.4362C9.34672 5.38914 9.29084 5.35182 9.22933 5.32638C9.16782 5.30095 9.1019 5.2879 9.03534 5.28798H6.69939C6.63283 5.2879 6.56691 5.30095 6.5054 5.32638C6.44389 5.35182 6.38801 5.38914 6.34094 5.4362C6.29388 5.48327 6.25656 5.53915 6.23112 5.60066C6.20569 5.66217 6.19264 5.72809 6.19272 5.79465V8.08719C6.19284 8.1536 6.20604 8.21933 6.23157 8.28063C6.2571 8.34193 6.29446 8.3976 6.34151 8.44445C6.38857 8.49131 6.44439 8.52844 6.5058 8.55371C6.5672 8.57899 6.63299 8.59191 6.69939 8.59176H7.28293V9.85407H5.86327C5.73866 9.85411 5.61526 9.8296 5.50012 9.78192C5.38498 9.73425 5.28037 9.66436 5.19225 9.57625C5.10413 9.48813 5.03424 9.38352 4.98657 9.26838C4.9389 9.15324 4.91439 9.02984 4.91443 8.90523V4.97662C4.91439 4.852 4.9389 4.7286 4.98657 4.61346C5.03424 4.49833 5.10413 4.39371 5.19225 4.30559C5.28037 4.21748 5.38498 4.14759 5.50012 4.09992C5.61526 4.05225 5.73866 4.02773 5.86327 4.02777H9.37865L10.8321 1.89528L10.8206 4.87685Z" fill="#1574AD"/>
<path d="M9.04024 8.59175H6.48035V9.85407H8.79971C8.99736 9.85391 9.18686 9.77532 9.32661 9.63557C9.46636 9.49582 9.54495 9.30632 9.54511 9.10868V8.08719C9.54495 8.22101 9.4917 8.3493 9.39704 8.4439C9.30239 8.5385 9.17406 8.59167 9.04024 8.59175Z" fill="url(#paint0_linear_320_192)"/>
<path d="M7.61356 6.27841H6.1933V7.54103H6.77684C6.84324 7.54087 6.90903 7.5538 6.97043 7.57907C7.03184 7.60435 7.08766 7.64147 7.13472 7.68833C7.18177 7.73519 7.21913 7.79086 7.24466 7.85216C7.27019 7.91346 7.28339 7.97919 7.28351 8.04559V10.3363C7.28359 10.4029 7.27054 10.4688 7.2451 10.5303C7.21967 10.5918 7.18235 10.6477 7.13529 10.6948C7.08822 10.7418 7.03233 10.7792 6.97083 10.8046C6.90932 10.83 6.8434 10.8431 6.77684 10.843H4.43667C4.37011 10.8431 4.30419 10.83 4.24268 10.8046C4.18117 10.7792 4.12529 10.7418 4.07822 10.6948C4.03116 10.6477 3.99384 10.5918 3.9684 10.5303C3.94297 10.4688 3.92992 10.4029 3.93 10.3363V8.04559C3.93012 7.97919 3.94332 7.91346 3.96885 7.85216C3.99438 7.79086 4.03174 7.73519 4.07879 7.68833C4.12584 7.64147 4.18167 7.60435 4.24308 7.57907C4.30448 7.5538 4.37027 7.54087 4.43667 7.54103H4.9129V6.27841H4.09909L2.64478 4.14592L2.65532 7.12779L2.65231 7.34149V11.1559C2.65227 11.2805 2.67678 11.4039 2.72445 11.5191C2.77212 11.6342 2.842 11.7389 2.93011 11.827C3.01823 11.9151 3.12284 11.9851 3.23798 12.0328C3.35312 12.0805 3.47653 12.105 3.60116 12.105H7.61567C7.7403 12.105 7.86371 12.0805 7.97884 12.0328C8.09398 11.9851 8.1986 11.9151 8.28671 11.827C8.37482 11.7389 8.44471 11.6342 8.49237 11.5191C8.54004 11.4039 8.56455 11.2805 8.56451 11.1559V7.22756C8.56419 6.97561 8.46384 6.73411 8.28552 6.55612C8.1072 6.37814 7.8655 6.27825 7.61356 6.27841Z" fill="#3EC745"/>
<path d="M3.93003 10.3357V9.05683H2.65747V9.85829C2.65739 9.98754 2.68279 10.1155 2.73222 10.235C2.78165 10.3544 2.85413 10.4629 2.94553 10.5543C3.03693 10.6457 3.14545 10.7182 3.26489 10.7676C3.38432 10.8171 3.51232 10.8425 3.64158 10.8424H4.43671C4.30238 10.8422 4.1736 10.7888 4.07861 10.6938C3.98363 10.5988 3.93019 10.4701 3.93003 10.3357Z" fill="url(#paint1_linear_320_192)"/>
<path d="M8.56277 11.1559V9.05683H7.28358V10.2363C7.28358 10.2363 7.44544 12.1029 6.22864 12.1029H7.61513C7.73956 12.103 7.86279 12.0786 7.97778 12.0311C8.09277 11.9835 8.19726 11.9138 8.28527 11.8258C8.37328 11.7379 8.44309 11.6334 8.49071 11.5185C8.53833 11.4035 8.56281 11.2803 8.56277 11.1559Z" fill="url(#paint2_linear_320_192)"/>
<path d="M6.69796 6.27841H4.43677V7.54073H6.69796V6.27841Z" fill="url(#paint3_linear_320_192)"/>
<path d="M6.19362 6.27841H4.91443V7.54073H6.19362V6.27841Z" fill="#1574AD"/>
<path d="M6.19332 8.08508V5.8278H4.91443V7.72158C4.91475 7.95221 5.00649 8.17332 5.16954 8.33643C5.3326 8.49954 5.55367 8.59136 5.7843 8.59175H6.7C6.63344 8.59183 6.56751 8.57878 6.50601 8.55335C6.4445 8.52791 6.38861 8.4906 6.34155 8.44353C6.29448 8.39647 6.25716 8.34058 6.23173 8.27907C6.20629 8.21756 6.19324 8.15164 6.19332 8.08508Z" fill="url(#paint4_linear_320_192)"/>
<path d="M6.99959 13.9998C5.61493 14 4.2613 13.5896 3.10992 12.8205C1.95854 12.0513 1.06113 10.958 0.53121 9.67875C0.0012898 8.3995 -0.137336 6.99183 0.132868 5.6338C0.403072 4.27576 1.06997 3.02836 2.0492 2.04939C3.36204 0.736543 5.14264 -0.00100709 6.99929 -0.00100708C8.85593 -0.00100707 10.6365 0.736543 11.9494 2.04939C13.2622 3.36224 13.9998 5.14284 13.9998 6.99948C13.9998 8.85613 13.2622 10.6367 11.9494 11.9496C11.3009 12.6017 10.5295 13.1187 9.67989 13.4706C8.83025 13.8225 7.91923 14.0024 6.99959 13.9998ZM6.99959 0.482045C3.40555 0.482045 0.481851 3.40575 0.481851 6.99979C0.481851 10.5938 3.40555 13.5175 6.99959 13.5175C10.5936 13.5175 13.5173 10.5938 13.5173 6.99979C13.5173 3.40575 10.5936 0.482045 6.99959 0.482045Z" fill="#34AF3A"/>
</g>
<defs>
<linearGradient id="paint0_linear_320_192" x1="9.54481" y1="8.97063" x2="6.48005" y2="8.97063" gradientUnits="userSpaceOnUse">
<stop stop-opacity="0.3"/>
<stop offset="1" stop-color="#1574AD"/>
</linearGradient>
<linearGradient id="paint1_linear_320_192" x1="3.54694" y1="10.8427" x2="3.54694" y2="9.05683" gradientUnits="userSpaceOnUse">
<stop stop-opacity="0.3"/>
<stop offset="0.07" stop-color="#071808" stop-opacity="0.35"/>
<stop offset="0.25" stop-color="#184D1B" stop-opacity="0.47"/>
<stop offset="0.42" stop-color="#26792A" stop-opacity="0.59"/>
<stop offset="0.58" stop-color="#309B36" stop-opacity="0.71"/>
<stop offset="0.74" stop-color="#38B33E" stop-opacity="0.82"/>
<stop offset="0.88" stop-color="#3CC243" stop-opacity="0.92"/>
<stop offset="1" stop-color="#3EC745"/>
</linearGradient>
<linearGradient id="paint2_linear_320_192" x1="7.39571" y1="12.1029" x2="7.39571" y2="9.05683" gradientUnits="userSpaceOnUse">
<stop stop-opacity="0.3"/>
<stop offset="0.23" stop-color="#123914" stop-opacity="0.46"/>
<stop offset="0.49" stop-color="#257529" stop-opacity="0.65"/>
<stop offset="0.72" stop-color="#32A238" stop-opacity="0.8"/>
<stop offset="0.9" stop-color="#3BBD41" stop-opacity="0.93"/>
<stop offset="1" stop-color="#3EC745"/>
</linearGradient>
<linearGradient id="paint3_linear_320_192" x1="6.69796" y1="6.90987" x2="4.43677" y2="6.90987" gradientUnits="userSpaceOnUse">
<stop stop-color="#3EC745"/>
<stop offset="0.06" stop-color="#3AB940" stop-opacity="0.92"/>
<stop offset="0.16" stop-color="#2F9534" stop-opacity="0.78"/>
<stop offset="0.3" stop-color="#1C5B20" stop-opacity="0.58"/>
<stop offset="0.48" stop-color="#040B04" stop-opacity="0.33"/>
<stop offset="0.5" stop-opacity="0.3"/>
<stop offset="0.61" stop-color="#123914" stop-opacity="0.46"/>
<stop offset="0.75" stop-color="#257529" stop-opacity="0.65"/>
<stop offset="0.86" stop-color="#32A238" stop-opacity="0.8"/>
<stop offset="0.95" stop-color="#3BBD41" stop-opacity="0.93"/>
<stop offset="1" stop-color="#3EC745"/>
</linearGradient>
<linearGradient id="paint4_linear_320_192" x1="5.80721" y1="8.59176" x2="5.80721" y2="5.82811" gradientUnits="userSpaceOnUse">
<stop stop-opacity="0.3"/>
<stop offset="0.18" stop-color="#062233" stop-opacity="0.43"/>
<stop offset="0.37" stop-color="#0B3F5F" stop-opacity="0.56"/>
<stop offset="0.55" stop-color="#105681" stop-opacity="0.68"/>
<stop offset="0.72" stop-color="#136799" stop-opacity="0.8"/>
<stop offset="0.87" stop-color="#1471A8" stop-opacity="0.91"/>
<stop offset="1" stop-color="#1574AD"/>
</linearGradient>
<clipPath id="clip0_320_192">
<rect width="14" height="14" fill="white"/>
</clipPath>
</defs>
</svg>
