<svg width="328" height="442" viewBox="0 0 328 442" fill="none" xmlns="http://www.w3.org/2000/svg">
<path d="M316 0H12C5.37258 0 0 5.37258 0 12V430C0 436.627 5.37258 442 12 442H316C322.627 442 328 436.627 328 430V12C328 5.37258 322.627 0 316 0Z" fill="#282836"/>
<mask id="mask0_8_114" style="mask-type:alpha" maskUnits="userSpaceOnUse" x="16" y="26" width="296" height="391">
<path d="M300 26.5H28C21.6487 26.5 16.5 31.6487 16.5 38V405C16.5 411.351 21.6487 416.5 28 416.5H300C306.351 416.5 311.5 411.351 311.5 405V38C311.5 31.6487 306.351 26.5 300 26.5Z" fill="#282836" stroke="#42425F"/>
</mask>
<g mask="url(#mask0_8_114)">
<path d="M300 26.5H28C21.6487 26.5 16.5 31.6487 16.5 38V405C16.5 411.351 21.6487 416.5 28 416.5H300C306.351 416.5 311.5 411.351 311.5 405V38C311.5 31.6487 306.351 26.5 300 26.5Z" fill="#282836" stroke="#42425F"/>
<path d="M6 322.51C-29.2 320.11 -50 351.18 -56 367.01V225.01C-34 224.84 16.1 229.11 40.5 247.51C71 270.51 50 325.51 6 322.51Z" fill="#39394B"/>
<path d="M261.5 19C263.9 -16.2 232.83 -37 217 -43H359C359.17 -21 354.9 29.1 336.5 53.5C313.5 84 258.5 63 261.5 19Z" fill="#39394B"/>
<path d="M330.51 438.9C328.11 474.1 359.18 494.9 375.01 500.9H233.01C232.84 478.9 237.11 428.8 255.51 404.4C278.51 373.9 333.51 394.9 330.51 438.9Z" fill="#39394B"/>
</g>
<path d="M231.5 169C241.16 169 249 161.39 249 152C249 142.61 241.16 135 231.5 135C221.84 135 214 142.61 214 152C214 161.39 221.84 169 231.5 169Z" fill="#393A4D"/>
<path d="M257.1 126.1C265.19 118.01 260 99.71 245.52 85.23C231.03 70.74 212.74 65.56 204.65 73.65C196.56 81.74 201.75 100.04 216.23 114.52C230.72 129.01 249.01 134.19 257.1 126.1Z" fill="#393A4D"/>
<path d="M203.03 169.21C215.96 126.48 194.73 82.25 155.63 70.42C116.52 58.59 74.34 83.63 61.41 126.36C48.48 169.09 69.7 213.32 108.81 225.15C147.92 236.98 190.1 211.94 203.03 169.21Z" fill="#393A4D"/>
<path d="M228.48 232.31H99.59C94.21 232.31 89.85 227.96 89.85 222.57V101.12C89.85 95.73 94.2 91.38 99.59 91.38H228.48C233.87 91.38 238.22 95.73 238.22 101.12V222.57C238.22 227.95 233.87 232.31 228.48 232.31Z" fill="#282938" stroke="#00B134"/>
<path d="M229.34 94.83H98.73C93.83 94.83 89.85 98.81 89.85 103.71V112.59H238.22V103.71C238.22 98.81 234.24 94.83 229.34 94.83Z" fill="#393A4D"/>
<path d="M229.34 91.1H98.73C93.83 91.1 89.85 95.08 89.85 99.98V108.86H238.22V99.98C238.22 95.08 234.24 91.1 229.34 91.1Z" fill="#00E000"/>
<path d="M103.6 103.28C105.42 103.28 106.89 101.81 106.89 99.99C106.89 98.17 105.42 96.7 103.6 96.7C101.78 96.7 100.31 98.17 100.31 99.99C100.31 101.81 101.78 103.28 103.6 103.28Z" fill="#393A4D"/>
<path d="M115.2 103.28C117.02 103.28 118.49 101.81 118.49 99.99C118.49 98.17 117.01 96.7 115.2 96.7C113.39 96.7 111.91 98.17 111.91 99.99C111.91 101.81 113.38 103.28 115.2 103.28Z" fill="#393A4D"/>
<path d="M126.8 103.28C128.62 103.28 130.09 101.81 130.09 99.99C130.09 98.17 128.62 96.7 126.8 96.7C124.98 96.7 123.51 98.17 123.51 99.99C123.51 101.81 124.98 103.28 126.8 103.28Z" fill="#393A4D"/>
<path d="M200.67 133.47H102.2C101.17 133.47 100.31 132.64 100.31 131.58V129.77C100.31 128.74 101.14 127.88 102.2 127.88H200.67C201.7 127.88 202.56 128.71 202.56 129.77V131.58C202.56 132.61 201.7 133.47 200.67 133.47Z" fill="#393A4D"/>
<path d="M200.67 152.37H102.2C101.17 152.37 100.31 151.54 100.31 150.48V148.68C100.31 147.65 101.14 146.79 102.2 146.79H200.67C201.7 146.79 202.56 147.62 202.56 148.68V150.48C202.56 151.51 201.7 152.37 200.67 152.37Z" fill="#393A4D"/>
<path d="M180.22 171.27H102.2C101.17 171.27 100.31 170.44 100.31 169.38V167.58C100.31 166.55 101.14 165.69 102.2 165.69H180.22C181.25 165.69 182.11 166.52 182.11 167.58V169.38C182.11 170.44 181.25 171.27 180.22 171.27Z" fill="#393A4D"/>
<path d="M160.97 215.64H103.37C101.68 215.64 100.3 214.26 100.3 212.57V187.65C100.3 185.96 101.68 184.58 103.37 184.58H160.97C162.66 184.58 164.03 185.96 164.03 187.65V212.57C164.03 214.26 162.66 215.64 160.97 215.64Z" fill="#393A4D"/>
<path d="M217.09 243.67C236.19 243.67 251.67 228.19 251.67 209.09C251.67 189.99 236.18 174.5 217.09 174.5C198 174.5 182.5 189.98 182.5 209.09C182.5 228.2 197.98 243.67 217.09 243.67Z" fill="#393A4D" stroke="#00B134"/>
<path d="M230.96 214.14H204.04L217.5 200.68L230.96 214.14Z" fill="#38A5F4"/>
<path d="M217.51 227.57L204.05 214.13H230.97L217.51 227.57Z" fill="#0094FF"/>
<path d="M230.96 203.03H204.04L217.5 189.57L230.96 203.03Z" fill="#00DC00"/>
<path d="M217.51 216.49L204.05 203.03H230.97L217.51 216.49Z" fill="#00A61F"/>
<path d="M76.5299 138.31C78.0999 138.31 79.3699 137.04 79.3699 135.47C79.3699 133.9 78.0999 132.64 76.5299 132.64C74.9599 132.64 73.6899 133.91 73.6899 135.47C73.6899 137.03 74.9599 138.31 76.5299 138.31Z" stroke="#0097FF" stroke-width="1.6" stroke-miterlimit="10"/>
<path d="M267.38 171.48C270.27 171.48 272.62 169.13 272.62 166.24C272.62 163.35 270.27 161 267.38 161C264.49 161 262.14 163.35 262.14 166.24C262.14 169.13 264.49 171.48 267.38 171.48Z" fill="#0097FF"/>
<path d="M80.01 85.02C82.22 85.02 84.02 83.22 84.02 81.01C84.02 78.8 82.22 77 80.01 77C77.8 77 76 78.8 76 81.01C76 83.22 77.8 85.02 80.01 85.02Z" fill="#00A61F"/>
<path d="M89.99 170.21H92.35V175.45H97.38V177.71H92.35V183H89.99V177.71H84.96V175.45H89.99V170.21Z" fill="#00E000"/>
<path d="M261.98 100.75H263.5V104.14H266.75V105.6H263.5V109.02H261.98V105.6H258.73V104.14H261.98V100.75Z" fill="#00E000"/>
<path d="M69.1201 353.12C69.1201 352.28 68.5201 351.78 67.5701 351.78H65.6401V354.41H67.6101C68.5601 354.41 69.1201 353.95 69.1201 353.12ZM68.8801 349.04C68.8801 348.26 68.3501 347.81 67.4201 347.81H65.6301V350.26H67.4201C68.3401 350.26 68.8801 349.84 68.8801 349.04ZM71.1101 353.35C71.1101 354.9 69.9201 356 67.8901 356H63.6801V346.23H67.7101C69.7501 346.23 70.8901 347.29 70.8901 348.75C70.8901 349.94 70.1801 350.68 69.2201 350.99C70.3301 351.19 71.1101 352.21 71.1101 353.36V353.35ZM76.0001 349.73C75.0601 349.73 74.3201 350.33 74.1701 351.4H77.8501C77.8201 350.38 77.0101 349.73 76.0001 349.73ZM79.6801 353.56C79.2601 354.99 77.9701 356.12 76.0501 356.12C73.8001 356.12 72.1601 354.55 72.1601 352.12C72.1601 349.69 73.7601 348.12 76.0501 348.12C78.3401 348.12 79.8701 349.65 79.8701 351.96C79.8701 352.21 79.8601 352.46 79.8101 352.72H74.1401C74.2401 353.87 75.0201 354.51 76.0001 354.51C76.8401 354.51 77.3001 354.09 77.5501 353.57H79.6601L79.6801 353.56ZM81.3101 356V345.64H83.2701V356H81.3101ZM84.7001 352.09C84.7001 349.67 86.2701 348.11 88.2601 348.11C89.2801 348.11 90.2601 348.59 90.7901 349.31V345.63H92.7801V355.99H90.7901V354.84C90.3301 355.55 89.4601 356.11 88.2401 356.11C86.2701 356.11 84.7001 354.5 84.7001 352.08V352.09ZM90.8101 352.12C90.8101 350.65 89.8301 349.84 88.7501 349.84C87.6701 349.84 86.7101 350.62 86.7101 352.09C86.7101 353.56 87.7001 354.4 88.7501 354.4C89.8001 354.4 90.8101 353.59 90.8101 352.12ZM98.0301 349.73C97.0901 349.73 96.3501 350.33 96.2001 351.4H99.8801C99.8501 350.38 99.0401 349.73 98.0301 349.73ZM101.71 353.56C101.29 354.99 100 356.12 98.0801 356.12C95.8301 356.12 94.1901 354.55 94.1901 352.12C94.1901 349.69 95.7901 348.12 98.0801 348.12C100.37 348.12 101.9 349.65 101.9 351.96C101.9 352.21 101.89 352.46 101.84 352.72H96.1701C96.2701 353.87 97.0501 354.51 98.0301 354.51C98.8701 354.51 99.3301 354.09 99.5801 353.57H101.69L101.71 353.56ZM107.62 356L106.02 353.59L104.61 356H102.51L105.04 352.11L102.48 348.25H104.69L106.27 350.64L107.7 348.25H109.8L107.25 352.11L109.83 356H107.62ZM119.68 353.12C119.68 352.28 119.08 351.78 118.13 351.78H116.2V354.41H118.17C119.12 354.41 119.68 353.95 119.68 353.12ZM119.44 349.04C119.44 348.26 118.91 347.81 117.98 347.81H116.19V350.26H117.98C118.9 350.26 119.44 349.84 119.44 349.04ZM121.67 353.35C121.67 354.9 120.48 356 118.45 356H114.24V346.23H118.27C120.31 346.23 121.45 347.29 121.45 348.75C121.45 349.94 120.74 350.68 119.78 350.99C120.89 351.19 121.67 352.21 121.67 353.36V353.35ZM125.19 352.14V356H123.23V348.24H125.19V349.44C125.68 348.64 126.49 348.12 127.57 348.12V350.18H127.05C125.89 350.18 125.19 350.63 125.19 352.13V352.14ZM136.38 352.12C136.38 354.56 134.59 356.12 132.33 356.12C130.07 356.12 128.4 354.55 128.4 352.12C128.4 349.69 130.15 348.12 132.39 348.12C134.63 348.12 136.38 349.67 136.38 352.12ZM130.38 352.12C130.38 353.66 131.28 354.42 132.33 354.42C133.38 354.42 134.36 353.66 134.36 352.12C134.36 350.58 133.39 349.82 132.36 349.82C131.33 349.82 130.39 350.56 130.39 352.12H130.38ZM139.23 356L136.95 348.24H138.94L140.31 354.15L141.79 348.24H143.86L145.32 354.13L146.69 348.24H148.57L146.3 356H144.19L142.78 350.58L141.37 356H139.24H139.23ZM155.65 353.79C155.65 355.12 154.49 356.13 152.6 356.13C150.71 356.13 149.3 355 149.21 353.55H151.18C151.25 354.14 151.8 354.59 152.58 354.59C153.36 354.59 153.77 354.24 153.77 353.79C153.77 352.4 149.39 353.29 149.39 350.44C149.39 349.15 150.54 348.12 152.46 348.12C154.38 348.12 155.47 349.14 155.58 350.68H153.7C153.64 350.08 153.17 349.67 152.4 349.67C151.67 349.67 151.29 349.96 151.29 350.41C151.29 351.82 155.59 350.94 155.64 353.78L155.65 353.79ZM160.59 349.73C159.65 349.73 158.91 350.33 158.76 351.4H162.44C162.41 350.38 161.6 349.73 160.59 349.73ZM164.27 353.56C163.85 354.99 162.56 356.12 160.64 356.12C158.39 356.12 156.75 354.55 156.75 352.12C156.75 349.69 158.35 348.12 160.64 348.12C162.93 348.12 164.46 349.65 164.46 351.96C164.46 352.21 164.45 352.46 164.4 352.72H158.73C158.83 353.87 159.61 354.51 160.59 354.51C161.43 354.51 161.89 354.09 162.14 353.57H164.25L164.27 353.56ZM167.86 352.14V356H165.9V348.24H167.86V349.44C168.35 348.64 169.16 348.12 170.24 348.12V350.18H169.72C168.56 350.18 167.86 350.63 167.86 352.13V352.14Z" fill="#00D73F"/>
<path d="M175.64 356V349.38H174.65V348.33H175.64V347.78C175.64 346.07 176.48 345.3 178.44 345.3V346.36C177.29 346.36 176.91 346.78 176.91 347.77V348.32H178.52V349.37H176.91V355.99H175.64V356ZM187.29 352.15C187.29 354.59 185.54 356.13 183.36 356.13C181.18 356.13 179.54 354.59 179.54 352.15C179.54 349.71 181.25 348.2 183.42 348.2C185.59 348.2 187.3 349.73 187.3 352.15H187.29ZM180.84 352.15C180.84 354.1 182.03 355.01 183.36 355.01C184.69 355.01 185.99 354.1 185.99 352.15C185.99 350.2 184.72 349.31 183.4 349.31C182.08 349.31 180.84 350.22 180.84 352.15ZM190.24 351.83V356H188.97V348.33H190.24V349.58C190.67 348.73 191.5 348.19 192.72 348.19V349.51H192.38C191.16 349.51 190.24 350.06 190.24 351.83ZM197.44 352.14C197.44 349.75 199.02 348.21 201.08 348.21C202.51 348.21 203.49 348.94 203.94 349.74V348.34H205.23V356.01H203.94V354.58C203.48 355.41 202.48 356.13 201.07 356.13C199.03 356.13 197.44 354.52 197.44 352.14ZM203.94 352.15C203.94 350.37 202.74 349.31 201.34 349.31C199.94 349.31 198.75 350.33 198.75 352.14C198.75 353.95 199.94 355.01 201.34 355.01C202.74 355.01 203.94 353.96 203.94 352.15ZM212.99 356V351.66C212.99 350.09 212.14 349.29 210.85 349.29C209.56 349.29 208.65 350.1 208.65 351.75V355.99H207.38V348.32H208.65V349.41C209.15 348.61 210.08 348.18 211.11 348.18C212.89 348.18 214.25 349.27 214.25 351.47V355.99H212.99V356ZM215.86 352.14C215.86 349.75 217.44 348.21 219.51 348.21C220.71 348.21 221.82 348.83 222.35 349.71V345.65H223.64V356.01H222.35V354.57C221.89 355.42 220.89 356.14 219.49 356.14C217.43 356.14 215.85 354.53 215.85 352.15L215.86 352.14ZM222.35 352.15C222.35 350.37 221.15 349.31 219.75 349.31C218.35 349.31 217.16 350.33 217.16 352.14C217.16 353.95 218.35 355.01 219.75 355.01C221.15 355.01 222.35 353.96 222.35 352.15ZM227.07 351.83V356H225.8V348.33H227.07V349.58C227.5 348.73 228.33 348.19 229.55 348.19V349.51H229.21C227.99 349.51 227.07 350.06 227.07 351.83ZM238.3 352.15C238.3 354.59 236.55 356.13 234.37 356.13C232.19 356.13 230.55 354.59 230.55 352.15C230.55 349.71 232.26 348.2 234.43 348.2C236.6 348.2 238.31 349.73 238.31 352.15H238.3ZM231.84 352.15C231.84 354.1 233.03 355.01 234.36 355.01C235.69 355.01 236.99 354.1 236.99 352.15C236.99 350.2 235.72 349.31 234.4 349.31C233.08 349.31 231.84 350.22 231.84 352.15ZM239.97 356V348.33H241.24V356H239.97ZM240.63 347.08C240.14 347.08 239.76 346.7 239.76 346.21C239.76 345.72 240.14 345.34 240.63 345.34C241.09 345.34 241.47 345.72 241.47 346.21C241.47 346.7 241.09 347.08 240.63 347.08ZM242.94 352.14C242.94 349.75 244.52 348.21 246.59 348.21C247.79 348.21 248.9 348.83 249.43 349.71V345.65H250.72V356.01H249.43V354.57C248.97 355.42 247.97 356.14 246.57 356.14C244.51 356.14 242.93 354.53 242.93 352.15L242.94 352.14ZM249.44 352.15C249.44 350.37 248.24 349.31 246.84 349.31C245.44 349.31 244.25 350.33 244.25 352.14C244.25 353.95 245.44 355.01 246.84 355.01C248.24 355.01 249.44 353.96 249.44 352.15ZM256.61 356V348.33H257.88V356H256.61ZM257.27 347.08C256.78 347.08 256.4 346.7 256.4 346.21C256.4 345.72 256.78 345.34 257.27 345.34C257.73 345.34 258.11 345.72 258.11 346.21C258.11 346.7 257.73 347.08 257.27 347.08ZM265.57 353.91C265.57 355.17 264.46 356.12 262.77 356.12C260.98 356.12 259.72 355.14 259.63 353.74H260.95C261.02 354.48 261.68 355.04 262.76 355.04C263.77 355.04 264.33 354.54 264.33 353.91C264.33 352.2 259.79 353.2 259.79 350.34C259.79 349.16 260.9 348.2 262.6 348.2C264.3 348.2 265.41 349.11 265.5 350.61H264.23C264.17 349.84 263.59 349.28 262.56 349.28C261.62 349.28 261.06 349.73 261.06 350.34C261.06 352.16 265.51 351.17 265.57 353.91ZM83.8401 367.74C84.3001 366.93 85.3101 366.2 86.7101 366.2C88.7701 366.2 90.3501 367.74 90.3501 370.13C90.3501 372.52 88.7701 374.12 86.7101 374.12C85.3101 374.12 84.3201 373.36 83.8401 372.58V377.63H82.5701V366.32H83.8401V367.73V367.74ZM89.0501 370.14C89.0501 368.33 87.8601 367.31 86.4501 367.31C85.0401 367.31 83.8501 368.37 83.8501 370.15C83.8501 371.93 85.0701 373.01 86.4501 373.01C87.8301 373.01 89.0501 371.95 89.0501 370.14ZM93.3001 369.83V374H92.0301V366.33H93.3001V367.58C93.7301 366.73 94.5601 366.19 95.7801 366.19V367.51H95.4401C94.2201 367.51 93.3001 368.06 93.3001 369.83ZM104.53 370.15C104.53 372.59 102.78 374.13 100.6 374.13C98.4201 374.13 96.7801 372.59 96.7801 370.15C96.7801 367.71 98.4901 366.2 100.66 366.2C102.83 366.2 104.54 367.73 104.54 370.15H104.53ZM98.0801 370.15C98.0801 372.1 99.2701 373.01 100.6 373.01C101.93 373.01 103.23 372.1 103.23 370.15C103.23 368.2 101.96 367.31 100.64 367.31C99.3201 367.31 98.0801 368.22 98.0801 370.15ZM106.49 371.9V367.38H105.5V366.33H106.49V364.4H107.76V366.33H109.76V367.38H107.76V371.9C107.76 372.66 108.04 372.92 108.82 372.92H109.76V374H108.61C107.25 374 106.48 373.44 106.48 371.9H106.49ZM114.57 367.28C113.32 367.28 112.29 368.11 112.15 369.6H116.99C117 368.1 115.88 367.28 114.57 367.28ZM118.15 371.63C117.76 373.03 116.53 374.12 114.62 374.12C112.44 374.12 110.83 372.58 110.83 370.14C110.83 367.7 112.38 366.19 114.62 366.19C116.86 366.19 118.3 367.76 118.3 369.86C118.3 370.14 118.29 370.36 118.26 370.63H112.13C112.23 372.18 113.32 373.04 114.62 373.04C115.77 373.04 116.5 372.45 116.78 371.63H118.15ZM119.51 370.15C119.51 367.74 121.06 366.2 123.25 366.2C125.15 366.2 126.4 367.18 126.79 368.79H125.42C125.15 367.87 124.38 367.28 123.25 367.28C121.85 367.28 120.81 368.27 120.81 370.15C120.81 372.03 121.85 373.05 123.25 373.05C124.38 373.05 125.14 372.5 125.42 371.54H126.79C126.4 373.07 125.15 374.13 123.25 374.13C121.07 374.13 119.51 372.59 119.51 370.15ZM128.77 371.9V367.38H127.78V366.33H128.77V364.4H130.04V366.33H132.04V367.38H130.04V371.9C130.04 372.66 130.32 372.92 131.1 372.92H132.04V374H130.89C129.53 374 128.76 373.44 128.76 371.9H128.77ZM133.59 374V366.33H134.86V374H133.59ZM134.25 365.08C133.76 365.08 133.38 364.7 133.38 364.21C133.38 363.72 133.76 363.34 134.25 363.34C134.71 363.34 135.09 363.72 135.09 364.21C135.09 364.7 134.71 365.08 134.25 365.08ZM142.65 374V369.66C142.65 368.09 141.8 367.29 140.51 367.29C139.22 367.29 138.31 368.1 138.31 369.75V373.99H137.04V366.32H138.31V367.41C138.81 366.61 139.74 366.18 140.77 366.18C142.55 366.18 143.91 367.27 143.91 369.47V373.99H142.65V374ZM145.52 370.14C145.52 367.75 147.1 366.21 149.16 366.21C150.56 366.21 151.57 366.91 152.02 367.74V366.34H153.31V374.18C153.31 376.29 151.9 377.79 149.64 377.79C147.62 377.79 146.18 376.77 145.93 375.13H147.19C147.47 376.05 148.38 376.68 149.64 376.68C151 376.68 152.02 375.81 152.02 374.17V372.56C151.56 373.39 150.56 374.13 149.16 374.13C147.1 374.13 145.52 372.52 145.52 370.14ZM152.01 370.15C152.01 368.37 150.81 367.31 149.41 367.31C148.01 367.31 146.82 368.33 146.82 370.14C146.82 371.95 148.01 373.01 149.41 373.01C150.81 373.01 152.01 371.96 152.01 370.15ZM162.1 372.54L164.48 366.32H165.8L161.18 377.6H159.86L161.37 373.9L158.28 366.31H159.69L162.1 372.53V372.54ZM174.35 370.15C174.35 372.59 172.6 374.13 170.42 374.13C168.24 374.13 166.6 372.59 166.6 370.15C166.6 367.71 168.31 366.2 170.48 366.2C172.65 366.2 174.36 367.73 174.36 370.15H174.35ZM167.9 370.15C167.9 372.1 169.09 373.01 170.42 373.01C171.75 373.01 173.05 372.1 173.05 370.15C173.05 368.2 171.78 367.31 170.46 367.31C169.14 367.31 167.9 368.22 167.9 370.15ZM182.83 366.33V374H181.56V372.87C181.07 373.67 180.13 374.12 179.11 374.12C177.35 374.12 175.96 373.03 175.96 370.83V366.34H177.22V370.67C177.22 372.22 178.07 373.02 179.36 373.02C180.65 373.02 181.56 372.21 181.56 370.56V366.35H182.83V366.33ZM186.26 369.83V374H184.99V366.33H186.26V367.58C186.69 366.73 187.52 366.19 188.74 366.19V367.51H188.4C187.18 367.51 186.26 368.06 186.26 369.83ZM195.21 368.88H197.09C198.55 368.88 199.16 368.19 199.16 367.1C199.16 366.01 198.54 365.29 197.09 365.29H195.21V368.87V368.88ZM200.46 367.1C200.46 368.58 199.51 369.93 197.09 369.93H195.21V374H193.94V364.24H197.09C199.39 364.24 200.46 365.5 200.46 367.1ZM203.32 369.83V374H202.05V366.33H203.32V367.58C203.75 366.73 204.58 366.19 205.8 366.19V367.51H205.46C204.24 367.51 203.32 368.06 203.32 369.83ZM207.27 374V366.33H208.54V374H207.27ZM207.93 365.08C207.44 365.08 207.06 364.7 207.06 364.21C207.06 363.72 207.44 363.34 207.93 363.34C208.39 363.34 208.77 363.72 208.77 364.21C208.77 364.7 208.39 365.08 207.93 365.08ZM209.81 366.33H211.18L213.57 372.83L215.95 366.33H217.31L214.3 374H212.82L209.81 366.33ZM218.09 370.14C218.09 367.75 219.67 366.21 221.73 366.21C223.16 366.21 224.14 366.94 224.59 367.74V366.34H225.88V374.01H224.59V372.58C224.13 373.41 223.13 374.13 221.72 374.13C219.68 374.13 218.09 372.52 218.09 370.14ZM224.58 370.15C224.58 368.37 223.38 367.31 221.98 367.31C220.58 367.31 219.39 368.33 219.39 370.14C219.39 371.95 220.58 373.01 221.98 373.01C223.38 373.01 224.58 371.96 224.58 370.15ZM227.55 370.15C227.55 367.74 229.1 366.2 231.29 366.2C233.19 366.2 234.44 367.18 234.83 368.79H233.46C233.19 367.87 232.42 367.28 231.29 367.28C229.89 367.28 228.85 368.27 228.85 370.15C228.85 372.03 229.89 373.05 231.29 373.05C232.42 373.05 233.18 372.5 233.46 371.54H234.83C234.44 373.07 233.19 374.13 231.29 374.13C229.11 374.13 227.55 372.59 227.55 370.15ZM239.44 372.54L241.82 366.32H243.14L238.52 377.6H237.2L238.71 373.9L235.62 366.31H237.03L239.44 372.53V372.54ZM244.85 371.24L244.7 364.24H246.07L245.92 371.24H244.86H244.85ZM246.28 373.22C246.28 373.71 245.9 374.09 245.44 374.09C244.95 374.09 244.57 373.71 244.57 373.22C244.57 372.73 244.95 372.35 245.44 372.35C245.9 372.35 246.28 372.73 246.28 373.22Z" fill="white"/>
<path d="M103.56 281.42V285H98.62V268.25C98.62 267.77 98.85 267.53 99.32 267.53H113.67C115.3 267.53 116.48 267.9 117.2 268.63C117.92 269.35 118.28 270.37 118.28 271.7V273.24C118.28 273.94 118.14 274.51 117.85 274.94C117.56 275.37 117.23 275.72 116.87 275.97C117.38 276.23 117.81 276.6 118.14 277.1C118.48 277.6 118.64 278.21 118.64 278.95V280.49C118.64 281.96 118.29 283.08 117.58 283.85C116.89 284.62 115.7 285 114 285H105.1L103.73 281.42H103.56ZM103.56 277.61V280.9H112.15C112.58 280.9 112.89 280.8 113.09 280.59C113.3 280.38 113.4 280.02 113.4 279.51V279.01C113.4 278.5 113.3 278.14 113.11 277.93C112.93 277.72 112.61 277.62 112.15 277.62H103.56V277.61ZM103.97 271.42C103.7 271.42 103.56 271.56 103.56 271.83V274.78H111.86C112.4 274.78 112.79 274.68 113.01 274.47C113.23 274.26 113.35 273.9 113.35 273.39V272.86C113.35 272.33 113.24 271.96 113.01 271.76C112.79 271.54 112.4 271.42 111.86 271.42H103.96H103.97ZM125.5 274.9H125.33V280.13C125.33 280.35 125.44 280.47 125.67 280.47H140.41V285.01H121.09C120.63 285.01 120.39 284.77 120.39 284.29V268.26C120.39 267.78 120.62 267.54 121.09 267.54H139.86C140.34 267.54 140.58 267.78 140.58 268.26V272.8L136 274.5H135.81V272.17C135.81 271.99 135.73 271.91 135.57 271.91H125.66C125.53 271.91 125.44 271.95 125.4 272.03C125.37 272.09 125.35 272.17 125.35 272.25V274.43H133.51V277.98H126.67L125.52 274.91L125.5 274.9ZM147.49 267.53V279.87C147.49 280.06 147.53 280.21 147.61 280.3C147.69 280.4 147.84 280.44 148.07 280.44H161.75V285H143.82C143.36 285 143.03 284.89 142.84 284.66C142.65 284.42 142.55 284.08 142.55 283.65V267.52H147.49V267.53ZM163.21 268.25C163.21 267.77 163.43 267.53 163.88 267.53H176.98C178.28 267.53 179.38 267.7 180.29 268.03C181.2 268.35 181.94 268.81 182.5 269.42C183.06 270.01 183.47 270.74 183.72 271.6C183.98 272.45 184.1 273.4 184.1 274.46V278.06C184.1 279.12 183.97 280.08 183.72 280.94C183.46 281.79 183.06 282.52 182.5 283.12C181.94 283.71 181.2 284.18 180.29 284.51C179.38 284.83 178.27 284.99 176.98 284.99H169.92L168.34 280.91H168.15V284.99H163.21V268.24V268.25ZM168.16 280.46H176.54C177.48 280.46 178.16 280.25 178.56 279.84C178.96 279.42 179.16 278.69 179.16 277.63V274.7C179.16 273.61 178.96 272.88 178.56 272.49C178.16 272.09 177.49 271.89 176.54 271.89H168.52C168.41 271.89 168.32 271.93 168.26 272.01C168.2 272.07 168.16 272.15 168.16 272.25V280.46ZM191.22 274.9H191.05V280.13C191.05 280.35 191.16 280.47 191.39 280.47H206.13V285.01H186.81C186.35 285.01 186.11 284.77 186.11 284.29V268.26C186.11 267.78 186.34 267.54 186.81 267.54H205.58C206.06 267.54 206.3 267.78 206.3 268.26V272.8L201.72 274.5H201.53V272.17C201.53 271.99 201.45 271.91 201.29 271.91H191.38C191.25 271.91 191.16 271.95 191.12 272.03C191.09 272.09 191.07 272.17 191.07 272.25V274.43H199.23V277.98H192.39L191.24 274.91L191.22 274.9ZM230.92 267.53V267.72L222.76 275.74L231.28 284.81V285H224.99L219.3 278.9L213.42 285H207.42V284.81L216.16 275.76L208.24 267.72V267.53H214.38L219.47 272.93L224.94 267.53H230.92Z" fill="#00DC00"/>
<path d="M89.06 311.42V315H84.12V298.25C84.12 297.77 84.35 297.53 84.82 297.53H99.17C100.8 297.53 101.98 297.9 102.7 298.63C103.42 299.35 103.78 300.37 103.78 301.7V303.24C103.78 303.94 103.64 304.51 103.35 304.94C103.06 305.37 102.73 305.72 102.37 305.97C102.88 306.23 103.31 306.6 103.64 307.1C103.97 307.6 104.14 308.21 104.14 308.95V310.49C104.14 311.96 103.79 313.08 103.08 313.85C102.39 314.62 101.2 315 99.5 315H90.6L89.23 311.42H89.06ZM89.06 307.61V310.9H97.65C98.08 310.9 98.39 310.8 98.59 310.59C98.8 310.38 98.9 310.02 98.9 309.51V309.01C98.9 308.5 98.8 308.14 98.61 307.93C98.43 307.72 98.11 307.62 97.65 307.62H89.06V307.61ZM89.46 301.42C89.19 301.42 89.05 301.56 89.05 301.83V304.78H97.35C97.89 304.78 98.28 304.68 98.5 304.47C98.72 304.26 98.84 303.9 98.84 303.39V302.86C98.84 302.33 98.73 301.96 98.5 301.76C98.28 301.54 97.89 301.42 97.35 301.42H89.45H89.46ZM110.83 306.58V315H105.89V298.25C105.89 297.77 106.11 297.53 106.56 297.53H120.22C121.31 297.53 122.23 297.66 122.98 297.91C123.73 298.17 124.34 298.54 124.8 299.04C125.26 299.52 125.6 300.1 125.81 300.79C126.02 301.48 126.12 302.25 126.12 303.12V304.37C126.12 305.22 126.02 305.98 125.81 306.65C125.6 307.32 125.27 307.9 124.8 308.38C124.35 308.84 123.77 309.2 123.05 309.46C122.33 309.72 121.45 309.84 120.41 309.84H119.26C119.08 309.84 118.91 309.84 118.73 309.82V309.99C118.94 310.18 119.15 310.4 119.35 310.64C119.56 310.86 119.76 311.1 119.95 311.34L122.73 314.82V315.01H117.16L110.99 306.59H110.82L110.83 306.58ZM111.17 301.9C110.95 301.9 110.83 302.04 110.83 302.31V306.13H119.33C119.99 306.13 120.45 306 120.72 305.75C121.01 305.49 121.15 305.01 121.15 304.29V303.69C121.15 303.02 121.01 302.55 120.72 302.3C120.45 302.04 119.98 301.92 119.33 301.92H111.17V301.9ZM149.54 308.06C149.54 309.12 149.41 310.08 149.16 310.94C148.9 311.79 148.5 312.52 147.94 313.12C147.38 313.71 146.64 314.18 145.73 314.51C144.83 314.83 143.74 314.99 142.44 314.99H134.66C133.36 314.99 132.26 314.83 131.35 314.51C130.44 314.17 129.7 313.71 129.14 313.12C128.58 312.51 128.17 311.78 127.92 310.94C127.66 310.08 127.54 309.12 127.54 308.06V304.46C127.54 303.4 127.67 302.45 127.92 301.6C128.18 300.74 128.58 300.01 129.14 299.42C129.7 298.81 130.44 298.35 131.35 298.03C132.26 297.69 133.37 297.53 134.66 297.53H142.44C143.74 297.53 144.83 297.7 145.73 298.03C146.64 298.35 147.38 298.81 147.94 299.42C148.5 300.01 148.91 300.74 149.16 301.6C149.42 302.45 149.54 303.4 149.54 304.46V308.06ZM132.48 307.63C132.48 308.24 132.54 308.73 132.65 309.09C132.78 309.46 132.97 309.75 133.23 309.95C133.5 310.14 133.85 310.28 134.26 310.36C134.69 310.42 135.22 310.46 135.84 310.46H141.98C142.51 310.46 142.94 310.4 143.28 310.29C143.63 310.18 143.9 309.99 144.1 309.74C144.29 309.47 144.42 309.11 144.48 308.66C144.56 308.21 144.6 307.66 144.6 307V304.7C144.6 303.63 144.4 302.89 144 302.49C143.6 302.09 142.93 301.89 141.98 301.89H135.09C134.56 301.89 134.12 301.95 133.77 302.06C133.43 302.17 133.17 302.36 132.98 302.64C132.79 302.9 132.65 303.25 132.57 303.7C132.51 304.13 132.47 304.68 132.47 305.33V307.63H132.48ZM179.08 297.53V297.72L176.56 314.33C176.53 314.57 176.46 314.75 176.34 314.86C176.24 314.96 176.06 315 175.79 315H168.61C168 315 167.65 314.76 167.55 314.28L164.86 301.97C164.83 301.83 164.74 301.75 164.6 301.75H164.38C164.2 301.75 164.1 301.82 164.07 301.97L161.72 314.28C161.62 314.76 161.27 315 160.66 315H153.7C153.44 315 153.26 314.94 153.15 314.83C153.04 314.72 152.97 314.55 152.93 314.33L150.17 297.72V297.53H155.11L157.17 310.75C157.2 310.96 157.32 311.06 157.53 311.06H157.77C157.96 311.06 158.08 310.96 158.13 310.75L160.63 298.15C160.66 297.93 160.74 297.77 160.87 297.67C161.01 297.57 161.24 297.53 161.54 297.53H167.59C168.1 297.53 168.41 297.74 168.5 298.15L171.28 310.75C171.33 310.96 171.44 311.06 171.62 311.06H171.88C172.14 311.06 172.27 310.96 172.29 310.75L173.99 297.53H179.05H179.08ZM196.16 303.58H195.97V301.66C195.97 301.47 195.87 301.37 195.68 301.37H186.46C186.12 301.37 185.89 301.44 185.76 301.59C185.63 301.73 185.57 301.94 185.57 302.21V302.64C185.57 302.98 185.63 303.19 185.74 303.29C185.85 303.39 186.07 303.46 186.39 303.51L197.24 305.02C197.93 305.12 198.51 305.27 198.99 305.48C199.47 305.67 199.86 305.94 200.17 306.27C200.47 306.59 200.69 306.99 200.82 307.47C200.95 307.95 201.01 308.52 201.01 309.17V310.56C201.01 311.28 200.92 311.92 200.75 312.48C200.57 313.02 200.29 313.49 199.89 313.87C199.49 314.24 198.96 314.52 198.31 314.71C197.65 314.9 196.85 315 195.89 315H180.34V310.46H194.28C194.7 310.46 194.97 310.39 195.1 310.24C195.24 310.08 195.32 309.81 195.32 309.42V308.94C195.32 308.64 195.26 308.43 195.15 308.32C195.05 308.19 194.85 308.11 194.55 308.08L184.09 306.76C183.39 306.66 182.78 306.52 182.27 306.33C181.77 306.14 181.37 305.88 181.05 305.56C180.73 305.24 180.5 304.85 180.35 304.38C180.2 303.91 180.13 303.36 180.13 302.72V301.5C180.13 300.24 180.47 299.26 181.14 298.57C181.81 297.87 182.93 297.51 184.5 297.51H200.03C200.53 297.51 200.77 297.77 200.77 298.28V301.88L196.19 303.56L196.16 303.58ZM208.19 304.9H208.02V310.13C208.02 310.35 208.13 310.47 208.36 310.47H223.1V315.01H203.78C203.32 315.01 203.08 314.77 203.08 314.29V298.26C203.08 297.78 203.31 297.54 203.78 297.54H222.55C223.03 297.54 223.27 297.78 223.27 298.26V302.8L218.69 304.5H218.5V302.17C218.5 301.99 218.42 301.91 218.26 301.91H208.35C208.22 301.91 208.13 301.95 208.09 302.03C208.06 302.09 208.04 302.17 208.04 302.25V304.43H216.2V307.98H209.36L208.21 304.91L208.19 304.9ZM230.17 306.58V315H225.23V298.25C225.23 297.77 225.45 297.53 225.9 297.53H239.56C240.65 297.53 241.57 297.66 242.32 297.91C243.07 298.17 243.68 298.54 244.14 299.04C244.6 299.52 244.94 300.1 245.15 300.79C245.36 301.48 245.46 302.25 245.46 303.12V304.37C245.46 305.22 245.36 305.98 245.15 306.65C244.94 307.32 244.61 307.9 244.14 308.38C243.69 308.84 243.11 309.2 242.39 309.46C241.67 309.72 240.79 309.84 239.75 309.84H238.6C238.42 309.84 238.25 309.84 238.07 309.82V309.99C238.28 310.18 238.49 310.4 238.69 310.64C238.9 310.86 239.1 311.1 239.29 311.34L242.07 314.82V315.01H236.5L230.33 306.59H230.16L230.17 306.58ZM230.51 301.9C230.29 301.9 230.17 302.04 230.17 302.31V306.13H238.67C239.33 306.13 239.79 306 240.06 305.75C240.35 305.49 240.49 305.01 240.49 304.29V303.69C240.49 303.02 240.35 302.55 240.06 302.3C239.79 302.04 239.32 301.92 238.67 301.92H230.51V301.9Z" fill="#0094FF"/>
</svg>
