<svg width="328" height="352" viewBox="0 0 328 352" fill="none" xmlns="http://www.w3.org/2000/svg">
<path d="M316 0H12C5.37258 0 0 5.37258 0 12V340C0 346.627 5.37258 352 12 352H316C322.627 352 328 346.627 328 340V12C328 5.37258 322.627 0 316 0Z" fill="#F3F3F3"/>
<mask id="mask0_8_207" style="mask-type:alpha" maskUnits="userSpaceOnUse" x="16" y="20" width="296" height="312">
<path d="M300 21.49H28C21.6487 21.49 16.5 26.6387 16.5 32.99V319.99C16.5 326.341 21.6487 331.49 28 331.49H300C306.351 331.49 311.5 326.341 311.5 319.99V32.99C311.5 26.6387 306.351 21.49 300 21.49Z" fill="#F3F3F3" stroke="#DADADA"/>
</mask>
<g mask="url(#mask0_8_207)">
<path d="M300 21.49H28C21.6487 21.49 16.5 26.6387 16.5 32.99V319.99C16.5 326.341 21.6487 331.49 28 331.49H300C306.351 331.49 311.5 326.341 311.5 319.99V32.99C311.5 26.6387 306.351 21.49 300 21.49Z" fill="#F3F3F3" stroke="#DADADA"/>
<path d="M16 202.5C-19.2 200.1 -40 231.17 -46 247V105C-24 104.83 26.1 109.1 50.5 127.5C81 150.5 60 205.5 16 202.5Z" fill="#E3E3E3"/>
<path d="M255.5 43.99C257.9 8.78999 226.83 -12.01 211 -18.01H353C353.17 3.98999 348.9 54.09 330.5 78.49C307.5 108.99 252.5 87.99 255.5 43.99Z" fill="#E3E3E3"/>
<path d="M330.51 348.89C328.11 384.09 359.18 404.89 375.01 410.89H233.01C232.84 388.89 237.11 338.79 255.51 314.39C278.51 283.89 333.51 304.89 330.51 348.89Z" fill="#E3E3E3"/>
</g>
<path d="M69.22 265.98C69.77 266.08 70.22 266.36 70.58 266.81C70.93 267.26 71.11 267.77 71.11 268.35C71.11 268.87 70.98 269.33 70.72 269.74C70.47 270.13 70.1 270.44 69.61 270.66C69.12 270.88 68.55 271 67.89 271H63.68V261.23H67.71C68.37 261.23 68.94 261.34 69.42 261.55C69.91 261.77 70.27 262.06 70.51 262.45C70.76 262.83 70.89 263.27 70.89 263.75C70.89 264.32 70.74 264.79 70.43 265.18C70.13 265.56 69.73 265.83 69.23 265.99L69.22 265.98ZM65.63 265.25H67.42C67.89 265.25 68.25 265.15 68.5 264.94C68.75 264.73 68.88 264.42 68.88 264.03C68.88 263.64 68.75 263.34 68.5 263.12C68.25 262.91 67.89 262.8 67.42 262.8H65.63V265.25ZM67.61 269.39C68.09 269.39 68.45 269.28 68.72 269.05C68.99 268.83 69.13 268.51 69.13 268.1C69.13 267.69 68.99 267.35 68.71 267.12C68.43 266.88 68.05 266.76 67.58 266.76H65.65V269.39H67.62H67.61ZM79.88 266.95C79.88 267.23 79.86 267.48 79.82 267.71H74.15C74.2 268.27 74.39 268.71 74.74 269.03C75.09 269.35 75.51 269.51 76.01 269.51C76.74 269.51 77.26 269.2 77.56 268.57H79.67C79.45 269.32 79.02 269.93 78.38 270.42C77.75 270.9 76.97 271.13 76.04 271.13C75.29 271.13 74.62 270.97 74.02 270.64C73.43 270.3 72.97 269.83 72.63 269.23C72.3 268.62 72.14 267.92 72.14 267.13C72.14 266.34 72.3 265.62 72.63 265.02C72.96 264.41 73.41 263.95 74 263.62C74.59 263.29 75.26 263.13 76.03 263.13C76.8 263.13 77.43 263.29 78 263.61C78.59 263.93 79.04 264.38 79.36 264.97C79.69 265.55 79.85 266.22 79.85 266.97L79.88 266.95ZM77.85 266.39C77.85 265.89 77.66 265.49 77.3 265.19C76.95 264.88 76.51 264.73 76 264.73C75.51 264.73 75.1 264.88 74.77 265.18C74.44 265.47 74.24 265.88 74.17 266.4H77.85V266.39ZM83.27 260.63V270.99H81.31V260.63H83.27ZM84.7 267.08C84.7 266.3 84.85 265.6 85.16 264.99C85.48 264.38 85.91 263.92 86.45 263.59C86.99 263.26 87.59 263.1 88.26 263.1C88.76 263.1 89.24 263.21 89.7 263.44C90.16 263.65 90.52 263.94 90.79 264.31V260.63H92.78V270.99H90.79V269.84C90.55 270.22 90.21 270.53 89.77 270.76C89.33 270.99 88.82 271.11 88.24 271.11C87.59 271.11 86.99 270.94 86.45 270.61C85.91 270.27 85.48 269.8 85.16 269.2C84.85 268.58 84.7 267.88 84.7 267.09V267.08ZM90.81 267.11C90.81 266.63 90.72 266.23 90.53 265.89C90.34 265.54 90.09 265.28 89.77 265.11C89.45 264.92 89.11 264.83 88.75 264.83C88.39 264.83 88.05 264.92 87.74 265.1C87.43 265.28 87.18 265.54 86.98 265.88C86.79 266.22 86.7 266.62 86.7 267.08C86.7 267.54 86.79 267.96 86.98 268.31C87.18 268.66 87.43 268.92 87.74 269.11C88.06 269.3 88.39 269.39 88.75 269.39C89.11 269.39 89.45 269.3 89.77 269.12C90.09 268.93 90.34 268.67 90.53 268.34C90.72 267.99 90.81 267.58 90.81 267.11ZM101.9 266.95C101.9 267.23 101.88 267.48 101.84 267.71H96.17C96.22 268.27 96.41 268.71 96.76 269.03C97.11 269.35 97.53 269.51 98.03 269.51C98.76 269.51 99.28 269.2 99.58 268.57H101.69C101.47 269.32 101.04 269.93 100.4 270.42C99.76 270.9 98.99 271.13 98.06 271.13C97.31 271.13 96.64 270.97 96.04 270.64C95.45 270.3 94.99 269.83 94.65 269.23C94.32 268.62 94.16 267.92 94.16 267.13C94.16 266.34 94.32 265.62 94.65 265.02C94.98 264.41 95.43 263.95 96.02 263.62C96.61 263.29 97.28 263.13 98.05 263.13C98.82 263.13 99.45 263.29 100.02 263.61C100.61 263.93 101.06 264.38 101.38 264.97C101.71 265.55 101.87 266.22 101.87 266.97L101.9 266.95ZM99.87 266.39C99.87 265.89 99.68 265.49 99.32 265.19C98.97 264.88 98.53 264.73 98.02 264.73C97.53 264.73 97.12 264.88 96.79 265.18C96.46 265.47 96.26 265.88 96.19 266.4H99.87V266.39ZM107.62 270.99L106.02 268.58L104.61 270.99H102.51L105.04 267.1L102.48 263.24H104.69L106.27 265.63L107.7 263.24H109.8L107.25 267.1L109.83 270.99H107.62ZM119.78 265.98C120.33 266.08 120.78 266.36 121.14 266.81C121.49 267.26 121.67 267.77 121.67 268.35C121.67 268.87 121.54 269.33 121.28 269.74C121.03 270.13 120.66 270.44 120.17 270.66C119.68 270.88 119.11 271 118.45 271H114.24V261.23H118.27C118.93 261.23 119.5 261.34 119.98 261.55C120.47 261.77 120.83 262.06 121.07 262.45C121.32 262.83 121.45 263.27 121.45 263.75C121.45 264.32 121.3 264.79 120.99 265.18C120.69 265.56 120.29 265.83 119.79 265.99L119.78 265.98ZM116.19 265.25H117.98C118.45 265.25 118.81 265.15 119.06 264.94C119.31 264.73 119.44 264.42 119.44 264.03C119.44 263.64 119.31 263.34 119.06 263.12C118.81 262.91 118.45 262.8 117.98 262.8H116.19V265.25ZM118.17 269.39C118.65 269.39 119.01 269.28 119.28 269.05C119.55 268.83 119.69 268.51 119.69 268.1C119.69 267.69 119.55 267.35 119.27 267.12C118.99 266.88 118.61 266.76 118.14 266.76H116.21V269.39H118.18H118.17ZM125.19 264.44C125.44 264.03 125.77 263.71 126.17 263.47C126.58 263.24 127.05 263.12 127.57 263.12V265.18H127.05C126.43 265.18 125.97 265.32 125.65 265.61C125.34 265.9 125.19 266.4 125.19 267.12V270.98H123.23V263.22H125.19V264.42V264.44ZM132.33 271.12C131.58 271.12 130.91 270.96 130.31 270.63C129.71 270.29 129.24 269.82 128.9 269.22C128.56 268.61 128.4 267.91 128.4 267.12C128.4 266.33 128.57 265.63 128.92 265.02C129.28 264.41 129.76 263.95 130.36 263.62C130.97 263.28 131.64 263.12 132.39 263.12C133.14 263.12 133.81 263.29 134.42 263.62C135.03 263.95 135.5 264.41 135.85 265.02C136.2 265.63 136.38 266.33 136.38 267.12C136.38 267.91 136.2 268.61 135.83 269.22C135.48 269.83 134.99 270.3 134.37 270.63C133.76 270.96 133.08 271.12 132.33 271.12ZM132.33 269.41C132.69 269.41 133.02 269.33 133.32 269.16C133.64 268.98 133.89 268.72 134.08 268.38C134.27 268.04 134.36 267.62 134.36 267.12C134.36 266.38 134.16 265.82 133.77 265.43C133.39 265.03 132.92 264.83 132.36 264.83C131.8 264.83 131.33 265.03 130.95 265.43C130.58 265.82 130.39 266.39 130.39 267.12C130.39 267.85 130.57 268.43 130.94 268.83C131.31 269.22 131.78 269.42 132.34 269.42L132.33 269.41ZM148.57 263.23L146.3 270.99H144.19L142.78 265.57L141.37 270.99H139.24L136.96 263.23H138.95L140.32 269.14L141.8 263.23H143.87L145.33 269.12L146.7 263.23H148.58H148.57ZM152.6 271.12C151.97 271.12 151.4 271.01 150.89 270.78C150.39 270.55 149.99 270.23 149.69 269.84C149.4 269.45 149.24 269.01 149.21 268.54H151.18C151.22 268.84 151.36 269.09 151.61 269.28C151.87 269.48 152.19 269.57 152.58 269.57C152.97 269.57 153.24 269.5 153.45 269.35C153.66 269.2 153.77 269.01 153.77 268.78C153.77 268.53 153.64 268.34 153.38 268.22C153.13 268.09 152.72 267.95 152.16 267.8C151.58 267.66 151.11 267.51 150.73 267.37C150.37 267.22 150.05 266.99 149.78 266.68C149.52 266.37 149.39 265.96 149.39 265.43C149.39 265 149.51 264.61 149.75 264.25C150 263.9 150.36 263.62 150.81 263.41C151.28 263.21 151.82 263.1 152.45 263.1C153.37 263.1 154.11 263.33 154.66 263.8C155.21 264.26 155.51 264.88 155.57 265.66H153.69C153.66 265.35 153.53 265.11 153.3 264.93C153.08 264.74 152.77 264.65 152.39 264.65C152.04 264.65 151.76 264.72 151.56 264.85C151.37 264.98 151.28 265.16 151.28 265.4C151.28 265.66 151.41 265.86 151.67 266C151.93 266.13 152.34 266.27 152.89 266.41C153.45 266.55 153.91 266.7 154.28 266.84C154.64 266.99 154.96 267.22 155.22 267.54C155.49 267.85 155.63 268.26 155.64 268.77C155.64 269.22 155.51 269.62 155.26 269.97C155.02 270.33 154.66 270.61 154.2 270.81C153.74 271.01 153.21 271.1 152.59 271.1L152.6 271.12ZM164.47 266.95C164.47 267.23 164.45 267.48 164.41 267.71H158.74C158.79 268.27 158.98 268.71 159.33 269.03C159.68 269.35 160.1 269.51 160.6 269.51C161.33 269.51 161.85 269.2 162.15 268.57H164.26C164.04 269.32 163.61 269.93 162.97 270.42C162.34 270.9 161.56 271.13 160.63 271.13C159.88 271.13 159.21 270.97 158.61 270.64C158.02 270.3 157.56 269.83 157.22 269.23C156.89 268.62 156.73 267.92 156.73 267.13C156.73 266.34 156.89 265.62 157.22 265.02C157.55 264.41 158 263.95 158.59 263.62C159.18 263.29 159.85 263.13 160.62 263.13C161.39 263.13 162.02 263.29 162.59 263.61C163.18 263.93 163.63 264.38 163.95 264.97C164.28 265.55 164.44 266.22 164.44 266.97L164.47 266.95ZM162.44 266.39C162.44 265.89 162.25 265.49 161.89 265.19C161.54 264.88 161.1 264.73 160.59 264.73C160.1 264.73 159.69 264.88 159.36 265.18C159.03 265.47 158.83 265.88 158.76 266.4H162.44V266.39ZM167.86 264.44C168.11 264.03 168.44 263.71 168.84 263.47C169.25 263.24 169.72 263.12 170.24 263.12V265.18H169.72C169.1 265.18 168.64 265.32 168.32 265.61C168.01 265.9 167.86 266.4 167.86 267.12V270.98H165.9V263.22H167.86V264.42V264.44Z" fill="#00D73F"/>
<path d="M178.52 264.37H176.91V270.99H175.64V264.37H174.65V263.32H175.64V262.77C175.64 261.91 175.86 261.29 176.3 260.89C176.75 260.49 177.46 260.29 178.44 260.29V261.35C177.88 261.35 177.48 261.46 177.25 261.69C177.03 261.9 176.91 262.26 176.91 262.77V263.32H178.52V264.37ZM183.35 271.12C182.63 271.12 181.98 270.96 181.39 270.63C180.81 270.3 180.35 269.84 180.02 269.24C179.69 268.63 179.53 267.93 179.53 267.14C179.53 266.35 179.7 265.66 180.03 265.07C180.38 264.46 180.84 264 181.43 263.68C182.02 263.35 182.68 263.19 183.4 263.19C184.12 263.19 184.79 263.35 185.37 263.68C185.96 264 186.42 264.45 186.76 265.05C187.11 265.65 187.28 266.34 187.28 267.14C187.28 267.94 187.1 268.63 186.75 269.24C186.4 269.84 185.93 270.3 185.34 270.63C184.74 270.96 184.08 271.12 183.35 271.12ZM183.35 270C183.81 270 184.24 269.89 184.64 269.68C185.04 269.47 185.36 269.14 185.61 268.71C185.86 268.28 185.99 267.76 185.99 267.14C185.99 266.52 185.87 266 185.63 265.57C185.39 265.14 185.07 264.82 184.68 264.62C184.29 264.41 183.86 264.3 183.41 264.3C182.96 264.3 182.51 264.41 182.12 264.62C181.74 264.82 181.43 265.14 181.2 265.57C180.97 266 180.85 266.52 180.85 267.14C180.85 267.76 180.96 268.29 181.19 268.72C181.42 269.15 181.73 269.47 182.11 269.69C182.49 269.9 182.91 270 183.37 270H183.35ZM190.24 264.57C190.46 264.13 190.78 263.79 191.19 263.55C191.61 263.31 192.12 263.19 192.72 263.19V264.51H192.38C190.95 264.51 190.24 265.28 190.24 266.83V271H188.97V263.33H190.24V264.58V264.57ZM197.44 267.13C197.44 266.35 197.6 265.66 197.92 265.07C198.24 264.47 198.67 264.01 199.22 263.68C199.78 263.35 200.4 263.19 201.08 263.19C201.76 263.19 202.34 263.34 202.83 263.62C203.32 263.91 203.69 264.27 203.94 264.71V263.31H205.23V270.98H203.94V269.55C203.69 270 203.31 270.37 202.81 270.67C202.32 270.96 201.74 271.1 201.07 271.1C200.4 271.1 199.77 270.93 199.22 270.6C198.67 270.26 198.23 269.79 197.92 269.19C197.6 268.58 197.44 267.89 197.44 267.12V267.13ZM203.94 267.14C203.94 266.56 203.82 266.06 203.59 265.63C203.36 265.2 203.04 264.87 202.64 264.65C202.25 264.42 201.81 264.3 201.34 264.3C200.87 264.3 200.43 264.41 200.04 264.64C199.65 264.87 199.33 265.19 199.1 265.62C198.87 266.05 198.75 266.55 198.75 267.13C198.75 267.71 198.87 268.23 199.1 268.67C199.33 269.1 199.65 269.43 200.04 269.66C200.43 269.88 200.87 270 201.34 270C201.81 270 202.25 269.89 202.64 269.66C203.04 269.43 203.36 269.09 203.59 268.67C203.82 268.23 203.94 267.72 203.94 267.14ZM211.12 263.18C212.05 263.18 212.81 263.47 213.39 264.03C213.97 264.59 214.26 265.4 214.26 266.47V270.99H213V266.65C213 265.88 212.81 265.3 212.43 264.9C212.05 264.49 211.52 264.28 210.86 264.28C210.2 264.28 209.65 264.49 209.25 264.91C208.86 265.33 208.66 265.94 208.66 266.74V270.98H207.39V263.31H208.66V264.4C208.91 264.01 209.25 263.7 209.68 263.49C210.12 263.28 210.6 263.17 211.12 263.17V263.18ZM215.86 267.13C215.86 266.35 216.02 265.66 216.34 265.07C216.66 264.47 217.09 264.01 217.64 263.68C218.2 263.35 218.83 263.19 219.52 263.19C220.12 263.19 220.67 263.33 221.19 263.61C221.7 263.88 222.09 264.24 222.37 264.69V260.63H223.66V270.99H222.37V269.55C222.12 270.01 221.75 270.38 221.25 270.68C220.76 270.97 220.18 271.11 219.51 271.11C218.84 271.11 218.21 270.94 217.65 270.61C217.1 270.27 216.66 269.8 216.35 269.2C216.03 268.59 215.87 267.9 215.87 267.13H215.86ZM222.35 267.14C222.35 266.56 222.23 266.06 222 265.63C221.77 265.2 221.45 264.87 221.05 264.65C220.66 264.42 220.22 264.3 219.75 264.3C219.28 264.3 218.84 264.41 218.45 264.64C218.06 264.87 217.74 265.19 217.51 265.62C217.28 266.05 217.16 266.55 217.16 267.13C217.16 267.71 217.28 268.23 217.51 268.67C217.74 269.1 218.06 269.43 218.45 269.66C218.84 269.88 219.28 270 219.75 270C220.22 270 220.66 269.89 221.05 269.66C221.45 269.43 221.77 269.09 222 268.67C222.23 268.23 222.35 267.72 222.35 267.14ZM227.07 264.57C227.29 264.13 227.61 263.79 228.02 263.55C228.44 263.31 228.95 263.19 229.55 263.19V264.51H229.21C227.78 264.51 227.07 265.28 227.07 266.83V271H225.8V263.33H227.07V264.58V264.57ZM234.36 271.12C233.64 271.12 232.99 270.96 232.4 270.63C231.82 270.3 231.36 269.84 231.03 269.24C230.7 268.63 230.54 267.93 230.54 267.14C230.54 266.35 230.71 265.66 231.04 265.07C231.39 264.46 231.85 264 232.44 263.68C233.03 263.35 233.69 263.19 234.41 263.19C235.13 263.19 235.8 263.35 236.38 263.68C236.97 264 237.43 264.45 237.77 265.05C238.12 265.65 238.29 266.34 238.29 267.14C238.29 267.94 238.11 268.63 237.76 269.24C237.41 269.84 236.94 270.3 236.35 270.63C235.75 270.96 235.09 271.12 234.36 271.12ZM234.36 270C234.82 270 235.25 269.89 235.65 269.68C236.05 269.47 236.37 269.14 236.62 268.71C236.87 268.28 237 267.76 237 267.14C237 266.52 236.88 266 236.64 265.57C236.4 265.14 236.08 264.82 235.69 264.62C235.3 264.41 234.87 264.3 234.42 264.3C233.97 264.3 233.52 264.41 233.13 264.62C232.75 264.82 232.44 265.14 232.21 265.57C231.98 266 231.86 266.52 231.86 267.14C231.86 267.76 231.97 268.29 232.2 268.72C232.43 269.15 232.74 269.47 233.12 269.69C233.5 269.9 233.92 270 234.38 270H234.36ZM240.63 262.07C240.39 262.07 240.18 261.99 240.01 261.82C239.84 261.65 239.76 261.45 239.76 261.2C239.76 260.95 239.84 260.75 240.01 260.58C240.18 260.41 240.38 260.33 240.63 260.33C240.88 260.33 241.06 260.41 241.22 260.58C241.39 260.75 241.47 260.95 241.47 261.2C241.47 261.45 241.39 261.65 241.22 261.82C241.06 261.99 240.87 262.07 240.63 262.07ZM241.25 263.32V270.99H239.98V263.32H241.25ZM242.94 267.13C242.94 266.35 243.1 265.66 243.42 265.07C243.74 264.47 244.17 264.01 244.72 263.68C245.28 263.35 245.91 263.19 246.6 263.19C247.2 263.19 247.75 263.33 248.27 263.61C248.78 263.88 249.17 264.24 249.45 264.69V260.63H250.74V270.99H249.45V269.55C249.2 270.01 248.82 270.38 248.33 270.68C247.84 270.97 247.26 271.11 246.59 271.11C245.92 271.11 245.29 270.94 244.73 270.61C244.18 270.27 243.74 269.8 243.43 269.2C243.11 268.59 242.95 267.9 242.95 267.13H242.94ZM249.44 267.14C249.44 266.56 249.32 266.06 249.09 265.63C248.86 265.2 248.54 264.87 248.14 264.65C247.75 264.42 247.31 264.3 246.84 264.3C246.37 264.3 245.93 264.41 245.54 264.64C245.15 264.87 244.83 265.19 244.6 265.62C244.37 266.05 244.25 266.55 244.25 267.13C244.25 267.71 244.37 268.23 244.6 268.67C244.83 269.1 245.15 269.43 245.54 269.66C245.93 269.88 246.37 270 246.84 270C247.31 270 247.75 269.89 248.14 269.66C248.54 269.43 248.86 269.09 249.09 268.67C249.32 268.23 249.44 267.72 249.44 267.14ZM257.27 262.07C257.03 262.07 256.82 261.99 256.65 261.82C256.48 261.65 256.4 261.45 256.4 261.2C256.4 260.95 256.48 260.75 256.65 260.58C256.82 260.41 257.02 260.33 257.27 260.33C257.52 260.33 257.7 260.41 257.86 260.58C258.03 260.75 258.11 260.95 258.11 261.2C258.11 261.45 258.03 261.65 257.86 261.82C257.7 261.99 257.51 262.07 257.27 262.07ZM257.89 263.32V270.99H256.62V263.32H257.89ZM262.77 271.12C262.18 271.12 261.65 271.02 261.19 270.83C260.72 270.63 260.35 270.35 260.08 269.99C259.81 269.63 259.66 269.21 259.63 268.74H260.95C260.99 269.12 261.16 269.44 261.48 269.68C261.81 269.92 262.23 270.04 262.75 270.04C263.24 270.04 263.62 269.93 263.9 269.72C264.18 269.51 264.32 269.23 264.32 268.91C264.32 268.59 264.17 268.33 263.87 268.17C263.57 268 263.11 267.84 262.48 267.68C261.91 267.53 261.44 267.38 261.08 267.23C260.73 267.07 260.42 266.84 260.16 266.54C259.91 266.23 259.78 265.83 259.78 265.34C259.78 264.95 259.9 264.59 260.13 264.26C260.36 263.93 260.7 263.68 261.12 263.49C261.55 263.29 262.04 263.2 262.59 263.2C263.44 263.2 264.13 263.41 264.65 263.84C265.17 264.27 265.45 264.86 265.49 265.6H264.22C264.19 265.2 264.03 264.88 263.73 264.63C263.44 264.39 263.05 264.27 262.55 264.27C262.09 264.27 261.73 264.37 261.46 264.56C261.19 264.76 261.05 265.01 261.05 265.33C261.05 265.58 261.13 265.79 261.29 265.96C261.46 266.12 261.66 266.25 261.91 266.35C262.16 266.44 262.51 266.55 262.95 266.67C263.5 266.82 263.95 266.97 264.29 267.12C264.64 267.26 264.93 267.47 265.17 267.76C265.42 268.05 265.55 268.43 265.56 268.89C265.56 269.31 265.44 269.69 265.21 270.02C264.98 270.36 264.65 270.62 264.22 270.82C263.8 271.01 263.32 271.1 262.76 271.1L262.77 271.12ZM83.84 282.73C84.09 282.29 84.47 281.93 84.96 281.64C85.46 281.34 86.05 281.19 86.71 281.19C87.37 281.19 88.01 281.35 88.56 281.68C89.12 282.01 89.56 282.47 89.88 283.07C90.2 283.66 90.36 284.34 90.36 285.13C90.36 285.92 90.2 286.59 89.88 287.2C89.56 287.81 89.12 288.28 88.56 288.61C88.01 288.95 87.39 289.11 86.71 289.11C86.03 289.11 85.48 288.96 84.97 288.68C84.48 288.38 84.1 288.01 83.84 287.57V292.62H82.57V281.31H83.84V282.72V282.73ZM89.05 285.13C89.05 284.55 88.93 284.05 88.7 283.62C88.47 283.19 88.15 282.86 87.75 282.64C87.36 282.42 86.92 282.3 86.45 282.3C85.98 282.3 85.55 282.42 85.15 282.65C84.76 282.87 84.44 283.21 84.2 283.64C83.97 284.07 83.85 284.57 83.85 285.14C83.85 285.71 83.97 286.23 84.2 286.67C84.44 287.1 84.76 287.43 85.15 287.66C85.55 287.88 85.99 288 86.45 288C86.91 288 87.36 287.89 87.75 287.66C88.15 287.43 88.47 287.09 88.7 286.67C88.93 286.23 89.05 285.72 89.05 285.13ZM93.3 282.57C93.52 282.13 93.84 281.79 94.25 281.55C94.67 281.31 95.18 281.19 95.78 281.19V282.51H95.44C94.01 282.51 93.3 283.28 93.3 284.83V289H92.03V281.33H93.3V282.58V282.57ZM100.6 289.12C99.88 289.12 99.23 288.96 98.64 288.63C98.06 288.3 97.6 287.84 97.27 287.24C96.94 286.63 96.78 285.93 96.78 285.14C96.78 284.35 96.95 283.66 97.28 283.07C97.63 282.46 98.09 282 98.68 281.68C99.27 281.35 99.93 281.19 100.65 281.19C101.37 281.19 102.04 281.35 102.62 281.68C103.21 282 103.67 282.45 104.01 283.05C104.36 283.65 104.53 284.34 104.53 285.14C104.53 285.94 104.35 286.63 104 287.24C103.65 287.84 103.18 288.3 102.59 288.63C101.99 288.96 101.33 289.12 100.6 289.12ZM100.6 288C101.06 288 101.49 287.89 101.89 287.68C102.29 287.47 102.61 287.14 102.86 286.71C103.11 286.28 103.24 285.76 103.24 285.14C103.24 284.52 103.12 284 102.88 283.57C102.64 283.14 102.32 282.82 101.93 282.62C101.54 282.41 101.11 282.3 100.66 282.3C100.21 282.3 99.76 282.41 99.37 282.62C98.99 282.82 98.68 283.14 98.45 283.57C98.22 284 98.1 284.52 98.1 285.14C98.1 285.76 98.21 286.29 98.44 286.72C98.67 287.15 98.98 287.47 99.36 287.69C99.74 287.9 100.16 288 100.62 288H100.6ZM107.76 282.37V286.89C107.76 287.26 107.84 287.53 108 287.69C108.16 287.84 108.43 287.91 108.83 287.91H109.77V288.99H108.62C107.91 288.99 107.38 288.83 107.02 288.5C106.67 288.17 106.49 287.64 106.49 286.89V282.37H105.5V281.32H106.49V279.39H107.76V281.32H109.76V282.37H107.76ZM118.31 284.86C118.31 285.1 118.3 285.36 118.27 285.63H112.14C112.19 286.39 112.44 286.98 112.91 287.41C113.39 287.83 113.96 288.04 114.63 288.04C115.18 288.04 115.64 287.91 116 287.66C116.37 287.4 116.64 287.05 116.78 286.62H118.15C117.94 287.36 117.53 287.96 116.92 288.43C116.3 288.89 115.54 289.12 114.62 289.12C113.89 289.12 113.24 288.96 112.66 288.63C112.09 288.3 111.64 287.84 111.32 287.24C110.99 286.63 110.83 285.93 110.83 285.14C110.83 284.35 110.99 283.65 111.31 283.05C111.63 282.45 112.07 282 112.64 281.68C113.22 281.35 113.88 281.19 114.63 281.19C115.38 281.19 116 281.35 116.56 281.67C117.12 281.99 117.55 282.43 117.85 282.99C118.16 283.54 118.31 284.17 118.31 284.87V284.86ZM116.99 284.6C116.99 284.11 116.88 283.7 116.67 283.35C116.46 282.99 116.16 282.73 115.79 282.55C115.43 282.36 115.02 282.27 114.57 282.27C113.93 282.27 113.38 282.48 112.92 282.89C112.47 283.3 112.22 283.87 112.15 284.6H116.99ZM119.51 285.14C119.51 284.35 119.67 283.66 119.99 283.07C120.31 282.47 120.75 282.01 121.31 281.68C121.88 281.35 122.53 281.19 123.26 281.19C124.2 281.19 124.98 281.42 125.58 281.88C126.2 282.34 126.6 282.97 126.8 283.78H125.43C125.3 283.31 125.04 282.95 124.66 282.67C124.29 282.4 123.82 282.26 123.26 282.26C122.53 282.26 121.94 282.51 121.5 283.02C121.05 283.51 120.83 284.22 120.83 285.13C120.83 286.04 121.05 286.77 121.5 287.27C121.95 287.77 122.54 288.03 123.26 288.03C123.82 288.03 124.29 287.9 124.66 287.64C125.03 287.38 125.29 287 125.43 286.52H126.8C126.59 287.3 126.18 287.93 125.57 288.41C124.95 288.88 124.18 289.11 123.26 289.11C122.53 289.11 121.88 288.95 121.31 288.62C120.75 288.29 120.31 287.83 119.99 287.23C119.67 286.63 119.51 285.93 119.51 285.13V285.14ZM130.05 282.37V286.89C130.05 287.26 130.13 287.53 130.29 287.69C130.45 287.84 130.72 287.91 131.12 287.91H132.06V288.99H130.91C130.2 288.99 129.67 288.83 129.31 288.5C128.96 288.17 128.78 287.64 128.78 286.89V282.37H127.79V281.32H128.78V279.39H130.05V281.32H132.05V282.37H130.05ZM134.25 280.07C134.01 280.07 133.8 279.99 133.63 279.82C133.46 279.65 133.38 279.45 133.38 279.2C133.38 278.95 133.46 278.75 133.63 278.58C133.8 278.41 134 278.33 134.25 278.33C134.5 278.33 134.68 278.41 134.84 278.58C135.01 278.75 135.09 278.95 135.09 279.2C135.09 279.45 135.01 279.65 134.84 279.82C134.68 279.99 134.48 280.07 134.25 280.07ZM134.87 281.32V288.99H133.6V281.32H134.87ZM140.78 281.18C141.71 281.18 142.47 281.47 143.05 282.03C143.63 282.59 143.92 283.4 143.92 284.47V288.99H142.66V284.65C142.66 283.88 142.47 283.3 142.09 282.9C141.71 282.49 141.19 282.28 140.52 282.28C139.85 282.28 139.31 282.49 138.91 282.91C138.52 283.33 138.32 283.94 138.32 284.74V288.98H137.05V281.31H138.32V282.4C138.57 282.01 138.91 281.7 139.34 281.49C139.78 281.28 140.26 281.17 140.78 281.17V281.18ZM149.16 281.19C149.82 281.19 150.4 281.34 150.9 281.62C151.4 281.91 151.78 282.27 152.02 282.71V281.31H153.31V289.15C153.31 289.85 153.16 290.47 152.86 291.01C152.56 291.56 152.13 291.99 151.57 292.3C151.02 292.61 150.37 292.76 149.64 292.76C148.63 292.76 147.79 292.52 147.12 292.05C146.45 291.57 146.05 290.93 145.93 290.1H147.19C147.33 290.57 147.62 290.94 148.06 291.22C148.5 291.51 149.03 291.65 149.64 291.65C150.34 291.65 150.91 291.43 151.35 290.99C151.8 290.55 152.02 289.94 152.02 289.14V287.53C151.77 287.98 151.4 288.35 150.9 288.65C150.4 288.95 149.83 289.1 149.16 289.1C148.49 289.1 147.86 288.93 147.3 288.6C146.75 288.26 146.31 287.79 146 287.19C145.69 286.59 145.52 285.89 145.52 285.12C145.52 284.35 145.68 283.65 146 283.06C146.32 282.46 146.75 282 147.3 281.67C147.86 281.34 148.48 281.18 149.16 281.18V281.19ZM152.01 285.14C152.01 284.56 151.89 284.06 151.66 283.63C151.43 283.2 151.11 282.87 150.71 282.65C150.32 282.42 149.88 282.3 149.41 282.3C148.94 282.3 148.5 282.41 148.11 282.64C147.72 282.87 147.4 283.19 147.17 283.62C146.94 284.05 146.82 284.55 146.82 285.13C146.82 285.71 146.94 286.23 147.17 286.67C147.4 287.1 147.72 287.43 148.11 287.66C148.5 287.88 148.94 288 149.41 288C149.88 288 150.32 287.89 150.71 287.66C151.11 287.43 151.43 287.09 151.66 286.67C151.89 286.23 152.01 285.72 152.01 285.14ZM165.79 281.32L161.17 292.6H159.85L161.36 288.9L158.27 281.31H159.68L162.09 287.53L164.47 281.31H165.79V281.32ZM170.42 289.12C169.7 289.12 169.05 288.96 168.46 288.63C167.88 288.3 167.42 287.84 167.09 287.24C166.76 286.63 166.6 285.93 166.6 285.14C166.6 284.35 166.77 283.66 167.1 283.07C167.45 282.46 167.91 282 168.5 281.68C169.09 281.35 169.75 281.19 170.47 281.19C171.19 281.19 171.86 281.35 172.44 281.68C173.03 282 173.49 282.45 173.83 283.05C174.18 283.65 174.35 284.34 174.35 285.14C174.35 285.94 174.17 286.63 173.82 287.24C173.47 287.84 173 288.3 172.41 288.63C171.81 288.96 171.15 289.12 170.42 289.12ZM170.42 288C170.88 288 171.31 287.89 171.71 287.68C172.11 287.47 172.43 287.14 172.68 286.71C172.93 286.28 173.06 285.76 173.06 285.14C173.06 284.52 172.94 284 172.7 283.57C172.46 283.14 172.14 282.82 171.75 282.62C171.36 282.41 170.93 282.3 170.48 282.3C170.03 282.3 169.58 282.41 169.19 282.62C168.81 282.82 168.5 283.14 168.27 283.57C168.04 284 167.92 284.52 167.92 285.14C167.92 285.76 168.03 286.29 168.26 286.72C168.49 287.15 168.8 287.47 169.18 287.69C169.56 287.9 169.98 288 170.44 288H170.42ZM182.83 281.32V288.99H181.56V287.86C181.32 288.25 180.98 288.56 180.54 288.78C180.11 288.99 179.64 289.1 179.11 289.1C178.51 289.1 177.98 288.98 177.5 288.74C177.02 288.49 176.65 288.12 176.37 287.62C176.1 287.13 175.96 286.52 175.96 285.81V281.32H177.22V285.65C177.22 286.41 177.41 286.99 177.79 287.4C178.17 287.8 178.69 288 179.36 288C180.03 288 180.58 287.79 180.97 287.37C181.36 286.95 181.56 286.34 181.56 285.54V281.33H182.83V281.32ZM186.26 282.57C186.48 282.13 186.8 281.79 187.21 281.55C187.63 281.31 188.14 281.19 188.74 281.19V282.51H188.4C186.97 282.51 186.26 283.28 186.26 284.83V289H184.99V281.33H186.26V282.58V282.57ZM200.46 282.09C200.46 282.9 200.18 283.58 199.62 284.12C199.07 284.65 198.23 284.92 197.09 284.92H195.21V288.99H193.94V279.23H197.09C198.19 279.23 199.03 279.5 199.6 280.03C200.18 280.56 200.47 281.25 200.47 282.09H200.46ZM197.09 283.87C197.8 283.87 198.32 283.72 198.66 283.41C199 283.1 199.16 282.66 199.16 282.09C199.16 280.89 198.47 280.28 197.09 280.28H195.21V283.86H197.09V283.87ZM203.32 282.57C203.54 282.13 203.86 281.79 204.27 281.55C204.69 281.31 205.2 281.19 205.8 281.19V282.51H205.46C204.03 282.51 203.32 283.28 203.32 284.83V289H202.05V281.33H203.32V282.58V282.57ZM207.93 280.07C207.69 280.07 207.48 279.99 207.31 279.82C207.14 279.65 207.06 279.45 207.06 279.2C207.06 278.95 207.14 278.75 207.31 278.58C207.48 278.41 207.68 278.33 207.93 278.33C208.18 278.33 208.36 278.41 208.52 278.58C208.69 278.75 208.77 278.95 208.77 279.2C208.77 279.45 208.69 279.65 208.52 279.82C208.36 279.99 208.17 280.07 207.93 280.07ZM208.54 281.32V288.99H207.27V281.32H208.54ZM213.57 287.82L215.95 281.32H217.31L214.3 288.99H212.82L209.81 281.32H211.18L213.57 287.82ZM218.09 285.13C218.09 284.35 218.25 283.66 218.57 283.07C218.89 282.47 219.32 282.01 219.87 281.68C220.43 281.35 221.05 281.19 221.73 281.19C222.41 281.19 222.99 281.34 223.48 281.62C223.97 281.91 224.34 282.27 224.59 282.71V281.31H225.88V288.98H224.59V287.55C224.34 288 223.96 288.37 223.46 288.67C222.97 288.96 222.39 289.1 221.72 289.1C221.05 289.1 220.42 288.93 219.87 288.6C219.32 288.26 218.89 287.79 218.57 287.19C218.25 286.58 218.09 285.89 218.09 285.12V285.13ZM224.58 285.14C224.58 284.56 224.46 284.06 224.23 283.63C224 283.2 223.68 282.87 223.28 282.65C222.89 282.42 222.45 282.3 221.98 282.3C221.51 282.3 221.07 282.41 220.68 282.64C220.29 282.87 219.98 283.19 219.74 283.62C219.51 284.05 219.39 284.55 219.39 285.13C219.39 285.71 219.51 286.23 219.74 286.67C219.97 287.1 220.29 287.43 220.68 287.66C221.07 287.88 221.51 288 221.98 288C222.45 288 222.89 287.89 223.28 287.66C223.68 287.43 224 287.09 224.23 286.67C224.46 286.23 224.58 285.72 224.58 285.14ZM227.55 285.14C227.55 284.35 227.71 283.66 228.03 283.07C228.35 282.47 228.79 282.01 229.35 281.68C229.92 281.35 230.57 281.19 231.3 281.19C232.24 281.19 233.02 281.42 233.62 281.88C234.24 282.34 234.64 282.97 234.84 283.78H233.47C233.34 283.31 233.08 282.95 232.7 282.67C232.33 282.4 231.86 282.26 231.3 282.26C230.57 282.26 229.98 282.51 229.54 283.02C229.09 283.51 228.87 284.22 228.87 285.13C228.87 286.04 229.09 286.77 229.54 287.27C229.99 287.77 230.58 288.03 231.3 288.03C231.86 288.03 232.33 287.9 232.7 287.64C233.07 287.38 233.33 287 233.47 286.52H234.84C234.63 287.3 234.22 287.93 233.61 288.41C232.99 288.88 232.22 289.11 231.3 289.11C230.57 289.11 229.92 288.95 229.35 288.62C228.79 288.29 228.35 287.83 228.03 287.23C227.71 286.63 227.55 285.93 227.55 285.13V285.14ZM243.14 281.32L238.52 292.6H237.2L238.71 288.9L235.62 281.31H237.03L239.44 287.53L241.82 281.31H243.14V281.32ZM246.07 279.23L245.92 286.23H244.86L244.71 279.23H246.08H246.07ZM245.44 289.08C245.2 289.08 244.99 289 244.82 288.83C244.65 288.66 244.57 288.46 244.57 288.21C244.57 287.96 244.65 287.76 244.82 287.59C244.99 287.42 245.19 287.34 245.44 287.34C245.69 287.34 245.87 287.42 246.03 287.59C246.2 287.76 246.28 287.96 246.28 288.21C246.28 288.46 246.2 288.66 246.03 288.83C245.87 289 245.68 289.08 245.44 289.08Z" fill="#282836"/>
<path d="M103.56 197.41V200.99H98.62V184.24C98.62 183.76 98.85 183.52 99.32 183.52H113.67C115.3 183.52 116.48 183.89 117.2 184.62C117.92 185.34 118.28 186.36 118.28 187.69V189.23C118.28 189.93 118.14 190.5 117.85 190.93C117.56 191.36 117.23 191.71 116.87 191.96C117.38 192.22 117.81 192.59 118.14 193.09C118.48 193.59 118.64 194.2 118.64 194.94V196.48C118.64 197.95 118.29 199.07 117.58 199.84C116.89 200.61 115.7 200.99 114 200.99H105.1L103.73 197.41H103.56ZM103.56 193.6V196.89H112.15C112.58 196.89 112.89 196.79 113.09 196.58C113.3 196.37 113.4 196.01 113.4 195.5V195C113.4 194.49 113.3 194.13 113.11 193.92C112.93 193.71 112.61 193.61 112.15 193.61H103.56V193.6ZM103.97 187.41C103.7 187.41 103.56 187.55 103.56 187.82V190.77H111.86C112.4 190.77 112.79 190.67 113.01 190.46C113.23 190.25 113.35 189.89 113.35 189.38V188.85C113.35 188.32 113.24 187.95 113.01 187.75C112.79 187.53 112.4 187.41 111.86 187.41H103.96H103.97ZM125.5 190.89H125.33V196.12C125.33 196.34 125.44 196.46 125.67 196.46H140.41V201H121.09C120.63 201 120.39 200.76 120.39 200.28V184.25C120.39 183.77 120.62 183.53 121.09 183.53H139.86C140.34 183.53 140.58 183.77 140.58 184.25V188.79L136 190.49H135.81V188.16C135.81 187.98 135.73 187.9 135.57 187.9H125.66C125.53 187.9 125.44 187.94 125.4 188.02C125.37 188.08 125.35 188.16 125.35 188.24V190.42H133.51V193.97H126.67L125.52 190.9L125.5 190.89ZM147.49 183.52V195.86C147.49 196.05 147.53 196.2 147.61 196.29C147.69 196.39 147.84 196.43 148.07 196.43H161.75V200.99H143.82C143.36 200.99 143.03 200.88 142.84 200.65C142.65 200.41 142.55 200.07 142.55 199.64V183.51H147.49V183.52ZM163.21 184.24C163.21 183.76 163.43 183.52 163.88 183.52H176.98C178.28 183.52 179.38 183.69 180.29 184.02C181.2 184.34 181.94 184.8 182.5 185.41C183.06 186 183.47 186.73 183.72 187.59C183.98 188.44 184.1 189.39 184.1 190.45V194.05C184.1 195.11 183.97 196.07 183.72 196.93C183.46 197.78 183.06 198.51 182.5 199.11C181.94 199.7 181.2 200.17 180.29 200.5C179.38 200.82 178.27 200.98 176.98 200.98H169.92L168.34 196.9H168.15V200.98H163.21V184.23V184.24ZM168.16 196.46H176.54C177.48 196.46 178.16 196.25 178.56 195.84C178.96 195.42 179.16 194.69 179.16 193.63V190.7C179.16 189.61 178.96 188.88 178.56 188.49C178.16 188.09 177.49 187.89 176.54 187.89H168.52C168.41 187.89 168.32 187.93 168.26 188.01C168.2 188.07 168.16 188.15 168.16 188.25V196.46ZM191.22 190.89H191.05V196.12C191.05 196.34 191.16 196.46 191.39 196.46H206.13V201H186.81C186.35 201 186.11 200.76 186.11 200.28V184.25C186.11 183.77 186.34 183.53 186.81 183.53H205.58C206.06 183.53 206.3 183.77 206.3 184.25V188.79L201.72 190.49H201.53V188.16C201.53 187.98 201.45 187.9 201.29 187.9H191.38C191.25 187.9 191.16 187.94 191.12 188.02C191.09 188.08 191.07 188.16 191.07 188.24V190.42H199.23V193.97H192.39L191.24 190.9L191.22 190.89ZM230.92 183.52V183.71L222.76 191.73L231.28 200.8V200.99H224.99L219.3 194.89L213.42 200.99H207.42V200.8L216.16 191.75L208.24 183.71V183.52H214.38L219.47 188.92L224.94 183.52H230.92Z" fill="#00DC00"/>
<path d="M89.06 225.41V228.99H84.12V212.24C84.12 211.76 84.35 211.52 84.82 211.52H99.17C100.8 211.52 101.98 211.89 102.7 212.62C103.42 213.34 103.78 214.36 103.78 215.69V217.23C103.78 217.93 103.64 218.5 103.35 218.93C103.06 219.36 102.73 219.71 102.37 219.96C102.88 220.22 103.31 220.59 103.64 221.09C103.97 221.59 104.14 222.2 104.14 222.94V224.48C104.14 225.95 103.79 227.07 103.08 227.84C102.39 228.61 101.2 228.99 99.5 228.99H90.6L89.23 225.41H89.06ZM89.06 221.6V224.89H97.65C98.08 224.89 98.39 224.79 98.59 224.58C98.8 224.37 98.9 224.01 98.9 223.5V223C98.9 222.49 98.8 222.13 98.61 221.92C98.43 221.71 98.11 221.61 97.65 221.61H89.06V221.6ZM89.46 215.41C89.19 215.41 89.05 215.55 89.05 215.82V218.77H97.35C97.89 218.77 98.28 218.67 98.5 218.46C98.72 218.25 98.84 217.89 98.84 217.38V216.85C98.84 216.32 98.73 215.95 98.5 215.75C98.28 215.53 97.89 215.41 97.35 215.41H89.45H89.46ZM110.83 220.57V228.99H105.89V212.24C105.89 211.76 106.11 211.52 106.56 211.52H120.22C121.31 211.52 122.23 211.65 122.98 211.9C123.73 212.15 124.34 212.53 124.8 213.03C125.26 213.51 125.6 214.09 125.81 214.78C126.02 215.47 126.12 216.24 126.12 217.11V218.36C126.12 219.21 126.02 219.97 125.81 220.64C125.6 221.31 125.27 221.89 124.8 222.37C124.35 222.83 123.77 223.19 123.05 223.45C122.33 223.71 121.45 223.83 120.41 223.83H119.26C119.08 223.83 118.91 223.83 118.73 223.81V223.98C118.94 224.17 119.15 224.39 119.35 224.63C119.56 224.85 119.76 225.09 119.95 225.33L122.73 228.81V229H117.16L110.99 220.58H110.82L110.83 220.57ZM111.17 215.89C110.95 215.89 110.83 216.03 110.83 216.3V220.12H119.33C119.99 220.12 120.45 219.99 120.72 219.74C121.01 219.48 121.15 219 121.15 218.28V217.68C121.15 217.01 121.01 216.54 120.72 216.29C120.45 216.03 119.98 215.91 119.33 215.91H111.17V215.89ZM149.54 222.05C149.54 223.11 149.41 224.07 149.16 224.93C148.9 225.78 148.5 226.51 147.94 227.11C147.38 227.7 146.64 228.17 145.73 228.5C144.83 228.82 143.74 228.98 142.44 228.98H134.66C133.36 228.98 132.26 228.82 131.35 228.5C130.44 228.16 129.7 227.7 129.14 227.11C128.58 226.5 128.17 225.77 127.92 224.93C127.66 224.07 127.54 223.11 127.54 222.05V218.45C127.54 217.39 127.67 216.44 127.92 215.59C128.18 214.73 128.58 214 129.14 213.41C129.7 212.8 130.44 212.34 131.35 212.02C132.26 211.68 133.37 211.52 134.66 211.52H142.44C143.74 211.52 144.83 211.69 145.73 212.02C146.64 212.34 147.38 212.8 147.94 213.41C148.5 214 148.91 214.73 149.16 215.59C149.42 216.44 149.54 217.39 149.54 218.45V222.05ZM132.48 221.62C132.48 222.23 132.54 222.72 132.65 223.08C132.78 223.45 132.97 223.74 133.23 223.94C133.5 224.13 133.85 224.27 134.26 224.35C134.69 224.41 135.22 224.45 135.84 224.45H141.98C142.51 224.45 142.94 224.39 143.28 224.28C143.63 224.17 143.9 223.98 144.1 223.73C144.29 223.46 144.42 223.1 144.48 222.65C144.56 222.2 144.6 221.65 144.6 220.99V218.69C144.6 217.62 144.4 216.88 144 216.48C143.6 216.08 142.93 215.88 141.98 215.88H135.09C134.56 215.88 134.12 215.94 133.77 216.05C133.43 216.16 133.17 216.35 132.98 216.63C132.79 216.89 132.65 217.24 132.57 217.69C132.51 218.12 132.47 218.67 132.47 219.32V221.62H132.48ZM179.08 211.52V211.71L176.56 228.32C176.53 228.56 176.46 228.74 176.34 228.85C176.24 228.95 176.06 228.99 175.79 228.99H168.61C168 228.99 167.65 228.75 167.55 228.27L164.86 215.96C164.83 215.82 164.74 215.74 164.6 215.74H164.38C164.2 215.74 164.1 215.81 164.07 215.96L161.72 228.27C161.62 228.75 161.27 228.99 160.66 228.99H153.7C153.44 228.99 153.26 228.93 153.15 228.82C153.04 228.71 152.97 228.54 152.93 228.32L150.17 211.71V211.52H155.11L157.17 224.74C157.2 224.95 157.32 225.05 157.53 225.05H157.77C157.96 225.05 158.08 224.95 158.13 224.74L160.63 212.14C160.66 211.92 160.74 211.76 160.87 211.66C161.01 211.56 161.24 211.52 161.54 211.52H167.59C168.1 211.52 168.41 211.73 168.5 212.14L171.28 224.74C171.33 224.95 171.44 225.05 171.62 225.05H171.88C172.14 225.05 172.27 224.95 172.29 224.74L173.99 211.52H179.05H179.08ZM196.16 217.57H195.97V215.65C195.97 215.46 195.87 215.36 195.68 215.36H186.46C186.12 215.36 185.89 215.43 185.76 215.58C185.63 215.72 185.57 215.93 185.57 216.2V216.63C185.57 216.97 185.63 217.18 185.74 217.28C185.85 217.38 186.07 217.45 186.39 217.5L197.24 219.01C197.93 219.11 198.51 219.26 198.99 219.47C199.47 219.66 199.86 219.93 200.17 220.26C200.47 220.58 200.69 220.98 200.82 221.46C200.95 221.94 201.01 222.51 201.01 223.16V224.55C201.01 225.27 200.92 225.91 200.75 226.47C200.57 227.01 200.29 227.48 199.89 227.86C199.49 228.23 198.96 228.51 198.31 228.7C197.65 228.89 196.85 228.99 195.89 228.99H180.34V224.45H194.28C194.7 224.45 194.97 224.38 195.1 224.23C195.24 224.07 195.32 223.8 195.32 223.41V222.93C195.32 222.63 195.26 222.42 195.15 222.31C195.05 222.18 194.85 222.1 194.55 222.07L184.09 220.75C183.39 220.65 182.78 220.51 182.27 220.32C181.77 220.13 181.37 219.87 181.05 219.55C180.73 219.23 180.5 218.84 180.35 218.37C180.21 217.91 180.13 217.35 180.13 216.71V215.49C180.13 214.23 180.47 213.25 181.14 212.56C181.81 211.86 182.93 211.5 184.5 211.5H200.03C200.53 211.5 200.77 211.76 200.77 212.27V215.87L196.19 217.55L196.16 217.57ZM208.19 218.89H208.02V224.12C208.02 224.34 208.13 224.46 208.36 224.46H223.1V229H203.78C203.32 229 203.08 228.76 203.08 228.28V212.25C203.08 211.77 203.31 211.53 203.78 211.53H222.55C223.03 211.53 223.27 211.77 223.27 212.25V216.79L218.69 218.49H218.5V216.16C218.5 215.98 218.42 215.9 218.26 215.9H208.35C208.22 215.9 208.13 215.94 208.09 216.02C208.06 216.08 208.04 216.16 208.04 216.24V218.42H216.2V221.97H209.36L208.21 218.9L208.19 218.89ZM230.17 220.57V228.99H225.23V212.24C225.23 211.76 225.45 211.52 225.9 211.52H239.56C240.65 211.52 241.57 211.65 242.32 211.9C243.07 212.15 243.68 212.53 244.14 213.03C244.6 213.51 244.94 214.09 245.15 214.78C245.36 215.47 245.46 216.24 245.46 217.11V218.36C245.46 219.21 245.36 219.97 245.15 220.64C244.94 221.31 244.61 221.89 244.14 222.37C243.69 222.83 243.11 223.19 242.39 223.45C241.67 223.71 240.79 223.83 239.75 223.83H238.6C238.42 223.83 238.25 223.83 238.07 223.81V223.98C238.28 224.17 238.49 224.39 238.69 224.63C238.9 224.85 239.1 225.09 239.29 225.33L242.07 228.81V229H236.5L230.33 220.58H230.16L230.17 220.57ZM230.51 215.89C230.29 215.89 230.17 216.03 230.17 216.3V220.12H238.67C239.33 220.12 239.79 219.99 240.06 219.74C240.35 219.48 240.49 219 240.49 218.28V217.68C240.49 217.01 240.35 216.54 240.06 216.29C239.79 216.03 239.32 215.91 238.67 215.91H230.51V215.89Z" fill="#0094FF"/>
<mask id="mask1_8_207" style="mask-type:luminance" maskUnits="userSpaceOnUse" x="132" y="61" width="70" height="100">
<path d="M201.54 61.72H132.65V160.59H201.54V61.72Z" fill="white"/>
</mask>
<g mask="url(#mask1_8_207)">
<path d="M132.65 125.59H201.54L167.1 90.59L132.66 125.59H132.65Z" fill="#38A5F4"/>
<path d="M167.09 160.6L201.53 125.6H132.64L167.08 160.6H167.09Z" fill="#0094FF"/>
<path d="M132.65 96.73H201.54L167.1 61.73L132.66 96.73H132.65Z" fill="#00DC00"/>
<path d="M167.09 131.73L201.53 96.73H132.64L167.08 131.73H167.09Z" fill="#00A61F"/>
</g>
<path d="M138.82 71.8C141.604 71.8 143.86 69.5435 143.86 66.76C143.86 63.9765 141.604 61.72 138.82 61.72C136.037 61.72 133.78 63.9765 133.78 66.76C133.78 69.5435 136.037 71.8 138.82 71.8Z" fill="#E3E3E3"/>
<mask id="mask2_8_207" style="mask-type:luminance" maskUnits="userSpaceOnUse" x="113" y="142" width="14" height="14">
<path d="M120.048 142.285L113.641 148.692L120.048 155.098L126.454 148.692L120.048 142.285Z" fill="white"/>
</mask>
<g mask="url(#mask2_8_207)">
<path d="M120.32 144.68C120.21 144.57 120.05 144.54 119.91 144.6C119.77 144.66 119.68 144.8 119.68 144.95V148.31H116.32C116.18 148.31 116.06 148.38 115.99 148.5C115.92 148.62 115.92 148.76 115.99 148.88C116.06 149 116.19 149.07 116.32 149.07H119.68V152.43C119.68 152.57 119.75 152.69 119.87 152.76C119.99 152.83 120.13 152.83 120.25 152.76C120.37 152.69 120.44 152.56 120.44 152.43V149.07H123.8C123.95 149.07 124.1 148.98 124.16 148.83C124.22 148.69 124.18 148.52 124.07 148.41C124 148.34 123.9 148.31 123.81 148.31H120.45V144.95C120.45 144.85 120.41 144.75 120.34 144.68H120.32Z" fill="#00B134" stroke="#00B134" stroke-width="0.92"/>
</g>
<mask id="mask3_8_207" style="mask-type:luminance" maskUnits="userSpaceOnUse" x="199" y="67" width="20" height="19">
<path d="M208.865 67.2084L199.708 76.3654L208.865 85.5224L218.022 76.3654L208.865 67.2084Z" fill="white"/>
</mask>
<g mask="url(#mask3_8_207)">
<path d="M209.24 70.64C209.09 70.48 208.85 70.44 208.65 70.52C208.45 70.61 208.32 70.8 208.32 71.02V75.82H203.52C203.33 75.82 203.14 75.92 203.04 76.09C202.94 76.26 202.94 76.47 203.04 76.64C203.14 76.81 203.32 76.91 203.52 76.91H208.32V81.71C208.32 81.91 208.42 82.09 208.59 82.19C208.76 82.29 208.97 82.29 209.13 82.19C209.3 82.09 209.4 81.91 209.4 81.71V76.91H214.2C214.42 76.91 214.62 76.78 214.71 76.57C214.79 76.36 214.74 76.13 214.58 75.97C214.48 75.87 214.34 75.82 214.2 75.82H209.4V71.02C209.4 70.87 209.34 70.73 209.24 70.63V70.64Z" fill="#00B134" stroke="#00B134" stroke-width="0.83"/>
</g>
<path d="M109.53 110.32C114.882 110.32 119.22 105.982 119.22 100.63C119.22 95.2784 114.882 90.94 109.53 90.94C104.178 90.94 99.84 95.2784 99.84 100.63C99.84 105.982 104.178 110.32 109.53 110.32Z" stroke="#00B134" stroke-width="1.68"/>
<path d="M228.54 114.36C228.54 116.89 226.49 118.94 223.96 118.94C221.43 118.94 219.38 116.89 219.38 114.36C219.38 111.83 221.43 109.78 223.96 109.78C226.49 109.78 228.54 111.83 228.54 114.36Z" stroke="#00B134" stroke-width="0.92"/>
<path d="M212.98 164.26C217.277 164.26 220.76 160.777 220.76 156.48C220.76 152.183 217.277 148.7 212.98 148.7C208.683 148.7 205.2 152.183 205.2 156.48C205.2 160.777 208.683 164.26 212.98 164.26Z" fill="#E3E3E3"/>
</svg>
