<svg width="328" height="352" viewBox="0 0 328 352" fill="none" xmlns="http://www.w3.org/2000/svg">
<path d="M316 0H12C5.37258 0 0 5.37258 0 12V340C0 346.627 5.37258 352 12 352H316C322.627 352 328 346.627 328 340V12C328 5.37258 322.627 0 316 0Z" fill="#282836"/>
<path d="M300 21.5H28C21.6487 21.5 16.5 26.6487 16.5 33V320C16.5 326.351 21.6487 331.5 28 331.5H300C306.351 331.5 311.5 326.351 311.5 320V33C311.5 26.6487 306.351 21.5 300 21.5Z" fill="#282836" stroke="#42425F"/>
<mask id="mask0_8_77" style="mask-type:alpha" maskUnits="userSpaceOnUse" x="16" y="21" width="296" height="311">
<path d="M300 21.5H28C21.6487 21.5 16.5 26.6487 16.5 33V320C16.5 326.351 21.6487 331.5 28 331.5H300C306.351 331.5 311.5 326.351 311.5 320V33C311.5 26.6487 306.351 21.5 300 21.5Z" fill="#D9D9D9" stroke="#42425F"/>
</mask>
<g mask="url(#mask0_8_77)">
<path d="M300 21.5H28C21.6487 21.5 16.5 26.6487 16.5 33V320C16.5 326.351 21.6487 331.5 28 331.5H300C306.351 331.5 311.5 326.351 311.5 320V33C311.5 26.6487 306.351 21.5 300 21.5Z" fill="#282836" stroke="#42425F"/>
<path d="M300 21.5H28C21.6487 21.5 16.5 26.6487 16.5 33V320C16.5 326.351 21.6487 331.5 28 331.5H300C306.351 331.5 311.5 326.351 311.5 320V33C311.5 26.6487 306.351 21.5 300 21.5Z" fill="#282836" stroke="#42425F"/>
<path d="M16 202.505C-19.2 200.105 -40 231.171 -46 247.005V105.005C-24 104.838 26.1 109.105 50.5 127.505C81 150.505 60 205.505 16 202.505Z" fill="#39394B"/>
<path d="M255.5 44C257.9 8.8 226.833 -12 211 -18H353C353.167 4 348.9 54.1 330.5 78.5C307.5 109 252.5 88 255.5 44Z" fill="#39394B"/>
<path d="M330.505 348.897C328.105 384.097 359.171 404.897 375.005 410.897H233.005C232.838 388.897 237.105 338.797 255.505 314.397C278.505 283.897 333.505 304.897 330.505 348.897Z" fill="#39394B"/>
<path d="M69.1181 268.116C69.1181 267.276 68.5161 266.772 67.5641 266.772H65.6321V269.404H67.6061C68.5581 269.404 69.1181 268.942 69.1181 268.116ZM68.8801 264.042C68.8801 263.258 68.3481 262.81 67.4241 262.81H65.6321V265.26H67.4241C68.3481 265.26 68.8801 264.84 68.8801 264.042ZM71.1061 268.354C71.1061 269.908 69.9161 271 67.8861 271H63.6721V261.228H67.7041C69.7481 261.228 70.8821 262.292 70.8821 263.748C70.8821 264.938 70.1681 265.68 69.2161 265.988C70.3221 266.184 71.1061 267.206 71.1061 268.354ZM76.0001 264.728C75.0621 264.728 74.3201 265.33 74.1661 266.394H77.8481C77.8201 265.372 77.0081 264.728 76.0001 264.728ZM79.6821 268.564C79.2621 269.992 77.9741 271.126 76.0561 271.126C73.8021 271.126 72.1641 269.558 72.1641 267.122C72.1641 264.672 73.7601 263.118 76.0561 263.118C78.2961 263.118 79.8781 264.644 79.8781 266.954C79.8781 267.206 79.8641 267.458 79.8221 267.71H74.1521C74.2501 268.858 75.0341 269.502 76.0141 269.502C76.8541 269.502 77.3161 269.082 77.5681 268.564H79.6821ZM81.3088 271V260.64H83.2688V271H81.3088ZM84.7013 267.094C84.7013 264.672 86.2693 263.118 88.2573 263.118C89.2793 263.118 90.2593 263.594 90.7913 264.322V260.64H92.7793V271H90.7913V269.852C90.3293 270.566 89.4613 271.126 88.2433 271.126C86.2693 271.126 84.7013 269.516 84.7013 267.094ZM90.8053 267.122C90.8053 265.652 89.8253 264.84 88.7473 264.84C87.6973 264.84 86.7033 265.624 86.7033 267.094C86.7033 268.564 87.6973 269.404 88.7473 269.404C89.8253 269.404 90.8053 268.592 90.8053 267.122ZM98.0255 264.728C97.0875 264.728 96.3455 265.33 96.1915 266.394H99.8735C99.8455 265.372 99.0335 264.728 98.0255 264.728ZM101.708 268.564C101.288 269.992 99.9995 271.126 98.0815 271.126C95.8275 271.126 94.1895 269.558 94.1895 267.122C94.1895 264.672 95.7855 263.118 98.0815 263.118C100.322 263.118 101.904 264.644 101.904 266.954C101.904 267.206 101.89 267.458 101.848 267.71H96.1775C96.2755 268.858 97.0595 269.502 98.0395 269.502C98.8795 269.502 99.3415 269.082 99.5935 268.564H101.708ZM107.618 271L106.022 268.592L104.608 271H102.508L105.042 267.108L102.48 263.244H104.692L106.274 265.638L107.702 263.244H109.802L107.254 267.108L109.83 271H107.618ZM119.677 268.116C119.677 267.276 119.075 266.772 118.123 266.772H116.191V269.404H118.165C119.117 269.404 119.677 268.942 119.677 268.116ZM119.439 264.042C119.439 263.258 118.907 262.81 117.983 262.81H116.191V265.26H117.983C118.907 265.26 119.439 264.84 119.439 264.042ZM121.665 268.354C121.665 269.908 120.475 271 118.445 271H114.231V261.228H118.263C120.307 261.228 121.441 262.292 121.441 263.748C121.441 264.938 120.727 265.68 119.775 265.988C120.881 266.184 121.665 267.206 121.665 268.354ZM125.187 267.136V271H123.227V263.244H125.187V264.448C125.677 263.65 126.489 263.132 127.567 263.132V265.19H127.049C125.887 265.19 125.187 265.638 125.187 267.136ZM136.377 267.122C136.377 269.558 134.585 271.126 132.331 271.126C130.091 271.126 128.397 269.558 128.397 267.122C128.397 264.672 130.147 263.118 132.387 263.118C134.627 263.118 136.377 264.672 136.377 267.122ZM130.385 267.122C130.385 268.662 131.281 269.418 132.331 269.418C133.367 269.418 134.361 268.662 134.361 267.122C134.361 265.568 133.395 264.826 132.359 264.826C131.323 264.826 130.385 265.568 130.385 267.122ZM139.229 271L136.947 263.244H138.935L140.307 269.152L141.791 263.244H143.863L145.319 269.138L146.691 263.244H148.567L146.299 271H144.185L142.771 265.582L141.357 271H139.229ZM155.647 268.788C155.647 270.118 154.485 271.126 152.595 271.126C150.649 271.126 149.291 269.992 149.207 268.55H151.181C151.251 269.138 151.797 269.586 152.581 269.586C153.351 269.586 153.771 269.236 153.771 268.788C153.771 267.402 149.389 268.284 149.389 265.442C149.389 264.154 150.537 263.118 152.455 263.118C154.331 263.118 155.465 264.14 155.577 265.68H153.701C153.645 265.078 153.169 264.672 152.399 264.672C151.671 264.672 151.293 264.966 151.293 265.414C151.293 266.828 155.591 265.946 155.647 268.788ZM160.588 264.728C159.65 264.728 158.908 265.33 158.754 266.394H162.436C162.408 265.372 161.596 264.728 160.588 264.728ZM164.27 268.564C163.85 269.992 162.562 271.126 160.644 271.126C158.39 271.126 156.752 269.558 156.752 267.122C156.752 264.672 158.348 263.118 160.644 263.118C162.884 263.118 164.466 264.644 164.466 266.954C164.466 267.206 164.452 267.458 164.41 267.71H158.74C158.838 268.858 159.622 269.502 160.602 269.502C161.442 269.502 161.904 269.082 162.156 268.564H164.27ZM167.857 267.136V271H165.897V263.244H167.857V264.448C168.347 263.65 169.159 263.132 170.237 263.132V265.19H169.719C168.557 265.19 167.857 265.638 167.857 267.136Z" fill="#00D73F"/>
<path d="M175.639 271V264.378H174.645V263.328H175.639V262.782C175.639 261.074 176.479 260.304 178.439 260.304V261.368C177.291 261.368 176.913 261.788 176.913 262.782V263.328H178.523V264.378H176.913V271H175.639ZM187.289 267.15C187.289 269.586 185.539 271.126 183.355 271.126C181.185 271.126 179.533 269.586 179.533 267.15C179.533 264.728 181.241 263.202 183.411 263.202C185.595 263.202 187.289 264.728 187.289 267.15ZM180.835 267.15C180.835 269.096 182.025 270.006 183.355 270.006C184.685 270.006 185.987 269.096 185.987 267.15C185.987 265.218 184.713 264.308 183.397 264.308C182.053 264.308 180.835 265.218 180.835 267.15ZM190.238 266.828V271H188.964V263.328H190.238V264.574C190.672 263.72 191.498 263.188 192.716 263.188V264.504H192.38C191.162 264.504 190.238 265.05 190.238 266.828ZM197.443 267.136C197.443 264.742 199.025 263.202 201.083 263.202C202.511 263.202 203.491 263.93 203.939 264.728V263.328H205.227V271H203.939V269.572C203.477 270.398 202.483 271.126 201.069 271.126C199.025 271.126 197.443 269.516 197.443 267.136ZM203.939 267.15C203.939 265.372 202.735 264.308 201.335 264.308C199.935 264.308 198.745 265.33 198.745 267.136C198.745 268.942 199.935 270.006 201.335 270.006C202.735 270.006 203.939 268.956 203.939 267.15ZM212.994 271V266.66C212.994 265.092 212.14 264.294 210.852 264.294C209.55 264.294 208.654 265.106 208.654 266.758V271H207.38V263.328H208.654V264.42C209.158 263.622 210.082 263.188 211.118 263.188C212.896 263.188 214.254 264.28 214.254 266.478V271H212.994ZM215.859 267.136C215.859 264.742 217.441 263.202 219.513 263.202C220.717 263.202 221.823 263.818 222.355 264.7V260.64H223.643V271H222.355V269.558C221.893 270.412 220.899 271.126 219.499 271.126C217.441 271.126 215.859 269.516 215.859 267.136ZM222.355 267.15C222.355 265.372 221.151 264.308 219.751 264.308C218.351 264.308 217.161 265.33 217.161 267.136C217.161 268.942 218.351 270.006 219.751 270.006C221.151 270.006 222.355 268.956 222.355 267.15ZM227.07 266.828V271H225.796V263.328H227.07V264.574C227.504 263.72 228.33 263.188 229.548 263.188V264.504H229.212C227.994 264.504 227.07 265.05 227.07 266.828ZM238.298 267.15C238.298 269.586 236.548 271.126 234.364 271.126C232.194 271.126 230.542 269.586 230.542 267.15C230.542 264.728 232.25 263.202 234.42 263.202C236.604 263.202 238.298 264.728 238.298 267.15ZM231.844 267.15C231.844 269.096 233.034 270.006 234.364 270.006C235.694 270.006 236.996 269.096 236.996 267.15C236.996 265.218 235.722 264.308 234.406 264.308C233.062 264.308 231.844 265.218 231.844 267.15ZM239.974 271V263.328H241.248V271H239.974ZM240.632 262.082C240.142 262.082 239.764 261.704 239.764 261.214C239.764 260.724 240.142 260.346 240.632 260.346C241.094 260.346 241.472 260.724 241.472 261.214C241.472 261.704 241.094 262.082 240.632 262.082ZM242.943 267.136C242.943 264.742 244.525 263.202 246.597 263.202C247.801 263.202 248.907 263.818 249.439 264.7V260.64H250.727V271H249.439V269.558C248.977 270.412 247.983 271.126 246.583 271.126C244.525 271.126 242.943 269.516 242.943 267.136ZM249.439 267.15C249.439 265.372 248.235 264.308 246.835 264.308C245.435 264.308 244.245 265.33 244.245 267.136C244.245 268.942 245.435 270.006 246.835 270.006C248.235 270.006 249.439 268.956 249.439 267.15ZM256.612 271V263.328H257.886V271H256.612ZM257.27 262.082C256.78 262.082 256.402 261.704 256.402 261.214C256.402 260.724 256.78 260.346 257.27 260.346C257.732 260.346 258.11 260.724 258.11 261.214C258.11 261.704 257.732 262.082 257.27 262.082ZM265.573 268.914C265.573 270.174 264.467 271.126 262.773 271.126C260.981 271.126 259.721 270.146 259.637 268.746H260.953C261.023 269.488 261.681 270.048 262.759 270.048C263.767 270.048 264.327 269.544 264.327 268.914C264.327 267.206 259.791 268.2 259.791 265.344C259.791 264.168 260.897 263.202 262.605 263.202C264.299 263.202 265.419 264.112 265.503 265.61H264.229C264.173 264.84 263.585 264.28 262.563 264.28C261.625 264.28 261.065 264.728 261.065 265.344C261.065 267.164 265.517 266.17 265.573 268.914ZM83.8432 282.742C84.3052 281.93 85.3132 281.202 86.7132 281.202C88.7712 281.202 90.3532 282.742 90.3532 285.136C90.3532 287.516 88.7712 289.126 86.7132 289.126C85.3132 289.126 84.3192 288.37 83.8432 287.586V292.64H82.5692V281.328H83.8432V282.742ZM89.0512 285.136C89.0512 283.33 87.8612 282.308 86.4472 282.308C85.0612 282.308 83.8432 283.372 83.8432 285.15C83.8432 286.956 85.0612 288.006 86.4472 288.006C87.8612 288.006 89.0512 286.942 89.0512 285.136ZM93.3041 284.828V289H92.0301V281.328H93.3041V282.574C93.7381 281.72 94.5641 281.188 95.7821 281.188V282.504H95.4461C94.2281 282.504 93.3041 283.05 93.3041 284.828ZM104.533 285.15C104.533 287.586 102.783 289.126 100.599 289.126C98.4288 289.126 96.7768 287.586 96.7768 285.15C96.7768 282.728 98.4848 281.202 100.655 281.202C102.839 281.202 104.533 282.728 104.533 285.15ZM98.0788 285.15C98.0788 287.096 99.2688 288.006 100.599 288.006C101.929 288.006 103.231 287.096 103.231 285.15C103.231 283.218 101.957 282.308 100.641 282.308C99.2968 282.308 98.0788 283.218 98.0788 285.15ZM106.488 286.9V282.378H105.494V281.328H106.488V279.396H107.762V281.328H109.764V282.378H107.762V286.9C107.762 287.656 108.042 287.922 108.826 287.922H109.764V289H108.616C107.258 289 106.488 288.44 106.488 286.9ZM114.569 282.28C113.323 282.28 112.287 283.106 112.147 284.604H116.991C117.005 283.106 115.885 282.28 114.569 282.28ZM118.153 286.634C117.761 288.034 116.529 289.126 114.625 289.126C112.441 289.126 110.831 287.586 110.831 285.15C110.831 282.728 112.385 281.202 114.625 281.202C116.851 281.202 118.307 282.77 118.307 284.87C118.307 285.15 118.293 285.374 118.265 285.64H112.133C112.231 287.194 113.323 288.048 114.625 288.048C115.773 288.048 116.501 287.46 116.781 286.634H118.153ZM119.513 285.15C119.513 282.742 121.067 281.202 123.251 281.202C125.155 281.202 126.401 282.182 126.793 283.792H125.421C125.155 282.868 124.385 282.28 123.251 282.28C121.851 282.28 120.815 283.274 120.815 285.15C120.815 287.054 121.851 288.048 123.251 288.048C124.385 288.048 125.141 287.502 125.421 286.536H126.793C126.401 288.062 125.155 289.126 123.251 289.126C121.067 289.126 119.513 287.586 119.513 285.15ZM128.773 286.9V282.378H127.779V281.328H128.773V279.396H130.047V281.328H132.049V282.378H130.047V286.9C130.047 287.656 130.327 287.922 131.111 287.922H132.049V289H130.901C129.543 289 128.773 288.44 128.773 286.9ZM133.593 289V281.328H134.867V289H133.593ZM134.251 280.082C133.761 280.082 133.383 279.704 133.383 279.214C133.383 278.724 133.761 278.346 134.251 278.346C134.713 278.346 135.091 278.724 135.091 279.214C135.091 279.704 134.713 280.082 134.251 280.082ZM142.652 289V284.66C142.652 283.092 141.798 282.294 140.51 282.294C139.208 282.294 138.312 283.106 138.312 284.758V289H137.038V281.328H138.312V282.42C138.816 281.622 139.74 281.188 140.776 281.188C142.554 281.188 143.912 282.28 143.912 284.478V289H142.652ZM145.517 285.136C145.517 282.742 147.099 281.202 149.157 281.202C150.557 281.202 151.565 281.902 152.013 282.728V281.328H153.301V289.168C153.301 291.282 151.887 292.78 149.633 292.78C147.617 292.78 146.175 291.758 145.923 290.12H147.183C147.463 291.044 148.373 291.674 149.633 291.674C150.991 291.674 152.013 290.806 152.013 289.168V287.558C151.551 288.384 150.557 289.126 149.157 289.126C147.099 289.126 145.517 287.516 145.517 285.136ZM152.013 285.15C152.013 283.372 150.809 282.308 149.409 282.308C148.009 282.308 146.819 283.33 146.819 285.136C146.819 286.942 148.009 288.006 149.409 288.006C150.809 288.006 152.013 286.956 152.013 285.15ZM162.098 287.544L164.478 281.328H165.794L161.174 292.612H159.858L161.37 288.916L158.276 281.328H159.69L162.098 287.544ZM174.355 285.15C174.355 287.586 172.605 289.126 170.421 289.126C168.251 289.126 166.599 287.586 166.599 285.15C166.599 282.728 168.307 281.202 170.477 281.202C172.661 281.202 174.355 282.728 174.355 285.15ZM167.901 285.15C167.901 287.096 169.091 288.006 170.421 288.006C171.751 288.006 173.053 287.096 173.053 285.15C173.053 283.218 171.779 282.308 170.463 282.308C169.119 282.308 167.901 283.218 167.901 285.15ZM182.834 281.328V289H181.56V287.866C181.07 288.664 180.132 289.112 179.11 289.112C177.346 289.112 175.96 288.02 175.96 285.822V281.328H177.22V285.654C177.22 287.208 178.074 288.006 179.362 288.006C180.678 288.006 181.56 287.194 181.56 285.542V281.328H182.834ZM186.259 284.828V289H184.985V281.328H186.259V282.574C186.693 281.72 187.519 281.188 188.737 281.188V282.504H188.401C187.183 282.504 186.259 283.05 186.259 284.828ZM195.214 283.876H197.09C198.546 283.876 199.162 283.19 199.162 282.098C199.162 280.964 198.546 280.292 197.09 280.292H195.214V283.876ZM200.464 282.098C200.464 283.582 199.512 284.926 197.09 284.926H195.214V289H193.94V279.242H197.09C199.386 279.242 200.464 280.502 200.464 282.098ZM203.322 284.828V289H202.048V281.328H203.322V282.574C203.756 281.72 204.582 281.188 205.8 281.188V282.504H205.464C204.246 282.504 203.322 283.05 203.322 284.828ZM207.27 289V281.328H208.544V289H207.27ZM207.928 280.082C207.438 280.082 207.06 279.704 207.06 279.214C207.06 278.724 207.438 278.346 207.928 278.346C208.39 278.346 208.768 278.724 208.768 279.214C208.768 279.704 208.39 280.082 207.928 280.082ZM209.806 281.328H211.178L213.572 287.824L215.952 281.328H217.31L214.3 289H212.816L209.806 281.328ZM218.087 285.136C218.087 282.742 219.669 281.202 221.727 281.202C223.155 281.202 224.135 281.93 224.583 282.728V281.328H225.871V289H224.583V287.572C224.121 288.398 223.127 289.126 221.713 289.126C219.669 289.126 218.087 287.516 218.087 285.136ZM224.583 285.15C224.583 283.372 223.379 282.308 221.979 282.308C220.579 282.308 219.389 283.33 219.389 285.136C219.389 286.942 220.579 288.006 221.979 288.006C223.379 288.006 224.583 286.956 224.583 285.15ZM227.548 285.15C227.548 282.742 229.102 281.202 231.286 281.202C233.19 281.202 234.436 282.182 234.828 283.792H233.456C233.19 282.868 232.42 282.28 231.286 282.28C229.886 282.28 228.85 283.274 228.85 285.15C228.85 287.054 229.886 288.048 231.286 288.048C232.42 288.048 233.176 287.502 233.456 286.536H234.828C234.436 288.062 233.19 289.126 231.286 289.126C229.102 289.126 227.548 287.586 227.548 285.15ZM239.44 287.544L241.82 281.328H243.136L238.516 292.612H237.2L238.712 288.916L235.618 281.328H237.032L239.44 287.544ZM244.851 286.242L244.697 279.242H246.069L245.915 286.242H244.851ZM246.279 288.216C246.279 288.706 245.901 289.084 245.439 289.084C244.949 289.084 244.571 288.706 244.571 288.216C244.571 287.726 244.949 287.348 245.439 287.348C245.901 287.348 246.279 287.726 246.279 288.216Z" fill="white"/>
<path d="M103.564 197.424V201H98.6196V184.248C98.6196 183.768 98.8516 183.528 99.3156 183.528H113.668C115.3 183.528 116.476 183.896 117.196 184.632C117.916 185.352 118.276 186.376 118.276 187.704V189.24C118.276 189.944 118.132 190.512 117.844 190.944C117.556 191.376 117.228 191.72 116.86 191.976C117.372 192.232 117.796 192.608 118.132 193.104C118.468 193.6 118.636 194.216 118.636 194.952V196.488C118.636 197.96 118.284 199.08 117.58 199.848C116.892 200.616 115.7 201 114.004 201H105.1L103.732 197.424H103.564ZM103.564 193.608V196.896H112.156C112.588 196.896 112.9 196.792 113.092 196.584C113.3 196.376 113.404 196.016 113.404 195.504V195C113.404 194.488 113.308 194.128 113.116 193.92C112.94 193.712 112.62 193.608 112.156 193.608H103.564ZM103.972 187.416C103.7 187.416 103.564 187.552 103.564 187.824V190.776H111.868C112.412 190.776 112.796 190.672 113.02 190.464C113.244 190.256 113.356 189.896 113.356 189.384V188.856C113.356 188.328 113.244 187.96 113.02 187.752C112.796 187.528 112.412 187.416 111.868 187.416H103.972ZM125.505 190.896H125.337V196.128C125.337 196.352 125.449 196.464 125.673 196.464H140.409V201H121.089C120.625 201 120.393 200.76 120.393 200.28V184.248C120.393 183.768 120.625 183.528 121.089 183.528H139.857C140.337 183.528 140.577 183.768 140.577 184.248V188.784L135.993 190.488H135.801V188.16C135.801 187.984 135.721 187.896 135.561 187.896H125.649C125.521 187.896 125.433 187.936 125.385 188.016C125.353 188.08 125.337 188.152 125.337 188.232V190.416H133.497V193.968H126.657L125.505 190.896ZM147.486 183.528V195.864C147.486 196.056 147.526 196.2 147.605 196.296C147.686 196.392 147.838 196.44 148.062 196.44H161.742V201H143.814C143.35 201 143.022 200.888 142.83 200.664C142.638 200.424 142.542 200.088 142.542 199.656V183.528H147.486ZM163.213 184.248C163.213 183.768 163.437 183.528 163.885 183.528H176.989C178.285 183.528 179.389 183.696 180.301 184.032C181.213 184.352 181.949 184.816 182.509 185.424C183.069 186.016 183.477 186.744 183.733 187.608C183.989 188.456 184.117 189.408 184.117 190.464V194.064C184.117 195.12 183.989 196.08 183.733 196.944C183.477 197.792 183.069 198.52 182.509 199.128C181.949 199.72 181.213 200.184 180.301 200.52C179.389 200.84 178.285 201 176.989 201H169.933L168.349 196.92H168.157V201H163.213V184.248ZM168.157 196.464H176.533C177.477 196.464 178.149 196.256 178.549 195.84C178.949 195.424 179.149 194.688 179.149 193.632V190.704C179.149 189.616 178.949 188.88 178.549 188.496C178.149 188.096 177.477 187.896 176.533 187.896H168.517C168.405 187.896 168.317 187.936 168.253 188.016C168.189 188.08 168.157 188.16 168.157 188.256V196.464ZM191.224 190.896H191.056V196.128C191.056 196.352 191.168 196.464 191.392 196.464H206.128V201H186.808C186.344 201 186.112 200.76 186.112 200.28V184.248C186.112 183.768 186.344 183.528 186.808 183.528H205.576C206.056 183.528 206.296 183.768 206.296 184.248V188.784L201.712 190.488H201.52V188.16C201.52 187.984 201.44 187.896 201.28 187.896H191.368C191.24 187.896 191.152 187.936 191.104 188.016C191.072 188.08 191.056 188.152 191.056 188.232V190.416H199.216V193.968H192.376L191.224 190.896ZM230.916 183.528V183.72L222.756 191.736L231.276 200.808V201H224.988L219.3 194.904L213.42 201H207.42V200.808L216.156 191.76L208.236 183.72V183.528H214.38L219.468 188.928L224.94 183.528H230.916Z" fill="#00DC00"/>
<path d="M89.0558 225.424V229H84.1118V212.248C84.1118 211.768 84.3438 211.528 84.8078 211.528H99.1598C100.792 211.528 101.968 211.896 102.688 212.632C103.408 213.352 103.768 214.376 103.768 215.704V217.24C103.768 217.944 103.624 218.512 103.336 218.944C103.048 219.376 102.72 219.72 102.352 219.976C102.864 220.232 103.288 220.608 103.624 221.104C103.96 221.6 104.128 222.216 104.128 222.952V224.488C104.128 225.96 103.776 227.08 103.072 227.848C102.384 228.616 101.192 229 99.4958 229H90.5918L89.2238 225.424H89.0558ZM89.0558 221.608V224.896H97.6478C98.0798 224.896 98.3918 224.792 98.5838 224.584C98.7918 224.376 98.8958 224.016 98.8958 223.504V223C98.8958 222.488 98.7998 222.128 98.6078 221.92C98.4318 221.712 98.1118 221.608 97.6478 221.608H89.0558ZM89.4638 215.416C89.1918 215.416 89.0558 215.552 89.0558 215.824V218.776H97.3598C97.9038 218.776 98.2878 218.672 98.5118 218.464C98.7358 218.256 98.8478 217.896 98.8478 217.384V216.856C98.8478 216.328 98.7358 215.96 98.5118 215.752C98.2878 215.528 97.9038 215.416 97.3598 215.416H89.4638ZM110.829 220.576V229H105.885V212.248C105.885 211.768 106.109 211.528 106.557 211.528H120.213C121.301 211.528 122.221 211.656 122.973 211.912C123.725 212.168 124.333 212.544 124.797 213.04C125.261 213.52 125.597 214.104 125.805 214.792C126.013 215.48 126.117 216.256 126.117 217.12V218.368C126.117 219.216 126.013 219.976 125.805 220.648C125.597 221.32 125.261 221.896 124.797 222.376C124.349 222.84 123.765 223.2 123.045 223.456C122.325 223.712 121.445 223.84 120.405 223.84H119.901C119.661 223.84 119.445 223.84 119.253 223.84C119.077 223.84 118.901 223.832 118.725 223.816V223.984C118.933 224.176 119.141 224.392 119.349 224.632C119.557 224.856 119.757 225.088 119.949 225.328L122.733 228.808V229H117.165L110.997 220.576H110.829ZM111.165 215.896C110.941 215.896 110.829 216.032 110.829 216.304V220.12H119.325C119.981 220.12 120.445 219.992 120.717 219.736C121.005 219.48 121.149 218.992 121.149 218.272V217.672C121.149 217 121.005 216.536 120.717 216.28C120.445 216.024 119.981 215.896 119.325 215.896H111.165ZM149.544 222.064C149.544 223.12 149.416 224.08 149.16 224.944C148.904 225.792 148.496 226.52 147.936 227.128C147.376 227.72 146.64 228.184 145.728 228.52C144.832 228.84 143.736 229 142.44 229H134.664C133.368 229 132.264 228.84 131.352 228.52C130.44 228.184 129.704 227.72 129.144 227.128C128.584 226.52 128.176 225.792 127.92 224.944C127.664 224.08 127.536 223.12 127.536 222.064V218.464C127.536 217.408 127.664 216.456 127.92 215.608C128.176 214.744 128.584 214.016 129.144 213.424C129.704 212.816 130.44 212.352 131.352 212.032C132.264 211.696 133.368 211.528 134.664 211.528H142.44C143.736 211.528 144.832 211.696 145.728 212.032C146.64 212.352 147.376 212.816 147.936 213.424C148.496 214.016 148.904 214.744 149.16 215.608C149.416 216.456 149.544 217.408 149.544 218.464V222.064ZM132.48 221.632C132.48 222.24 132.536 222.728 132.648 223.096C132.776 223.464 132.968 223.752 133.224 223.96C133.496 224.152 133.84 224.288 134.256 224.368C134.688 224.432 135.216 224.464 135.84 224.464H141.984C142.512 224.464 142.944 224.408 143.28 224.296C143.632 224.184 143.904 224 144.096 223.744C144.288 223.472 144.416 223.112 144.48 222.664C144.56 222.216 144.6 221.664 144.6 221.008V218.704C144.6 217.632 144.4 216.896 144 216.496C143.6 216.096 142.928 215.896 141.984 215.896H135.096C134.568 215.896 134.128 215.952 133.776 216.064C133.44 216.176 133.176 216.368 132.984 216.64C132.792 216.896 132.656 217.248 132.576 217.696C132.512 218.128 132.48 218.672 132.48 219.328V221.632ZM179.084 211.528V211.72L176.564 228.328C176.532 228.568 176.46 228.744 176.348 228.856C176.252 228.952 176.068 229 175.796 229H168.62C168.012 229 167.66 228.76 167.564 228.28L164.876 215.968C164.844 215.824 164.756 215.752 164.612 215.752H164.396C164.22 215.752 164.116 215.824 164.084 215.968L161.732 228.28C161.636 228.76 161.284 229 160.676 229H153.716C153.46 229 153.276 228.944 153.164 228.832C153.052 228.72 152.98 228.552 152.948 228.328L150.188 211.72V211.528H155.132L157.196 224.752C157.228 224.96 157.348 225.064 157.556 225.064H157.796C157.988 225.064 158.108 224.96 158.156 224.752L160.652 212.152C160.684 211.928 160.764 211.768 160.892 211.672C161.036 211.576 161.26 211.528 161.564 211.528H167.612C168.124 211.528 168.428 211.736 168.524 212.152L171.308 224.752C171.356 224.96 171.468 225.064 171.644 225.064H171.908C172.164 225.064 172.3 224.96 172.316 224.752L174.02 211.528H179.084ZM196.159 217.576H195.967V215.656C195.967 215.464 195.871 215.368 195.679 215.368H186.463C186.127 215.368 185.895 215.44 185.767 215.584C185.639 215.728 185.575 215.936 185.575 216.208V216.64C185.575 216.976 185.631 217.192 185.743 217.288C185.855 217.384 186.071 217.456 186.391 217.504L197.239 219.016C197.927 219.112 198.511 219.264 198.991 219.472C199.471 219.664 199.863 219.928 200.167 220.264C200.471 220.584 200.687 220.984 200.815 221.464C200.943 221.944 201.007 222.512 201.007 223.168V224.56C201.007 225.28 200.919 225.92 200.743 226.48C200.567 227.024 200.279 227.488 199.879 227.872C199.479 228.24 198.951 228.52 198.295 228.712C197.639 228.904 196.831 229 195.871 229H180.319V224.464H194.263C194.679 224.464 194.951 224.392 195.079 224.248C195.223 224.088 195.295 223.816 195.295 223.432V222.952C195.295 222.648 195.239 222.44 195.127 222.328C195.031 222.2 194.831 222.12 194.527 222.088L184.063 220.768C183.359 220.672 182.751 220.528 182.239 220.336C181.743 220.144 181.335 219.888 181.015 219.568C180.695 219.248 180.463 218.856 180.319 218.392C180.175 217.928 180.103 217.376 180.103 216.736V215.512C180.103 214.248 180.439 213.272 181.111 212.584C181.783 211.88 182.903 211.528 184.471 211.528H199.999C200.495 211.528 200.743 211.784 200.743 212.296V215.896L196.159 217.576ZM208.193 218.896H208.025V224.128C208.025 224.352 208.137 224.464 208.361 224.464H223.097V229H203.777C203.313 229 203.081 228.76 203.081 228.28V212.248C203.081 211.768 203.313 211.528 203.777 211.528H222.545C223.025 211.528 223.265 211.768 223.265 212.248V216.784L218.681 218.488H218.489V216.16C218.489 215.984 218.409 215.896 218.249 215.896H208.337C208.209 215.896 208.121 215.936 208.073 216.016C208.041 216.08 208.025 216.152 208.025 216.232V218.416H216.185V221.968H209.345L208.193 218.896ZM230.173 220.576V229H225.229V212.248C225.229 211.768 225.453 211.528 225.901 211.528H239.557C240.645 211.528 241.565 211.656 242.317 211.912C243.069 212.168 243.677 212.544 244.141 213.04C244.605 213.52 244.941 214.104 245.149 214.792C245.357 215.48 245.461 216.256 245.461 217.12V218.368C245.461 219.216 245.357 219.976 245.149 220.648C244.941 221.32 244.605 221.896 244.141 222.376C243.693 222.84 243.109 223.2 242.389 223.456C241.669 223.712 240.789 223.84 239.749 223.84H239.245C239.005 223.84 238.789 223.84 238.597 223.84C238.421 223.84 238.245 223.832 238.069 223.816V223.984C238.277 224.176 238.485 224.392 238.693 224.632C238.901 224.856 239.101 225.088 239.293 225.328L242.077 228.808V229H236.509L230.341 220.576H230.173ZM230.509 215.896C230.285 215.896 230.173 216.032 230.173 216.304V220.12H238.669C239.325 220.12 239.789 219.992 240.061 219.736C240.349 219.48 240.493 218.992 240.493 218.272V217.672C240.493 217 240.349 216.536 240.061 216.28C239.789 216.024 239.325 215.896 238.669 215.896H230.509Z" fill="#0094FF"/>
<mask id="mask1_8_77" style="mask-type:luminance" maskUnits="userSpaceOnUse" x="132" y="61" width="70" height="100">
<path d="M132.648 61.7324H201.535V160.606H132.648V61.7324Z" fill="white"/>
</mask>
<g mask="url(#mask1_8_77)">
<path d="M132.648 125.603H201.535L167.092 90.5999L132.648 125.603Z" fill="#38A5F4"/>
<path d="M167.092 160.606L201.535 125.603H132.648L167.092 160.606Z" fill="#0094FF"/>
<path d="M132.648 96.7353H201.535L167.092 61.7324L132.648 96.7353Z" fill="#00DC00"/>
<path d="M167.092 131.738L201.535 96.7353H132.648L167.092 131.738Z" fill="#00A61F"/>
</g>
<path d="M138.824 71.8028C141.605 71.8028 143.859 69.5485 143.859 66.7676C143.859 63.9867 141.605 61.7324 138.824 61.7324C136.043 61.7324 133.789 63.9867 133.789 66.7676C133.789 69.5485 136.043 71.8028 138.824 71.8028Z" fill="#39394B"/>
<mask id="mask2_8_77" style="mask-type:luminance" maskUnits="userSpaceOnUse" x="113" y="142" width="14" height="14">
<path d="M126.464 148.704L120.056 142.296L113.648 148.704L120.056 155.113L126.464 148.704Z" fill="white"/>
</mask>
<g mask="url(#mask2_8_77)">
<path d="M120.323 144.694C120.215 144.585 120.051 144.553 119.909 144.613C119.768 144.673 119.677 144.812 119.679 144.966V148.327H116.318C116.181 148.324 116.054 148.395 115.985 148.513C115.915 148.631 115.915 148.777 115.985 148.895C116.054 149.013 116.181 149.085 116.318 149.082H119.679V152.443C119.676 152.579 119.747 152.707 119.865 152.776C119.983 152.845 120.129 152.845 120.247 152.776C120.365 152.707 120.437 152.579 120.434 152.443V149.082H123.795C123.95 149.084 124.092 148.99 124.15 148.846C124.208 148.702 124.172 148.536 124.059 148.429C123.988 148.362 123.893 148.325 123.795 148.327H120.434V144.966C120.435 144.864 120.395 144.766 120.323 144.694Z" fill="#00B134" stroke="#00B134" stroke-width="0.915493"/>
</g>
<mask id="mask3_8_77" style="mask-type:luminance" maskUnits="userSpaceOnUse" x="199" y="67" width="20" height="19">
<path d="M218.014 76.3802L208.859 67.2253L199.704 76.3802L208.859 85.5351L218.014 76.3802Z" fill="white"/>
</mask>
<g mask="url(#mask3_8_77)">
<path d="M209.241 70.651C209.085 70.4958 208.852 70.4502 208.649 70.5355C208.447 70.621 208.317 70.8204 208.32 71.0399V75.8409H203.519C203.323 75.8369 203.141 75.9389 203.042 76.1074C202.944 76.276 202.944 76.4846 203.042 76.6532C203.141 76.8217 203.323 76.9237 203.519 76.9197H208.32V81.7207C208.316 81.9161 208.418 82.0983 208.586 82.197C208.755 82.296 208.964 82.296 209.132 82.197C209.301 82.0983 209.402 81.9161 209.398 81.7207V76.9197H214.199C214.422 76.9229 214.624 76.7891 214.707 76.5829C214.791 76.3767 214.739 76.1404 214.577 75.9877C214.475 75.8916 214.34 75.8388 214.199 75.8409H209.398V71.0399C209.401 70.8943 209.343 70.7539 209.241 70.651Z" fill="#00B134" stroke="#00B134" stroke-width="0.832266"/>
</g>
<path d="M109.528 110.327C114.877 110.327 119.214 105.99 119.214 100.641C119.214 95.2916 114.877 90.9551 109.528 90.9551C104.179 90.9551 99.8421 95.2916 99.8421 100.641C99.8421 105.99 104.179 110.327 109.528 110.327Z" stroke="#00B134" stroke-width="1.68451"/>
<path d="M228.542 114.373C228.542 116.901 226.493 118.951 223.965 118.951C221.437 118.951 219.387 116.901 219.387 114.373C219.387 111.845 221.437 109.796 223.965 109.796C226.493 109.796 228.542 111.845 228.542 114.373Z" stroke="#00B134" stroke-width="0.915493"/>
<path d="M212.979 164.268C217.277 164.268 220.761 160.784 220.761 156.486C220.761 152.188 217.277 148.704 212.979 148.704C208.681 148.704 205.197 152.188 205.197 156.486C205.197 160.784 208.681 164.268 212.979 164.268Z" fill="#39394B"/>
</g>
</svg>
