<?xml version="1.0" encoding="UTF-8"?><svg id="Layer_1" xmlns="http://www.w3.org/2000/svg" xmlns:xlink="http://www.w3.org/1999/xlink" viewBox="0 0 328 352"><defs><style>.cls-1{stroke-width:.83px;}.cls-1,.cls-2,.cls-3,.cls-4{stroke:#00b134;}.cls-1,.cls-4{fill:#00b134;}.cls-5{clip-path:url(#clippath);}.cls-6,.cls-2,.cls-3{fill:none;}.cls-6,.cls-7,.cls-8,.cls-9,.cls-10,.cls-11,.cls-12,.cls-13,.cls-14{stroke-width:0px;}.cls-15{mask:url(#mask);}.cls-2{stroke-width:1.68px;}.cls-16{filter:url(#luminosity-invert);}.cls-17{clip-path:url(#clippath-1);}.cls-18{clip-path:url(#clippath-2);}.cls-3,.cls-4{stroke-width:.92px;}.cls-19{stroke:#42425f;}.cls-19,.cls-7{fill:#282836;}.cls-8{fill:#38a5f4;}.cls-9{fill:#39394b;}.cls-10{fill:#00a61f;}.cls-11{fill:#fff;}.cls-12{fill:#00d73f;}.cls-13{fill:#00dc00;}.cls-14{fill:#0094ff;}</style><filter id="luminosity-invert" x="-46" y="-18" width="421.01" height="428.9" color-interpolation-filters="sRGB" filterUnits="userSpaceOnUse"><feColorMatrix result="cm" values="-1 0 0 0 1 0 -1 0 0 1 0 0 -1 0 1 0 0 0 1 0"/></filter><mask id="mask" x="-46" y="-18" width="421.01" height="428.9" maskUnits="userSpaceOnUse"><g class="cls-16"><g id="mask0_17_2608"><rect class="cls-19" x="16.5" y="21.5" width="295" height="310" rx="11.5" ry="11.5"/></g></g></mask><clipPath id="clippath"><rect class="cls-6" x="132.65" y="61.73" width="68.89" height="98.87"/></clipPath><clipPath id="clippath-1"><rect class="cls-6" x="115.52" y="144.17" width="9.06" height="9.06" transform="translate(-69.99 128.45) rotate(-45)"/></clipPath><clipPath id="clippath-2"><rect class="cls-6" x="202.39" y="69.91" width="12.95" height="12.95" transform="translate(7.16 170.06) rotate(-45)"/></clipPath></defs><rect class="cls-7" width="328" height="352" rx="12" ry="12"/><g class="cls-15"><rect class="cls-19" x="16.5" y="21.5" width="295" height="310" rx="11.5" ry="11.5"/><path class="cls-9" d="M16,202.51c-35.2-2.4-56,28.67-62,44.5V105c22-.17,72.1,4.1,96.5,22.5,30.5,23,9.5,78-34.5,75Z"/><path class="cls-9" d="M255.5,44c2.4-35.2-28.67-56-44.5-62h142c.17,22-4.1,72.1-22.5,96.5-23,30.5-78,9.5-75-34.5Z"/><path class="cls-9" d="M330.51,348.9c-2.4,35.2,28.67,56,44.5,62h-142c-.17-22,4.1-72.1,22.5-96.5,23-30.5,78-9.5,75,34.5Z"/><path class="cls-12" d="M69.12,268.12c0-.84-.6-1.34-1.55-1.34h-1.93v2.63h1.97c.95,0,1.51-.46,1.51-1.29ZM68.88,264.04c0-.78-.53-1.23-1.46-1.23h-1.79v2.45h1.79c.92,0,1.46-.42,1.46-1.22ZM71.11,268.35c0,1.55-1.19,2.65-3.22,2.65h-4.21v-9.77h4.03c2.04,0,3.18,1.06,3.18,2.52,0,1.19-.71,1.93-1.67,2.24,1.11.2,1.89,1.22,1.89,2.37ZM76,264.73c-.94,0-1.68.6-1.83,1.67h3.68c-.03-1.02-.84-1.67-1.85-1.67ZM79.68,268.56c-.42,1.43-1.71,2.56-3.63,2.56-2.25,0-3.89-1.57-3.89-4s1.6-4,3.89-4,3.82,1.53,3.82,3.84c0,.25-.01.5-.06.76h-5.67c.1,1.15.88,1.79,1.86,1.79.84,0,1.3-.42,1.55-.94h2.11ZM81.31,271v-10.36h1.96v10.36h-1.96ZM84.7,267.09c0-2.42,1.57-3.98,3.56-3.98,1.02,0,2,.48,2.53,1.2v-3.68h1.99v10.36h-1.99v-1.15c-.46.71-1.33,1.27-2.55,1.27-1.97,0-3.54-1.61-3.54-4.03ZM90.81,267.12c0-1.47-.98-2.28-2.06-2.28s-2.04.78-2.04,2.25.99,2.31,2.04,2.31,2.06-.81,2.06-2.28ZM98.03,264.73c-.94,0-1.68.6-1.83,1.67h3.68c-.03-1.02-.84-1.67-1.85-1.67ZM101.71,268.56c-.42,1.43-1.71,2.56-3.63,2.56-2.25,0-3.89-1.57-3.89-4s1.6-4,3.89-4,3.82,1.53,3.82,3.84c0,.25-.01.5-.06.76h-5.67c.1,1.15.88,1.79,1.86,1.79.84,0,1.3-.42,1.55-.94h2.11ZM107.62,271l-1.6-2.41-1.41,2.41h-2.1l2.53-3.89-2.56-3.86h2.21l1.58,2.39,1.43-2.39h2.1l-2.55,3.86,2.58,3.89h-2.21ZM119.68,268.12c0-.84-.6-1.34-1.55-1.34h-1.93v2.63h1.97c.95,0,1.51-.46,1.51-1.29ZM119.44,264.04c0-.78-.53-1.23-1.46-1.23h-1.79v2.45h1.79c.92,0,1.46-.42,1.46-1.22ZM121.67,268.35c0,1.55-1.19,2.65-3.22,2.65h-4.21v-9.77h4.03c2.04,0,3.18,1.06,3.18,2.52,0,1.19-.71,1.93-1.67,2.24,1.11.2,1.89,1.22,1.89,2.37ZM125.19,267.14v3.86h-1.96v-7.76h1.96v1.2c.49-.8,1.3-1.32,2.38-1.32v2.06h-.52c-1.16,0-1.86.45-1.86,1.95ZM136.38,267.12c0,2.44-1.79,4-4.05,4s-3.93-1.57-3.93-4,1.75-4,3.99-4,3.99,1.55,3.99,4ZM130.38,267.12c0,1.54.9,2.3,1.95,2.3s2.03-.76,2.03-2.3-.97-2.3-2-2.3-1.97.74-1.97,2.3ZM139.23,271l-2.28-7.76h1.99l1.37,5.91,1.48-5.91h2.07l1.46,5.89,1.37-5.89h1.88l-2.27,7.76h-2.11l-1.41-5.42-1.41,5.42h-2.13ZM155.65,268.79c0,1.33-1.16,2.34-3.05,2.34s-3.3-1.13-3.39-2.58h1.97c.07.59.62,1.04,1.4,1.04s1.19-.35,1.19-.8c0-1.39-4.38-.5-4.38-3.35,0-1.29,1.15-2.32,3.07-2.32s3.01,1.02,3.12,2.56h-1.88c-.06-.6-.53-1.01-1.3-1.01-.73,0-1.11.29-1.11.74,0,1.41,4.3.53,4.35,3.37ZM160.59,264.73c-.94,0-1.68.6-1.83,1.67h3.68c-.03-1.02-.84-1.67-1.85-1.67ZM164.27,268.56c-.42,1.43-1.71,2.56-3.63,2.56-2.25,0-3.89-1.57-3.89-4s1.6-4,3.89-4,3.82,1.53,3.82,3.84c0,.25-.01.5-.06.76h-5.67c.1,1.15.88,1.79,1.86,1.79.84,0,1.3-.42,1.55-.94h2.11ZM167.86,267.14v3.86h-1.96v-7.76h1.96v1.2c.49-.8,1.3-1.32,2.38-1.32v2.06h-.52c-1.16,0-1.86.45-1.86,1.95Z"/><path class="cls-11" d="M175.64,271v-6.62h-.99v-1.05h.99v-.55c0-1.71.84-2.48,2.8-2.48v1.06c-1.15,0-1.53.42-1.53,1.41v.55h1.61v1.05h-1.61v6.62h-1.27ZM187.29,267.15c0,2.44-1.75,3.98-3.93,3.98s-3.82-1.54-3.82-3.98,1.71-3.95,3.88-3.95,3.88,1.53,3.88,3.95ZM180.84,267.15c0,1.95,1.19,2.86,2.52,2.86s2.63-.91,2.63-2.86-1.27-2.84-2.59-2.84-2.56.91-2.56,2.84ZM190.24,266.83v4.17h-1.27v-7.67h1.27v1.25c.43-.85,1.26-1.39,2.48-1.39v1.32h-.34c-1.22,0-2.14.55-2.14,2.32ZM197.44,267.14c0-2.39,1.58-3.93,3.64-3.93,1.43,0,2.41.73,2.86,1.53v-1.4h1.29v7.67h-1.29v-1.43c-.46.83-1.46,1.55-2.87,1.55-2.04,0-3.63-1.61-3.63-3.99ZM203.94,267.15c0-1.78-1.2-2.84-2.6-2.84s-2.59,1.02-2.59,2.83,1.19,2.87,2.59,2.87,2.6-1.05,2.6-2.86ZM212.99,271v-4.34c0-1.57-.85-2.37-2.14-2.37s-2.2.81-2.2,2.46v4.24h-1.27v-7.67h1.27v1.09c.5-.8,1.43-1.23,2.46-1.23,1.78,0,3.14,1.09,3.14,3.29v4.52h-1.26ZM215.86,267.14c0-2.39,1.58-3.93,3.65-3.93,1.2,0,2.31.62,2.84,1.5v-4.06h1.29v10.36h-1.29v-1.44c-.46.85-1.46,1.57-2.86,1.57-2.06,0-3.64-1.61-3.64-3.99ZM222.35,267.15c0-1.78-1.2-2.84-2.6-2.84s-2.59,1.02-2.59,2.83,1.19,2.87,2.59,2.87,2.6-1.05,2.6-2.86ZM227.07,266.83v4.17h-1.27v-7.67h1.27v1.25c.43-.85,1.26-1.39,2.48-1.39v1.32h-.34c-1.22,0-2.14.55-2.14,2.32ZM238.3,267.15c0,2.44-1.75,3.98-3.93,3.98s-3.82-1.54-3.82-3.98,1.71-3.95,3.88-3.95,3.88,1.53,3.88,3.95ZM231.84,267.15c0,1.95,1.19,2.86,2.52,2.86s2.63-.91,2.63-2.86-1.27-2.84-2.59-2.84-2.56.91-2.56,2.84ZM239.97,271v-7.67h1.27v7.67h-1.27ZM240.63,262.08c-.49,0-.87-.38-.87-.87s.38-.87.87-.87c.46,0,.84.38.84.87s-.38.87-.84.87ZM242.94,267.14c0-2.39,1.58-3.93,3.65-3.93,1.2,0,2.31.62,2.84,1.5v-4.06h1.29v10.36h-1.29v-1.44c-.46.85-1.46,1.57-2.86,1.57-2.06,0-3.64-1.61-3.64-3.99ZM249.44,267.15c0-1.78-1.2-2.84-2.6-2.84s-2.59,1.02-2.59,2.83,1.19,2.87,2.59,2.87,2.6-1.05,2.6-2.86ZM256.61,271v-7.67h1.27v7.67h-1.27ZM257.27,262.08c-.49,0-.87-.38-.87-.87s.38-.87.87-.87c.46,0,.84.38.84.87s-.38.87-.84.87ZM265.57,268.91c0,1.26-1.11,2.21-2.8,2.21-1.79,0-3.05-.98-3.14-2.38h1.32c.07.74.73,1.3,1.81,1.3,1.01,0,1.57-.5,1.57-1.13,0-1.71-4.54-.71-4.54-3.57,0-1.18,1.11-2.14,2.81-2.14s2.81.91,2.9,2.41h-1.27c-.06-.77-.64-1.33-1.67-1.33-.94,0-1.5.45-1.5,1.06,0,1.82,4.45.83,4.51,3.57ZM83.84,282.74c.46-.81,1.47-1.54,2.87-1.54,2.06,0,3.64,1.54,3.64,3.93s-1.58,3.99-3.64,3.99c-1.4,0-2.39-.76-2.87-1.54v5.05h-1.27v-11.31h1.27v1.41ZM89.05,285.14c0-1.81-1.19-2.83-2.6-2.83s-2.6,1.06-2.6,2.84,1.22,2.86,2.6,2.86,2.6-1.06,2.6-2.87ZM93.3,284.83v4.17h-1.27v-7.67h1.27v1.25c.43-.85,1.26-1.39,2.48-1.39v1.32h-.34c-1.22,0-2.14.55-2.14,2.32ZM104.53,285.15c0,2.44-1.75,3.98-3.93,3.98s-3.82-1.54-3.82-3.98,1.71-3.95,3.88-3.95,3.88,1.53,3.88,3.95ZM98.08,285.15c0,1.95,1.19,2.86,2.52,2.86s2.63-.91,2.63-2.86-1.27-2.84-2.59-2.84-2.56.91-2.56,2.84ZM106.49,286.9v-4.52h-.99v-1.05h.99v-1.93h1.27v1.93h2v1.05h-2v4.52c0,.76.28,1.02,1.06,1.02h.94v1.08h-1.15c-1.36,0-2.13-.56-2.13-2.1ZM114.57,282.28c-1.25,0-2.28.83-2.42,2.32h4.84c.01-1.5-1.11-2.32-2.42-2.32ZM118.15,286.63c-.39,1.4-1.62,2.49-3.53,2.49-2.18,0-3.79-1.54-3.79-3.98s1.55-3.95,3.79-3.95,3.68,1.57,3.68,3.67c0,.28-.01.5-.04.77h-6.13c.1,1.55,1.19,2.41,2.49,2.41,1.15,0,1.88-.59,2.16-1.41h1.37ZM119.51,285.15c0-2.41,1.55-3.95,3.74-3.95,1.9,0,3.15.98,3.54,2.59h-1.37c-.27-.92-1.04-1.51-2.17-1.51-1.4,0-2.44.99-2.44,2.87s1.04,2.9,2.44,2.9c1.13,0,1.89-.55,2.17-1.51h1.37c-.39,1.53-1.64,2.59-3.54,2.59-2.18,0-3.74-1.54-3.74-3.98ZM128.77,286.9v-4.52h-.99v-1.05h.99v-1.93h1.27v1.93h2v1.05h-2v4.52c0,.76.28,1.02,1.06,1.02h.94v1.08h-1.15c-1.36,0-2.13-.56-2.13-2.1ZM133.59,289v-7.67h1.27v7.67h-1.27ZM134.25,280.08c-.49,0-.87-.38-.87-.87s.38-.87.87-.87c.46,0,.84.38.84.87s-.38.87-.84.87ZM142.65,289v-4.34c0-1.57-.85-2.37-2.14-2.37s-2.2.81-2.2,2.46v4.24h-1.27v-7.67h1.27v1.09c.5-.8,1.43-1.23,2.46-1.23,1.78,0,3.14,1.09,3.14,3.29v4.52h-1.26ZM145.52,285.14c0-2.39,1.58-3.93,3.64-3.93,1.4,0,2.41.7,2.86,1.53v-1.4h1.29v7.84c0,2.11-1.41,3.61-3.67,3.61-2.02,0-3.46-1.02-3.71-2.66h1.26c.28.92,1.19,1.55,2.45,1.55,1.36,0,2.38-.87,2.38-2.51v-1.61c-.46.83-1.46,1.57-2.86,1.57-2.06,0-3.64-1.61-3.64-3.99ZM152.01,285.15c0-1.78-1.2-2.84-2.6-2.84s-2.59,1.02-2.59,2.83,1.19,2.87,2.59,2.87,2.6-1.05,2.6-2.86ZM162.1,287.54l2.38-6.22h1.32l-4.62,11.28h-1.32l1.51-3.7-3.09-7.59h1.41l2.41,6.22ZM174.35,285.15c0,2.44-1.75,3.98-3.93,3.98s-3.82-1.54-3.82-3.98,1.71-3.95,3.88-3.95,3.88,1.53,3.88,3.95ZM167.9,285.15c0,1.95,1.19,2.86,2.52,2.86s2.63-.91,2.63-2.86-1.27-2.84-2.59-2.84-2.56.91-2.56,2.84ZM182.83,281.33v7.67h-1.27v-1.13c-.49.8-1.43,1.25-2.45,1.25-1.76,0-3.15-1.09-3.15-3.29v-4.49h1.26v4.33c0,1.55.85,2.35,2.14,2.35s2.2-.81,2.2-2.46v-4.21h1.27ZM186.26,284.83v4.17h-1.27v-7.67h1.27v1.25c.43-.85,1.26-1.39,2.48-1.39v1.32h-.34c-1.22,0-2.14.55-2.14,2.32ZM195.21,283.88h1.88c1.46,0,2.07-.69,2.07-1.78s-.62-1.81-2.07-1.81h-1.88v3.58ZM200.46,282.1c0,1.48-.95,2.83-3.37,2.83h-1.88v4.07h-1.27v-9.76h3.15c2.3,0,3.37,1.26,3.37,2.86ZM203.32,284.83v4.17h-1.27v-7.67h1.27v1.25c.43-.85,1.26-1.39,2.48-1.39v1.32h-.34c-1.22,0-2.14.55-2.14,2.32ZM207.27,289v-7.67h1.27v7.67h-1.27ZM207.93,280.08c-.49,0-.87-.38-.87-.87s.38-.87.87-.87c.46,0,.84.38.84.87s-.38.87-.84.87ZM209.81,281.33h1.37l2.39,6.5,2.38-6.5h1.36l-3.01,7.67h-1.48l-3.01-7.67ZM218.09,285.14c0-2.39,1.58-3.93,3.64-3.93,1.43,0,2.41.73,2.86,1.53v-1.4h1.29v7.67h-1.29v-1.43c-.46.83-1.46,1.55-2.87,1.55-2.04,0-3.63-1.61-3.63-3.99ZM224.58,285.15c0-1.78-1.2-2.84-2.6-2.84s-2.59,1.02-2.59,2.83,1.19,2.87,2.59,2.87,2.6-1.05,2.6-2.86ZM227.55,285.15c0-2.41,1.55-3.95,3.74-3.95,1.9,0,3.15.98,3.54,2.59h-1.37c-.27-.92-1.04-1.51-2.17-1.51-1.4,0-2.44.99-2.44,2.87s1.04,2.9,2.44,2.9c1.13,0,1.89-.55,2.17-1.51h1.37c-.39,1.53-1.64,2.59-3.54,2.59-2.18,0-3.74-1.54-3.74-3.98ZM239.44,287.54l2.38-6.22h1.32l-4.62,11.28h-1.32l1.51-3.7-3.09-7.59h1.41l2.41,6.22ZM244.85,286.24l-.15-7h1.37l-.15,7h-1.06ZM246.28,288.22c0,.49-.38.87-.84.87-.49,0-.87-.38-.87-.87s.38-.87.87-.87c.46,0,.84.38.84.87Z"/><path class="cls-13" d="M103.56,197.42v3.58h-4.94v-16.75c0-.48.23-.72.7-.72h14.35c1.63,0,2.81.37,3.53,1.1.72.72,1.08,1.74,1.08,3.07v1.54c0,.7-.14,1.27-.43,1.7s-.62.78-.98,1.03c.51.26.94.63,1.27,1.13.34.5.5,1.11.5,1.85v1.54c0,1.47-.35,2.59-1.06,3.36-.69.77-1.88,1.15-3.58,1.15h-8.9l-1.37-3.58h-.17ZM103.56,193.61v3.29h8.59c.43,0,.74-.1.94-.31.21-.21.31-.57.31-1.08v-.5c0-.51-.1-.87-.29-1.08-.18-.21-.5-.31-.96-.31h-8.59ZM103.97,187.42c-.27,0-.41.14-.41.41v2.95h8.3c.54,0,.93-.1,1.15-.31.22-.21.34-.57.34-1.08v-.53c0-.53-.11-.9-.34-1.1-.22-.22-.61-.34-1.15-.34h-7.9ZM125.5,190.9h-.17v5.23c0,.22.11.34.34.34h14.74v4.54h-19.32c-.46,0-.7-.24-.7-.72v-16.03c0-.48.23-.72.7-.72h18.77c.48,0,.72.24.72.72v4.54l-4.58,1.7h-.19v-2.33c0-.18-.08-.26-.24-.26h-9.91c-.13,0-.22.04-.26.12-.03.06-.05.14-.05.22v2.18h8.16v3.55h-6.84l-1.15-3.07ZM147.49,183.53v12.34c0,.19.04.34.12.43.08.1.23.14.46.14h13.68v4.56h-17.93c-.46,0-.79-.11-.98-.34-.19-.24-.29-.58-.29-1.01v-16.13h4.94ZM163.21,184.25c0-.48.22-.72.67-.72h13.1c1.3,0,2.4.17,3.31.5.91.32,1.65.78,2.21,1.39.56.59.97,1.32,1.22,2.18.26.85.38,1.8.38,2.86v3.6c0,1.06-.13,2.02-.38,2.88-.26.85-.66,1.58-1.22,2.18-.56.59-1.3,1.06-2.21,1.39-.91.32-2.02.48-3.31.48h-7.06l-1.58-4.08h-.19v4.08h-4.94v-16.75ZM168.16,196.46h8.38c.94,0,1.62-.21,2.02-.62.4-.42.6-1.15.6-2.21v-2.93c0-1.09-.2-1.82-.6-2.21-.4-.4-1.07-.6-2.02-.6h-8.02c-.11,0-.2.04-.26.12-.06.06-.1.14-.1.24v8.21ZM191.22,190.9h-.17v5.23c0,.22.11.34.34.34h14.74v4.54h-19.32c-.46,0-.7-.24-.7-.72v-16.03c0-.48.23-.72.7-.72h18.77c.48,0,.72.24.72.72v4.54l-4.58,1.7h-.19v-2.33c0-.18-.08-.26-.24-.26h-9.91c-.13,0-.22.04-.26.12-.03.06-.05.14-.05.22v2.18h8.16v3.55h-6.84l-1.15-3.07ZM230.92,183.53v.19l-8.16,8.02,8.52,9.07v.19h-6.29l-5.69-6.1-5.88,6.1h-6v-.19l8.74-9.05-7.92-8.04v-.19h6.14l5.09,5.4,5.47-5.4h5.98Z"/><path class="cls-14" d="M89.06,225.42v3.58h-4.94v-16.75c0-.48.23-.72.7-.72h14.35c1.63,0,2.81.37,3.53,1.1.72.72,1.08,1.74,1.08,3.07v1.54c0,.7-.14,1.27-.43,1.7s-.62.78-.98,1.03c.51.26.94.63,1.27,1.13s.5,1.11.5,1.85v1.54c0,1.47-.35,2.59-1.06,3.36-.69.77-1.88,1.15-3.58,1.15h-8.9l-1.37-3.58h-.17ZM89.06,221.61v3.29h8.59c.43,0,.74-.1.94-.31.21-.21.31-.57.31-1.08v-.5c0-.51-.1-.87-.29-1.08-.18-.21-.5-.31-.96-.31h-8.59ZM89.46,215.42c-.27,0-.41.14-.41.41v2.95h8.3c.54,0,.93-.1,1.15-.31.22-.21.34-.57.34-1.08v-.53c0-.53-.11-.9-.34-1.1-.22-.22-.61-.34-1.15-.34h-7.9ZM110.83,220.58v8.42h-4.94v-16.75c0-.48.22-.72.67-.72h13.66c1.09,0,2.01.13,2.76.38s1.36.63,1.82,1.13c.46.48.8,1.06,1.01,1.75.21.69.31,1.46.31,2.33v1.25c0,.85-.1,1.61-.31,2.28-.21.67-.54,1.25-1.01,1.73-.45.46-1.03.82-1.75,1.08-.72.26-1.6.38-2.64.38h-1.15c-.18,0-.35,0-.53-.02v.17c.21.19.42.41.62.65.21.22.41.46.6.7l2.78,3.48v.19h-5.57l-6.17-8.42h-.17ZM111.17,215.9c-.22,0-.34.14-.34.41v3.82h8.5c.66,0,1.12-.13,1.39-.38.29-.26.43-.74.43-1.46v-.6c0-.67-.14-1.14-.43-1.39-.27-.26-.74-.38-1.39-.38h-8.16ZM149.54,222.06c0,1.06-.13,2.02-.38,2.88-.26.85-.66,1.58-1.22,2.18-.56.59-1.3,1.06-2.21,1.39-.9.32-1.99.48-3.29.48h-7.78c-1.3,0-2.4-.16-3.31-.48-.91-.34-1.65-.8-2.21-1.39-.56-.61-.97-1.34-1.22-2.18-.26-.86-.38-1.82-.38-2.88v-3.6c0-1.06.13-2.01.38-2.86.26-.86.66-1.59,1.22-2.18.56-.61,1.3-1.07,2.21-1.39.91-.34,2.02-.5,3.31-.5h7.78c1.3,0,2.39.17,3.29.5.91.32,1.65.78,2.21,1.39.56.59.97,1.32,1.22,2.18.26.85.38,1.8.38,2.86v3.6ZM132.48,221.63c0,.61.06,1.1.17,1.46.13.37.32.66.58.86.27.19.62.33,1.03.41.43.06.96.1,1.58.1h6.14c.53,0,.96-.06,1.3-.17.35-.11.62-.3.82-.55.19-.27.32-.63.38-1.08.08-.45.12-1,.12-1.66v-2.3c0-1.07-.2-1.81-.6-2.21-.4-.4-1.07-.6-2.02-.6h-6.89c-.53,0-.97.06-1.32.17-.34.11-.6.3-.79.58-.19.26-.33.61-.41,1.06-.06.43-.1.98-.1,1.63v2.3ZM179.08,211.53v.19l-2.52,16.61c-.03.24-.1.42-.22.53-.1.1-.28.14-.55.14h-7.18c-.61,0-.96-.24-1.06-.72l-2.69-12.31c-.03-.14-.12-.22-.26-.22h-.22c-.18,0-.28.07-.31.22l-2.35,12.31c-.1.48-.45.72-1.06.72h-6.96c-.26,0-.44-.06-.55-.17s-.18-.28-.22-.5l-2.76-16.61v-.19h4.94l2.06,13.22c.03.21.15.31.36.31h.24c.19,0,.31-.1.36-.31l2.5-12.6c.03-.22.11-.38.24-.48.14-.1.37-.14.67-.14h6.05c.51,0,.82.21.91.62l2.78,12.6c.05.21.16.31.34.31h.26c.26,0,.39-.1.41-.31l1.7-13.22h5.06ZM196.16,217.58h-.19v-1.92c0-.19-.1-.29-.29-.29h-9.22c-.34,0-.57.07-.7.22-.13.14-.19.35-.19.62v.43c0,.34.06.55.17.65.11.1.33.17.65.22l10.85,1.51c.69.1,1.27.25,1.75.46.48.19.87.46,1.18.79.3.32.52.72.65,1.2.13.48.19,1.05.19,1.7v1.39c0,.72-.09,1.36-.26,1.92-.18.54-.46,1.01-.86,1.39-.4.37-.93.65-1.58.84-.66.19-1.46.29-2.42.29h-15.55v-4.54h13.94c.42,0,.69-.07.82-.22.14-.16.22-.43.22-.82v-.48c0-.3-.06-.51-.17-.62-.1-.13-.3-.21-.6-.24l-10.46-1.32c-.7-.1-1.31-.24-1.82-.43-.5-.19-.9-.45-1.22-.77s-.55-.71-.7-1.18-.22-1.02-.22-1.66v-1.22c0-1.26.34-2.24,1.01-2.93.67-.7,1.79-1.06,3.36-1.06h15.53c.5,0,.74.26.74.77v3.6l-4.58,1.68ZM208.19,218.9h-.17v5.23c0,.22.11.34.34.34h14.74v4.54h-19.32c-.46,0-.7-.24-.7-.72v-16.03c0-.48.23-.72.7-.72h18.77c.48,0,.72.24.72.72v4.54l-4.58,1.7h-.19v-2.33c0-.18-.08-.26-.24-.26h-9.91c-.13,0-.22.04-.26.12-.03.06-.05.14-.05.22v2.18h8.16v3.55h-6.84l-1.15-3.07ZM230.17,220.58v8.42h-4.94v-16.75c0-.48.22-.72.67-.72h13.66c1.09,0,2.01.13,2.76.38s1.36.63,1.82,1.13c.46.48.8,1.06,1.01,1.75.21.69.31,1.46.31,2.33v1.25c0,.85-.1,1.61-.31,2.28-.21.67-.54,1.25-1.01,1.73-.45.46-1.03.82-1.75,1.08-.72.26-1.6.38-2.64.38h-1.15c-.18,0-.35,0-.53-.02v.17c.21.19.42.41.62.65.21.22.41.46.6.7l2.78,3.48v.19h-5.57l-6.17-8.42h-.17ZM230.51,215.9c-.22,0-.34.14-.34.41v3.82h8.5c.66,0,1.12-.13,1.39-.38.29-.26.43-.74.43-1.46v-.6c0-.67-.14-1.14-.43-1.39-.27-.26-.74-.38-1.39-.38h-8.16Z"/><g class="cls-5"><path class="cls-8" d="M132.65,125.6h68.89l-34.44-35-34.44,35Z"/><path class="cls-14" d="M167.09,160.61l34.44-35h-68.89l34.44,35Z"/><path class="cls-13" d="M132.65,96.74h68.89l-34.44-35-34.44,35Z"/><path class="cls-10" d="M167.09,131.74l34.44-35h-68.89l34.44,35Z"/></g><circle class="cls-9" cx="138.82" cy="66.77" r="5.04"/><g class="cls-17"><path class="cls-4" d="M120.32,144.69c-.11-.11-.27-.14-.41-.08-.14.06-.23.2-.23.35v3.36h-3.36c-.14,0-.26.07-.33.19-.07.12-.07.26,0,.38.07.12.2.19.33.19h3.36v3.36c0,.14.07.26.19.33.12.07.26.07.38,0,.12-.07.19-.2.19-.33v-3.36h3.36c.15,0,.3-.09.36-.24.06-.14.02-.31-.09-.42-.07-.07-.17-.1-.26-.1h-3.36v-3.36c0-.1-.04-.2-.11-.27Z"/></g><g class="cls-18"><path class="cls-1" d="M209.24,70.65c-.16-.16-.39-.2-.59-.12-.2.09-.33.28-.33.5v4.8h-4.8c-.2,0-.38.1-.48.27-.1.17-.1.38,0,.55.1.17.28.27.48.27h4.8v4.8c0,.2.1.38.27.48.17.1.38.1.55,0,.17-.1.27-.28.27-.48v-4.8h4.8c.22,0,.42-.13.51-.34.08-.21.03-.44-.13-.6-.1-.1-.24-.15-.38-.15h-4.8v-4.8c0-.15-.05-.29-.16-.39Z"/></g><circle class="cls-2" cx="109.53" cy="100.64" r="9.69"/><path class="cls-3" d="M228.54,114.37c0,2.53-2.05,4.58-4.58,4.58s-4.58-2.05-4.58-4.58,2.05-4.58,4.58-4.58,4.58,2.05,4.58,4.58Z"/><circle class="cls-9" cx="212.98" cy="156.49" r="7.78"/></g></svg>