<?xml version="1.0" encoding="UTF-8"?><svg id="Layer_1" xmlns="http://www.w3.org/2000/svg" xmlns:xlink="http://www.w3.org/1999/xlink" viewBox="0 0 328 442"><defs><style>.cls-1{mask:url(#mask);}.cls-2{filter:url(#luminosity-invert);}.cls-3{fill:none;stroke:#0097ff;stroke-miterlimit:10;stroke-width:1.6px;}.cls-4{stroke:#dadada;}.cls-4,.cls-5{fill:#f3f3f3;}.cls-6{fill:#282836;stroke:#42425f;}.cls-7{stroke:#00b134;}.cls-7,.cls-8{fill:#fff;}.cls-5,.cls-9,.cls-10,.cls-11,.cls-12,.cls-8,.cls-13,.cls-14,.cls-15,.cls-16,.cls-17,.cls-18{stroke-width:0px;}.cls-9{fill:#56566b;}.cls-10{fill:#38a5f4;}.cls-11{fill:#dedee2;}.cls-12{fill:#00a61f;}.cls-13{fill:#e3e3e3;}.cls-14{fill:#00d73f;}.cls-15{fill:#00dc00;}.cls-16{fill:#00e000;}.cls-17{fill:#0094ff;}.cls-18{fill:#0097ff;}</style><filter id="luminosity-invert" x="-56" y="-43.01" width="431.01" height="543.9" color-interpolation-filters="sRGB" filterUnits="userSpaceOnUse"><feColorMatrix result="cm" values="-1 0 0 0 1 0 -1 0 0 1 0 0 -1 0 1 0 0 0 1 0"/></filter><mask id="mask" x="-56" y="-43.01" width="431.01" height="543.9" maskUnits="userSpaceOnUse"><g class="cls-2"><g id="mask0_328_18"><rect class="cls-6" x="16.5" y="26.49" width="295" height="390" rx="11.5" ry="11.5"/></g></g></mask></defs><rect class="cls-5" y="0" width="328" height="442" rx="12" ry="12"/><g class="cls-1"><rect class="cls-4" x="16.5" y="26.49" width="295" height="390" rx="11.5" ry="11.5"/><path class="cls-8" d="M231.5,168.99c9.66,0,17.5-7.61,17.5-17s-7.84-17-17.5-17-17.5,7.61-17.5,17,7.84,17,17.5,17Z"/><path class="cls-8" d="M257.1,126.09c8.09-8.09,2.9-26.39-11.58-40.87-14.49-14.49-32.78-19.67-40.87-11.58-8.09,8.09-2.9,26.39,11.58,40.87,14.49,14.49,32.78,19.67,40.87,11.58Z"/><path class="cls-8" d="M203.03,169.21c12.93-42.73-8.3-86.95-47.4-98.79-39.11-11.83-81.29,13.21-94.22,55.94-12.93,42.73,8.29,86.96,47.4,98.79,39.11,11.83,81.29-13.21,94.22-55.94Z"/><path class="cls-13" d="M228.48,232.3H99.59c-5.38,0-9.74-4.35-9.74-9.74v-121.44c0-5.39,4.35-9.74,9.74-9.74h128.89c5.39,0,9.74,4.35,9.74,9.74v121.44c0,5.38-4.35,9.74-9.74,9.74Z"/><path class="cls-11" d="M229.34,94.82H98.73c-4.9,0-8.88,3.98-8.88,8.88v8.88h148.37v-8.88c0-4.9-3.98-8.88-8.88-8.88Z"/><path class="cls-16" d="M229.34,91.09H98.73c-4.9,0-8.88,3.98-8.88,8.88v8.88h148.37v-8.88c0-4.9-3.98-8.88-8.88-8.88Z"/><path class="cls-8" d="M103.6,103.27c1.82,0,3.29-1.47,3.29-3.29s-1.47-3.29-3.29-3.29-3.29,1.47-3.29,3.29,1.47,3.29,3.29,3.29Z"/><path class="cls-8" d="M115.2,103.27c1.82,0,3.29-1.47,3.29-3.29s-1.48-3.29-3.29-3.29-3.29,1.47-3.29,3.29,1.47,3.29,3.29,3.29Z"/><path class="cls-8" d="M126.8,103.27c1.82,0,3.29-1.47,3.29-3.29s-1.48-3.29-3.29-3.29-3.29,1.47-3.29,3.29,1.47,3.29,3.29,3.29Z"/><path class="cls-8" d="M200.67,133.46h-98.47c-1.03,0-1.89-.83-1.89-1.89v-1.81c0-1.03.83-1.89,1.89-1.89h98.47c1.03,0,1.89.83,1.89,1.89v1.81c0,1.03-.86,1.89-1.89,1.89Z"/><path class="cls-8" d="M200.67,152.36h-98.47c-1.03,0-1.89-.83-1.89-1.89v-1.8c0-1.03.83-1.89,1.89-1.89h98.47c1.03,0,1.89.83,1.89,1.89v1.8c0,1.03-.86,1.89-1.89,1.89Z"/><path class="cls-8" d="M180.22,171.27h-78.02c-1.03,0-1.89-.83-1.89-1.89v-1.81c0-1.03.83-1.89,1.89-1.89h78.02c1.03,0,1.89.83,1.89,1.89v1.81c0,1.06-.86,1.89-1.89,1.89Z"/><path class="cls-8" d="M160.97,215.63h-57.6c-1.69,0-3.06-1.38-3.06-3.06v-24.92c0-1.69,1.37-3.07,3.06-3.07h57.6c1.69,0,3.07,1.38,3.07,3.07v24.92c0,1.69-1.38,3.06-3.07,3.06Z"/><path class="cls-7" d="M217.09,243.66c19.1,0,34.58-15.48,34.58-34.58s-15.49-34.59-34.58-34.59-34.59,15.48-34.59,34.59,15.48,34.58,34.59,34.58Z"/><path class="cls-10" d="M230.96,214.13h-26.92l13.46-13.46,13.46,13.46Z"/><path class="cls-17" d="M217.51,227.56l-13.46-13.43h26.92l-13.46,13.43Z"/><path class="cls-15" d="M230.96,203.02h-26.92l13.46-13.46,13.46,13.46Z"/><path class="cls-12" d="M217.51,216.48l-13.46-13.46h26.92l-13.46,13.46Z"/><path class="cls-3" d="M76.53,138.3c1.57,0,2.84-1.27,2.84-2.84s-1.27-2.84-2.84-2.84-2.84,1.27-2.84,2.84,1.27,2.84,2.84,2.84Z"/><path class="cls-18" d="M267.38,171.47c2.89,0,5.24-2.35,5.24-5.24s-2.35-5.24-5.24-5.24-5.24,2.35-5.24,5.24,2.35,5.24,5.24,5.24Z"/><path class="cls-12" d="M80.01,85.01c2.21,0,4.01-1.8,4.01-4.01s-1.8-4.01-4.01-4.01-4.01,1.8-4.01,4.01,1.8,4.01,4.01,4.01Z"/><path class="cls-16" d="M89.99,170.2h2.36v5.24h5.03v2.26h-5.03v5.29h-2.36v-5.29h-5.03v-2.26h5.03v-5.24Z"/><path class="cls-16" d="M261.98,100.75h1.52v3.39h3.25v1.46h-3.25v3.42h-1.52v-3.42h-3.25v-1.46h3.25v-3.39Z"/><path class="cls-13" d="M6,322.5c-35.2-2.4-56,28.67-62,44.5v-142c22-.17,72.1,4.1,96.5,22.5,30.5,23,9.5,78-34.5,75Z"/><path class="cls-13" d="M261.5,18.99c2.4-35.2-28.67-56-44.5-62h142c.17,22-4.1,72.1-22.5,96.5-23,30.5-78,9.5-75-34.5Z"/><path class="cls-13" d="M330.51,438.89c-2.4,35.2,28.67,56,44.5,62h-142c-.17-22,4.1-72.1,22.5-96.5,23-30.5,78-9.5,75,34.5Z"/><path class="cls-9" d="M246.07,364.23l-.15,7h-1.06l-.15-7h1.37ZM245.44,374.08c-.24,0-.45-.08-.62-.25s-.25-.37-.25-.62.08-.45.25-.62.37-.25.62-.25.43.08.59.25c.17.17.25.37.25.62s-.08.45-.25.62c-.16.17-.35.25-.59.25Z"/><path class="cls-9" d="M243.14,366.32l-4.62,11.28h-1.32l1.51-3.7-3.09-7.59h1.41l2.41,6.22,2.38-6.22h1.32Z"/><path class="cls-9" d="M227.55,370.14c0-.79.16-1.48.48-2.07.32-.6.76-1.06,1.32-1.39.57-.33,1.22-.49,1.95-.49.94,0,1.72.23,2.32.69.62.46,1.02,1.09,1.22,1.9h-1.37c-.13-.47-.39-.83-.77-1.11-.37-.27-.84-.41-1.4-.41-.73,0-1.32.25-1.76.76-.45.49-.67,1.2-.67,2.11s.22,1.64.67,2.14,1.04.76,1.76.76c.56,0,1.03-.13,1.4-.39.37-.26.63-.64.77-1.12h1.37c-.21.78-.62,1.41-1.23,1.89-.62.47-1.39.7-2.31.7-.73,0-1.38-.16-1.95-.49-.56-.33-1-.79-1.32-1.39-.32-.6-.48-1.3-.48-2.1Z"/><path class="cls-9" d="M218.09,370.13c0-.78.16-1.47.48-2.06.32-.6.75-1.06,1.3-1.39.56-.33,1.18-.49,1.86-.49s1.25.15,1.75.43c.49.29.86.65,1.11,1.09v-1.4h1.29v7.67h-1.29v-1.43c-.25.45-.63.82-1.13,1.12-.5.29-1.07.43-1.74.43s-1.3-.17-1.85-.5c-.55-.34-.99-.81-1.3-1.41s-.48-1.3-.48-2.07ZM224.58,370.14c0-.58-.12-1.08-.35-1.51-.23-.43-.55-.76-.95-.98-.39-.23-.83-.35-1.3-.35s-.91.11-1.3.34-.71.55-.94.98c-.23.43-.35.93-.35,1.51s.12,1.1.35,1.54c.23.43.55.76.94.99.39.22.83.34,1.3.34s.91-.11,1.3-.34c.4-.23.72-.57.95-.99.23-.44.35-.95.35-1.53Z"/><path class="cls-9" d="M213.57,372.82l2.38-6.5h1.36l-3.01,7.67h-1.48l-3.01-7.67h1.37l2.39,6.5Z"/><path class="cls-9" d="M207.93,365.07c-.24,0-.45-.08-.62-.25s-.25-.37-.25-.62.08-.45.25-.62.37-.25.62-.25.43.08.59.25c.17.17.25.37.25.62s-.08.45-.25.62c-.16.17-.35.25-.59.25ZM208.54,366.32v7.67h-1.27v-7.67h1.27Z"/><path class="cls-9" d="M203.32,367.57c.22-.44.54-.78.95-1.02.42-.24.93-.36,1.53-.36v1.32h-.34c-1.43,0-2.14.77-2.14,2.32v4.17h-1.27v-7.67h1.27v1.25Z"/><path class="cls-9" d="M200.46,367.09c0,.81-.28,1.49-.84,2.03-.55.53-1.39.8-2.53.8h-1.88v4.07h-1.27v-9.76h3.15c1.1,0,1.94.27,2.51.8.58.53.87,1.22.87,2.06ZM197.09,368.87c.71,0,1.23-.15,1.57-.46s.5-.75.5-1.32c0-1.2-.69-1.81-2.07-1.81h-1.88v3.58h1.88Z"/><path class="cls-9" d="M186.26,367.57c.22-.44.54-.78.95-1.02.42-.24.93-.36,1.53-.36v1.32h-.34c-1.43,0-2.14.77-2.14,2.32v4.17h-1.27v-7.67h1.27v1.25Z"/><path class="cls-9" d="M182.83,366.32v7.67h-1.27v-1.13c-.24.39-.58.7-1.02.92-.43.21-.9.32-1.43.32-.6,0-1.13-.12-1.61-.36-.48-.25-.85-.62-1.13-1.12-.27-.49-.41-1.1-.41-1.81v-4.49h1.26v4.33c0,.76.19,1.34.57,1.75.38.4.9.6,1.57.6s1.22-.21,1.61-.63c.39-.42.59-1.03.59-1.83v-4.21h1.27Z"/><path class="cls-9" d="M170.42,374.12c-.72,0-1.37-.16-1.96-.49-.58-.33-1.04-.79-1.37-1.39-.33-.61-.49-1.31-.49-2.1s.17-1.48.5-2.07c.35-.61.81-1.07,1.4-1.39.59-.33,1.25-.49,1.97-.49s1.39.16,1.97.49c.59.32,1.05.77,1.39,1.37.35.6.52,1.29.52,2.09s-.18,1.49-.53,2.1c-.35.6-.82,1.06-1.41,1.39-.6.33-1.26.49-1.99.49ZM170.42,373c.46,0,.89-.11,1.29-.32.4-.21.72-.54.97-.97.25-.43.38-.95.38-1.57s-.12-1.14-.36-1.57c-.24-.43-.56-.75-.95-.95-.39-.21-.82-.32-1.27-.32s-.9.11-1.29.32c-.38.2-.69.52-.92.95-.23.43-.35.95-.35,1.57s.11,1.15.34,1.58c.23.43.54.75.92.97.38.21.8.31,1.26.31Z"/><path class="cls-9" d="M165.79,366.32l-4.62,11.28h-1.32l1.51-3.7-3.09-7.59h1.41l2.41,6.22,2.38-6.22h1.32Z"/><path class="cls-9" d="M149.16,366.19c.66,0,1.24.15,1.74.43.5.29.88.65,1.12,1.09v-1.4h1.29v7.84c0,.7-.15,1.32-.45,1.86-.3.55-.73.98-1.29,1.29-.55.31-1.2.46-1.93.46-1.01,0-1.85-.24-2.52-.71-.67-.48-1.07-1.12-1.19-1.95h1.26c.14.47.43.84.87,1.12.44.29.97.43,1.58.43.7,0,1.27-.22,1.71-.66.45-.44.67-1.05.67-1.85v-1.61c-.25.45-.63.82-1.12,1.12-.5.3-1.07.45-1.74.45s-1.3-.17-1.86-.5c-.55-.34-.99-.81-1.3-1.41-.32-.61-.48-1.3-.48-2.07s.16-1.47.48-2.06c.32-.6.75-1.06,1.3-1.39.56-.33,1.18-.49,1.86-.49ZM152.01,370.14c0-.58-.12-1.08-.35-1.51-.23-.43-.55-.76-.95-.98-.39-.23-.83-.35-1.3-.35s-.91.11-1.3.34-.71.55-.94.98c-.23.43-.35.93-.35,1.51s.12,1.1.35,1.54c.23.43.55.76.94.99.39.22.83.34,1.3.34s.91-.11,1.3-.34c.4-.23.72-.57.95-.99.23-.44.35-.95.35-1.53Z"/><path class="cls-9" d="M140.78,366.18c.93,0,1.69.29,2.27.85.58.56.87,1.37.87,2.44v4.52h-1.26v-4.34c0-.77-.19-1.35-.57-1.75-.38-.41-.9-.62-1.57-.62s-1.21.21-1.61.63c-.39.42-.59,1.03-.59,1.83v4.24h-1.27v-7.67h1.27v1.09c.25-.39.59-.7,1.02-.91.44-.21.92-.32,1.44-.32Z"/><path class="cls-9" d="M134.25,365.07c-.24,0-.45-.08-.62-.25s-.25-.37-.25-.62.08-.45.25-.62.37-.25.62-.25.43.08.59.25c.17.17.25.37.25.62s-.08.45-.25.62c-.16.17-.36.25-.59.25ZM134.87,366.32v7.67h-1.27v-7.67h1.27Z"/><path class="cls-9" d="M130.05,367.37v4.52c0,.37.08.64.24.8.16.15.43.22.83.22h.94v1.08h-1.15c-.71,0-1.24-.16-1.6-.49-.35-.33-.53-.86-.53-1.61v-4.52h-.99v-1.05h.99v-1.93h1.27v1.93h2v1.05h-2Z"/><path class="cls-9" d="M119.51,370.14c0-.79.16-1.48.48-2.07.32-.6.76-1.06,1.32-1.39.57-.33,1.22-.49,1.95-.49.94,0,1.72.23,2.32.69.62.46,1.02,1.09,1.22,1.9h-1.37c-.13-.47-.39-.83-.77-1.11-.37-.27-.84-.41-1.4-.41-.73,0-1.32.25-1.76.76-.45.49-.67,1.2-.67,2.11s.22,1.64.67,2.14,1.04.76,1.76.76c.56,0,1.03-.13,1.4-.39.37-.26.63-.64.77-1.12h1.37c-.21.78-.62,1.41-1.23,1.89-.62.47-1.39.7-2.31.7-.73,0-1.38-.16-1.95-.49-.56-.33-1-.79-1.32-1.39-.32-.6-.48-1.3-.48-2.1Z"/><path class="cls-9" d="M118.31,369.86c0,.24-.01.5-.04.77h-6.13c.05.76.3,1.35.77,1.78.48.42,1.05.63,1.72.63.55,0,1.01-.13,1.37-.38.37-.26.64-.61.78-1.04h1.37c-.21.74-.62,1.34-1.23,1.81-.62.46-1.38.69-2.3.69-.73,0-1.38-.16-1.96-.49-.57-.33-1.02-.79-1.34-1.39-.33-.61-.49-1.31-.49-2.1s.16-1.49.48-2.09c.32-.6.76-1.05,1.33-1.37.58-.33,1.24-.49,1.99-.49s1.37.16,1.93.48c.56.32.99.76,1.29,1.32.31.55.46,1.18.46,1.88ZM116.99,369.6c0-.49-.11-.9-.32-1.25-.21-.36-.51-.62-.88-.8-.36-.19-.77-.28-1.22-.28-.64,0-1.19.21-1.65.62-.45.41-.71.98-.77,1.71h4.84Z"/><path class="cls-9" d="M107.76,367.37v4.52c0,.37.08.64.24.8.16.15.43.22.83.22h.94v1.08h-1.15c-.71,0-1.24-.16-1.6-.49-.35-.33-.53-.86-.53-1.61v-4.52h-.99v-1.05h.99v-1.93h1.27v1.93h2v1.05h-2Z"/><path class="cls-9" d="M100.6,374.12c-.72,0-1.37-.16-1.96-.49-.58-.33-1.04-.79-1.37-1.39-.33-.61-.49-1.31-.49-2.1s.17-1.48.5-2.07c.35-.61.81-1.07,1.4-1.39.59-.33,1.25-.49,1.97-.49s1.39.16,1.97.49c.59.32,1.05.77,1.39,1.37.35.6.52,1.29.52,2.09s-.18,1.49-.53,2.1c-.35.6-.82,1.06-1.41,1.39-.6.33-1.26.49-1.99.49ZM100.6,373c.46,0,.89-.11,1.29-.32.4-.21.72-.54.97-.97.25-.43.38-.95.38-1.57s-.12-1.14-.36-1.57c-.24-.43-.56-.75-.95-.95-.39-.21-.82-.32-1.27-.32s-.9.11-1.29.32c-.38.2-.69.52-.92.95-.23.43-.35.95-.35,1.57s.11,1.15.34,1.58c.23.43.54.75.92.97.38.21.8.31,1.26.31Z"/><path class="cls-9" d="M93.3,367.57c.22-.44.54-.78.95-1.02.42-.24.93-.36,1.53-.36v1.32h-.34c-1.43,0-2.14.77-2.14,2.32v4.17h-1.27v-7.67h1.27v1.25Z"/><path class="cls-9" d="M83.84,367.73c.25-.44.63-.8,1.12-1.09.5-.3,1.09-.45,1.75-.45s1.3.16,1.85.49c.56.33,1,.79,1.32,1.39.32.59.48,1.27.48,2.06s-.16,1.46-.48,2.07c-.32.61-.76,1.08-1.32,1.41-.55.34-1.17.5-1.85.5s-1.23-.15-1.74-.43c-.49-.3-.87-.67-1.13-1.11v5.05h-1.27v-11.31h1.27v1.41ZM89.05,370.13c0-.58-.12-1.08-.35-1.51-.23-.43-.55-.76-.95-.98-.39-.22-.83-.34-1.3-.34s-.9.12-1.3.35c-.39.22-.71.56-.95.99-.23.43-.35.93-.35,1.5s.12,1.09.35,1.53c.24.43.56.76.95.99.4.22.84.34,1.3.34s.91-.11,1.3-.34c.4-.23.72-.57.95-.99.23-.44.35-.95.35-1.54Z"/><path class="cls-9" d="M262.77,356.12c-.59,0-1.12-.1-1.58-.29-.47-.2-.84-.48-1.11-.84-.27-.36-.42-.78-.45-1.25h1.32c.04.38.21.7.53.94.33.24.75.36,1.27.36.48,0,.87-.11,1.15-.32s.42-.49.42-.81-.15-.58-.45-.74c-.3-.17-.76-.33-1.39-.49-.57-.15-1.04-.3-1.4-.45-.35-.16-.66-.39-.92-.69-.25-.31-.38-.71-.38-1.2,0-.39.12-.75.35-1.08.23-.33.56-.58.99-.77.43-.2.92-.29,1.47-.29.85,0,1.54.21,2.06.64.52.43.8,1.02.84,1.76h-1.27c-.03-.4-.19-.72-.49-.97-.29-.24-.68-.36-1.18-.36-.46,0-.82.1-1.09.29-.27.2-.41.45-.41.77,0,.25.08.46.24.63.17.16.37.29.62.39.25.09.6.2,1.04.32.55.15,1,.3,1.34.45.35.14.64.35.88.64.25.29.38.67.39,1.13,0,.42-.12.8-.35,1.13-.23.34-.57.6-.99.8-.42.19-.91.28-1.46.28Z"/><path class="cls-9" d="M257.27,347.07c-.24,0-.45-.08-.62-.25s-.25-.37-.25-.62.08-.45.25-.62.37-.25.62-.25.43.08.59.25c.17.17.25.37.25.62s-.08.45-.25.62c-.16.17-.35.25-.59.25ZM257.89,348.32v7.67h-1.27v-7.67h1.27Z"/><path class="cls-9" d="M242.94,352.13c0-.78.16-1.47.48-2.06.32-.6.75-1.06,1.3-1.39.56-.33,1.19-.49,1.88-.49.6,0,1.15.14,1.67.42.51.27.91.63,1.18,1.08v-4.06h1.29v10.36h-1.29v-1.44c-.25.46-.62.83-1.12,1.13-.49.29-1.07.43-1.74.43s-1.3-.17-1.86-.5c-.55-.34-.98-.81-1.3-1.41-.32-.61-.48-1.3-.48-2.07ZM249.44,352.14c0-.58-.12-1.08-.35-1.51-.23-.43-.55-.76-.95-.98-.39-.23-.83-.35-1.3-.35s-.91.11-1.3.34-.7.55-.94.98c-.23.43-.35.93-.35,1.51s.12,1.1.35,1.54c.23.43.55.76.94.99.39.22.83.34,1.3.34s.91-.11,1.3-.34c.4-.23.72-.57.95-.99.23-.44.35-.95.35-1.53Z"/><path class="cls-9" d="M240.63,347.07c-.24,0-.45-.08-.62-.25s-.25-.37-.25-.62.08-.45.25-.62.37-.25.62-.25.43.08.59.25c.17.17.25.37.25.62s-.08.45-.25.62c-.16.17-.35.25-.59.25ZM241.25,348.32v7.67h-1.27v-7.67h1.27Z"/><path class="cls-9" d="M234.36,356.12c-.72,0-1.37-.16-1.96-.49-.58-.33-1.04-.79-1.37-1.39-.33-.61-.49-1.31-.49-2.1s.17-1.48.5-2.07c.35-.61.81-1.07,1.4-1.39.59-.33,1.25-.49,1.97-.49s1.39.16,1.97.49c.59.32,1.05.77,1.39,1.37.35.6.52,1.29.52,2.09s-.18,1.49-.53,2.1c-.35.6-.82,1.06-1.41,1.39-.6.33-1.26.49-1.99.49ZM234.36,355c.46,0,.89-.11,1.29-.32.4-.21.72-.54.97-.97.25-.43.38-.95.38-1.57s-.12-1.14-.36-1.57c-.24-.43-.56-.75-.95-.95-.39-.21-.82-.32-1.27-.32s-.9.11-1.29.32c-.38.2-.69.52-.92.95-.23.43-.35.95-.35,1.57s.11,1.15.34,1.58c.23.43.54.75.92.97.38.21.8.31,1.26.31Z"/><path class="cls-9" d="M227.07,349.57c.22-.44.54-.78.95-1.02.42-.24.93-.36,1.53-.36v1.32h-.34c-1.43,0-2.14.77-2.14,2.32v4.17h-1.27v-7.67h1.27v1.25Z"/><path class="cls-9" d="M215.86,352.13c0-.78.16-1.47.48-2.06.32-.6.75-1.06,1.3-1.39.56-.33,1.19-.49,1.88-.49.6,0,1.15.14,1.67.42.51.27.91.63,1.18,1.08v-4.06h1.29v10.36h-1.29v-1.44c-.25.46-.62.83-1.12,1.13-.49.29-1.07.43-1.74.43s-1.3-.17-1.86-.5c-.55-.34-.98-.81-1.3-1.41-.32-.61-.48-1.3-.48-2.07ZM222.35,352.14c0-.58-.12-1.08-.35-1.51-.23-.43-.55-.76-.95-.98-.39-.23-.83-.35-1.3-.35s-.91.11-1.3.34-.7.55-.94.98c-.23.43-.35.93-.35,1.51s.12,1.1.35,1.54c.23.43.55.76.94.99.39.22.83.34,1.3.34s.91-.11,1.3-.34c.4-.23.72-.57.95-.99.23-.44.35-.95.35-1.53Z"/><path class="cls-9" d="M211.12,348.18c.93,0,1.69.29,2.27.85.58.56.87,1.37.87,2.44v4.52h-1.26v-4.34c0-.77-.19-1.35-.57-1.75-.38-.41-.9-.62-1.57-.62s-1.21.21-1.61.63c-.39.42-.59,1.03-.59,1.83v4.24h-1.27v-7.67h1.27v1.09c.25-.39.59-.7,1.02-.91.44-.21.92-.32,1.44-.32Z"/><path class="cls-9" d="M197.44,352.13c0-.78.16-1.47.48-2.06.32-.6.75-1.06,1.3-1.39.56-.33,1.18-.49,1.86-.49s1.26.15,1.75.43c.49.29.86.65,1.11,1.09v-1.4h1.29v7.67h-1.29v-1.43c-.25.45-.63.82-1.13,1.12-.49.29-1.07.43-1.74.43s-1.3-.17-1.85-.5c-.55-.34-.98-.81-1.3-1.41-.32-.61-.48-1.3-.48-2.07ZM203.94,352.14c0-.58-.12-1.08-.35-1.51-.23-.43-.55-.76-.95-.98-.39-.23-.83-.35-1.3-.35s-.91.11-1.3.34-.7.55-.94.98c-.23.43-.35.93-.35,1.51s.12,1.1.35,1.54c.23.43.55.76.94.99.39.22.83.34,1.3.34s.91-.11,1.3-.34c.4-.23.72-.57.95-.99.23-.44.35-.95.35-1.53Z"/><path class="cls-9" d="M190.24,349.57c.22-.44.54-.78.95-1.02.42-.24.93-.36,1.53-.36v1.32h-.34c-1.43,0-2.14.77-2.14,2.32v4.17h-1.27v-7.67h1.27v1.25Z"/><path class="cls-9" d="M183.35,356.12c-.72,0-1.37-.16-1.96-.49-.58-.33-1.04-.79-1.37-1.39-.33-.61-.49-1.31-.49-2.1s.17-1.48.5-2.07c.35-.61.81-1.07,1.4-1.39.59-.33,1.25-.49,1.97-.49s1.39.16,1.97.49c.59.32,1.05.77,1.39,1.37.35.6.52,1.29.52,2.09s-.18,1.49-.53,2.1c-.35.6-.82,1.06-1.41,1.39-.6.33-1.26.49-1.99.49ZM183.35,355c.46,0,.89-.11,1.29-.32.4-.21.72-.54.97-.97.25-.43.38-.95.38-1.57s-.12-1.14-.36-1.57c-.24-.43-.56-.75-.95-.95-.39-.21-.82-.32-1.27-.32s-.9.11-1.29.32c-.38.2-.69.52-.92.95-.23.43-.35.95-.35,1.57s.11,1.15.34,1.58c.23.43.54.75.92.97.38.21.8.31,1.26.31Z"/><path class="cls-9" d="M178.52,349.37h-1.61v6.62h-1.27v-6.62h-.99v-1.05h.99v-.55c0-.86.22-1.48.66-1.88.45-.4,1.16-.6,2.14-.6v1.06c-.56,0-.96.11-1.19.34-.22.21-.34.57-.34,1.08v.55h1.61v1.05Z"/><path class="cls-14" d="M167.86,349.44c.25-.41.58-.73.98-.97.41-.23.88-.35,1.4-.35v2.06h-.52c-.62,0-1.08.14-1.4.43-.31.29-.46.79-.46,1.51v3.86h-1.96v-7.76h1.96v1.2Z"/><path class="cls-14" d="M164.47,351.95c0,.28-.02.53-.06.76h-5.67c.05.56.24,1,.59,1.32.35.32.77.48,1.27.48.73,0,1.25-.31,1.55-.94h2.11c-.22.75-.65,1.36-1.29,1.85-.63.48-1.41.71-2.34.71-.75,0-1.42-.16-2.02-.49-.59-.34-1.05-.81-1.39-1.41-.33-.61-.49-1.31-.49-2.1s.16-1.51.49-2.11c.33-.61.78-1.07,1.37-1.4s1.26-.49,2.03-.49,1.4.16,1.97.48c.59.32,1.04.77,1.36,1.36.33.58.49,1.25.49,2ZM162.44,351.39c0-.5-.19-.9-.55-1.2-.35-.31-.79-.46-1.3-.46-.49,0-.9.15-1.23.45-.33.29-.53.7-.6,1.22h3.68Z"/><path class="cls-14" d="M152.6,356.12c-.63,0-1.2-.11-1.71-.34-.5-.23-.9-.55-1.2-.94-.29-.39-.45-.83-.48-1.3h1.97c.04.3.18.55.43.74.26.2.58.29.97.29s.66-.07.87-.22c.21-.15.32-.34.32-.57,0-.25-.13-.44-.39-.56-.25-.13-.66-.27-1.22-.42-.58-.14-1.05-.29-1.43-.43-.36-.15-.68-.38-.95-.69-.26-.31-.39-.72-.39-1.25,0-.43.12-.82.36-1.18.25-.35.61-.63,1.06-.84.47-.2,1.01-.31,1.64-.31.92,0,1.66.23,2.21.7.55.46.85,1.08.91,1.86h-1.88c-.03-.31-.16-.55-.39-.73-.22-.19-.53-.28-.91-.28-.35,0-.63.07-.83.2-.19.13-.28.31-.28.55,0,.26.13.46.39.6.26.13.67.27,1.22.41.56.14,1.02.29,1.39.43.36.15.68.38.94.7.27.31.41.72.42,1.23,0,.45-.13.85-.38,1.2-.24.36-.6.64-1.06.84-.46.2-.99.29-1.61.29Z"/><path class="cls-14" d="M148.57,348.23l-2.27,7.76h-2.11l-1.41-5.42-1.41,5.42h-2.13l-2.28-7.76h1.99l1.37,5.91,1.48-5.91h2.07l1.46,5.89,1.37-5.89h1.88Z"/><path class="cls-14" d="M132.33,356.12c-.75,0-1.42-.16-2.02-.49-.6-.34-1.07-.81-1.41-1.41-.34-.61-.5-1.31-.5-2.1s.17-1.49.52-2.1c.35-.61.84-1.07,1.44-1.4.61-.34,1.28-.5,2.03-.5s1.42.17,2.03.5c.61.33,1.08.79,1.43,1.4.36.61.53,1.31.53,2.1s-.18,1.49-.55,2.1c-.35.61-.84,1.08-1.46,1.41-.61.33-1.29.49-2.04.49ZM132.33,354.41c.35,0,.69-.08.99-.25.32-.18.57-.44.76-.78.19-.34.28-.76.28-1.26,0-.74-.2-1.3-.59-1.69-.38-.4-.85-.6-1.41-.6s-1.03.2-1.41.6c-.37.39-.56.96-.56,1.69s.18,1.31.55,1.71c.37.39.84.59,1.4.59Z"/><path class="cls-14" d="M125.19,349.44c.25-.41.58-.73.98-.97.41-.23.88-.35,1.4-.35v2.06h-.52c-.62,0-1.08.14-1.4.43-.31.29-.46.79-.46,1.51v3.86h-1.96v-7.76h1.96v1.2Z"/><path class="cls-14" d="M119.77,350.98c.55.1,1,.38,1.36.83.35.45.53.96.53,1.54,0,.52-.13.98-.39,1.39-.25.39-.62.7-1.11.92-.49.22-1.06.34-1.72.34h-4.21v-9.77h4.03c.66,0,1.23.11,1.71.32.49.22.85.51,1.09.9.25.38.38.82.38,1.3,0,.57-.15,1.04-.46,1.43-.3.38-.7.65-1.2.81ZM116.19,350.25h1.79c.47,0,.83-.1,1.08-.31.25-.21.38-.52.38-.91s-.13-.69-.38-.91c-.25-.21-.61-.32-1.08-.32h-1.79v2.45ZM118.16,354.39c.48,0,.85-.11,1.11-.34.27-.22.41-.54.41-.95s-.14-.75-.42-.98c-.28-.24-.66-.36-1.13-.36h-1.93v2.63h1.97Z"/><path class="cls-14" d="M107.62,355.99l-1.6-2.41-1.41,2.41h-2.1l2.53-3.89-2.56-3.86h2.21l1.58,2.39,1.43-2.39h2.1l-2.55,3.86,2.58,3.89h-2.21Z"/><path class="cls-14" d="M101.9,351.95c0,.28-.02.53-.06.76h-5.67c.05.56.24,1,.59,1.32.35.32.77.48,1.27.48.73,0,1.25-.31,1.55-.94h2.11c-.22.75-.65,1.36-1.29,1.85-.63.48-1.41.71-2.34.71-.75,0-1.42-.16-2.02-.49-.59-.34-1.05-.81-1.39-1.41-.33-.61-.49-1.31-.49-2.1s.16-1.51.49-2.11c.33-.61.78-1.07,1.37-1.4.59-.33,1.26-.49,2.03-.49s1.4.16,1.97.48c.59.32,1.04.77,1.36,1.36.33.58.49,1.25.49,2ZM99.87,351.39c0-.5-.19-.9-.55-1.2-.35-.31-.79-.46-1.3-.46-.49,0-.9.15-1.23.45-.33.29-.53.7-.6,1.22h3.68Z"/><path class="cls-14" d="M84.7,352.08c0-.78.15-1.48.46-2.09.32-.61.75-1.07,1.29-1.4.54-.33,1.14-.49,1.81-.49.5,0,.98.11,1.44.34.46.21.82.5,1.09.87v-3.68h1.99v10.36h-1.99v-1.15c-.24.38-.58.69-1.02.92-.44.23-.95.35-1.53.35-.65,0-1.25-.17-1.79-.5-.54-.34-.97-.81-1.29-1.41-.31-.62-.46-1.32-.46-2.11ZM90.81,352.11c0-.48-.09-.88-.28-1.22-.19-.35-.44-.61-.76-.78-.32-.19-.66-.28-1.02-.28s-.7.09-1.01.27c-.31.18-.56.44-.76.78-.19.34-.28.74-.28,1.2s.09.88.28,1.23c.2.35.45.61.76.8.32.19.65.28,1.01.28s.7-.09,1.02-.27c.32-.19.57-.45.76-.78.19-.35.28-.76.28-1.23Z"/><path class="cls-14" d="M83.27,345.63v10.36h-1.96v-10.36h1.96Z"/><path class="cls-14" d="M79.88,351.95c0,.28-.02.53-.06.76h-5.67c.05.56.24,1,.59,1.32.35.32.77.48,1.27.48.73,0,1.25-.31,1.55-.94h2.11c-.22.75-.65,1.36-1.29,1.85-.63.48-1.41.71-2.34.71-.75,0-1.42-.16-2.02-.49-.59-.34-1.05-.81-1.39-1.41-.33-.61-.49-1.31-.49-2.1s.16-1.51.49-2.11c.33-.61.78-1.07,1.37-1.4s1.26-.49,2.03-.49,1.4.16,1.97.48c.59.32,1.04.77,1.36,1.36.33.58.49,1.25.49,2ZM77.85,351.39c0-.5-.19-.9-.55-1.2-.35-.31-.79-.46-1.3-.46-.49,0-.9.15-1.23.45-.33.29-.53.7-.6,1.22h3.68Z"/><path class="cls-14" d="M69.22,350.98c.55.1,1,.38,1.36.83.35.45.53.96.53,1.54,0,.52-.13.98-.39,1.39-.25.39-.62.7-1.11.92-.49.22-1.06.34-1.72.34h-4.21v-9.77h4.03c.66,0,1.23.11,1.71.32.49.22.85.51,1.09.9.25.38.38.82.38,1.3,0,.57-.15,1.04-.46,1.43-.3.38-.7.65-1.2.81ZM65.63,350.25h1.79c.47,0,.83-.1,1.08-.31.25-.21.38-.52.38-.91s-.13-.69-.38-.91c-.25-.21-.61-.32-1.08-.32h-1.79v2.45ZM67.61,354.39c.48,0,.84-.11,1.11-.34.27-.22.41-.54.41-.95s-.14-.75-.42-.98c-.28-.24-.66-.36-1.13-.36h-1.93v2.63h1.97Z"/><path class="cls-17" d="M230.17,306.57v8.42h-4.94v-16.75c0-.48.22-.72.67-.72h13.66c1.09,0,2.01.13,2.76.38.75.26,1.36.63,1.82,1.13.46.48.8,1.06,1.01,1.75.21.69.31,1.46.31,2.33v1.25c0,.85-.1,1.61-.31,2.28-.21.67-.54,1.25-1.01,1.73-.45.46-1.03.82-1.75,1.08-.72.26-1.6.38-2.64.38h-1.15c-.18,0-.35,0-.53-.02v.17c.21.19.42.41.62.65.21.22.41.46.6.7l2.78,3.48v.19h-5.57l-6.17-8.42h-.17ZM230.51,301.89c-.22,0-.34.14-.34.41v3.82h8.5c.66,0,1.12-.13,1.39-.38.29-.26.43-.74.43-1.46v-.6c0-.67-.14-1.14-.43-1.39-.27-.26-.74-.38-1.39-.38h-8.16Z"/><path class="cls-17" d="M208.19,304.89h-.17v5.23c0,.22.11.34.34.34h14.74v4.54h-19.32c-.46,0-.7-.24-.7-.72v-16.03c0-.48.23-.72.7-.72h18.77c.48,0,.72.24.72.72v4.54l-4.58,1.7h-.19v-2.33c0-.18-.08-.26-.24-.26h-9.91c-.13,0-.22.04-.26.12-.03.06-.05.14-.05.22v2.18h8.16v3.55h-6.84l-1.15-3.07Z"/><path class="cls-17" d="M196.16,303.57h-.19v-1.92c0-.19-.1-.29-.29-.29h-9.22c-.34,0-.57.07-.7.22-.13.14-.19.35-.19.62v.43c0,.34.06.55.17.65.11.1.33.17.65.22l10.85,1.51c.69.1,1.27.25,1.75.46.48.19.87.46,1.18.79.3.32.52.72.65,1.2.13.48.19,1.05.19,1.7v1.39c0,.72-.09,1.36-.26,1.92-.18.54-.46,1.01-.86,1.39-.4.37-.93.65-1.58.84-.66.19-1.46.29-2.42.29h-15.55v-4.54h13.94c.42,0,.69-.07.82-.22.14-.16.22-.43.22-.82v-.48c0-.3-.06-.51-.17-.62-.1-.13-.3-.21-.6-.24l-10.46-1.32c-.7-.1-1.31-.24-1.82-.43-.5-.19-.9-.45-1.22-.77-.32-.32-.55-.71-.7-1.18s-.22-1.02-.22-1.66v-1.22c0-1.26.34-2.24,1.01-2.93.67-.7,1.79-1.06,3.36-1.06h15.53c.5,0,.74.26.74.77v3.6l-4.58,1.68Z"/><path class="cls-17" d="M179.08,297.52v.19l-2.52,16.61c-.03.24-.1.42-.21.53-.1.1-.28.14-.55.14h-7.18c-.61,0-.96-.24-1.06-.72l-2.69-12.31c-.03-.14-.12-.22-.26-.22h-.22c-.18,0-.28.07-.31.22l-2.35,12.31c-.1.48-.45.72-1.06.72h-6.96c-.26,0-.44-.06-.55-.17s-.18-.28-.21-.5l-2.76-16.61v-.19h4.94l2.06,13.22c.03.21.15.31.36.31h.24c.19,0,.31-.1.36-.31l2.5-12.6c.03-.22.11-.38.24-.48.14-.1.37-.14.67-.14h6.05c.51,0,.82.21.91.62l2.78,12.6c.05.21.16.31.34.31h.26c.26,0,.39-.1.41-.31l1.7-13.22h5.06Z"/><path class="cls-17" d="M149.54,308.05c0,1.06-.13,2.02-.38,2.88-.26.85-.66,1.58-1.22,2.18-.56.59-1.3,1.06-2.21,1.39-.9.32-1.99.48-3.29.48h-7.78c-1.3,0-2.4-.16-3.31-.48-.91-.34-1.65-.8-2.21-1.39-.56-.61-.97-1.34-1.22-2.18-.26-.86-.38-1.82-.38-2.88v-3.6c0-1.06.13-2.01.38-2.86.26-.86.66-1.59,1.22-2.18.56-.61,1.3-1.07,2.21-1.39.91-.34,2.02-.5,3.31-.5h7.78c1.3,0,2.39.17,3.29.5.91.32,1.65.78,2.21,1.39.56.59.97,1.32,1.22,2.18.26.85.38,1.8.38,2.86v3.6ZM132.48,307.62c0,.61.06,1.1.17,1.46.13.37.32.66.58.86.27.19.62.33,1.03.41.43.06.96.1,1.58.1h6.14c.53,0,.96-.06,1.3-.17.35-.11.62-.3.82-.55.19-.27.32-.63.38-1.08.08-.45.12-1,.12-1.66v-2.3c0-1.07-.2-1.81-.6-2.21s-1.07-.6-2.02-.6h-6.89c-.53,0-.97.06-1.32.17-.34.11-.6.3-.79.58-.19.26-.33.61-.41,1.06-.06.43-.1.98-.1,1.63v2.3Z"/><path class="cls-17" d="M110.83,306.57v8.42h-4.94v-16.75c0-.48.22-.72.67-.72h13.66c1.09,0,2.01.13,2.76.38.75.26,1.36.63,1.82,1.13.46.48.8,1.06,1.01,1.75.21.69.31,1.46.31,2.33v1.25c0,.85-.1,1.61-.31,2.28s-.54,1.25-1.01,1.73c-.45.46-1.03.82-1.75,1.08-.72.26-1.6.38-2.64.38h-1.15c-.18,0-.35,0-.53-.02v.17c.21.19.42.41.62.65.21.22.41.46.6.7l2.78,3.48v.19h-5.57l-6.17-8.42h-.17ZM111.17,301.89c-.22,0-.34.14-.34.41v3.82h8.5c.66,0,1.12-.13,1.39-.38.29-.26.43-.74.43-1.46v-.6c0-.67-.14-1.14-.43-1.39-.27-.26-.74-.38-1.39-.38h-8.16Z"/><path class="cls-17" d="M89.06,311.42v3.58h-4.94v-16.75c0-.48.23-.72.7-.72h14.35c1.63,0,2.81.37,3.53,1.1.72.72,1.08,1.74,1.08,3.07v1.54c0,.7-.14,1.27-.43,1.7s-.62.78-.98,1.03c.51.26.94.63,1.27,1.13s.5,1.11.5,1.85v1.54c0,1.47-.35,2.59-1.06,3.36-.69.77-1.88,1.15-3.58,1.15h-8.9l-1.37-3.58h-.17ZM89.06,307.6v3.29h8.59c.43,0,.74-.1.94-.31.21-.21.31-.57.31-1.08v-.5c0-.51-.1-.87-.29-1.08-.18-.21-.5-.31-.96-.31h-8.59ZM89.46,301.41c-.27,0-.41.14-.41.41v2.95h8.3c.54,0,.93-.1,1.15-.31.22-.21.34-.57.34-1.08v-.53c0-.53-.11-.9-.34-1.1-.22-.22-.61-.34-1.15-.34h-7.9Z"/><path class="cls-15" d="M230.92,267.52v.19l-8.16,8.02,8.52,9.07v.19h-6.29l-5.69-6.1-5.88,6.1h-6v-.19l8.74-9.05-7.92-8.04v-.19h6.14l5.09,5.4,5.47-5.4h5.98Z"/><path class="cls-15" d="M191.22,274.89h-.17v5.23c0,.22.11.34.34.34h14.74v4.54h-19.32c-.46,0-.7-.24-.7-.72v-16.03c0-.48.23-.72.7-.72h18.77c.48,0,.72.24.72.72v4.54l-4.58,1.7h-.19v-2.33c0-.18-.08-.26-.24-.26h-9.91c-.13,0-.22.04-.26.12-.03.06-.05.14-.05.22v2.18h8.16v3.55h-6.84l-1.15-3.07Z"/><path class="cls-15" d="M163.21,268.24c0-.48.22-.72.67-.72h13.1c1.3,0,2.4.17,3.31.5.91.32,1.65.78,2.21,1.39.56.59.97,1.32,1.22,2.18.26.85.38,1.8.38,2.86v3.6c0,1.06-.13,2.02-.38,2.88-.26.85-.66,1.58-1.22,2.18-.56.59-1.3,1.06-2.21,1.39-.91.32-2.02.48-3.31.48h-7.06l-1.58-4.08h-.19v4.08h-4.94v-16.75ZM168.16,280.45h8.38c.94,0,1.62-.21,2.02-.62.4-.42.6-1.15.6-2.21v-2.93c0-1.09-.2-1.82-.6-2.21-.4-.4-1.07-.6-2.02-.6h-8.02c-.11,0-.2.04-.26.12-.06.06-.1.14-.1.24v8.21Z"/><path class="cls-15" d="M147.49,267.52v12.34c0,.19.04.34.12.43.08.1.23.14.46.14h13.68v4.56h-17.93c-.46,0-.79-.11-.98-.34-.19-.24-.29-.58-.29-1.01v-16.13h4.94Z"/><path class="cls-15" d="M125.5,274.89h-.17v5.23c0,.22.11.34.34.34h14.74v4.54h-19.32c-.46,0-.7-.24-.7-.72v-16.03c0-.48.23-.72.7-.72h18.77c.48,0,.72.24.72.72v4.54l-4.58,1.7h-.19v-2.33c0-.18-.08-.26-.24-.26h-9.91c-.13,0-.22.04-.26.12-.03.06-.05.14-.05.22v2.18h8.16v3.55h-6.84l-1.15-3.07Z"/><path class="cls-15" d="M103.56,281.42v3.58h-4.94v-16.75c0-.48.23-.72.7-.72h14.35c1.63,0,2.81.37,3.53,1.1.72.72,1.08,1.74,1.08,3.07v1.54c0,.7-.14,1.27-.43,1.7-.29.43-.62.78-.98,1.03.51.26.94.63,1.27,1.13.34.5.5,1.11.5,1.85v1.54c0,1.47-.35,2.59-1.06,3.36-.69.77-1.88,1.15-3.58,1.15h-8.9l-1.37-3.58h-.17ZM103.56,277.6v3.29h8.59c.43,0,.74-.1.94-.31.21-.21.31-.57.31-1.08v-.5c0-.51-.1-.87-.29-1.08-.18-.21-.5-.31-.96-.31h-8.59ZM103.97,271.41c-.27,0-.41.14-.41.41v2.95h8.3c.54,0,.93-.1,1.15-.31.22-.21.34-.57.34-1.08v-.53c0-.53-.11-.9-.34-1.1-.22-.22-.61-.34-1.15-.34h-7.9Z"/></g></svg>