<svg width="42" height="42" viewBox="0 0 42 42" fill="none" xmlns="http://www.w3.org/2000/svg">
<path d="M20.989 38.8519C21.2438 38.8519 21.4969 38.7648 21.7238 38.6366C30.4507 33.6492 35.438 25.0948 36.1186 11.2293C36.14 10.8019 35.9674 10.3761 35.6863 10.0621C35.4101 9.74818 35.0156 9.55421 34.6063 9.5427C31.4288 9.46216 27.4525 6.07919 24.7928 4.74441C23.1506 3.9225 22.0641 3.37182 21.2487 3.23046C21.1682 3.21895 21.0712 3.23046 20.989 3.23046V10.238C26.2081 10.238 30.4524 14.4758 30.4524 19.7015C30.4524 24.9272 26.2081 29.1649 20.989 29.1649V38.8519Z" fill="#00D200"/>
<path d="M19.6382 12.1741C19.2634 12.2053 18.836 12.3204 18.6207 12.3779C17.9467 12.562 17.3549 13.0075 16.7895 13.3955C16.1533 13.8278 15.2509 14.1779 14.8564 14.8716C14.6903 15.1642 14.7544 15.3615 14.8564 15.5324C14.9714 15.7297 15.0848 15.9269 14.8564 16.1932C14.6344 16.4546 14.2712 16.4793 14.3468 16.905C14.4684 17.5987 15.6257 17.4195 16.0761 17.7187C16.344 17.8962 16.5856 18.1822 16.3818 18.5324C16.1599 18.9072 15.7013 18.7609 15.3643 18.8381C15.0142 18.9203 14.8679 18.9976 14.6016 19.2458C14.0229 19.78 13.6482 20.4228 13.686 21.2299C13.7238 22.1143 14.309 23.1383 15.0602 23.6216C15.435 23.8633 15.5122 23.883 15.772 24.3334C16.5166 25.5926 18.0749 27.3169 19.6891 27.2331C20.0015 27.2134 18.9642 23.7038 18.9264 23.4162C18.7045 21.8775 20.6557 20.2617 19.7911 18.7346C19.4163 18.0738 18.8245 18.6524 18.213 18.6836C17.9336 18.6968 17.1692 18.4354 17.0936 18.1247C16.9407 17.5149 17.9073 16.642 18.4678 16.9543C18.9313 17.2157 18.665 18.0228 19.2815 17.6151C20.1215 17.0612 20.1658 15.8398 20.4009 14.9686C20.5784 14.3193 21.259 12.8694 20.5538 12.3221C20.3697 12.1823 20.013 12.1379 19.6382 12.1692V12.1741Z" fill="#2676F9"/>
<path d="M24.4715 12.7837C24.3696 12.7772 24.3121 12.8791 24.1658 13.0895C23.8025 13.6106 23.7022 14.4259 23.505 15.0226C23.2699 15.7475 23.0283 16.7404 23.6579 17.3125C24.5159 18.1015 25.42 17.2237 26.3553 17.5672C27.5257 17.993 25.9033 18.7376 25.4397 19.0434C24.8546 19.4248 24.0655 20.1497 24.3713 20.9256C24.4929 21.2379 24.8924 21.4023 25.134 21.5864C25.5154 21.879 25.6239 22.096 25.7439 22.5529C25.9148 23.2137 25.9099 24.0406 25.6419 24.6899C25.3625 25.3639 24.7066 25.7715 24.3696 26.3682C25.0304 26.4701 26.8847 25.4493 27.8808 22.7042C28.3838 21.7064 28.7027 18.8741 27.677 16.3952C27.5619 16.1782 27.409 15.9629 27.2693 15.7344C26.9011 15.1114 26.4622 14.4752 25.997 14.0051C25.66 13.6615 25.3099 13.3755 24.9285 13.0895C24.7115 12.93 24.5718 12.7903 24.4699 12.7837H24.4715Z" fill="#2676F9"/>
<path d="M21.0831 38.8499C20.9154 38.8499 20.5555 38.7956 20.304 38.651C15.8016 36.0784 12.4564 32.6807 10.0746 28.2637C7.59241 23.6594 6.22148 18.0688 5.88285 11.1763C5.86313 10.8015 6.01107 10.4086 6.28558 10.1029C6.5338 9.82014 6.90037 9.64425 7.26365 9.63439C9.53374 9.57685 12.1605 7.89852 14.4783 6.41909C15.4695 5.78622 16.4032 5.18951 17.207 4.78842L17.2711 4.75555C17.475 4.65363 17.6706 4.55336 17.8596 4.45802C19.1204 3.82022 20.0327 3.3583 20.7215 3.23173L20.7938 3.22351C20.825 3.22351 20.8579 3.22351 20.8891 3.22351C20.9302 3.22515 20.9615 3.2268 20.9894 3.2268V4.25747C20.9483 4.25747 20.9039 4.25747 20.8579 4.25418C20.3105 4.37254 19.4294 4.81637 18.3248 5.37526C18.1341 5.4706 17.9369 5.57088 17.733 5.67444L17.6673 5.70731C16.9111 6.08539 15.9988 6.6673 15.0339 7.28373C12.6011 8.83878 9.84607 10.5977 7.28831 10.6634C7.2094 10.6651 7.11735 10.7144 7.05324 10.7867C6.95954 10.8919 6.90366 11.0234 6.91023 11.1253C7.24064 17.8633 8.57212 23.3093 10.9803 27.7772C13.2668 32.0198 16.4837 35.2845 20.8135 37.76C20.8628 37.788 21.0206 37.8225 21.0831 37.8225V38.8515V38.8499Z" fill="#00D200"/>
<path d="M21.0832 29.9802C15.4154 29.9802 10.8062 25.3693 10.8062 19.703C10.8062 14.0368 15.417 9.4259 21.0832 9.4259C26.7494 9.4259 31.3603 14.0368 31.3603 19.703C31.3603 25.3693 26.7494 29.9802 21.0832 29.9802ZM21.0832 10.2412C15.8658 10.2412 11.6215 14.4856 11.6215 19.703C11.6215 24.9205 15.8658 29.1648 21.0832 29.1648C26.3007 29.1648 30.545 24.9205 30.545 19.703C30.545 14.4856 26.3007 10.2412 21.0832 10.2412Z" fill="#00D200"/>
</svg>
