<svg width="15" height="16" viewBox="0 0 15 16" fill="none" xmlns="http://www.w3.org/2000/svg">
<g clip-path="url(#clip0_133_51)">
<path d="M7.05298 16C7.17192 16 7.2901 15.9609 7.396 15.9033C11.4701 13.6636 13.7983 9.82194 14.116 3.59513C14.126 3.40319 14.0454 3.212 13.9142 3.071C13.7853 2.93 13.6011 2.84289 13.41 2.83772C11.9267 2.80155 10.0703 1.28231 8.82872 0.682884C8.06209 0.313778 7.55485 0.0664771 7.17423 0.00299093C7.13662 -0.00217655 7.09135 0.00299093 7.05298 0.00299093V3.14999C9.48944 3.14999 11.4708 5.0531 11.4708 7.39987C11.4708 9.74665 9.48944 11.6498 7.05298 11.6498V16Z" fill="white"/>
<path d="M6.42227 4.01956C6.24731 4.03359 6.04778 4.08526 5.94726 4.1111C5.63263 4.19378 5.35637 4.39383 5.09239 4.56805C4.79541 4.7622 4.37411 4.91944 4.18994 5.23097C4.11243 5.36237 4.14236 5.45095 4.18994 5.52773C4.24365 5.61631 4.2966 5.7049 4.18994 5.82449C4.08634 5.94186 3.91675 5.95294 3.95205 6.14413C4.00883 6.45566 4.54908 6.3752 4.75934 6.50955C4.88442 6.58928 4.99723 6.71773 4.90207 6.87496C4.79848 7.04328 4.58437 6.97758 4.42706 7.01227C4.26361 7.04918 4.19531 7.08388 4.07099 7.19535C3.80087 7.43527 3.62591 7.72391 3.64356 8.08637C3.66121 8.48353 3.9344 8.94343 4.28509 9.16047C4.46006 9.26898 4.49613 9.27784 4.61737 9.48011C4.965 10.0456 5.69248 10.82 6.44606 10.7823C6.59186 10.7735 6.10764 9.19738 6.08999 9.06819C5.98639 8.37722 6.89728 7.65156 6.49364 6.96576C6.31867 6.669 6.04241 6.92885 5.75694 6.94288C5.62649 6.94879 5.26965 6.83141 5.23435 6.69189C5.16299 6.41801 5.61421 6.02602 5.87589 6.16628C6.09229 6.28366 5.96798 6.64612 6.25575 6.46304C6.64788 6.21427 6.6686 5.66577 6.77834 5.27452C6.86122 4.98293 7.17892 4.33182 6.84971 4.086C6.76376 4.02325 6.59724 4.00332 6.42227 4.01735V4.01956Z" fill="white"/>
<path d="M8.67912 4.29344C8.63154 4.29049 8.60468 4.33625 8.53638 4.43075C8.36679 4.66476 8.31998 5.03091 8.22789 5.29888C8.11816 5.62443 8.00535 6.07031 8.29926 6.32721C8.69984 6.68155 9.1219 6.28735 9.55854 6.44163C10.1049 6.63283 9.34751 6.96724 9.13111 7.10455C8.85792 7.27581 8.48957 7.60137 8.63231 7.9498C8.68909 8.09006 8.87557 8.16388 8.98837 8.24656C9.16641 8.37796 9.21706 8.47541 9.27308 8.68063C9.35288 8.97739 9.35058 9.34871 9.2255 9.64031C9.09504 9.94297 8.78885 10.126 8.63154 10.394C8.94003 10.4398 9.80564 9.98136 10.2707 8.74855C10.5055 8.30045 10.6544 7.02851 10.1755 5.91529C10.1218 5.81785 10.0504 5.72114 9.98521 5.61853C9.81332 5.33875 9.60842 5.05306 9.39125 4.84193C9.23394 4.68764 9.07048 4.55919 8.89245 4.43075C8.79116 4.35914 8.72593 4.29639 8.67835 4.29344H8.67912Z" fill="white"/>
<path d="M7.09661 15.9993C7.01834 15.9993 6.85028 15.9749 6.73287 15.9099C4.63099 14.7546 3.06936 13.2288 1.95741 11.2452C0.798656 9.17745 0.158654 6.66679 0.000572336 3.57147C-0.00863633 3.40316 0.0604286 3.22672 0.188583 3.08942C0.304458 2.96244 0.475586 2.88345 0.645179 2.87903C1.70494 2.85319 2.93123 2.09947 4.01325 1.43508C4.47598 1.15087 4.91186 0.882901 5.28711 0.702778L5.31704 0.688013C5.4122 0.642244 5.50352 0.597213 5.59177 0.554397C6.18035 0.267971 6.60625 0.0605334 6.92779 0.00369106L6.96155 0C6.97613 0 6.99148 0 7.00606 0C7.02525 0.000738212 7.03983 0.00147642 7.05287 0.00147642V0.464335C7.03369 0.464335 7.01297 0.464335 6.99148 0.462859C6.73594 0.51601 6.32462 0.715327 5.80894 0.966319C5.71992 1.00914 5.62783 1.05417 5.53268 1.10067L5.50198 1.11544C5.14898 1.28523 4.72308 1.54655 4.27262 1.82338C3.13689 2.52173 1.85075 3.31162 0.65669 3.34115C0.619855 3.34188 0.576881 3.36403 0.546953 3.39651C0.503212 3.44376 0.477121 3.50281 0.48019 3.54858C0.634435 6.57451 1.25602 9.02021 2.38024 11.0267C3.44768 12.932 4.94946 14.3981 6.97076 15.5098C6.99378 15.5224 7.06745 15.5379 7.09661 15.5379V16V15.9993Z" fill="white"/>
<path d="M7.09679 12.0159C4.45083 12.0159 2.29907 9.94519 2.29907 7.40057C2.29907 4.85595 4.4516 2.78527 7.09679 2.78527C9.74197 2.78527 11.8945 4.85595 11.8945 7.40057C11.8945 9.94519 9.74197 12.0159 7.09679 12.0159ZM7.09679 3.15142C4.66109 3.15142 2.6797 5.05749 2.6797 7.40057C2.6797 9.74365 4.66109 11.6497 7.09679 11.6497C9.53248 11.6497 11.5139 9.74365 11.5139 7.40057C11.5139 5.05749 9.53248 3.15142 7.09679 3.15142Z" fill="white"/>
</g>
<defs>
<clipPath id="clip0_133_51">
<rect width="14.1176" height="16" fill="white"/>
</clipPath>
</defs>
</svg>
