<svg width="42" height="42" viewBox="0 0 42 42" fill="none" xmlns="http://www.w3.org/2000/svg">
<path d="M21 2C13.7365 2 7.40622 5.92377 4 11.716H8.80604C10.5791 9.55172 12.8811 7.83895 15.5718 6.858C14.9497 8.27492 14.4675 9.9254 14.0787 11.716H18.1226C19.0714 7.87008 20.3779 5.87707 21 5.87707C21.6221 5.87707 22.9287 7.87008 23.8774 11.716H27.9214C27.548 9.9254 27.0503 8.27492 26.4282 6.858C29.1189 7.83895 31.4208 9.55172 33.194 11.716H38C34.5937 5.92377 28.2636 2 21 2ZM4 31.1637C7.40622 36.9714 13.7365 40.8796 21 40.8796C28.2636 40.8796 34.5937 36.9558 38 31.1637H33.194C31.4208 33.3279 29.1189 35.0406 26.4282 36.0216C27.0348 34.6047 27.5324 32.9542 27.9058 31.1637H23.8618C22.9131 35.0096 21.6066 37.0025 20.9844 37.0025C20.3623 37.0025 19.0558 35.0096 18.107 31.1637H14.0631C14.4364 32.9542 14.9341 34.6047 15.5563 36.0216C12.8655 35.0406 10.5636 33.3279 8.79049 31.1637H4Z" fill="#00CC0A"/>
<path fill-rule="evenodd" clip-rule="evenodd" d="M33.3958 27.0065C36.2732 27.0065 37.8595 25.465 37.8595 23.7522H37.8441C37.8441 21.5798 35.7455 21.0384 33.9387 20.5723C32.5728 20.22 31.3737 19.9105 31.3737 18.9721C31.3737 18.0846 32.1203 17.6642 33.1157 17.6953C34.2045 17.7109 34.8733 18.2714 34.9199 18.9876H37.704C37.5485 17.0258 35.8065 15.8892 33.1935 15.8892C30.5805 15.8892 28.7452 17.0725 28.7452 19.0344C28.7365 21.2466 30.7992 21.7612 32.6004 22.2106C33.9939 22.5583 35.231 22.8668 35.231 23.8925C35.231 24.671 34.5 25.2159 33.3336 25.2159C32.167 25.2159 31.4982 24.6398 31.4205 23.7678H28.7141C28.7452 25.8232 30.7828 27.0065 33.3958 27.0065ZM24.0171 16.0293H26.5523V26.8975H24.0171L18.2934 19.4548V26.8975H15.7581V16.0293H18.2934L24.0171 23.4876V16.0293ZM11.1698 23.69C11.1698 22.7558 10.3922 22.1953 9.16344 22.1953H6.67488V25.1224H9.22565C10.4544 25.1224 11.1698 24.6087 11.1698 23.69ZM10.8743 19.1745C10.8743 18.3026 10.19 17.8044 8.99235 17.8044H6.67488V20.5291H8.99235C10.19 20.5291 10.8743 20.0621 10.8743 19.1745ZM13.7362 23.9546C13.7362 25.683 12.1964 26.8975 9.58339 26.8975H4.13965V16.0449H9.35008C11.9942 16.0449 13.4562 17.2282 13.4562 18.8476C13.4562 20.171 12.5386 20.9963 11.3098 21.3388C12.7407 21.5569 13.7517 22.6935 13.7517 23.9702L13.7362 23.9546Z" fill="#0094FF"/>
</svg>
