<svg width="42" height="42" viewBox="0 0 42 42" fill="none" xmlns="http://www.w3.org/2000/svg">
<g clip-path="url(#clip0_1389_232)">
<path d="M9.89172 20.3144V20.5949L9.90211 20.0688C9.89172 20.1505 9.89172 20.2269 9.89172 20.3144Z" fill="#0A0A0A"/>
<path d="M29.9997 14.5273L30.01 15.0541V24.4441C30.01 24.7509 29.9496 25.0547 29.8322 25.3381C29.7147 25.6216 29.5426 25.8791 29.3256 26.096C29.1087 26.3129 28.8511 26.485 28.5676 26.6023C28.2841 26.7197 27.9803 26.78 27.6735 26.7799H24.4347V23.6724H25.6048C25.7683 23.6728 25.9303 23.641 26.0814 23.5788C26.2326 23.5166 26.37 23.4252 26.4858 23.3098C26.6017 23.1945 26.6936 23.0574 26.7565 22.9065C26.8193 22.7556 26.8518 22.5938 26.8521 22.4303V16.7867C26.8523 16.6228 26.8202 16.4606 26.7576 16.3092C26.695 16.1577 26.6031 16.0202 26.4872 15.9043C26.3714 15.7884 26.2338 15.6966 26.0824 15.634C25.931 15.5713 25.7687 15.5392 25.6048 15.5394H19.8544C19.6906 15.5392 19.5283 15.5713 19.3769 15.634C19.2254 15.6966 19.0879 15.7884 18.972 15.9043C18.8561 16.0202 18.7643 16.1577 18.7017 16.3092C18.639 16.4606 18.6069 16.6228 18.6071 16.7867V22.4303C18.6074 22.5938 18.6399 22.7556 18.7028 22.9065C18.7656 23.0574 18.8576 23.1945 18.9734 23.3098C19.0892 23.4252 19.2267 23.5166 19.3778 23.5788C19.529 23.641 19.6909 23.6728 19.8544 23.6724H21.2909V26.7799H17.7961C17.4893 26.78 17.1856 26.7197 16.9021 26.6023C16.6187 26.4849 16.3612 26.3129 16.1442 26.096C15.9273 25.8791 15.7553 25.6215 15.6379 25.3381C15.5206 25.0547 15.4602 24.7509 15.4603 24.4441V14.7729C15.4602 14.4662 15.5206 14.1624 15.6379 13.8789C15.7553 13.5955 15.9273 13.338 16.1442 13.121C16.3612 12.9041 16.6187 12.7321 16.9021 12.6147C17.1856 12.4974 17.4893 12.437 17.7961 12.4371H26.45L30.0279 7.1875L29.9997 14.5273Z" fill="#1574AD"/>
<path d="M25.6168 23.6723H19.3151V26.7798H25.0247C25.5112 26.7794 25.9777 26.5859 26.3218 26.2419C26.6658 25.8978 26.8592 25.4313 26.8596 24.9448V22.4302C26.8592 22.7596 26.7281 23.0754 26.4951 23.3083C26.2621 23.5412 25.9462 23.6721 25.6168 23.6723Z" fill="url(#paint0_linear_1389_232)"/>
<path d="M22.1049 17.9776H18.6086V21.0859H20.0451C20.2086 21.0855 20.3705 21.1173 20.5217 21.1795C20.6729 21.2417 20.8103 21.3331 20.9261 21.4485C21.042 21.5638 21.1339 21.7009 21.1968 21.8518C21.2596 22.0027 21.2921 22.1645 21.2924 22.328V27.9671C21.2926 28.131 21.2605 28.2933 21.1979 28.4447C21.1353 28.5961 21.0434 28.7337 20.9275 28.8495C20.8117 28.9654 20.6741 29.0573 20.5227 29.1199C20.3713 29.1825 20.209 29.2146 20.0451 29.2144H14.2843C14.1205 29.2146 13.9582 29.1825 13.8068 29.1199C13.6553 29.0573 13.5178 28.9654 13.4019 28.8495C13.286 28.7337 13.1942 28.5961 13.1316 28.4447C13.069 28.2933 13.0368 28.131 13.037 27.9671V22.328C13.0373 22.1645 13.0698 22.0027 13.1327 21.8518C13.1955 21.7009 13.2875 21.5638 13.4033 21.4485C13.5191 21.3331 13.6566 21.2417 13.8077 21.1795C13.9589 21.1173 14.1208 21.0855 14.2843 21.0859H15.4567V17.9776H13.4533L9.87317 12.728L9.89914 20.0686L9.89172 20.5947V29.9846C9.89162 30.2914 9.95197 30.5952 10.0693 30.8787C10.1866 31.1622 10.3587 31.4198 10.5756 31.6368C10.7925 31.8537 11.05 32.0259 11.3335 32.1433C11.6169 32.2607 11.9207 32.3212 12.2275 32.3212H22.1101C22.4169 32.3212 22.7207 32.2607 23.0041 32.1433C23.2876 32.0259 23.5451 31.8537 23.762 31.6368C23.9789 31.4198 24.151 31.1622 24.2683 30.8787C24.3856 30.5952 24.446 30.2914 24.4459 29.9846V20.3142C24.4451 19.694 24.1981 19.0994 23.7591 18.6613C23.3201 18.2232 22.7251 17.9773 22.1049 17.9776Z" fill="#3EC745"/>
<path d="M13.0369 27.9657V24.8174H9.90418V26.7903C9.90398 27.1085 9.96651 27.4237 10.0882 27.7177C10.2099 28.0117 10.3883 28.2788 10.6133 28.5038C10.8383 28.7288 11.1054 28.9073 11.3995 29.029C11.6935 29.1506 12.0086 29.2132 12.3268 29.213H14.2842C13.9535 29.2126 13.6364 29.081 13.4026 28.8472C13.1688 28.6134 13.0373 28.2964 13.0369 27.9657Z" fill="url(#paint1_linear_1389_232)"/>
<path d="M24.4413 29.9846V24.8174H21.2923V27.7208C21.2923 27.7208 21.6907 32.316 18.6953 32.316H22.1085C22.4148 32.3163 22.7181 32.2562 23.0012 32.1392C23.2843 32.0221 23.5415 31.8504 23.7582 31.6339C23.9748 31.4174 24.1467 31.1603 24.2639 30.8773C24.3811 30.5943 24.4414 30.291 24.4413 29.9846Z" fill="url(#paint2_linear_1389_232)"/>
<path d="M19.8504 17.978H14.2839V21.0855H19.8504V17.978Z" fill="url(#paint3_linear_1389_232)"/>
<path d="M18.6093 17.978H15.4603V21.0855H18.6093V17.978Z" fill="#1574AD"/>
<path d="M18.6086 22.4255V16.8687H15.4603V21.5306C15.4611 22.0984 15.687 22.6427 16.0883 23.0442C16.4897 23.4457 17.034 23.6718 17.6017 23.6728H19.8559C19.692 23.6729 19.5298 23.6408 19.3783 23.5782C19.2269 23.5156 19.0893 23.4237 18.9735 23.3079C18.8576 23.192 18.7658 23.0544 18.7031 22.903C18.6405 22.7516 18.6084 22.5893 18.6086 22.4255Z" fill="url(#paint4_linear_1389_232)"/>
<path d="M20.5943 36.9862C17.1857 36.9868 13.8535 35.9765 11.0191 34.0831C8.1847 32.1896 5.97554 29.4981 4.67103 26.349C3.36651 23.1998 3.02526 19.7345 3.69042 16.3914C4.35559 13.0483 5.99729 9.97751 8.40788 7.56754C11.6397 4.33567 16.0231 2.52002 20.5936 2.52002C25.1641 2.52002 29.5475 4.33567 32.7793 7.56754C36.0112 10.7994 37.8268 15.1828 37.8268 19.7533C37.8268 24.3239 36.0112 28.7073 32.7793 31.9391C31.183 33.5444 29.2841 34.8171 27.1925 35.6834C25.1009 36.5498 22.8582 36.9926 20.5943 36.9862ZM20.5943 3.70916C11.7468 3.70916 4.54952 10.9065 4.54952 19.7541C4.54952 28.6016 11.7468 35.799 20.5943 35.799C29.4419 35.799 36.6392 28.6016 36.6392 19.7541C36.6392 10.9065 29.4419 3.70916 20.5943 3.70916Z" fill="#34AF3A"/>
<path d="M38.1832 33.6379C38.1266 33.5812 36.5634 31.9068 35.0024 30.8472C34.889 30.7906 34.7233 30.7361 34.61 30.8472C34.4988 30.9039 34.3876 31.0151 34.3876 31.183L34.3876 32.8007L27.6901 32.8007L27.6901 31.183C27.6901 31.0151 27.6334 30.9039 27.4677 30.8472C27.3544 30.7906 27.1887 30.7906 27.0753 30.8472C25.5143 31.9068 23.9511 33.5812 23.8944 33.6379C23.8399 33.6946 23.7832 33.8058 23.7832 33.8603C23.7832 33.9169 23.8399 34.0281 23.8944 34.0848C23.9511 34.1393 25.5143 35.8137 27.0753 36.8754C27.1887 36.9299 27.3544 36.9866 27.4677 36.8754C27.5789 36.8188 27.6901 36.6509 27.6901 36.5397L27.6901 35.0332L34.3876 35.0332L34.3876 36.6509C34.3876 36.8188 34.4443 36.9299 34.61 36.9866C34.7233 37.0433 34.889 37.0433 35.0024 36.9866C36.5634 35.9271 38.1266 34.2527 38.1832 34.196C38.2377 34.0848 38.2944 33.9736 38.2944 33.9169C38.2944 33.8603 38.2377 33.7491 38.1832 33.6379Z" fill="#00BE00"/>
<path fill-rule="evenodd" clip-rule="evenodd" d="M40.4786 31.997L40.6823 32.4127C40.683 32.4142 40.6843 32.4166 40.686 32.42C40.7028 32.4539 40.7652 32.5798 40.816 32.6979C40.8466 32.7692 40.8984 32.8946 40.9459 33.0499C40.9833 33.1719 41.0776 33.4967 41.0776 33.9168C41.0776 34.337 40.9833 34.6618 40.9459 34.7837C40.8984 34.939 40.8466 35.0645 40.816 35.1357C40.7652 35.2538 40.7028 35.3797 40.686 35.4136C40.6843 35.417 40.683 35.4195 40.6823 35.421L40.4786 35.8366L40.1513 36.1639C40.197 36.1182 38.4026 38.0424 36.5655 39.2894L36.4124 39.3932L36.247 39.4759C35.4089 39.895 34.404 39.9225 33.544 39.5584C33.0414 39.3551 32.479 38.9803 32.0757 38.3344C31.9664 38.1593 31.8819 37.9849 31.8168 37.8163L30.1904 37.8163C30.1018 38.0099 30.0094 38.1615 29.941 38.2648C29.7822 38.5045 29.5146 38.8403 29.1086 39.1273C28.3681 39.6828 27.5452 39.7628 26.9902 39.7065C26.4352 39.6501 26.0169 39.4547 25.8693 39.3837L25.6819 39.2936L25.5099 39.1767C23.6919 37.9401 21.8514 35.9815 21.9653 36.091L21.9259 36.0531L21.8881 36.0138C21.6126 35.7272 21.4354 35.4302 21.3289 35.2171L21.3268 35.2128C21.2627 35.0848 20.9999 34.5597 20.9999 33.8601C20.9999 33.1568 21.2672 32.6273 21.3286 32.5056L21.3322 32.4986C21.4371 32.2901 21.6132 31.9946 21.8881 31.7087L21.907 31.689L21.9263 31.6697C21.8806 31.7155 23.675 29.7913 25.5121 28.5443L25.6651 28.4404L25.8305 28.3577C26.6686 27.9387 27.6736 27.9112 28.5335 28.2753C29.0362 28.4786 29.5986 28.8534 30.0018 29.4992C30.1112 29.6744 30.1957 29.8488 30.2608 30.0173L31.8233 30.0173C32.0858 29.3631 32.542 28.8993 32.9554 28.6054C33.6899 28.048 34.5109 27.9589 35.0766 28.0141C35.6433 28.0694 36.0698 28.2691 36.247 28.3577L36.4124 28.4404L36.5655 28.5443C38.4026 29.7913 40.197 31.7155 40.1513 31.6697L40.4786 31.997ZM27.6901 31.1829C27.6901 31.015 27.6334 30.9038 27.4677 30.8471C27.3543 30.7905 27.1886 30.7905 27.0752 30.8471C26.9184 30.9536 26.7615 31.0663 26.6062 31.1829C26.1521 31.5237 25.7109 31.8982 25.3208 32.2498C25.2862 32.281 25.252 32.312 25.2183 32.3428C25.1097 32.4418 25.0056 32.5385 24.9068 32.6316C24.3961 33.1129 24.0274 33.4987 23.9229 33.6081C23.9076 33.6241 23.898 33.6342 23.8944 33.6378C23.8399 33.6945 23.7832 33.8056 23.7832 33.8601C23.7832 33.9168 23.8399 34.028 23.8944 34.0847C23.899 34.0891 23.9136 34.1043 23.9374 34.1291C24.0585 34.2549 24.4175 34.628 24.9068 35.0892C24.9996 35.1767 25.0971 35.2673 25.1986 35.3601C25.2789 35.4335 25.3618 35.5083 25.4468 35.5838C25.805 35.9023 26.2008 36.2343 26.607 36.5396C26.7621 36.6562 26.9187 36.7688 27.0752 36.8753C27.1886 36.9298 27.3543 36.9865 27.4677 36.8753C27.5789 36.8186 27.6901 36.6508 27.6901 36.5396L27.6901 35.0331L34.3875 35.0331L34.3875 36.6508C34.3875 36.8186 34.4442 36.9298 34.6099 36.9865C34.7233 37.0432 34.889 37.0432 35.0023 36.9865C35.1592 36.8801 35.316 36.7674 35.4714 36.6508C35.9255 36.31 36.3666 35.9355 36.7567 35.5838C36.7913 35.5526 36.8255 35.5216 36.8593 35.4908C36.9679 35.3919 37.072 35.2952 37.1708 35.202C37.6814 34.7207 38.0502 34.3349 38.1547 34.2256C38.17 34.2096 38.1796 34.1995 38.1832 34.1959C38.1869 34.1883 38.1906 34.1808 38.1943 34.1732C38.2451 34.0698 38.2944 33.9697 38.2944 33.9168C38.2944 33.864 38.2451 33.7638 38.1943 33.6604C38.1906 33.6529 38.1869 33.6453 38.1832 33.6378C38.1796 33.6342 38.17 33.6241 38.1547 33.6081C38.0502 33.4987 37.6814 33.1129 37.1708 32.6316C37.0762 32.5425 36.9768 32.4501 36.8733 32.3556C36.835 32.3206 36.7961 32.2853 36.7567 32.2498C36.3666 31.8982 35.9255 31.5237 35.4714 31.1829C35.316 31.0663 35.1592 30.9536 35.0023 30.8471C34.889 30.7905 34.7233 30.7359 34.6099 30.8471C34.4987 30.9038 34.3875 31.015 34.3875 31.1829L34.3875 32.8006L27.6901 32.8006L27.6901 31.1829Z" fill="#282836"/>
</g>
<defs>
<linearGradient id="paint0_linear_1389_232" x1="26.8589" y1="24.605" x2="19.3143" y2="24.605" gradientUnits="userSpaceOnUse">
<stop stop-opacity="0.3"/>
<stop offset="1" stop-color="#1574AD"/>
</linearGradient>
<linearGradient id="paint1_linear_1389_232" x1="12.0938" y1="29.2137" x2="12.0938" y2="24.8174" gradientUnits="userSpaceOnUse">
<stop stop-opacity="0.3"/>
<stop offset="0.07" stop-color="#071808" stop-opacity="0.35"/>
<stop offset="0.25" stop-color="#184D1B" stop-opacity="0.47"/>
<stop offset="0.42" stop-color="#26792A" stop-opacity="0.59"/>
<stop offset="0.58" stop-color="#309B36" stop-opacity="0.71"/>
<stop offset="0.74" stop-color="#38B33E" stop-opacity="0.82"/>
<stop offset="0.88" stop-color="#3CC243" stop-opacity="0.92"/>
<stop offset="1" stop-color="#3EC745"/>
</linearGradient>
<linearGradient id="paint2_linear_1389_232" x1="21.5683" y1="32.316" x2="21.5683" y2="24.8174" gradientUnits="userSpaceOnUse">
<stop stop-opacity="0.3"/>
<stop offset="0.23" stop-color="#123914" stop-opacity="0.46"/>
<stop offset="0.49" stop-color="#257529" stop-opacity="0.65"/>
<stop offset="0.72" stop-color="#32A238" stop-opacity="0.8"/>
<stop offset="0.9" stop-color="#3BBD41" stop-opacity="0.93"/>
<stop offset="1" stop-color="#3EC745"/>
</linearGradient>
<linearGradient id="paint3_linear_1389_232" x1="19.8504" y1="19.5325" x2="14.2839" y2="19.5325" gradientUnits="userSpaceOnUse">
<stop stop-color="#3EC745"/>
<stop offset="0.06" stop-color="#3AB940" stop-opacity="0.92"/>
<stop offset="0.16" stop-color="#2F9534" stop-opacity="0.78"/>
<stop offset="0.3" stop-color="#1C5B20" stop-opacity="0.58"/>
<stop offset="0.48" stop-color="#040B04" stop-opacity="0.33"/>
<stop offset="0.5" stop-opacity="0.3"/>
<stop offset="0.61" stop-color="#123914" stop-opacity="0.46"/>
<stop offset="0.75" stop-color="#257529" stop-opacity="0.65"/>
<stop offset="0.86" stop-color="#32A238" stop-opacity="0.8"/>
<stop offset="0.95" stop-color="#3BBD41" stop-opacity="0.93"/>
<stop offset="1" stop-color="#3EC745"/>
</linearGradient>
<linearGradient id="paint4_linear_1389_232" x1="17.6581" y1="23.6728" x2="17.6581" y2="16.8694" gradientUnits="userSpaceOnUse">
<stop stop-opacity="0.3"/>
<stop offset="0.18" stop-color="#062233" stop-opacity="0.43"/>
<stop offset="0.37" stop-color="#0B3F5F" stop-opacity="0.56"/>
<stop offset="0.55" stop-color="#105681" stop-opacity="0.68"/>
<stop offset="0.72" stop-color="#136799" stop-opacity="0.8"/>
<stop offset="0.87" stop-color="#1471A8" stop-opacity="0.91"/>
<stop offset="1" stop-color="#1574AD"/>
</linearGradient>
<clipPath id="clip0_1389_232">
<rect width="41.9998" height="42" fill="white"/>
</clipPath>
</defs>
</svg>
