<svg width="42" height="42" viewBox="0 0 42 42" fill="none" xmlns="http://www.w3.org/2000/svg">
<g clip-path="url(#clip0_1514_22)">
<path d="M9.8916 20.3144V20.5949L9.90199 20.0688C9.8916 20.1505 9.8916 20.2269 9.8916 20.3144Z" fill="#0A0A0A"/>
<path d="M30.0003 14.5273L30.0107 15.0541V24.4441C30.0107 24.7509 29.9502 25.0547 29.8328 25.3381C29.7154 25.6216 29.5432 25.8791 29.3263 26.096C29.1093 26.3129 28.8517 26.485 28.5682 26.6023C28.2847 26.7197 27.9809 26.78 27.6741 26.7799H24.4353V23.6724H25.6054C25.7689 23.6728 25.9309 23.641 26.082 23.5788C26.2332 23.5166 26.3706 23.4252 26.4864 23.3098C26.6023 23.1945 26.6942 23.0574 26.7571 22.9065C26.8199 22.7556 26.8524 22.5938 26.8527 22.4303V16.7867C26.8529 16.6228 26.8208 16.4606 26.7582 16.3092C26.6956 16.1577 26.6037 16.0202 26.4879 15.9043C26.372 15.7884 26.2344 15.6966 26.083 15.634C25.9316 15.5713 25.7693 15.5392 25.6054 15.5394H19.855C19.6912 15.5392 19.5289 15.5713 19.3775 15.634C19.226 15.6966 19.0885 15.7884 18.9726 15.9043C18.8568 16.0202 18.7649 16.1577 18.7023 16.3092C18.6397 16.4606 18.6075 16.6228 18.6077 16.7867V22.4303C18.608 22.5938 18.6405 22.7556 18.7034 22.9065C18.7662 23.0574 18.8582 23.1945 18.974 23.3098C19.0898 23.4252 19.2273 23.5166 19.3784 23.5788C19.5296 23.641 19.6915 23.6728 19.855 23.6724H21.2915V26.7799H17.7967C17.49 26.78 17.1862 26.7196 16.9027 26.6023C16.6193 26.4849 16.3618 26.3129 16.1449 26.096C15.9279 25.8791 15.7559 25.6215 15.6385 25.3381C15.5212 25.0547 15.4608 24.7509 15.4609 24.4441V14.7729C15.4608 14.4662 15.5212 14.1624 15.6385 13.8789C15.7559 13.5955 15.9279 13.338 16.1449 13.121C16.3618 12.9041 16.6193 12.7321 16.9027 12.6147C17.1862 12.4974 17.49 12.437 17.7967 12.4371H26.4506L30.0285 7.1875L30.0003 14.5273Z" fill="#1574AD"/>
<path d="M25.6172 23.6723H19.3154V26.7798H25.0251C25.5116 26.7794 25.9781 26.5859 26.3221 26.2419C26.6662 25.8978 26.8596 25.4313 26.86 24.9448V22.4302C26.8596 22.7596 26.7285 23.0754 26.4955 23.3083C26.2625 23.5412 25.9466 23.6721 25.6172 23.6723Z" fill="url(#paint0_linear_1514_22)"/>
<path d="M22.1048 17.9776H18.6085V21.0859H20.045C20.2085 21.0855 20.3704 21.1173 20.5216 21.1795C20.6728 21.2417 20.8102 21.3331 20.926 21.4485C21.0418 21.5638 21.1338 21.7009 21.1967 21.8518C21.2595 22.0027 21.292 22.1645 21.2923 22.328V27.9671C21.2925 28.131 21.2604 28.2933 21.1977 28.4447C21.1351 28.5961 21.0433 28.7337 20.9274 28.8495C20.8115 28.9654 20.674 29.0573 20.5226 29.1199C20.3711 29.1825 20.2089 29.2146 20.045 29.2144H14.2842C14.1203 29.2146 13.9581 29.1825 13.8066 29.1199C13.6552 29.0573 13.5176 28.9654 13.4018 28.8495C13.2859 28.7337 13.1941 28.5961 13.1314 28.4447C13.0688 28.2933 13.0367 28.131 13.0369 27.9671V22.328C13.0372 22.1645 13.0697 22.0027 13.1325 21.8518C13.1954 21.7009 13.2874 21.5638 13.4032 21.4485C13.519 21.3331 13.6564 21.2417 13.8076 21.1795C13.9588 21.1173 14.1207 21.0855 14.2842 21.0859H15.4565V17.9776H13.4532L9.87305 12.728L9.89902 20.0686L9.8916 20.5947V29.9846C9.8915 30.2914 9.95184 30.5953 10.0692 30.8787C10.1865 31.1622 10.3586 31.4198 10.5755 31.6368C10.7924 31.8537 11.0499 32.0259 11.3333 32.1433C11.6168 32.2607 11.9206 32.3212 12.2274 32.3212H22.11C22.4168 32.3212 22.7206 32.2607 23.004 32.1433C23.2874 32.0259 23.545 31.8537 23.7619 31.6368C23.9788 31.4198 24.1508 31.1622 24.2682 30.8787C24.3855 30.5953 24.4459 30.2914 24.4458 29.9846V20.3142C24.445 19.694 24.1979 19.0994 23.759 18.6613C23.32 18.2232 22.725 17.9773 22.1048 17.9776Z" fill="#3EC745"/>
<path d="M13.037 27.9657V24.8174H9.9043V26.7903C9.9041 27.1085 9.96663 27.4237 10.0883 27.7177C10.21 28.0117 10.3884 28.2788 10.6134 28.5038C10.8384 28.7288 11.1056 28.9073 11.3996 29.029C11.6936 29.1506 12.0087 29.2132 12.3269 29.213H14.2843C13.9536 29.2126 13.6366 29.081 13.4027 28.8472C13.1689 28.6134 13.0374 28.2964 13.037 27.9657Z" fill="url(#paint1_linear_1514_22)"/>
<path d="M24.4413 29.9846V24.8174H21.2923V27.7208C21.2923 27.7208 21.6907 32.316 18.6953 32.316H22.1085C22.4148 32.3163 22.7181 32.2562 23.0012 32.1392C23.2843 32.0221 23.5415 31.8504 23.7582 31.6339C23.9748 31.4174 24.1467 31.1603 24.2639 30.8773C24.3811 30.5943 24.4414 30.291 24.4413 29.9846Z" fill="url(#paint2_linear_1514_22)"/>
<path d="M19.8506 17.978H14.2842V21.0855H19.8506V17.978Z" fill="url(#paint3_linear_1514_22)"/>
<path d="M18.6099 17.978H15.4609V21.0855H18.6099V17.978Z" fill="#1574AD"/>
<path d="M18.6092 22.4255V16.8687H15.4609V21.5306C15.4617 22.0984 15.6876 22.6427 16.089 23.0442C16.4904 23.4457 17.0346 23.6718 17.6023 23.6728H19.8565C19.6926 23.6729 19.5304 23.6408 19.3789 23.5782C19.2275 23.5156 19.09 23.4237 18.9741 23.3079C18.8582 23.192 18.7664 23.0544 18.7038 22.903C18.6411 22.7516 18.609 22.5893 18.6092 22.4255Z" fill="url(#paint4_linear_1514_22)"/>
<path d="M20.5946 36.9862C17.186 36.9868 13.8537 35.9765 11.0193 34.0831C8.18495 32.1896 5.97578 29.4981 4.67127 26.349C3.36676 23.1998 3.0255 19.7345 3.69067 16.3914C4.35583 13.0483 5.99754 9.97751 8.40812 7.56754C11.64 4.33567 16.0233 2.52002 20.5938 2.52002C25.1644 2.52002 29.5477 4.33567 32.7796 7.56754C36.0114 10.7994 37.8271 15.1828 37.8271 19.7533C37.8271 24.3239 36.0114 28.7073 32.7796 31.9391C31.1832 33.5444 29.2843 34.8171 27.1927 35.6834C25.1011 36.5498 22.8585 36.9926 20.5946 36.9862ZM20.5946 3.70916C11.7471 3.70916 4.54976 10.9065 4.54976 19.7541C4.54976 28.6016 11.7471 35.799 20.5946 35.799C29.4421 35.799 36.6394 28.6016 36.6394 19.7541C36.6394 10.9065 29.4421 3.70916 20.5946 3.70916Z" fill="#34AF3A"/>
<path d="M38.1837 33.6379C38.127 33.5812 36.5639 31.9068 35.0029 30.8472C34.8895 30.7906 34.7238 30.7361 34.6104 30.8472C34.4993 30.9039 34.3881 31.0151 34.3881 31.183L34.3881 32.8007L27.6906 32.8007L27.6906 31.183C27.6906 31.0151 27.6339 30.9039 27.4682 30.8472C27.3548 30.7906 27.1892 30.7906 27.0758 30.8472C25.5148 31.9068 23.9516 33.5812 23.8949 33.6379C23.8404 33.6946 23.7837 33.8058 23.7837 33.8603C23.7837 33.9169 23.8404 34.0281 23.8949 34.0848C23.9516 34.1393 25.5148 35.8137 27.0758 36.8754C27.1892 36.9299 27.3548 36.9866 27.4682 36.8754C27.5794 36.8188 27.6906 36.6509 27.6906 36.5397L27.6906 35.0332L34.3881 35.0332L34.3881 36.6509C34.3881 36.8188 34.4447 36.9299 34.6104 36.9866C34.7238 37.0433 34.8895 37.0433 35.0029 36.9866C36.5639 35.9271 38.127 34.2527 38.1837 34.196C38.2382 34.0848 38.2949 33.9736 38.2949 33.9169C38.2949 33.8603 38.2382 33.7491 38.1837 33.6379Z" fill="#00BE00"/>
<path fill-rule="evenodd" clip-rule="evenodd" d="M40.4791 31.997L40.6828 32.4127C40.6835 32.4142 40.6848 32.4166 40.6865 32.42C40.7033 32.4539 40.7657 32.5798 40.8165 32.6979C40.8471 32.7692 40.8989 32.8946 40.9464 33.0499C40.9838 33.1719 41.0781 33.4967 41.0781 33.9168C41.0781 34.337 40.9838 34.6618 40.9464 34.7837C40.8989 34.939 40.8471 35.0645 40.8165 35.1357C40.7657 35.2538 40.7033 35.3797 40.6865 35.4136C40.6848 35.417 40.6835 35.4195 40.6828 35.421L40.4791 35.8366L40.1517 36.1639C40.1975 36.1182 38.4031 38.0424 36.5659 39.2894L36.4129 39.3932L36.2475 39.4759C35.4094 39.895 34.4045 39.9225 33.5445 39.5584C33.0419 39.3551 32.4795 38.9803 32.0762 38.3344C31.9668 38.1593 31.8824 37.9849 31.8173 37.8163L30.1909 37.8163C30.1023 38.0099 30.0099 38.1615 29.9415 38.2648C29.7827 38.5045 29.5151 38.8403 29.1091 39.1273C28.3686 39.6828 27.5457 39.7628 26.9907 39.7065C26.4357 39.6501 26.0174 39.4547 25.8698 39.3837L25.6824 39.2936L25.5104 39.1767C23.6924 37.9401 21.8519 35.9815 21.9658 36.091L21.9264 36.0531L21.8886 36.0138C21.6131 35.7272 21.4359 35.4302 21.3294 35.2171L21.3273 35.2128C21.2632 35.0848 21.0004 34.5597 21.0004 33.8601C21.0004 33.1568 21.2677 32.6273 21.3291 32.5056L21.3327 32.4986C21.4376 32.2901 21.6137 31.9946 21.8886 31.7087L21.9075 31.689L21.9268 31.6697C21.8811 31.7155 23.6755 29.7913 25.5126 28.5443L25.6656 28.4404L25.831 28.3577C26.6691 27.9387 27.674 27.9112 28.534 28.2753C29.0367 28.4786 29.5991 28.8534 30.0023 29.4992C30.1117 29.6744 30.1962 29.8488 30.2613 30.0173L31.8238 30.0173C32.0862 29.3631 32.5425 28.8993 32.9559 28.6054C33.6904 28.048 34.5114 27.9589 35.0771 28.0141C35.6438 28.0694 36.0703 28.2691 36.2475 28.3577L36.4129 28.4404L36.5659 28.5443C38.4031 29.7913 40.1975 31.7155 40.1517 31.6697L40.4791 31.997ZM27.6905 31.1829C27.6905 31.015 27.6339 30.9038 27.4682 30.8471C27.3548 30.7905 27.1891 30.7905 27.0757 30.8471C26.9189 30.9536 26.762 31.0663 26.6067 31.1829C26.1526 31.5237 25.7114 31.8982 25.3213 32.2498C25.2867 32.281 25.2525 32.312 25.2188 32.3428C25.1102 32.4418 25.0061 32.5385 24.9073 32.6316C24.3966 33.1129 24.0279 33.4987 23.9234 33.6081C23.9081 33.6241 23.8985 33.6342 23.8949 33.6378C23.8404 33.6945 23.7837 33.8056 23.7837 33.8601C23.7837 33.9168 23.8404 34.028 23.8949 34.0847C23.8995 34.0891 23.9141 34.1043 23.9379 34.1291C24.059 34.2549 24.418 34.628 24.9073 35.0892C25.0001 35.1767 25.0976 35.2673 25.1991 35.3601C25.2794 35.4335 25.3623 35.5083 25.4473 35.5838C25.8055 35.9023 26.2013 36.2343 26.6074 36.5396C26.7625 36.6562 26.9192 36.7688 27.0757 36.8753C27.1891 36.9298 27.3548 36.9865 27.4682 36.8753C27.5794 36.8186 27.6905 36.6508 27.6905 36.5396L27.6905 35.0331L34.388 35.0331L34.388 36.6508C34.388 36.8186 34.4447 36.9298 34.6104 36.9865C34.7238 37.0432 34.8894 37.0432 35.0028 36.9865C35.1597 36.8801 35.3165 36.7674 35.4719 36.6508C35.926 36.31 36.3671 35.9355 36.7572 35.5838C36.7918 35.5526 36.826 35.5216 36.8598 35.4908C36.9683 35.3919 37.0725 35.2952 37.1713 35.202C37.6819 34.7207 38.0506 34.3349 38.1552 34.2256C38.1705 34.2096 38.1801 34.1995 38.1837 34.1959C38.1874 34.1883 38.1911 34.1808 38.1948 34.1732C38.2456 34.0698 38.2949 33.9697 38.2949 33.9168C38.2949 33.864 38.2456 33.7638 38.1948 33.6604C38.1911 33.6529 38.1874 33.6453 38.1837 33.6378C38.1801 33.6342 38.1705 33.6241 38.1552 33.6081C38.0506 33.4987 37.6819 33.1129 37.1713 32.6316C37.0767 32.5425 36.9773 32.4501 36.8738 32.3556C36.8355 32.3206 36.7966 32.2853 36.7572 32.2498C36.3671 31.8982 35.926 31.5237 35.4719 31.1829C35.3165 31.0663 35.1597 30.9536 35.0028 30.8471C34.8895 30.7905 34.7238 30.7359 34.6104 30.8471C34.4992 30.9038 34.388 31.015 34.388 31.1829L34.388 32.8006L27.6905 32.8006L27.6905 31.1829Z" fill="#F3F3F3"/>
</g>
<defs>
<linearGradient id="paint0_linear_1514_22" x1="26.8593" y1="24.605" x2="19.3147" y2="24.605" gradientUnits="userSpaceOnUse">
<stop stop-opacity="0.3"/>
<stop offset="1" stop-color="#1574AD"/>
</linearGradient>
<linearGradient id="paint1_linear_1514_22" x1="12.0939" y1="29.2137" x2="12.0939" y2="24.8174" gradientUnits="userSpaceOnUse">
<stop stop-opacity="0.3"/>
<stop offset="0.07" stop-color="#071808" stop-opacity="0.35"/>
<stop offset="0.25" stop-color="#184D1B" stop-opacity="0.47"/>
<stop offset="0.42" stop-color="#26792A" stop-opacity="0.59"/>
<stop offset="0.58" stop-color="#309B36" stop-opacity="0.71"/>
<stop offset="0.74" stop-color="#38B33E" stop-opacity="0.82"/>
<stop offset="0.88" stop-color="#3CC243" stop-opacity="0.92"/>
<stop offset="1" stop-color="#3EC745"/>
</linearGradient>
<linearGradient id="paint2_linear_1514_22" x1="21.5683" y1="32.316" x2="21.5683" y2="24.8174" gradientUnits="userSpaceOnUse">
<stop stop-opacity="0.3"/>
<stop offset="0.23" stop-color="#123914" stop-opacity="0.46"/>
<stop offset="0.49" stop-color="#257529" stop-opacity="0.65"/>
<stop offset="0.72" stop-color="#32A238" stop-opacity="0.8"/>
<stop offset="0.9" stop-color="#3BBD41" stop-opacity="0.93"/>
<stop offset="1" stop-color="#3EC745"/>
</linearGradient>
<linearGradient id="paint3_linear_1514_22" x1="19.8506" y1="19.5325" x2="14.2842" y2="19.5325" gradientUnits="userSpaceOnUse">
<stop stop-color="#3EC745"/>
<stop offset="0.06" stop-color="#3AB940" stop-opacity="0.92"/>
<stop offset="0.16" stop-color="#2F9534" stop-opacity="0.78"/>
<stop offset="0.3" stop-color="#1C5B20" stop-opacity="0.58"/>
<stop offset="0.48" stop-color="#040B04" stop-opacity="0.33"/>
<stop offset="0.5" stop-opacity="0.3"/>
<stop offset="0.61" stop-color="#123914" stop-opacity="0.46"/>
<stop offset="0.75" stop-color="#257529" stop-opacity="0.65"/>
<stop offset="0.86" stop-color="#32A238" stop-opacity="0.8"/>
<stop offset="0.95" stop-color="#3BBD41" stop-opacity="0.93"/>
<stop offset="1" stop-color="#3EC745"/>
</linearGradient>
<linearGradient id="paint4_linear_1514_22" x1="17.6587" y1="23.6728" x2="17.6587" y2="16.8694" gradientUnits="userSpaceOnUse">
<stop stop-opacity="0.3"/>
<stop offset="0.18" stop-color="#062233" stop-opacity="0.43"/>
<stop offset="0.37" stop-color="#0B3F5F" stop-opacity="0.56"/>
<stop offset="0.55" stop-color="#105681" stop-opacity="0.68"/>
<stop offset="0.72" stop-color="#136799" stop-opacity="0.8"/>
<stop offset="0.87" stop-color="#1471A8" stop-opacity="0.91"/>
<stop offset="1" stop-color="#1574AD"/>
</linearGradient>
<clipPath id="clip0_1514_22">
<rect width="41.9998" height="42" fill="white"/>
</clipPath>
</defs>
</svg>
