<svg width="42" height="42" viewBox="0 0 42 42" fill="none" xmlns="http://www.w3.org/2000/svg">
<g clip-path="url(#clip0_8_324)">
<path d="M9.89185 20.3141V20.5946L9.90223 20.0685C9.89185 20.1501 9.89185 20.2265 9.89185 20.3141Z" fill="#0A0A0A"/>
<path d="M29.9998 14.5273L30.0102 15.0541V24.4441C30.0102 24.7509 29.9497 25.0547 29.8323 25.3381C29.7149 25.6216 29.5427 25.8791 29.3258 26.096C29.1088 26.3129 28.8512 26.485 28.5677 26.6023C28.2843 26.7197 27.9804 26.78 27.6736 26.7799H24.4348V23.6724H25.605C25.7684 23.6728 25.9304 23.641 26.0815 23.5788C26.2327 23.5166 26.3701 23.4252 26.486 23.3098C26.6018 23.1945 26.6938 23.0574 26.7566 22.9065C26.8195 22.7556 26.852 22.5938 26.8522 22.4303V16.7867C26.8524 16.6228 26.8203 16.4606 26.7577 16.3092C26.6951 16.1577 26.6032 16.0202 26.4874 15.9043C26.3715 15.7884 26.2339 15.6966 26.0825 15.634C25.9311 15.5713 25.7688 15.5392 25.605 15.5394H19.8545C19.6907 15.5392 19.5284 15.5713 19.377 15.634C19.2256 15.6966 19.088 15.7884 18.9721 15.9043C18.8563 16.0202 18.7644 16.1577 18.7018 16.3092C18.6392 16.4606 18.607 16.6228 18.6072 16.7867V22.4303C18.6075 22.5938 18.64 22.7556 18.7029 22.9065C18.7657 23.0574 18.8577 23.1945 18.9735 23.3098C19.0894 23.4252 19.2268 23.5166 19.3779 23.5788C19.5291 23.641 19.6911 23.6728 19.8545 23.6724H21.291V26.7799H17.7962C17.4895 26.78 17.1857 26.7196 16.9023 26.6023C16.6188 26.4849 16.3613 26.3129 16.1444 26.096C15.9275 25.8791 15.7554 25.6215 15.6381 25.3381C15.5207 25.0547 15.4604 24.7509 15.4604 24.4441V14.7729C15.4604 14.4662 15.5207 14.1624 15.6381 13.8789C15.7554 13.5955 15.9275 13.338 16.1444 13.121C16.3613 12.9041 16.6188 12.7321 16.9023 12.6147C17.1857 12.4974 17.4895 12.437 17.7962 12.4371H26.4501L30.028 7.1875L29.9998 14.5273Z" fill="#1574AD"/>
<path d="M25.6167 23.6723H19.3149V26.7798H25.0246C25.5111 26.7794 25.9776 26.5859 26.3216 26.2419C26.6657 25.8978 26.8591 25.4313 26.8595 24.9448V22.4302C26.8591 22.7596 26.728 23.0754 26.495 23.3083C26.262 23.5412 25.9461 23.6721 25.6167 23.6723Z" fill="url(#paint0_linear_8_324)"/>
<path d="M22.105 17.9775H18.6088V21.0857H20.0453C20.2087 21.0854 20.3707 21.1172 20.5218 21.1794C20.673 21.2416 20.8104 21.333 20.9263 21.4484C21.0421 21.5637 21.1341 21.7008 21.1969 21.8517C21.2597 22.0026 21.2922 22.1644 21.2925 22.3278V27.967C21.2927 28.1309 21.2606 28.2932 21.198 28.4446C21.1354 28.596 21.0435 28.7336 20.9277 28.8494C20.8118 28.9653 20.6742 29.0572 20.5228 29.1198C20.3714 29.1824 20.2091 29.2145 20.0453 29.2143H14.2844C14.1206 29.2145 13.9583 29.1824 13.8069 29.1198C13.6555 29.0572 13.5179 28.9653 13.402 28.8494C13.2862 28.7336 13.1943 28.596 13.1317 28.4446C13.0691 28.2932 13.0369 28.1309 13.0371 27.967V22.3278C13.0374 22.1644 13.0699 22.0026 13.1328 21.8517C13.1956 21.7008 13.2876 21.5637 13.4034 21.4484C13.5193 21.333 13.6567 21.2416 13.8079 21.1794C13.959 21.1172 14.121 21.0854 14.2844 21.0857H15.4568V17.9775H13.4534L9.87329 12.7279L9.89926 20.0685L9.89184 20.5945V29.9845C9.89174 30.2913 9.95209 30.5951 10.0694 30.8786C10.1868 31.1621 10.3588 31.4197 10.5757 31.6366C10.7926 31.8536 11.0502 32.0257 11.3336 32.1432C11.617 32.2606 11.9208 32.3211 12.2276 32.3211H22.1102C22.417 32.3211 22.7208 32.2606 23.0043 32.1432C23.2877 32.0257 23.5452 31.8536 23.7621 31.6366C23.979 31.4197 24.1511 31.1621 24.2684 30.8786C24.3858 30.5951 24.4461 30.2913 24.446 29.9845V20.3141C24.4452 19.6939 24.1982 19.0993 23.7592 18.6612C23.3202 18.223 22.7252 17.9771 22.105 17.9775Z" fill="#3EC745"/>
<path d="M13.0367 27.9655V24.8173H9.90405V26.7902C9.90386 27.1084 9.96639 27.4235 10.0881 27.7176C10.2097 28.0116 10.3882 28.2787 10.6132 28.5037C10.8382 28.7287 11.1053 28.9072 11.3993 29.0288C11.6933 29.1505 12.0085 29.213 12.3267 29.2128H14.284C13.9533 29.2125 13.6363 29.0809 13.4025 28.8471C13.1687 28.6133 13.0371 28.2962 13.0367 27.9655Z" fill="url(#paint1_linear_8_324)"/>
<path d="M24.4413 29.9844V24.8171H21.2923V27.7206C21.2923 27.7206 21.6907 32.3158 18.6953 32.3158H22.1085C22.4148 32.316 22.7181 32.256 23.0012 32.1389C23.2843 32.0219 23.5415 31.8502 23.7582 31.6337C23.9748 31.4171 24.1467 31.16 24.2639 30.877C24.3811 30.594 24.4414 30.2907 24.4413 29.9844Z" fill="url(#paint2_linear_8_324)"/>
<path d="M19.8504 17.9775H14.2839V21.085H19.8504V17.9775Z" fill="url(#paint3_linear_8_324)"/>
<path d="M18.6095 17.9775H15.4604V21.085H18.6095V17.9775Z" fill="#1574AD"/>
<path d="M18.6087 22.4251V16.8683H15.4604V21.5302C15.4612 22.098 15.6871 22.6423 16.0885 23.0438C16.4899 23.4454 17.0341 23.6714 17.6018 23.6724H19.856C19.6922 23.6726 19.5299 23.6405 19.3785 23.5778C19.227 23.5152 19.0895 23.4234 18.9736 23.3075C18.8577 23.1916 18.7659 23.0541 18.7033 22.9026C18.6407 22.7512 18.6085 22.5889 18.6087 22.4251Z" fill="url(#paint4_linear_8_324)"/>
<path d="M20.5943 36.9859C17.1857 36.9866 13.8535 35.9763 11.0191 34.0828C8.1847 32.1894 5.97554 29.4979 4.67103 26.3487C3.36651 23.1996 3.02526 19.7343 3.69042 16.3911C4.35559 13.048 5.99729 9.97726 8.40788 7.5673C11.6397 4.33542 16.0231 2.51978 20.5936 2.51978C25.1641 2.51978 29.5475 4.33542 32.7793 7.5673C36.0112 10.7992 37.8268 15.1825 37.8268 19.7531C37.8268 24.3237 36.0112 28.707 32.7793 31.9389C31.183 33.5442 29.2841 34.8168 27.1925 35.6832C25.1009 36.5495 22.8582 36.9923 20.5943 36.9859ZM20.5943 3.70892C11.7468 3.70892 4.54952 10.9063 4.54952 19.7538C4.54952 28.6014 11.7468 35.7988 20.5943 35.7988C29.4419 35.7988 36.6392 28.6014 36.6392 19.7538C36.6392 10.9063 29.4419 3.70892 20.5943 3.70892Z" fill="#34AF3A"/>
<path d="M39.7768 32.3735L39.6749 32.1657L39.5113 32.002C39.5239 32.0146 39.0659 31.5286 38.4547 30.9534C37.8398 30.3747 36.9972 29.634 36.1279 29.044L36.0514 28.992L35.9687 28.9507C35.8518 28.8922 35.6036 28.7785 35.2854 28.7474C34.974 28.717 34.5367 28.7658 34.1453 29.0593C33.7768 29.3045 33.3399 29.7814 33.3399 30.5311L33.3399 30.7572L29.4257 30.7572L29.4257 30.5311C29.4257 30.3063 29.3904 29.9448 29.1655 29.5845C28.9448 29.2312 28.6336 29.0233 28.3437 28.9087C27.8556 28.699 27.2724 28.713 26.7969 28.9507L26.7142 28.992L26.6377 29.044C25.7685 29.634 24.9259 30.3747 24.311 30.9534C23.6998 31.5286 23.2418 32.0146 23.2544 32.002L23.2448 32.0116L23.2353 32.0215C23.0842 32.1786 22.9823 32.3474 22.9193 32.4724L22.9188 32.4734C22.8807 32.5492 22.7356 32.8374 22.7356 33.2084C22.7356 33.5764 22.8771 33.862 22.9177 33.943C22.9814 34.0705 23.0839 34.24 23.2353 34.3975L23.2542 34.4172L23.2739 34.4361C23.2453 34.4086 24.9471 36.2251 26.6366 37.3743L26.7226 37.4327L26.8163 37.4778C26.9184 37.5269 27.1625 37.6385 27.4749 37.6702C27.7847 37.7017 28.2299 37.6561 28.628 37.3539C28.8646 37.192 29.026 36.9938 29.1248 36.8446C29.2365 36.676 29.4257 36.3336 29.4257 35.8878L29.4257 35.773L33.3399 35.773L33.3399 35.999C33.3399 36.2239 33.3753 36.5854 33.6002 36.9456C33.8208 37.299 34.1321 37.5068 34.422 37.6214C34.9101 37.8312 35.4933 37.8172 35.9687 37.5795L36.0514 37.5381L36.1279 37.4862C36.9972 36.8962 37.8398 36.1555 38.4547 35.5768C39.0659 35.0015 39.5239 34.5156 39.5113 34.5282L39.6749 34.3645L39.7768 34.1567C39.7789 34.1523 39.7815 34.147 39.7845 34.141C39.8061 34.0973 39.8479 34.0126 39.8816 33.9341C39.9022 33.8863 39.9325 33.8122 39.9593 33.7245C39.9811 33.6534 40.0301 33.4823 40.0301 33.2651C40.0301 33.0479 39.9811 32.8767 39.9593 32.8057C39.9325 32.718 39.9022 32.6439 39.8816 32.5961C39.8479 32.5176 39.8061 32.4329 39.7845 32.3892C39.7815 32.3831 39.7789 32.3778 39.7768 32.3735Z" fill="#00BE00" stroke="#282836" stroke-width="2.78326"/>
</g>
<defs>
<linearGradient id="paint0_linear_8_324" x1="26.8588" y1="24.605" x2="19.3142" y2="24.605" gradientUnits="userSpaceOnUse">
<stop stop-opacity="0.3"/>
<stop offset="1" stop-color="#1574AD"/>
</linearGradient>
<linearGradient id="paint1_linear_8_324" x1="12.0937" y1="29.2136" x2="12.0937" y2="24.8173" gradientUnits="userSpaceOnUse">
<stop stop-opacity="0.3"/>
<stop offset="0.07" stop-color="#071808" stop-opacity="0.35"/>
<stop offset="0.25" stop-color="#184D1B" stop-opacity="0.47"/>
<stop offset="0.42" stop-color="#26792A" stop-opacity="0.59"/>
<stop offset="0.58" stop-color="#309B36" stop-opacity="0.71"/>
<stop offset="0.74" stop-color="#38B33E" stop-opacity="0.82"/>
<stop offset="0.88" stop-color="#3CC243" stop-opacity="0.92"/>
<stop offset="1" stop-color="#3EC745"/>
</linearGradient>
<linearGradient id="paint2_linear_8_324" x1="21.5683" y1="32.3158" x2="21.5683" y2="24.8171" gradientUnits="userSpaceOnUse">
<stop stop-opacity="0.3"/>
<stop offset="0.23" stop-color="#123914" stop-opacity="0.46"/>
<stop offset="0.49" stop-color="#257529" stop-opacity="0.65"/>
<stop offset="0.72" stop-color="#32A238" stop-opacity="0.8"/>
<stop offset="0.9" stop-color="#3BBD41" stop-opacity="0.93"/>
<stop offset="1" stop-color="#3EC745"/>
</linearGradient>
<linearGradient id="paint3_linear_8_324" x1="19.8504" y1="19.532" x2="14.2839" y2="19.532" gradientUnits="userSpaceOnUse">
<stop stop-color="#3EC745"/>
<stop offset="0.06" stop-color="#3AB940" stop-opacity="0.92"/>
<stop offset="0.16" stop-color="#2F9534" stop-opacity="0.78"/>
<stop offset="0.3" stop-color="#1C5B20" stop-opacity="0.58"/>
<stop offset="0.48" stop-color="#040B04" stop-opacity="0.33"/>
<stop offset="0.5" stop-opacity="0.3"/>
<stop offset="0.61" stop-color="#123914" stop-opacity="0.46"/>
<stop offset="0.75" stop-color="#257529" stop-opacity="0.65"/>
<stop offset="0.86" stop-color="#32A238" stop-opacity="0.8"/>
<stop offset="0.95" stop-color="#3BBD41" stop-opacity="0.93"/>
<stop offset="1" stop-color="#3EC745"/>
</linearGradient>
<linearGradient id="paint4_linear_8_324" x1="17.6582" y1="23.6724" x2="17.6582" y2="16.869" gradientUnits="userSpaceOnUse">
<stop stop-opacity="0.3"/>
<stop offset="0.18" stop-color="#062233" stop-opacity="0.43"/>
<stop offset="0.37" stop-color="#0B3F5F" stop-opacity="0.56"/>
<stop offset="0.55" stop-color="#105681" stop-opacity="0.68"/>
<stop offset="0.72" stop-color="#136799" stop-opacity="0.8"/>
<stop offset="0.87" stop-color="#1471A8" stop-opacity="0.91"/>
<stop offset="1" stop-color="#1574AD"/>
</linearGradient>
<clipPath id="clip0_8_324">
<rect width="41.9998" height="42" fill="white"/>
</clipPath>
</defs>
</svg>
