<svg width="210" height="56" viewBox="0 0 210 56" fill="none" xmlns="http://www.w3.org/2000/svg">
<g clip-path="url(#clip0_1422_1579)">
<path d="M0 35.3782H36L18 17.0859L0 35.3782Z" fill="#38A5F4"/>
<path d="M18 53.6707L36 35.3784H0L18 53.6707Z" fill="#0094FF"/>
<path d="M0 20.2923H36L18 2L0 20.2923Z" fill="#00DC00"/>
<path d="M18 38.5848L36 20.2925H0L18 38.5848Z" fill="#00A61F"/>
</g>
<path d="M52.6046 19.424V23H47.6606V6.248C47.6606 5.768 47.8926 5.528 48.3566 5.528H62.7086C64.3406 5.528 65.5166 5.896 66.2366 6.632C66.9566 7.352 67.3166 8.376 67.3166 9.704V11.24C67.3166 11.944 67.1726 12.512 66.8846 12.944C66.5966 13.376 66.2686 13.72 65.9006 13.976C66.4126 14.232 66.8366 14.608 67.1726 15.104C67.5086 15.6 67.6766 16.216 67.6766 16.952V18.488C67.6766 19.96 67.3246 21.08 66.6206 21.848C65.9326 22.616 64.7406 23 63.0446 23H54.1406L52.7726 19.424H52.6046ZM52.6046 15.608V18.896H61.1966C61.6286 18.896 61.9406 18.792 62.1326 18.584C62.3406 18.376 62.4446 18.016 62.4446 17.504V17C62.4446 16.488 62.3486 16.128 62.1566 15.92C61.9806 15.712 61.6606 15.608 61.1966 15.608H52.6046ZM53.0126 9.416C52.7406 9.416 52.6046 9.552 52.6046 9.824V12.776H60.9086C61.4526 12.776 61.8366 12.672 62.0606 12.464C62.2846 12.256 62.3966 11.896 62.3966 11.384V10.856C62.3966 10.328 62.2846 9.96 62.0606 9.752C61.8366 9.528 61.4526 9.416 60.9086 9.416H53.0126ZM74.5461 12.896H74.3781V18.128C74.3781 18.352 74.4901 18.464 74.7141 18.464H89.4501V23H70.1301C69.6661 23 69.4341 22.76 69.4341 22.28V6.248C69.4341 5.768 69.6661 5.528 70.1301 5.528H88.8981C89.3781 5.528 89.6181 5.768 89.6181 6.248V10.784L85.0341 12.488H84.8421V10.16C84.8421 9.984 84.7621 9.896 84.6021 9.896H74.6901C74.5621 9.896 74.4741 9.936 74.4261 10.016C74.3941 10.08 74.3781 10.152 74.3781 10.232V12.416H82.5381V15.968H75.6981L74.5461 12.896ZM96.5265 5.528V17.864C96.5265 18.056 96.5665 18.2 96.6465 18.296C96.7265 18.392 96.8785 18.44 97.1025 18.44H110.783V23H92.8545C92.3905 23 92.0625 22.888 91.8705 22.664C91.6785 22.424 91.5825 22.088 91.5825 21.656V5.528H96.5265ZM112.254 6.248C112.254 5.768 112.478 5.528 112.926 5.528H126.03C127.326 5.528 128.43 5.696 129.342 6.032C130.254 6.352 130.99 6.816 131.55 7.424C132.11 8.016 132.518 8.744 132.774 9.608C133.03 10.456 133.158 11.408 133.158 12.464V16.064C133.158 17.12 133.03 18.08 132.774 18.944C132.518 19.792 132.11 20.52 131.55 21.128C130.99 21.72 130.254 22.184 129.342 22.52C128.43 22.84 127.326 23 126.03 23H118.974L117.39 18.92H117.198V23H112.254V6.248ZM117.198 18.464H125.574C126.518 18.464 127.19 18.256 127.59 17.84C127.99 17.424 128.19 16.688 128.19 15.632V12.704C128.19 11.616 127.99 10.88 127.59 10.496C127.19 10.096 126.518 9.896 125.574 9.896H117.558C117.446 9.896 117.358 9.936 117.294 10.016C117.23 10.08 117.198 10.16 117.198 10.256V18.464ZM140.265 12.896H140.097V18.128C140.097 18.352 140.209 18.464 140.433 18.464H155.169V23H135.849C135.385 23 135.153 22.76 135.153 22.28V6.248C135.153 5.768 135.385 5.528 135.849 5.528H154.617C155.097 5.528 155.337 5.768 155.337 6.248V10.784L150.753 12.488H150.561V10.16C150.561 9.984 150.481 9.896 150.321 9.896H140.409C140.281 9.896 140.193 9.936 140.145 10.016C140.113 10.08 140.097 10.152 140.097 10.232V12.416H148.257V15.968H141.417L140.265 12.896ZM179.957 5.528V5.72L171.797 13.736L180.317 22.808V23H174.029L168.341 16.904L162.461 23H156.461V22.808L165.197 13.76L157.277 5.72V5.528H163.421L168.509 10.928L173.981 5.528H179.957Z" fill="#00DC00"/>
<path d="M52.6046 47.424V51H47.6606V34.248C47.6606 33.768 47.8926 33.528 48.3566 33.528H62.7086C64.3406 33.528 65.5166 33.896 66.2366 34.632C66.9566 35.352 67.3166 36.376 67.3166 37.704V39.24C67.3166 39.944 67.1726 40.512 66.8846 40.944C66.5966 41.376 66.2686 41.72 65.9006 41.976C66.4126 42.232 66.8366 42.608 67.1726 43.104C67.5086 43.6 67.6766 44.216 67.6766 44.952V46.488C67.6766 47.96 67.3246 49.08 66.6206 49.848C65.9326 50.616 64.7406 51 63.0446 51H54.1406L52.7726 47.424H52.6046ZM52.6046 43.608V46.896H61.1966C61.6286 46.896 61.9406 46.792 62.1326 46.584C62.3406 46.376 62.4446 46.016 62.4446 45.504V45C62.4446 44.488 62.3486 44.128 62.1566 43.92C61.9806 43.712 61.6606 43.608 61.1966 43.608H52.6046ZM53.0126 37.416C52.7406 37.416 52.6046 37.552 52.6046 37.824V40.776H60.9086C61.4526 40.776 61.8366 40.672 62.0606 40.464C62.2846 40.256 62.3966 39.896 62.3966 39.384V38.856C62.3966 38.328 62.2846 37.96 62.0606 37.752C61.8366 37.528 61.4526 37.416 60.9086 37.416H53.0126ZM74.3781 42.576V51H69.4341V34.248C69.4341 33.768 69.6581 33.528 70.1061 33.528H83.7621C84.8501 33.528 85.7701 33.656 86.5221 33.912C87.2741 34.168 87.8821 34.544 88.3461 35.04C88.8101 35.52 89.1461 36.104 89.3541 36.792C89.5621 37.48 89.6661 38.256 89.6661 39.12V40.368C89.6661 41.216 89.5621 41.976 89.3541 42.648C89.1461 43.32 88.8101 43.896 88.3461 44.376C87.8981 44.84 87.3141 45.2 86.5941 45.456C85.8741 45.712 84.9941 45.84 83.9541 45.84H83.4501C83.2101 45.84 82.9941 45.84 82.8021 45.84C82.6261 45.84 82.4501 45.832 82.2741 45.816V45.984C82.4821 46.176 82.6901 46.392 82.8981 46.632C83.1061 46.856 83.3061 47.088 83.4981 47.328L86.2821 50.808V51H80.7141L74.5461 42.576H74.3781ZM74.7141 37.896C74.4901 37.896 74.3781 38.032 74.3781 38.304V42.12H82.8741C83.5301 42.12 83.9941 41.992 84.2661 41.736C84.5541 41.48 84.6981 40.992 84.6981 40.272V39.672C84.6981 39 84.5541 38.536 84.2661 38.28C83.9941 38.024 83.5301 37.896 82.8741 37.896H74.7141ZM113.093 44.064C113.093 45.12 112.965 46.08 112.709 46.944C112.453 47.792 112.045 48.52 111.485 49.128C110.925 49.72 110.189 50.184 109.277 50.52C108.381 50.84 107.285 51 105.989 51H98.2133C96.9173 51 95.8133 50.84 94.9013 50.52C93.9893 50.184 93.2533 49.72 92.6933 49.128C92.1333 48.52 91.7253 47.792 91.4693 46.944C91.2133 46.08 91.0853 45.12 91.0853 44.064V40.464C91.0853 39.408 91.2133 38.456 91.4693 37.608C91.7253 36.744 92.1333 36.016 92.6933 35.424C93.2533 34.816 93.9893 34.352 94.9013 34.032C95.8133 33.696 96.9173 33.528 98.2133 33.528H105.989C107.285 33.528 108.381 33.696 109.277 34.032C110.189 34.352 110.925 34.816 111.485 35.424C112.045 36.016 112.453 36.744 112.709 37.608C112.965 38.456 113.093 39.408 113.093 40.464V44.064ZM96.0293 43.632C96.0293 44.24 96.0853 44.728 96.1973 45.096C96.3253 45.464 96.5173 45.752 96.7733 45.96C97.0453 46.152 97.3893 46.288 97.8053 46.368C98.2373 46.432 98.7653 46.464 99.3893 46.464H105.533C106.061 46.464 106.493 46.408 106.829 46.296C107.181 46.184 107.453 46 107.645 45.744C107.837 45.472 107.965 45.112 108.029 44.664C108.109 44.216 108.149 43.664 108.149 43.008V40.704C108.149 39.632 107.949 38.896 107.549 38.496C107.149 38.096 106.477 37.896 105.533 37.896H98.6453C98.1173 37.896 97.6773 37.952 97.3253 38.064C96.9893 38.176 96.7253 38.368 96.5333 38.64C96.3413 38.896 96.2053 39.248 96.1253 39.696C96.0613 40.128 96.0293 40.672 96.0293 41.328V43.632ZM142.632 33.528V33.72L140.112 50.328C140.08 50.568 140.008 50.744 139.896 50.856C139.8 50.952 139.616 51 139.344 51H132.168C131.56 51 131.208 50.76 131.112 50.28L128.424 37.968C128.392 37.824 128.304 37.752 128.16 37.752H127.944C127.768 37.752 127.664 37.824 127.632 37.968L125.28 50.28C125.184 50.76 124.832 51 124.224 51H117.264C117.008 51 116.824 50.944 116.712 50.832C116.6 50.72 116.528 50.552 116.496 50.328L113.736 33.72V33.528H118.68L120.744 46.752C120.776 46.96 120.896 47.064 121.104 47.064H121.344C121.536 47.064 121.656 46.96 121.704 46.752L124.2 34.152C124.232 33.928 124.312 33.768 124.44 33.672C124.584 33.576 124.808 33.528 125.112 33.528H131.16C131.672 33.528 131.976 33.736 132.072 34.152L134.856 46.752C134.904 46.96 135.016 47.064 135.192 47.064H135.456C135.712 47.064 135.848 46.96 135.864 46.752L137.568 33.528H142.632ZM159.708 39.576H159.516V37.656C159.516 37.464 159.42 37.368 159.228 37.368H150.012C149.676 37.368 149.444 37.44 149.316 37.584C149.188 37.728 149.124 37.936 149.124 38.208V38.64C149.124 38.976 149.18 39.192 149.292 39.288C149.404 39.384 149.62 39.456 149.94 39.504L160.788 41.016C161.476 41.112 162.06 41.264 162.54 41.472C163.02 41.664 163.412 41.928 163.716 42.264C164.02 42.584 164.236 42.984 164.364 43.464C164.492 43.944 164.556 44.512 164.556 45.168V46.56C164.556 47.28 164.468 47.92 164.292 48.48C164.116 49.024 163.828 49.488 163.428 49.872C163.028 50.24 162.5 50.52 161.844 50.712C161.188 50.904 160.38 51 159.42 51H143.868V46.464H157.812C158.228 46.464 158.5 46.392 158.628 46.248C158.772 46.088 158.844 45.816 158.844 45.432V44.952C158.844 44.648 158.788 44.44 158.676 44.328C158.58 44.2 158.38 44.12 158.076 44.088L147.612 42.768C146.908 42.672 146.3 42.528 145.788 42.336C145.292 42.144 144.884 41.888 144.564 41.568C144.244 41.248 144.012 40.856 143.868 40.392C143.724 39.928 143.652 39.376 143.652 38.736V37.512C143.652 36.248 143.988 35.272 144.66 34.584C145.332 33.88 146.452 33.528 148.02 33.528H163.548C164.044 33.528 164.292 33.784 164.292 34.296V37.896L159.708 39.576ZM171.741 40.896H171.573V46.128C171.573 46.352 171.685 46.464 171.909 46.464H186.645V51H167.325C166.861 51 166.629 50.76 166.629 50.28V34.248C166.629 33.768 166.861 33.528 167.325 33.528H186.093C186.573 33.528 186.813 33.768 186.813 34.248V38.784L182.229 40.488H182.037V38.16C182.037 37.984 181.957 37.896 181.797 37.896H171.885C171.757 37.896 171.669 37.936 171.621 38.016C171.589 38.08 171.573 38.152 171.573 38.232V40.416H179.733V43.968H172.893L171.741 40.896ZM193.722 42.576V51H188.778V34.248C188.778 33.768 189.002 33.528 189.45 33.528H203.106C204.194 33.528 205.114 33.656 205.866 33.912C206.618 34.168 207.226 34.544 207.69 35.04C208.154 35.52 208.49 36.104 208.698 36.792C208.906 37.48 209.01 38.256 209.01 39.12V40.368C209.01 41.216 208.906 41.976 208.698 42.648C208.49 43.32 208.154 43.896 207.69 44.376C207.242 44.84 206.658 45.2 205.938 45.456C205.218 45.712 204.338 45.84 203.298 45.84H202.794C202.554 45.84 202.338 45.84 202.146 45.84C201.97 45.84 201.794 45.832 201.618 45.816V45.984C201.826 46.176 202.034 46.392 202.242 46.632C202.45 46.856 202.65 47.088 202.842 47.328L205.626 50.808V51H200.058L193.89 42.576H193.722ZM194.058 37.896C193.834 37.896 193.722 38.032 193.722 38.304V42.12H202.218C202.874 42.12 203.338 41.992 203.61 41.736C203.898 41.48 204.042 40.992 204.042 40.272V39.672C204.042 39 203.898 38.536 203.61 38.28C203.338 38.024 202.874 37.896 202.218 37.896H194.058Z" fill="#0094FF"/>
<defs>
<clipPath id="clip0_1422_1579">
<rect width="36" height="51.6706" fill="white" transform="matrix(-1 0 0 1 36 2)"/>
</clipPath>
</defs>
</svg>
