<svg width="12" height="12" viewBox="0 0 12 12" fill="none" xmlns="http://www.w3.org/2000/svg">
<path d="M6 0C5.23312 0 4.40703 1.17656 3.95156 3H8.04844C7.59297 1.17656 6.76687 0 6 0ZM3.63641 0.486406C2.44594 0.99875 1.45766 1.88766 0.812031 3H2.70703C2.92062 2.01719 3.23797 1.16312 3.63641 0.486406ZM8.36359 0.486406C8.76141 1.16312 9.07937 2.01719 9.29297 3H11.1878C10.5423 1.88766 9.55406 0.99875 8.36359 0.486406ZM0.276562 4.2C0.0978125 4.76875 0 5.37297 0 6C0 6.62703 0.0978125 7.23125 0.276562 7.8H2.50891C2.44062 7.22703 2.4 6.62766 2.4 6C2.4 5.37234 2.44062 4.77297 2.50891 4.2H0.276562ZM3.72078 4.2C3.64328 4.76344 3.6 5.36703 3.6 6C3.6 6.63297 3.64328 7.23656 3.72078 7.8H8.27922C8.35609 7.23656 8.4 6.63297 8.4 6C8.4 5.36703 8.35672 4.76344 8.27922 4.2H3.72078ZM9.49094 4.2C9.55937 4.77297 9.6 5.37234 9.6 6C9.6 6.62766 9.55937 7.22703 9.49094 7.8H11.7234C11.9028 7.23125 12 6.62703 12 6C12 5.37297 11.9028 4.76875 11.7234 4.2H9.49094ZM0.812031 9C1.45766 10.1123 2.44594 11.0012 3.63641 11.5136C3.23859 10.8369 2.92062 9.98281 2.70703 9H0.812031ZM3.95156 9C4.40703 10.8234 5.23312 12 6 12C6.76687 12 7.59297 10.8234 8.04844 9H3.95156ZM9.29297 9C9.07937 9.98281 8.76203 10.8369 8.36359 11.5136C9.55406 11.0012 10.5423 10.1123 11.1878 9H9.29297Z" fill="#00B134"/>
</svg>
