<svg width="15" height="17" viewBox="0 0 15 17" fill="none" xmlns="http://www.w3.org/2000/svg">
<path d="M6.22187 0.0379639C5.19003 0.0379639 4.33999 0.89406 4.33999 1.93325V2.57161H0.566406V3.83844H1.82427V14.6065C1.82427 15.6555 2.66939 16.5067 3.71106 16.5067H11.2582C12.2999 16.5067 13.145 15.6555 13.145 14.6065V3.83844H14.4029V2.57161H10.6293V1.93325C10.6293 0.89406 9.77926 0.0379639 8.74742 0.0379639H6.22187ZM6.22187 1.30479H8.74742C9.1012 1.30479 9.37144 1.57696 9.37144 1.93325V2.57161H5.59785V1.93325C5.59785 1.57696 5.8681 1.30479 6.22187 1.30479ZM4.33999 5.10527H5.59785V13.973H4.33999V5.10527ZM6.85572 5.10527H8.11358V13.973H6.85572V5.10527ZM9.37144 5.10527H10.6293V13.973H9.37144V5.10527Z" fill="#C5C5C5"/>
</svg>
