<svg width="20" height="21" viewBox="0 0 20 21" fill="none" xmlns="http://www.w3.org/2000/svg">
<path d="M4.72233 4.77768C3.80314 4.77768 3.05566 5.52516 3.05566 6.44435V13.111C3.05566 14.0302 3.80314 14.7777 4.72233 14.7777H15.2778C16.1969 14.7777 16.9444 14.0302 16.9444 13.111V6.44435C16.9444 5.52516 16.1969 4.77768 15.2778 4.77768H4.72233ZM8.05566 15.611V16.1666C7.59526 16.1666 7.22233 16.5398 7.22233 17C7.22233 17.4602 7.59526 17.8333 8.05566 17.8333H11.9444C12.4048 17.8333 12.7778 17.4602 12.7778 17C12.7778 16.5398 12.4048 16.1666 11.9444 16.1666V15.611H8.05566Z" fill="white"/>
</svg>
