<svg width="17" height="18" viewBox="0 0 17 18" fill="none" xmlns="http://www.w3.org/2000/svg">
<path d="M8.32247 1.23227C8.01615 1.23227 7.76763 1.48079 7.76763 1.78711V4.00647H8.8773V1.78711C8.8773 1.48079 8.62878 1.23227 8.32247 1.23227ZM8.8773 4.00647V10.9896L10.1495 9.7174C10.3664 9.50049 10.7172 9.50049 10.9341 9.7174C11.151 9.93432 11.151 10.2851 10.9341 10.502L8.71475 12.7213C8.60657 12.8295 8.46443 12.8839 8.32247 12.8839C8.1805 12.8839 8.03836 12.8295 7.93018 12.7213L5.71082 10.502C5.49391 10.2851 5.49391 9.93432 5.71082 9.7174C5.92774 9.50049 6.27848 9.50049 6.4954 9.7174L7.76763 10.9896V4.00647H3.32892C2.71574 4.00647 2.21924 4.50297 2.21924 5.11614V14.5484C2.21924 15.1616 2.71574 15.6581 3.32892 15.6581H13.316C13.9292 15.6581 14.4257 15.1616 14.4257 14.5484V5.11614C14.4257 4.50297 13.9292 4.00647 13.316 4.00647H8.8773Z" fill="white"/>
</svg>
