<svg width="15" height="15" viewBox="0 0 15 15" fill="none" xmlns="http://www.w3.org/2000/svg">
<path d="M12.5368 1.75857C12.3738 1.76347 12.219 1.83149 12.1054 1.94852L5.64711 8.40686L3.58093 6.34068C3.42346 6.17667 3.1898 6.1107 2.97003 6.16809C2.75005 6.22548 2.57848 6.39705 2.52109 6.61703C2.4637 6.8368 2.52967 7.07046 2.69368 7.22793L5.20348 9.73774C5.44858 9.98263 5.84564 9.98263 6.09074 9.73774L12.9927 2.83578C13.1784 2.65542 13.2341 2.37949 13.1332 2.14133C13.0323 1.90297 12.7956 1.75101 12.5368 1.75857Z" fill="white"/>
<path fill-rule="evenodd" clip-rule="evenodd" d="M1.82349 14C1.82349 13.4477 2.2712 13 2.82349 13L13.1764 13C13.7287 13 14.1764 13.4477 14.1764 14C14.1764 14.5523 13.7287 15 13.1764 15L2.82349 15C2.2712 15 1.82349 14.5523 1.82349 14Z" fill="white"/>
</svg>
