<svg width="18" height="18" viewBox="0 0 18 18" fill="none" xmlns="http://www.w3.org/2000/svg">
<path d="M16.5 9C16.5 13.125 13.125 16.5 9 16.5C4.875 16.5 1.5 13.125 1.5 9C1.5 4.875 4.875 1.5 9 1.5C13.125 1.5 16.5 4.875 16.5 9Z" fill="#FF3D00"/>
<path d="M9.75002 6.075C9.52502 5.85 9.18753 5.7375 8.81253 5.6625C8.66252 5.475 8.43753 5.2875 8.10003 5.1C7.50003 4.8 6.78753 4.65 6.11253 4.7625H5.96253C5.92503 4.7625 5.88753 4.8 5.81253 4.8C5.88753 4.8 6.18753 4.95 6.41253 5.025C6.30003 5.1 6.11253 5.1 6.00003 5.175C6.00003 5.175 6.00003 5.175 5.96253 5.175L5.88753 5.25C5.85003 5.325 5.81253 5.4 5.81253 5.4375C6.30003 5.4 7.01253 5.4375 7.53753 5.5875C7.12503 5.625 6.75003 5.7375 6.48753 5.8875C6.30003 6 6.11253 6.1125 6.00003 6.3C5.55003 6.7875 5.36253 7.6125 5.51253 8.5125C5.70003 9.525 6.41253 12.7875 6.78753 14.625L6.90003 15.225C6.90003 15.225 8.21252 15.375 9.00003 15.375C9.45002 15.375 10.2 15.4875 10.3875 15.3C10.35 15.3 10.1625 15.075 10.0875 14.8875C9.90002 14.5125 9.71252 14.175 9.56252 13.9125C9.11252 12.975 8.62503 11.7 8.85002 10.875C8.88752 10.725 8.88752 10.0875 9.00003 10.0125C9.97503 9.375 9.90002 9.975 10.3125 9.7125C10.5 9.5625 10.6875 9.375 10.7625 9.15C11.025 8.2875 10.425 6.75 9.75002 6.075Z" fill="white"/>
<path d="M9 15.75C5.2875 15.75 2.25 12.7125 2.25 9C2.25 5.2875 5.2875 2.25 9 2.25C12.7125 2.25 15.75 5.2875 15.75 9C15.75 12.7125 12.7125 15.75 9 15.75ZM9 3C5.7 3 3 5.7 3 9C3 12.3 5.7 15 9 15C12.3 15 15 12.3 15 9C15 5.7 12.3 3 9 3Z" fill="white"/>
<path d="M7.12497 7.9125C6.89997 7.9125 6.67497 8.1 6.67497 8.3625C6.67497 8.5875 6.86247 8.8125 7.12497 8.8125C7.34997 8.8125 7.57497 8.625 7.57497 8.3625C7.53747 8.1375 7.34997 7.9125 7.12497 7.9125ZM7.31247 8.325C7.23747 8.325 7.19997 8.2875 7.19997 8.2125C7.19997 8.1375 7.23747 8.1 7.31247 8.1C7.38747 8.1 7.42497 8.1375 7.42497 8.2125C7.42497 8.2875 7.34997 8.325 7.31247 8.325ZM10.05 7.725C9.82497 7.725 9.67497 7.9125 9.67497 8.1C9.67497 8.325 9.86247 8.475 10.05 8.475C10.275 8.475 10.425 8.2875 10.425 8.1C10.425 7.9125 10.2375 7.725 10.05 7.725ZM10.2 8.0625C10.1625 8.0625 10.0875 8.025 10.0875 7.95C10.0875 7.9125 10.125 7.8375 10.2 7.8375C10.2375 7.8375 10.3125 7.875 10.3125 7.95C10.3125 8.025 10.275 8.0625 10.2 8.0625ZM7.23747 7.0875C7.23747 7.0875 6.89997 6.9375 6.59997 7.125C6.26247 7.3125 6.29997 7.5375 6.29997 7.5375C6.29997 7.5375 6.11247 7.1625 6.59997 6.975C7.01247 6.7875 7.23747 7.0875 7.23747 7.0875ZM10.275 7.05C10.275 7.05 10.05 6.9 9.86247 6.9C9.48747 6.9 9.37497 7.0875 9.37497 7.0875C9.37497 7.0875 9.44997 6.675 9.93747 6.75C10.1625 6.825 10.275 7.05 10.275 7.05Z" fill="#0277BD"/>
<path d="M8.73753 13.3875C8.73753 13.3875 7.12503 12.525 7.08753 12.8625C7.05003 13.2 7.08753 14.625 7.27503 14.7375C7.46253 14.85 8.81253 14.025 8.81253 14.025L8.73753 13.3875ZM9.37503 13.35C9.37503 13.35 10.4625 12.525 10.725 12.5625C10.95 12.6 11.025 14.325 10.8 14.4C10.575 14.475 9.33753 13.95 9.33753 13.95L9.37503 13.35Z" fill="#8BC34A"/>
<path d="M8.43754 13.3875C8.43754 13.95 8.36254 14.175 8.58754 14.25C8.81254 14.2875 9.30004 14.25 9.45004 14.1375C9.60004 14.025 9.48754 13.3125 9.41254 13.1625C9.37504 13.05 8.43754 13.1625 8.43754 13.3875Z" fill="#689F38"/>
<path d="M8.3625 10.05C8.4 9.7875 9.1125 9.2625 9.6 9.225C10.0875 9.1875 10.2375 9.1875 10.65 9.1125C11.0625 9 12.1125 8.7375 12.4125 8.625C12.7125 8.475 13.95 8.7 13.0875 9.1875C12.7125 9.4125 11.7 9.7875 10.95 10.0125C10.2375 10.2375 9.7875 9.7875 9.525 10.1625C9.3375 10.4625 9.4875 10.8375 10.35 10.9125C11.5125 11.025 12.675 10.3875 12.7875 10.725C12.9 11.0625 11.775 11.475 11.0625 11.5125C10.3875 11.5125 8.9625 11.0625 8.775 10.9125C8.5875 10.7625 8.325 10.425 8.3625 10.05Z" fill="#FFCA28"/>
</svg>
