<svg width="22" height="22" viewBox="0 0 22 22" fill="none" xmlns="http://www.w3.org/2000/svg">
<path d="M11.0001 16.0417C8.20425 16.0417 5.95841 13.7958 5.95841 11C5.95841 8.20417 8.20425 5.95834 11.0001 5.95834C13.7959 5.95834 16.0417 8.20417 16.0417 11C16.0417 13.7958 13.7959 16.0417 11.0001 16.0417ZM10.4959 3.66668C10.4959 3.66668 9.85425 3.11668 9.85425 2.06251C9.85425 1.10001 10.3584 0.458344 10.3584 0.458344C10.3584 0.458344 11.0001 1.00834 11.0001 2.06251C11.0001 3.30001 10.4959 3.66668 10.4959 3.66668ZM13.7959 4.12501C13.7959 4.12501 13.5209 3.20834 14.1167 2.38334C14.6667 1.60418 15.4917 1.37501 15.4917 1.37501C15.4917 1.37501 15.7667 2.24584 15.1709 3.11668C14.4834 4.17084 13.7959 4.12501 13.7959 4.12501ZM16.5001 5.45418C16.5001 5.45418 16.5001 4.81251 17.1417 4.40001C17.6917 4.03334 18.3334 4.12501 18.3334 4.12501C18.3334 4.12501 18.3334 4.72084 17.6917 5.13334C16.9584 5.63751 16.5001 5.45418 16.5001 5.45418ZM7.74591 3.66668C7.74591 3.66668 7.05841 3.57501 6.64591 2.97918C6.27925 2.38334 6.46258 1.83334 6.46258 1.83334C6.46258 1.83334 7.10425 1.92501 7.51675 2.52084C7.97508 3.25418 7.74591 3.66668 7.74591 3.66668ZM5.50008 5.50001C5.50008 5.50001 4.81258 5.59168 4.26258 5.13334C3.71258 4.72084 3.66675 4.12501 3.66675 4.12501C3.66675 4.12501 4.30841 4.03334 4.90425 4.49168C5.59175 5.04168 5.50008 5.50001 5.50008 5.50001ZM11.1834 18.3333C11.1834 18.3333 11.8251 18.7917 11.7334 19.9833C11.6876 20.9917 11.0459 21.5417 11.0459 21.5417C11.0459 21.5417 10.4042 20.9 10.4959 19.9375C10.5876 18.7458 11.1834 18.3333 11.1834 18.3333ZM7.70008 17.875C7.70008 17.875 7.88341 18.6083 7.42508 19.3417C7.01258 19.9833 6.41675 20.1667 6.41675 20.1667C6.41675 20.1667 6.18758 19.3875 6.64591 18.7C7.19591 17.8292 7.70008 17.875 7.70008 17.875ZM5.50008 16.0417C5.50008 16.0417 5.45425 16.6833 4.85841 17.0958C4.30841 17.5083 3.66675 17.4167 3.66675 17.4167C3.66675 17.4167 3.66675 16.8208 4.30841 16.3625C4.95008 15.95 5.50008 16.0417 5.50008 16.0417ZM14.7126 17.875C14.7126 17.875 15.4001 17.9667 15.8126 18.5625C16.1792 19.1125 16.0417 19.7083 16.0417 19.7083C16.0417 19.7083 15.4001 19.6167 14.9876 19.0208C14.4834 18.2875 14.7126 17.875 14.7126 17.875ZM16.5001 16.0417C16.5001 16.0417 17.1876 15.9042 17.7376 16.4083C18.2876 16.8208 18.3334 17.4167 18.3334 17.4167C18.3334 17.4167 17.6917 17.5542 17.0959 17.05C16.4084 16.5 16.5001 16.0417 16.5001 16.0417Z" fill="#0097A7"/>
<path d="M11 17.875C7.19583 17.875 4.125 14.8042 4.125 11C4.125 7.19583 7.19583 4.125 11 4.125C14.8042 4.125 17.875 7.19583 17.875 11C17.875 14.8042 14.8042 17.875 11 17.875ZM11 5.04167C7.7 5.04167 5.04167 7.7 5.04167 11C5.04167 14.3 7.7 16.9583 11 16.9583C14.3 16.9583 16.9583 14.3 16.9583 11C16.9583 7.7 14.3 5.04167 11 5.04167Z" fill="#E65100"/>
<path d="M7.70016 11.6417C7.746 11.825 7.51683 12.0083 7.471 12.1917C7.42516 12.375 7.37933 12.5125 7.28766 12.5583C7.196 12.65 7.0585 12.6958 6.96683 12.7875C6.87516 12.8792 6.60016 13.3375 6.5085 13.3833C6.18766 12.65 5.9585 11.8708 5.9585 11C5.9585 10.725 6.00433 10.4958 6.00433 10.2667C6.05016 10.2667 6.32516 10.4042 6.5085 10.5417C6.73766 10.6792 6.87516 11.1375 7.0585 11.2292C7.24183 11.3208 7.65433 11.5042 7.70016 11.6417ZM6.7835 8.25002C7.0585 8.25002 7.196 8.02085 7.28766 8.02085C7.37933 8.02085 7.42516 8.06668 7.51683 8.06668C7.56266 8.06668 7.70016 8.02085 7.70016 7.88335C7.70016 7.74585 7.51683 7.42502 7.51683 7.37918C7.24183 7.65418 6.96683 7.92918 6.7835 8.25002ZM8.38766 6.82918C8.38766 6.87502 8.25016 7.01252 8.25016 7.15002C8.25016 7.28752 8.34183 7.42502 8.47933 7.42502C8.7085 7.42502 8.89183 7.19585 9.21266 7.19585C9.48766 7.19585 10.0377 6.96668 10.0377 6.64585C10.0377 6.50835 9.90016 6.46252 9.76266 6.46252C9.62516 6.46252 9.16683 6.46252 8.9835 6.37085C8.75433 6.46252 8.52516 6.60002 8.296 6.73752C8.34183 6.73752 8.38766 6.78335 8.38766 6.82918ZM12.1918 13.5208C12.1918 13.5667 12.2377 13.6125 12.2835 13.6125C12.3293 13.6125 12.3752 13.5667 12.421 13.5208C12.5127 13.4292 12.5585 13.2917 12.5585 13.1542C12.5585 13.1083 12.5585 13.0625 12.5585 13.0625C12.5127 13.0167 12.4668 13.0167 12.4668 13.0167C12.3293 13.0167 12.2377 13.2458 12.1918 13.3833C12.1918 13.475 12.1918 13.5208 12.1918 13.5208ZM16.0418 11C16.0418 11.5958 15.9502 12.1458 15.7668 12.65C15.721 12.6042 15.6293 12.4208 15.6293 12.2833C15.6293 12.1917 15.721 11.9625 15.721 11.7792C15.721 11.5958 15.5377 11.0917 15.171 11.0917C14.7127 11.0917 14.7585 11.7792 14.5293 11.7792C14.2085 11.7792 14.2085 10.6333 13.796 10.6333C13.6585 10.6333 13.4752 10.8625 13.2918 11C13.1543 11.1375 12.8335 11.1375 12.8335 11.55C12.8335 11.8708 12.146 11.9625 12.146 12.6958C12.146 12.925 11.871 13.2 11.6877 13.3375C11.5502 13.475 11.3668 14.0708 10.8627 14.0708C10.5877 14.0708 10.3127 13.5208 10.3127 12.9708C10.3127 12.65 10.4043 12.5583 10.4043 12.2375C10.4043 11.9167 10.2668 11.3208 9.62516 11.3208C9.30433 11.3208 8.9835 11.1375 8.9835 10.4042C8.9835 9.71668 9.71683 9.71668 9.71683 9.07502C9.71683 8.89168 10.1293 8.70835 10.1293 8.61668C10.1293 8.52502 9.99183 8.34168 9.99183 8.25002C9.99183 8.15835 10.1293 8.06668 10.221 8.06668C10.3127 8.06668 10.5418 8.29585 10.6335 8.29585C10.7252 8.29585 10.771 8.06668 10.8168 7.88335C10.8627 7.70002 11.4127 7.42502 11.6418 7.42502C11.871 7.42502 12.4668 7.74585 12.8335 7.74585C13.1543 7.74585 14.3002 7.56252 14.6668 7.56252C15.171 8.11252 15.5377 8.75418 15.7668 9.44168C15.7668 9.48752 15.8127 9.53335 15.8127 9.57918C15.8585 9.67085 15.8585 9.80835 15.9043 9.90001C15.9043 9.99168 15.9502 10.0375 15.9502 10.1292C15.9502 10.2208 15.996 10.3583 15.996 10.45C15.996 10.4958 15.996 10.5875 15.996 10.6333C16.0418 10.7708 16.0418 10.8625 16.0418 11ZM12.0085 9.76252C12.0085 9.71668 11.9168 9.62502 11.7793 9.62502C11.6418 9.62502 11.5043 9.44168 11.321 9.39585C11.1835 9.35002 10.771 9.07502 10.6335 9.07502C10.496 9.07502 10.5418 9.07502 10.5418 9.16668C10.5418 9.16668 10.9085 9.62502 11.1377 9.76252C11.3668 9.85418 11.4127 9.80835 11.5043 9.80835C11.596 9.80835 11.6418 9.90001 11.7793 9.90001C11.9627 9.85418 12.0085 9.80835 12.0085 9.76252Z" fill="#CDDC39"/>
</svg>
