<svg width="42" height="42" viewBox="0 0 42 42" fill="none" xmlns="http://www.w3.org/2000/svg">
<g clip-path="url(#clip0_1514_6)">
<path d="M9.74805 19.9288V20.2032L9.75821 19.6885C9.74805 19.7683 9.74805 19.8431 9.74805 19.9288Z" fill="#0A0A0A"/>
<path d="M29.4206 14.2672L29.4308 14.7826V23.9692C29.4308 24.2693 29.3717 24.5665 29.2568 24.8438C29.1419 25.1211 28.9735 25.3731 28.7612 25.5853C28.5489 25.7975 28.2969 25.9658 28.0196 26.0806C27.7423 26.1954 27.445 26.2545 27.1449 26.2544H23.9763V23.2142H25.121C25.2809 23.2146 25.4394 23.1835 25.5873 23.1226C25.7352 23.0617 25.8696 22.9723 25.9829 22.8595C26.0963 22.7466 26.1862 22.6125 26.2477 22.4649C26.3092 22.3173 26.341 22.159 26.3413 21.999V16.4777C26.3415 16.3174 26.31 16.1586 26.2488 16.0105C26.1875 15.8623 26.0977 15.7277 25.9843 15.6144C25.871 15.501 25.7364 15.4111 25.5882 15.3499C25.4401 15.2886 25.2813 15.2572 25.121 15.2574H19.4952C19.3349 15.2572 19.1761 15.2886 19.028 15.3499C18.8798 15.4111 18.7452 15.501 18.6319 15.6144C18.5185 15.7277 18.4287 15.8623 18.3674 16.0105C18.3061 16.1586 18.2747 16.3174 18.2749 16.4777V21.999C18.2752 22.159 18.307 22.3173 18.3685 22.4649C18.43 22.6125 18.5199 22.7466 18.6333 22.8595C18.7466 22.9723 18.881 23.0617 19.0289 23.1226C19.1768 23.1835 19.3352 23.2146 19.4952 23.2142H20.9005V26.2544H17.4815C17.1814 26.2545 16.8842 26.1954 16.6069 26.0806C16.3296 25.9658 16.0776 25.7975 15.8654 25.5853C15.6532 25.373 15.4849 25.1211 15.37 24.8438C15.2552 24.5665 15.1962 24.2693 15.1963 23.9692V14.5075C15.1962 14.2074 15.2552 13.9102 15.37 13.6329C15.4849 13.3556 15.6532 13.1036 15.8654 12.8914C16.0776 12.6792 16.3296 12.5109 16.6069 12.3961C16.8842 12.2813 17.1814 12.2222 17.4815 12.2223H25.9478L29.4482 7.08643L29.4206 14.2672Z" fill="#1574AD"/>
<path d="M25.133 23.2142H18.9678V26.2544H24.5537C25.0297 26.254 25.4861 26.0647 25.8227 25.7281C26.1593 25.3916 26.3485 24.9352 26.3489 24.4592V21.999C26.3485 22.3213 26.2203 22.6303 25.9923 22.8581C25.7643 23.086 25.4553 23.214 25.133 23.2142Z" fill="url(#paint0_linear_1514_6)"/>
<path d="M21.6972 17.6427H18.2767V20.6836H19.6821C19.842 20.6832 20.0004 20.7144 20.1483 20.7752C20.2962 20.8361 20.4307 20.9255 20.544 21.0384C20.6573 21.1512 20.7473 21.2853 20.8088 21.4329C20.8702 21.5806 20.902 21.7389 20.9023 21.8988V27.4158C20.9025 27.5761 20.8711 27.7349 20.8098 27.883C20.7486 28.0311 20.6587 28.1657 20.5453 28.2791C20.432 28.3924 20.2974 28.4823 20.1493 28.5436C20.0011 28.6048 19.8424 28.6363 19.6821 28.6361H14.046C13.8857 28.6363 13.727 28.6048 13.5788 28.5436C13.4307 28.4823 13.2961 28.3924 13.1828 28.2791C13.0694 28.1657 12.9795 28.0311 12.9183 27.883C12.857 27.7349 12.8256 27.5761 12.8258 27.4158V21.8988C12.8261 21.7389 12.8579 21.5806 12.9193 21.4329C12.9808 21.2853 13.0708 21.1512 13.1841 21.0384C13.2975 20.9255 13.4319 20.8361 13.5798 20.7752C13.7277 20.7144 13.8861 20.6832 14.046 20.6836H15.193V17.6427H13.233L9.73047 12.5068L9.75588 19.6884L9.74862 20.2031V29.3896C9.74852 29.6897 9.80756 29.987 9.92236 30.2643C10.0372 30.5416 10.2055 30.7937 10.4177 31.0059C10.6299 31.2182 10.8818 31.3866 11.1591 31.5015C11.4364 31.6164 11.7336 31.6755 12.0338 31.6755H21.7023C22.0024 31.6755 22.2997 31.6164 22.577 31.5015C22.8543 31.3866 23.1062 31.2182 23.3184 31.0059C23.5306 30.7937 23.6989 30.5416 23.8137 30.2643C23.9285 29.987 23.9876 29.6897 23.9875 29.3896V19.9287C23.9867 19.3219 23.745 18.7402 23.3156 18.3116C22.8861 17.8829 22.304 17.6423 21.6972 17.6427Z" fill="#3EC745"/>
<path d="M12.8256 27.4146V24.3345H9.76074V26.2647C9.76055 26.576 9.82173 26.8843 9.94077 27.1719C10.0598 27.4596 10.2344 27.7209 10.4545 27.9411C10.6746 28.1612 10.936 28.3358 11.2236 28.4548C11.5113 28.5738 11.8196 28.635 12.1309 28.6348H14.0458C13.7223 28.6344 13.4122 28.5058 13.1834 28.277C12.9546 28.0482 12.8259 27.7381 12.8256 27.4146Z" fill="url(#paint1_linear_1514_6)"/>
<path d="M23.9828 29.3898V24.3345H20.902V27.175C20.902 27.175 21.2919 31.6706 18.3613 31.6706H21.7005C22.0002 31.6709 22.297 31.6121 22.5739 31.4976C22.8509 31.3831 23.1025 31.2151 23.3145 31.0033C23.5265 30.7915 23.6946 30.5399 23.8093 30.2631C23.9239 29.9862 23.9829 29.6895 23.9828 29.3898Z" fill="url(#paint2_linear_1514_6)"/>
<path d="M19.4917 17.6431H14.0459V20.6832H19.4917V17.6431Z" fill="url(#paint3_linear_1514_6)"/>
<path d="M18.2771 17.6431H15.1963V20.6832H18.2771V17.6431Z" fill="#1574AD"/>
<path d="M18.2764 21.994V16.5576H15.1963V21.1186C15.1971 21.674 15.418 22.2065 15.8107 22.5994C16.2034 22.9922 16.7358 23.2134 17.2913 23.2143H19.4966C19.3363 23.2145 19.1776 23.1831 19.0294 23.1218C18.8813 23.0606 18.7467 22.9707 18.6333 22.8573C18.52 22.744 18.4301 22.6094 18.3689 22.4612C18.3076 22.3131 18.2762 22.1543 18.2764 21.994Z" fill="url(#paint4_linear_1514_6)"/>
<path d="M20.2192 36.2395C16.8845 36.2401 13.6244 35.2517 10.8514 33.3993C8.07845 31.5469 5.91715 28.9136 4.6409 25.8327C3.36464 22.7518 3.03078 19.3616 3.68154 16.0909C4.33229 12.8202 5.93843 9.81595 8.29679 7.45819C11.4586 4.29633 15.747 2.52002 20.2185 2.52002C24.69 2.52002 28.9784 4.29633 32.1402 7.45819C35.3021 10.62 37.0784 14.9084 37.0784 19.38C37.0784 23.8515 35.3021 28.1399 32.1402 31.3018C30.5785 32.8723 28.7207 34.1174 26.6744 34.965C24.6282 35.8125 22.4341 36.2457 20.2192 36.2395ZM20.2192 3.6834C11.5634 3.6834 4.52202 10.7248 4.52202 19.3807C4.52202 28.0366 11.5634 35.078 20.2192 35.078C28.8751 35.078 35.9165 28.0366 35.9165 19.3807C35.9165 10.7248 28.8751 3.6834 20.2192 3.6834Z" fill="#34AF3A"/>
<path d="M31.5356 26.7109C28.8789 26.7109 26.7109 28.8789 26.7109 31.5357C26.7109 34.1924 28.8789 36.3604 31.5356 36.3604C32.6245 36.3604 33.628 35.9918 34.4373 35.3789L37.5538 38.4943C37.7202 38.6682 37.9686 38.7387 38.2014 38.6774C38.4347 38.6168 38.6167 38.4348 38.6774 38.2014C38.7386 37.9686 38.6681 37.7202 38.4942 37.5539L35.3789 34.4373C35.9918 33.628 36.3603 32.6246 36.3603 31.5357C36.3603 28.8789 34.1923 26.7109 31.5356 26.7109ZM31.5356 28.0419C33.4731 28.0419 35.0294 29.5981 35.0294 31.5357C35.0294 32.4657 34.6683 33.3062 34.0808 33.9307C34.0237 33.9717 33.9734 34.022 33.9318 34.0792C33.3073 34.6678 32.4663 35.0294 31.5356 35.0294C29.5981 35.0294 28.0419 33.4732 28.0419 31.5357C28.0419 29.5981 29.5981 28.0419 31.5356 28.0419Z" fill="#00BE00"/>
<path fill-rule="evenodd" clip-rule="evenodd" d="M35.3789 34.4374C35.3793 34.4369 35.3796 34.4365 35.38 34.436C35.8986 33.7507 36.2421 32.9263 36.335 32.0288C36.3518 31.8667 36.3604 31.7022 36.3604 31.5357C36.3604 28.879 34.1924 26.711 31.5357 26.711C28.879 26.711 26.711 28.879 26.711 31.5357C26.711 34.1925 28.879 36.3605 31.5357 36.3605C31.7022 36.3605 31.8667 36.3518 32.0287 36.3351C32.9262 36.2421 33.7506 35.8987 34.4359 35.3801C34.4364 35.3797 34.4368 35.3794 34.4373 35.379L37.5537 38.4942C37.5605 38.5013 37.5676 38.5084 37.5746 38.5151C37.7405 38.6738 37.9781 38.7362 38.2014 38.6775C38.4348 38.6169 38.6168 38.4349 38.6774 38.2015C38.7362 37.9782 38.6737 37.7405 38.5151 37.5747C38.5083 37.5676 38.5014 37.5607 38.4943 37.5539L35.3789 34.4374ZM41.1025 34.9139C42.2158 36.0084 42.6657 37.6197 42.2678 39.1402C41.8677 40.6718 40.6718 41.8677 39.1402 42.2678C37.6197 42.6657 36.0083 42.2158 34.9138 41.1025L33.622 39.8111C32.9557 39.9805 32.2568 40.0715 31.5357 40.0715C26.8294 40.0715 23 36.242 23 31.5357C23 26.8295 26.8294 23 31.5357 23C36.242 23 40.0714 26.8295 40.0714 31.5357C40.0714 32.2568 39.9804 32.9557 39.8111 33.622L41.1025 34.9139ZM30.5977 34.9035C30.8959 34.9856 31.2104 35.0295 31.5357 35.0295C32.3282 35.0295 33.0557 34.7673 33.6398 34.326C33.7417 34.249 33.8392 34.1666 33.9319 34.0792C33.9735 34.022 34.0237 33.9718 34.0809 33.9308C34.1678 33.8385 34.2496 33.7414 34.3262 33.6401C34.7673 33.0559 35.0295 32.3283 35.0295 31.5357C35.0295 31.2105 34.9856 30.8959 34.9034 30.5977C34.4962 29.1195 33.1479 28.042 31.5357 28.042C29.5982 28.042 28.042 29.5982 28.042 31.5357C28.042 33.148 29.1195 34.4962 30.5977 34.9035ZM31.6811 31.6915C31.6829 31.6898 31.6846 31.6881 31.6864 31.6864C31.6878 31.6849 31.6892 31.6835 31.6906 31.682L31.5272 31.5283L31.6811 31.6915Z" fill="#F7F7F7"/>
</g>
<defs>
<linearGradient id="paint0_linear_1514_6" x1="26.3482" y1="24.1267" x2="18.967" y2="24.1267" gradientUnits="userSpaceOnUse">
<stop stop-opacity="0.3"/>
<stop offset="1" stop-color="#1574AD"/>
</linearGradient>
<linearGradient id="paint1_linear_1514_6" x1="11.9029" y1="28.6356" x2="11.9029" y2="24.3345" gradientUnits="userSpaceOnUse">
<stop stop-opacity="0.3"/>
<stop offset="0.07" stop-color="#071808" stop-opacity="0.35"/>
<stop offset="0.25" stop-color="#184D1B" stop-opacity="0.47"/>
<stop offset="0.42" stop-color="#26792A" stop-opacity="0.59"/>
<stop offset="0.58" stop-color="#309B36" stop-opacity="0.71"/>
<stop offset="0.74" stop-color="#38B33E" stop-opacity="0.82"/>
<stop offset="0.88" stop-color="#3CC243" stop-opacity="0.92"/>
<stop offset="1" stop-color="#3EC745"/>
</linearGradient>
<linearGradient id="paint2_linear_1514_6" x1="21.1721" y1="31.6706" x2="21.1721" y2="24.3345" gradientUnits="userSpaceOnUse">
<stop stop-opacity="0.3"/>
<stop offset="0.23" stop-color="#123914" stop-opacity="0.46"/>
<stop offset="0.49" stop-color="#257529" stop-opacity="0.65"/>
<stop offset="0.72" stop-color="#32A238" stop-opacity="0.8"/>
<stop offset="0.9" stop-color="#3BBD41" stop-opacity="0.93"/>
<stop offset="1" stop-color="#3EC745"/>
</linearGradient>
<linearGradient id="paint3_linear_1514_6" x1="19.4917" y1="19.1639" x2="14.0459" y2="19.1639" gradientUnits="userSpaceOnUse">
<stop stop-color="#3EC745"/>
<stop offset="0.06" stop-color="#3AB940" stop-opacity="0.92"/>
<stop offset="0.16" stop-color="#2F9534" stop-opacity="0.78"/>
<stop offset="0.3" stop-color="#1C5B20" stop-opacity="0.58"/>
<stop offset="0.48" stop-color="#040B04" stop-opacity="0.33"/>
<stop offset="0.5" stop-opacity="0.3"/>
<stop offset="0.61" stop-color="#123914" stop-opacity="0.46"/>
<stop offset="0.75" stop-color="#257529" stop-opacity="0.65"/>
<stop offset="0.86" stop-color="#32A238" stop-opacity="0.8"/>
<stop offset="0.95" stop-color="#3BBD41" stop-opacity="0.93"/>
<stop offset="1" stop-color="#3EC745"/>
</linearGradient>
<linearGradient id="paint4_linear_1514_6" x1="17.3465" y1="23.2143" x2="17.3465" y2="16.5583" gradientUnits="userSpaceOnUse">
<stop stop-opacity="0.3"/>
<stop offset="0.18" stop-color="#062233" stop-opacity="0.43"/>
<stop offset="0.37" stop-color="#0B3F5F" stop-opacity="0.56"/>
<stop offset="0.55" stop-color="#105681" stop-opacity="0.68"/>
<stop offset="0.72" stop-color="#136799" stop-opacity="0.8"/>
<stop offset="0.87" stop-color="#1471A8" stop-opacity="0.91"/>
<stop offset="1" stop-color="#1574AD"/>
</linearGradient>
<clipPath id="clip0_1514_6">
<rect width="41.9998" height="42" fill="white"/>
</clipPath>
</defs>
</svg>
