<svg width="42" height="42" viewBox="0 0 42 42" fill="none" xmlns="http://www.w3.org/2000/svg">
<g clip-path="url(#clip0_8_647)">
<path d="M9.74878 19.9285V20.2029L9.75894 19.6882C9.74878 19.7681 9.74878 19.8429 9.74878 19.9285Z" fill="#0A0A0A"/>
<path d="M29.4216 14.2671L29.4318 14.7825V23.9691C29.4318 24.2692 29.3726 24.5664 29.2577 24.8437C29.1429 25.121 28.9745 25.373 28.7622 25.5852C28.5499 25.7974 28.2979 25.9657 28.0206 26.0805C27.7432 26.1953 27.446 26.2543 27.1459 26.2542H23.9772V23.2141H25.122C25.2819 23.2145 25.4404 23.1833 25.5883 23.1225C25.7361 23.0616 25.8706 22.9722 25.9839 22.8593C26.0972 22.7465 26.1872 22.6124 26.2487 22.4648C26.3102 22.3171 26.342 22.1588 26.3423 21.9989V16.4775C26.3425 16.3172 26.311 16.1585 26.2498 16.0103C26.1885 15.8622 26.0986 15.7276 25.9853 15.6143C25.8719 15.5009 25.7373 15.411 25.5892 15.3498C25.4411 15.2885 25.2823 15.2571 25.122 15.2573H19.4961C19.3358 15.2571 19.1771 15.2885 19.0289 15.3498C18.8808 15.411 18.7462 15.5009 18.6329 15.6143C18.5195 15.7276 18.4296 15.8622 18.3684 16.0103C18.3071 16.1585 18.2757 16.3172 18.2759 16.4775V21.9989C18.2762 22.1588 18.308 22.3171 18.3694 22.4648C18.4309 22.6124 18.5209 22.7465 18.6342 22.8593C18.7476 22.9722 18.882 23.0616 19.0299 23.1225C19.1778 23.1833 19.3362 23.2145 19.4961 23.2141H20.9015V26.2542H17.4825C17.1823 26.2543 16.8851 26.1953 16.6078 26.0805C16.3305 25.9657 16.0786 25.7974 15.8664 25.5851C15.6542 25.3729 15.4858 25.121 15.371 24.8437C15.2562 24.5664 15.1972 24.2692 15.1973 23.9691V14.5074C15.1972 14.2073 15.2562 13.9101 15.371 13.6328C15.4858 13.3555 15.6542 13.1035 15.8664 12.8913C16.0786 12.6791 16.3305 12.5108 16.6078 12.396C16.8851 12.2811 17.1823 12.2221 17.4825 12.2222H25.9488L29.4492 7.0863L29.4216 14.2671Z" fill="#1574AD"/>
<path d="M25.1335 23.214H18.9683V26.2541H24.5542C25.0302 26.2537 25.4866 26.0645 25.8232 25.7279C26.1597 25.3913 26.349 24.9349 26.3494 24.4589V21.9988C26.349 22.3211 26.2207 22.6301 25.9928 22.8579C25.7648 23.0857 25.4558 23.2138 25.1335 23.214Z" fill="url(#paint0_linear_8_647)"/>
<path d="M21.6972 17.6426H18.2767V20.6835H19.6821C19.842 20.6831 20.0004 20.7142 20.1483 20.7751C20.2962 20.836 20.4307 20.9254 20.544 21.0382C20.6573 21.1511 20.7473 21.2852 20.8088 21.4328C20.8702 21.5804 20.902 21.7388 20.9023 21.8987V27.4157C20.9025 27.576 20.8711 27.7347 20.8098 27.8829C20.7486 28.031 20.6587 28.1656 20.5453 28.279C20.432 28.3923 20.2974 28.4822 20.1493 28.5435C20.0011 28.6047 19.8424 28.6361 19.6821 28.636H14.046C13.8857 28.6361 13.727 28.6047 13.5788 28.5435C13.4307 28.4822 13.2961 28.3923 13.1828 28.279C13.0694 28.1656 12.9795 28.031 12.9183 27.8829C12.857 27.7347 12.8256 27.576 12.8258 27.4157V21.8987C12.8261 21.7388 12.8579 21.5804 12.9193 21.4328C12.9808 21.2852 13.0708 21.1511 13.1841 21.0382C13.2975 20.9254 13.4319 20.836 13.5798 20.7751C13.7277 20.7142 13.8861 20.6831 14.046 20.6835H15.193V17.6426H13.233L9.73047 12.5067L9.75588 19.6882L9.74862 20.2029V29.3895C9.74852 29.6896 9.80756 29.9869 9.92236 30.2642C10.0372 30.5415 10.2055 30.7935 10.4177 31.0058C10.6299 31.2181 10.8818 31.3865 11.1591 31.5014C11.4364 31.6163 11.7336 31.6754 12.0338 31.6754H21.7023C22.0024 31.6754 22.2997 31.6163 22.577 31.5014C22.8543 31.3865 23.1062 31.2181 23.3184 31.0058C23.5306 30.7935 23.6989 30.5415 23.8137 30.2642C23.9285 29.9869 23.9876 29.6896 23.9875 29.3895V19.9285C23.9867 19.3217 23.745 18.7401 23.3156 18.3114C22.8861 17.8828 22.304 17.6422 21.6972 17.6426Z" fill="#3EC745"/>
<path d="M12.8263 27.4142V24.3341H9.76148V26.2643C9.76128 26.5756 9.82246 26.8839 9.9415 27.1716C10.0605 27.4592 10.2351 27.7206 10.4552 27.9407C10.6754 28.1608 10.9367 28.3354 11.2244 28.4544C11.512 28.5735 11.8203 28.6347 12.1316 28.6345H14.0466C13.723 28.6341 13.4129 28.5054 13.1841 28.2766C12.9554 28.0479 12.8267 27.7377 12.8263 27.4142Z" fill="url(#paint1_linear_8_647)"/>
<path d="M23.9836 29.3894V24.3341H20.9028V27.1746C20.9028 27.1746 21.2926 31.6703 18.3621 31.6703H21.7013C22.0009 31.6706 22.2977 31.6118 22.5747 31.4973C22.8516 31.3828 23.1033 31.2148 23.3152 31.0029C23.5272 30.7911 23.6953 30.5396 23.81 30.2627C23.9247 29.9858 23.9837 29.6891 23.9836 29.3894Z" fill="url(#paint2_linear_8_647)"/>
<path d="M19.4922 17.6426H14.0464V20.6827H19.4922V17.6426Z" fill="url(#paint3_linear_8_647)"/>
<path d="M18.2781 17.6426H15.1973V20.6827H18.2781V17.6426Z" fill="#1574AD"/>
<path d="M18.2773 21.9938V16.5574H15.1973V21.1183C15.198 21.6738 15.419 22.2063 15.8117 22.5991C16.2044 22.992 16.7368 23.2131 17.2923 23.2141H19.4976C19.3373 23.2143 19.1785 23.1828 19.0304 23.1216C18.8823 23.0603 18.7477 22.9704 18.6343 22.8571C18.521 22.7437 18.4311 22.6091 18.3698 22.461C18.3086 22.3129 18.2771 22.1541 18.2773 21.9938Z" fill="url(#paint4_linear_8_647)"/>
<path d="M20.2197 36.2393C16.8849 36.2399 13.6249 35.2515 10.8519 33.399C8.07894 31.5466 5.91764 28.9134 4.64138 25.8325C3.36513 22.7516 3.03127 19.3613 3.68202 16.0906C4.33278 12.8199 5.93892 9.8157 8.29728 7.45795C11.4591 4.29609 15.7475 2.51978 20.219 2.51978C24.6905 2.51978 28.9789 4.29609 32.1407 7.45795C35.3026 10.6198 37.0789 14.9082 37.0789 19.3797C37.0789 23.8513 35.3026 28.1397 32.1407 31.3015C30.579 32.8721 28.7212 34.1172 26.6749 34.9647C24.6287 35.8123 22.4346 36.2455 20.2197 36.2393ZM20.2197 3.68316C11.5639 3.68316 4.52251 10.7246 4.52251 19.3805C4.52251 28.0364 11.5639 35.0778 20.2197 35.0778C28.8756 35.0778 35.917 28.0364 35.917 19.3805C35.917 10.7246 28.8756 3.68316 20.2197 3.68316Z" fill="#34AF3A"/>
<path d="M34.0623 38.4698C33.2682 38.8071 32.3938 38.9965 31.4741 38.9965C27.7926 38.9965 24.7939 35.9978 24.7939 32.3163C24.7939 28.6348 27.7926 25.6361 31.4741 25.6361C35.1556 25.6361 38.1543 28.6348 38.1543 32.3163C38.1543 33.236 37.9649 34.1104 37.6276 34.9045L39.7351 37.0128C40.3806 37.6439 40.6413 38.5759 40.4103 39.4541M34.0623 38.4698L38.8044 37.963L38.8187 37.9773L38.833 37.9922C38.8235 37.9823 38.8139 37.9727 38.8042 37.9632L38.4327 38.3345M34.0623 38.4698L36.1705 40.5773M34.0623 38.4698L36.1705 40.5773M40.4103 39.4541L38.616 38.9821L40.4117 39.4488C40.4112 39.4506 40.4108 39.4523 40.4103 39.4541ZM40.4103 39.4541C40.1793 40.3353 39.4908 41.0231 38.6092 41.2532M38.6092 41.2532C38.6101 41.253 38.611 41.2528 38.6118 41.2525L38.1399 39.4583L38.6066 41.2539C38.6075 41.2537 38.6083 41.2535 38.6092 41.2532ZM38.6092 41.2532C37.7318 41.483 36.801 41.2222 36.1705 40.5773M36.1705 40.5773L36.1805 40.5872L37.1208 39.6466L37.135 39.6609L37.15 39.6752C37.1401 39.6657 37.1304 39.6562 37.1209 39.6464L37.4923 39.275C37.4991 39.282 37.506 39.289 37.513 39.2957C37.6789 39.4544 37.9165 39.5168 38.1398 39.4581C38.3732 39.3974 38.5552 39.2155 38.6158 38.9821C38.6746 38.7588 38.6121 38.5211 38.4535 38.3553C38.4467 38.3482 38.4398 38.3413 38.4327 38.3345M38.4327 38.3345L38.4403 38.3266L38.7958 37.955C38.517 37.6882 38.1254 37.5722 37.7446 37.6461L38.4326 38.3343L38.4327 38.3345ZM33.1124 32.3163C33.1124 32.7212 32.9696 33.0851 32.7299 33.3702C32.6592 33.4333 32.5924 33.5001 32.5299 33.57C32.2448 33.8109 31.8801 33.9546 31.4741 33.9546C30.5614 33.9546 29.8359 33.2291 29.8359 32.3163C29.8359 31.4035 30.5614 30.678 31.4741 30.678C32.3868 30.678 33.1124 31.4035 33.1124 32.3163Z" fill="#00BE00" stroke="#F3F3F3" stroke-width="3.71101"/>
</g>
<defs>
<linearGradient id="paint0_linear_8_647" x1="26.3487" y1="24.1265" x2="18.9675" y2="24.1265" gradientUnits="userSpaceOnUse">
<stop stop-opacity="0.3"/>
<stop offset="1" stop-color="#1574AD"/>
</linearGradient>
<linearGradient id="paint1_linear_8_647" x1="11.9037" y1="28.6352" x2="11.9037" y2="24.3341" gradientUnits="userSpaceOnUse">
<stop stop-opacity="0.3"/>
<stop offset="0.07" stop-color="#071808" stop-opacity="0.35"/>
<stop offset="0.25" stop-color="#184D1B" stop-opacity="0.47"/>
<stop offset="0.42" stop-color="#26792A" stop-opacity="0.59"/>
<stop offset="0.58" stop-color="#309B36" stop-opacity="0.71"/>
<stop offset="0.74" stop-color="#38B33E" stop-opacity="0.82"/>
<stop offset="0.88" stop-color="#3CC243" stop-opacity="0.92"/>
<stop offset="1" stop-color="#3EC745"/>
</linearGradient>
<linearGradient id="paint2_linear_8_647" x1="21.1728" y1="31.6703" x2="21.1728" y2="24.3341" gradientUnits="userSpaceOnUse">
<stop stop-opacity="0.3"/>
<stop offset="0.23" stop-color="#123914" stop-opacity="0.46"/>
<stop offset="0.49" stop-color="#257529" stop-opacity="0.65"/>
<stop offset="0.72" stop-color="#32A238" stop-opacity="0.8"/>
<stop offset="0.9" stop-color="#3BBD41" stop-opacity="0.93"/>
<stop offset="1" stop-color="#3EC745"/>
</linearGradient>
<linearGradient id="paint3_linear_8_647" x1="19.4922" y1="19.1634" x2="14.0464" y2="19.1634" gradientUnits="userSpaceOnUse">
<stop stop-color="#3EC745"/>
<stop offset="0.06" stop-color="#3AB940" stop-opacity="0.92"/>
<stop offset="0.16" stop-color="#2F9534" stop-opacity="0.78"/>
<stop offset="0.3" stop-color="#1C5B20" stop-opacity="0.58"/>
<stop offset="0.48" stop-color="#040B04" stop-opacity="0.33"/>
<stop offset="0.5" stop-opacity="0.3"/>
<stop offset="0.61" stop-color="#123914" stop-opacity="0.46"/>
<stop offset="0.75" stop-color="#257529" stop-opacity="0.65"/>
<stop offset="0.86" stop-color="#32A238" stop-opacity="0.8"/>
<stop offset="0.95" stop-color="#3BBD41" stop-opacity="0.93"/>
<stop offset="1" stop-color="#3EC745"/>
</linearGradient>
<linearGradient id="paint4_linear_8_647" x1="17.3474" y1="23.2141" x2="17.3474" y2="16.5581" gradientUnits="userSpaceOnUse">
<stop stop-opacity="0.3"/>
<stop offset="0.18" stop-color="#062233" stop-opacity="0.43"/>
<stop offset="0.37" stop-color="#0B3F5F" stop-opacity="0.56"/>
<stop offset="0.55" stop-color="#105681" stop-opacity="0.68"/>
<stop offset="0.72" stop-color="#136799" stop-opacity="0.8"/>
<stop offset="0.87" stop-color="#1471A8" stop-opacity="0.91"/>
<stop offset="1" stop-color="#1574AD"/>
</linearGradient>
<clipPath id="clip0_8_647">
<rect width="41.9998" height="42" fill="white"/>
</clipPath>
</defs>
</svg>
