<svg width="42" height="42" viewBox="0 0 42 42" fill="none" xmlns="http://www.w3.org/2000/svg">
<g clip-path="url(#clip0_1389_213)">
<path d="M9.74878 19.9288V20.2032L9.75894 19.6885C9.74878 19.7683 9.74878 19.8431 9.74878 19.9288Z" fill="#0A0A0A"/>
<path d="M29.4215 14.2672L29.4316 14.7826V23.9692C29.4316 24.2693 29.3725 24.5665 29.2576 24.8438C29.1427 25.1211 28.9743 25.3731 28.7621 25.5853C28.5498 25.7975 28.2978 25.9658 28.0205 26.0806C27.7431 26.1954 27.4459 26.2545 27.1457 26.2544H23.9771V23.2142H25.1219C25.2818 23.2146 25.4402 23.1835 25.5881 23.1226C25.736 23.0617 25.8705 22.9723 25.9838 22.8595C26.0971 22.7466 26.1871 22.6125 26.2486 22.4649C26.3101 22.3173 26.3419 22.159 26.3421 21.999V16.4777C26.3423 16.3174 26.3109 16.1586 26.2496 16.0105C26.1884 15.8623 26.0985 15.7277 25.9852 15.6144C25.8718 15.501 25.7372 15.4111 25.5891 15.3499C25.4409 15.2886 25.2822 15.2572 25.1219 15.2574H19.496C19.3357 15.2572 19.177 15.2886 19.0288 15.3499C18.8807 15.4111 18.7461 15.501 18.6327 15.6144C18.5194 15.7277 18.4295 15.8623 18.3683 16.0105C18.307 16.1586 18.2756 16.3174 18.2758 16.4777V21.999C18.276 22.159 18.3078 22.3173 18.3693 22.4649C18.4308 22.6125 18.5208 22.7466 18.6341 22.8595C18.7474 22.9723 18.8819 23.0617 19.0298 23.1226C19.1777 23.1835 19.3361 23.2146 19.496 23.2142H20.9014V26.2544H17.4823C17.1822 26.2545 16.885 26.1954 16.6077 26.0806C16.3304 25.9658 16.0785 25.7975 15.8662 25.5853C15.654 25.373 15.4857 25.1211 15.3709 24.8438C15.2561 24.5665 15.197 24.2693 15.1971 23.9692V14.5075C15.197 14.2074 15.2561 13.9102 15.3709 13.6329C15.4857 13.3556 15.654 13.1036 15.8662 12.8914C16.0785 12.6792 16.3304 12.5109 16.6077 12.3961C16.885 12.2813 17.1822 12.2222 17.4823 12.2223H25.9487L29.4491 7.08643L29.4215 14.2672Z" fill="#1574AD"/>
<path d="M25.1335 23.2142H18.9683V26.2544H24.5542C25.0302 26.254 25.4866 26.0647 25.8232 25.7281C26.1597 25.3916 26.349 24.9352 26.3494 24.4592V21.999C26.349 22.3213 26.2207 22.6303 25.9928 22.8581C25.7648 23.086 25.4558 23.214 25.1335 23.2142Z" fill="url(#paint0_linear_1389_213)"/>
<path d="M21.6973 17.6427H18.2768V20.6836H19.6822C19.8421 20.6832 20.0005 20.7144 20.1484 20.7752C20.2963 20.8361 20.4308 20.9255 20.5441 21.0384C20.6574 21.1512 20.7474 21.2853 20.8089 21.4329C20.8704 21.5806 20.9022 21.7389 20.9024 21.8988V27.4158C20.9026 27.5761 20.8712 27.7349 20.81 27.883C20.7487 28.0311 20.6588 28.1657 20.5455 28.2791C20.4321 28.3924 20.2975 28.4823 20.1494 28.5436C20.0012 28.6048 19.8425 28.6363 19.6822 28.6361H14.0462C13.8859 28.6363 13.7271 28.6048 13.579 28.5436C13.4308 28.4823 13.2962 28.3924 13.1829 28.2791C13.0695 28.1657 12.9797 28.0311 12.9184 27.883C12.8571 27.7349 12.8257 27.5761 12.8259 27.4158V21.8988C12.8262 21.7389 12.858 21.5806 12.9195 21.4329C12.981 21.2853 13.0709 21.1512 13.1843 21.0384C13.2976 20.9255 13.432 20.8361 13.5799 20.7752C13.7278 20.7144 13.8862 20.6832 14.0462 20.6836H15.1931V17.6427H13.2331L9.73059 12.5068L9.756 19.6884L9.74874 20.2031V29.3896C9.74864 29.6897 9.80768 29.987 9.92248 30.2643C10.0373 30.5416 10.2056 30.7937 10.4178 31.0059C10.63 31.2182 10.882 31.3866 11.1593 31.5015C11.4366 31.6164 11.7338 31.6755 12.0339 31.6755H21.7024C22.0026 31.6755 22.2998 31.6164 22.5771 31.5015C22.8544 31.3866 23.1063 31.2182 23.3185 31.0059C23.5307 30.7937 23.6991 30.5416 23.8139 30.2643C23.9287 29.987 23.9877 29.6897 23.9876 29.3896V19.9287C23.9868 19.3219 23.7451 18.7402 23.3157 18.3116C22.8862 17.8829 22.3041 17.6423 21.6973 17.6427Z" fill="#3EC745"/>
<path d="M12.8262 27.4146V24.3345H9.76135V26.2647C9.76116 26.576 9.82234 26.8843 9.94138 27.1719C10.0604 27.4596 10.235 27.7209 10.4551 27.9411C10.6752 28.1612 10.9366 28.3358 11.2242 28.4548C11.5119 28.5738 11.8202 28.635 12.1315 28.6348H14.0464C13.7229 28.6344 13.4128 28.5058 13.184 28.277C12.9552 28.0482 12.8266 27.7381 12.8262 27.4146Z" fill="url(#paint1_linear_1389_213)"/>
<path d="M23.9836 29.3898V24.3345H20.9028V27.175C20.9028 27.175 21.2926 31.6706 18.3621 31.6706H21.7013C22.0009 31.6709 22.2977 31.6121 22.5747 31.4976C22.8516 31.3831 23.1033 31.2151 23.3152 31.0033C23.5272 30.7915 23.6953 30.5399 23.81 30.2631C23.9247 29.9862 23.9837 29.6895 23.9836 29.3898Z" fill="url(#paint2_linear_1389_213)"/>
<path d="M19.4923 17.6431H14.0465V20.6832H19.4923V17.6431Z" fill="url(#paint3_linear_1389_213)"/>
<path d="M18.2779 17.6431H15.1971V20.6832H18.2779V17.6431Z" fill="#1574AD"/>
<path d="M18.2772 21.994V16.5576H15.1971V21.1186C15.1979 21.674 15.4189 22.2065 15.8116 22.5994C16.2043 22.9922 16.7367 23.2134 17.2921 23.2143H19.4975C19.3372 23.2145 19.1784 23.1831 19.0303 23.1218C18.8821 23.0606 18.7475 22.9707 18.6342 22.8573C18.5208 22.744 18.431 22.6094 18.3697 22.4612C18.3085 22.3131 18.277 22.1543 18.2772 21.994Z" fill="url(#paint4_linear_1389_213)"/>
<path d="M20.2197 36.2395C16.8849 36.2401 13.6249 35.2517 10.8519 33.3993C8.07894 31.5469 5.91764 28.9136 4.64138 25.8327C3.36513 22.7518 3.03127 19.3616 3.68202 16.0909C4.33278 12.8202 5.93892 9.81595 8.29728 7.45819C11.4591 4.29633 15.7475 2.52002 20.219 2.52002C24.6905 2.52002 28.9789 4.29633 32.1407 7.45819C35.3026 10.62 37.0789 14.9084 37.0789 19.38C37.0789 23.8515 35.3026 28.1399 32.1407 31.3018C30.579 32.8723 28.7212 34.1174 26.6749 34.965C24.6287 35.8125 22.4346 36.2457 20.2197 36.2395ZM20.2197 3.6834C11.5639 3.6834 4.52251 10.7248 4.52251 19.3807C4.52251 28.0366 11.5639 35.078 20.2197 35.078C28.8756 35.078 35.917 28.0366 35.917 19.3807C35.917 10.7248 28.8756 3.6834 20.2197 3.6834Z" fill="#34AF3A"/>
<path d="M31.5358 26.7109C28.8791 26.7109 26.7111 28.8789 26.7111 31.5357C26.7111 34.1924 28.8791 36.3604 31.5358 36.3604C32.6247 36.3604 33.6281 35.9918 34.4374 35.3789L37.5539 38.4943C37.7203 38.6682 37.9687 38.7387 38.2015 38.6774C38.4349 38.6168 38.6168 38.4348 38.6775 38.2014C38.7387 37.9686 38.6682 37.7202 38.4944 37.5539L35.379 34.4373C35.9919 33.628 36.3605 32.6246 36.3605 31.5357C36.3605 28.8789 34.1925 26.7109 31.5358 26.7109ZM31.5358 28.0419C33.4733 28.0419 35.0295 29.5981 35.0295 31.5357C35.0295 32.4657 34.6685 33.3062 34.081 33.9307C34.0238 33.9717 33.9735 34.022 33.9319 34.0792C33.3075 34.6678 32.4664 35.0294 31.5358 35.0294C29.5983 35.0294 28.042 33.4732 28.042 31.5357C28.042 29.5981 29.5983 28.0419 31.5358 28.0419Z" fill="#00BE00"/>
<path fill-rule="evenodd" clip-rule="evenodd" d="M35.3789 34.4374C35.3793 34.4369 35.3796 34.4365 35.38 34.436C35.8986 33.7507 36.2421 32.9263 36.335 32.0288C36.3518 31.8667 36.3604 31.7022 36.3604 31.5357C36.3604 28.879 34.1924 26.711 31.5357 26.711C28.879 26.711 26.711 28.879 26.711 31.5357C26.711 34.1925 28.879 36.3605 31.5357 36.3605C31.7022 36.3605 31.8667 36.3518 32.0287 36.3351C32.9262 36.2421 33.7506 35.8987 34.4359 35.3801C34.4364 35.3797 34.4368 35.3794 34.4373 35.379L37.5537 38.4942C37.5605 38.5013 37.5676 38.5084 37.5746 38.5151C37.7405 38.6738 37.9781 38.7362 38.2014 38.6775C38.4348 38.6169 38.6168 38.4349 38.6774 38.2015C38.7362 37.9782 38.6737 37.7405 38.5151 37.5747C38.5083 37.5676 38.5014 37.5607 38.4943 37.5539L35.3789 34.4374ZM41.1025 34.9139C42.2158 36.0084 42.6657 37.6197 42.2678 39.1402C41.8677 40.6718 40.6718 41.8677 39.1402 42.2678C37.6197 42.6657 36.0083 42.2158 34.9138 41.1025L33.622 39.8111C32.9557 39.9805 32.2568 40.0715 31.5357 40.0715C26.8294 40.0715 23 36.242 23 31.5357C23 26.8295 26.8294 23 31.5357 23C36.242 23 40.0714 26.8295 40.0714 31.5357C40.0714 32.2568 39.9804 32.9557 39.8111 33.622L41.1025 34.9139ZM30.5977 34.9035C30.8959 34.9856 31.2104 35.0295 31.5357 35.0295C32.3282 35.0295 33.0557 34.7673 33.6398 34.326C33.7417 34.249 33.8392 34.1666 33.9319 34.0792C33.9735 34.022 34.0237 33.9718 34.0809 33.9308C34.1678 33.8385 34.2496 33.7414 34.3262 33.6401C34.7673 33.0559 35.0295 32.3283 35.0295 31.5357C35.0295 31.2105 34.9856 30.8959 34.9034 30.5977C34.4962 29.1195 33.1479 28.042 31.5357 28.042C29.5982 28.042 28.042 29.5982 28.042 31.5357C28.042 33.148 29.1195 34.4962 30.5977 34.9035ZM31.6811 31.6915C31.6829 31.6898 31.6846 31.6881 31.6864 31.6864C31.6878 31.6849 31.6892 31.6835 31.6906 31.682L31.5272 31.5283L31.6811 31.6915Z" fill="#282836"/>
</g>
<defs>
<linearGradient id="paint0_linear_1389_213" x1="26.3487" y1="24.1267" x2="18.9675" y2="24.1267" gradientUnits="userSpaceOnUse">
<stop stop-opacity="0.3"/>
<stop offset="1" stop-color="#1574AD"/>
</linearGradient>
<linearGradient id="paint1_linear_1389_213" x1="11.9035" y1="28.6356" x2="11.9035" y2="24.3345" gradientUnits="userSpaceOnUse">
<stop stop-opacity="0.3"/>
<stop offset="0.07" stop-color="#071808" stop-opacity="0.35"/>
<stop offset="0.25" stop-color="#184D1B" stop-opacity="0.47"/>
<stop offset="0.42" stop-color="#26792A" stop-opacity="0.59"/>
<stop offset="0.58" stop-color="#309B36" stop-opacity="0.71"/>
<stop offset="0.74" stop-color="#38B33E" stop-opacity="0.82"/>
<stop offset="0.88" stop-color="#3CC243" stop-opacity="0.92"/>
<stop offset="1" stop-color="#3EC745"/>
</linearGradient>
<linearGradient id="paint2_linear_1389_213" x1="21.1728" y1="31.6706" x2="21.1728" y2="24.3345" gradientUnits="userSpaceOnUse">
<stop stop-opacity="0.3"/>
<stop offset="0.23" stop-color="#123914" stop-opacity="0.46"/>
<stop offset="0.49" stop-color="#257529" stop-opacity="0.65"/>
<stop offset="0.72" stop-color="#32A238" stop-opacity="0.8"/>
<stop offset="0.9" stop-color="#3BBD41" stop-opacity="0.93"/>
<stop offset="1" stop-color="#3EC745"/>
</linearGradient>
<linearGradient id="paint3_linear_1389_213" x1="19.4923" y1="19.1639" x2="14.0465" y2="19.1639" gradientUnits="userSpaceOnUse">
<stop stop-color="#3EC745"/>
<stop offset="0.06" stop-color="#3AB940" stop-opacity="0.92"/>
<stop offset="0.16" stop-color="#2F9534" stop-opacity="0.78"/>
<stop offset="0.3" stop-color="#1C5B20" stop-opacity="0.58"/>
<stop offset="0.48" stop-color="#040B04" stop-opacity="0.33"/>
<stop offset="0.5" stop-opacity="0.3"/>
<stop offset="0.61" stop-color="#123914" stop-opacity="0.46"/>
<stop offset="0.75" stop-color="#257529" stop-opacity="0.65"/>
<stop offset="0.86" stop-color="#32A238" stop-opacity="0.8"/>
<stop offset="0.95" stop-color="#3BBD41" stop-opacity="0.93"/>
<stop offset="1" stop-color="#3EC745"/>
</linearGradient>
<linearGradient id="paint4_linear_1389_213" x1="17.3473" y1="23.2143" x2="17.3473" y2="16.5583" gradientUnits="userSpaceOnUse">
<stop stop-opacity="0.3"/>
<stop offset="0.18" stop-color="#062233" stop-opacity="0.43"/>
<stop offset="0.37" stop-color="#0B3F5F" stop-opacity="0.56"/>
<stop offset="0.55" stop-color="#105681" stop-opacity="0.68"/>
<stop offset="0.72" stop-color="#136799" stop-opacity="0.8"/>
<stop offset="0.87" stop-color="#1471A8" stop-opacity="0.91"/>
<stop offset="1" stop-color="#1574AD"/>
</linearGradient>
<clipPath id="clip0_1389_213">
<rect width="41.9998" height="42" fill="white"/>
</clipPath>
</defs>
</svg>
