<svg width="18" height="16" viewBox="0 0 18 16" fill="none" xmlns="http://www.w3.org/2000/svg">
<path d="M9.00007 0.615479C8.34554 0.615479 7.75987 0.951534 7.43286 1.51429L0.937268 12.6883C0.610503 13.2513 0.610754 13.9231 0.938022 14.4859C1.26504 15.0487 1.85095 15.3847 2.50549 15.3847H15.4947C16.1492 15.3847 16.7351 15.0487 17.0621 14.4859C17.3894 13.9231 17.3896 13.2513 17.0629 12.6883L10.5673 1.51429C10.2405 0.951534 9.65461 0.615479 9.00007 0.615479ZM9.00007 2.05358C9.06317 2.05358 9.21926 2.07105 9.31327 2.23334L15.8086 13.4073C15.9031 13.5694 15.84 13.7129 15.8086 13.7668C15.7772 13.8208 15.6837 13.9466 15.4947 13.9466H2.50474C2.31622 13.9466 2.22296 13.8208 2.19154 13.7668C2.16012 13.7129 2.09703 13.5694 2.19154 13.4073L8.68688 2.23334C8.78089 2.07105 8.93698 2.05358 9.00007 2.05358ZM8.99454 4.59697C8.74394 4.59697 8.54059 4.67312 8.38425 4.82517C8.22765 4.97671 8.15325 5.16671 8.16029 5.39466L8.27466 9.65403C8.28898 10.1309 8.53205 10.3696 9.0051 10.3696C9.46433 10.3696 9.69759 10.1312 9.70413 9.65478L9.83986 5.40515C9.8469 5.1772 9.76873 4.9852 9.60534 4.82991C9.44196 4.67436 9.23811 4.59697 8.99454 4.59697ZM9.00007 11.3191C8.44457 11.3191 8.09242 11.7855 8.09242 12.1812C8.09242 12.5772 8.43251 13.0436 9.00007 13.0436C9.56764 13.0436 9.90773 12.6024 9.90773 12.1812C9.90773 11.7603 9.55557 11.3191 9.00007 11.3191Z" fill="#FF3D00"/>
</svg>
