<svg width="20" height="20" viewBox="0 0 20 20" fill="none" xmlns="http://www.w3.org/2000/svg">
<path fill-rule="evenodd" clip-rule="evenodd" d="M9.00047 12.908L13.3792 15.5504L12.217 10.5695L16.0857 7.21792L10.9933 6.78631L9.00047 2.08364L7.00766 6.78631L1.91526 7.21792L5.78393 10.5695L4.62173 15.5504L9.00047 12.908ZM4.5476 15.8681C4.54761 15.8681 4.5476 15.8681 4.5476 15.8681ZM16.4956 6.24907L11.6787 5.84082L9.79474 1.39502C9.49716 0.694062 8.50378 0.694062 8.2062 1.39502L6.32224 5.84082L1.50534 6.24907C0.745524 6.31336 0.437093 7.2609 1.01381 7.76003L4.67294 10.9301L3.57376 15.6409C3.40042 16.3834 4.20636 16.9693 4.85957 16.5749L9.00047 14.076L13.1414 16.5749C13.7946 16.9693 14.6005 16.3834 14.4272 15.6409L13.328 10.9301L16.9871 7.76003C17.5638 7.2609 17.2554 6.31336 16.4956 6.24907Z" fill="#222222"/>
</svg>
