<svg width="20" height="20" viewBox="0 0 20 20" fill="none" xmlns="http://www.w3.org/2000/svg">
<path d="M8.99998 13.492L9.25832 13.6479L13.3992 16.1468L13.3993 16.1468C13.674 16.3127 14.0125 16.0661 13.9398 15.7546L13.9398 15.7545L12.8406 11.0437L12.772 10.7498L13.0001 10.5522L16.6592 7.38213L16.6594 7.38197C16.9015 7.17249 16.772 6.77429 16.4529 6.74729L16.4529 6.74729L11.636 6.33903L11.3355 6.31356L11.2178 6.0359L9.33401 1.59041L8.99998 13.492ZM8.99998 13.492L8.74164 13.6479M8.99998 13.492L8.74164 13.6479M8.74164 13.6479L4.60074 16.1468L4.60063 16.1468C4.32597 16.3127 3.98745 16.0661 4.06018 15.7546L4.06019 15.7545L5.15937 11.0437L5.22795 10.7498L4.99984 10.5522L1.34071 7.38213L1.34053 7.38197C1.09848 7.17248 1.22794 6.77429 1.54701 6.74729L1.54708 6.74729L6.36398 6.33903L6.66446 6.31356M8.74164 13.6479L6.66446 6.31356M6.66446 6.31356L6.78212 6.0359M6.66446 6.31356L6.78212 6.0359M6.78212 6.0359L8.66595 1.59041M6.78212 6.0359L8.66595 1.59041M8.66595 1.59041C8.79106 1.2957 9.20857 1.2956 9.33388 1.5901L8.66595 1.59041Z" stroke="white"/>
</svg>
