<svg width="16" height="17" viewBox="0 0 16 17" fill="none" xmlns="http://www.w3.org/2000/svg">
<path d="M5.6 0.333328C2.5166 0.333328 0 2.84993 0 5.93333C0 9.01673 2.5166 11.5333 5.6 11.5333C6.9984 11.5333 8.276 11.0117 9.2594 10.1583L9.6 10.4989V11.5333L14.0688 16.0021C14.5104 16.4437 15.2272 16.4437 15.6688 16.0021C16.1104 15.5605 16.1104 14.8437 15.6688 14.4021L11.2 9.93333H10.1656L9.825 9.59273C10.6784 8.60933 11.2 7.33173 11.2 5.93333C11.2 2.84993 8.6834 0.333328 5.6 0.333328ZM5.6 1.93333C7.8186 1.93333 9.6 3.71473 9.6 5.93333C9.6 8.15193 7.8186 9.93333 5.6 9.93333C3.3814 9.93333 1.6 8.15193 1.6 5.93333C1.6 3.71473 3.3814 1.93333 5.6 1.93333Z" fill="white"/>
</svg>
