<svg width="19" height="20" viewBox="0 0 19 20" fill="none" xmlns="http://www.w3.org/2000/svg">
<g clip-path="url(#clip0_17_1652)">
<path d="M13.7077 5.55415C13.4071 5.54259 13.1282 5.71444 13.0053 5.98897C12.8812 6.2635 12.9346 6.58426 13.1426 6.80388L15.4153 9.2602H1.10956C0.842348 9.25577 0.595175 9.39602 0.460896 9.6272C0.324884 9.85685 0.324884 10.1431 0.460896 10.3728C0.595175 10.604 0.842348 10.7442 1.10956 10.7398H15.4153L13.1426 13.1961C12.9577 13.3897 12.8928 13.6671 12.9706 13.923C13.0488 14.1786 13.2582 14.3722 13.5183 14.43C13.7797 14.4878 14.0514 14.3996 14.2292 14.2017L18.1144 9.99999L14.2292 5.79824C14.0963 5.65086 13.9069 5.56128 13.7077 5.55415Z" fill="white"/>
</g>
<defs>
<clipPath id="clip0_17_1652">
<rect width="18.4946" height="18.4946" fill="white" transform="translate(0 0.752686)"/>
</clipPath>
</defs>
</svg>
