<svg width="18" height="18" viewBox="0 0 18 18" fill="none" xmlns="http://www.w3.org/2000/svg">
<path d="M16.3541 7.53105H15.75V7.5H9V10.5H13.2387C12.6203 12.2463 10.9586 13.5 9 13.5C6.51484 13.5 4.5 11.4852 4.5 9C4.5 6.51484 6.51484 4.5 9 4.5C10.1471 4.5 11.1908 4.93281 11.9854 5.63965L14.1068 3.51816C12.7672 2.26992 10.9756 1.5 9 1.5C4.8582 1.5 1.5 4.8582 1.5 9C1.5 13.1418 4.8582 16.5 9 16.5C13.1418 16.5 16.5 13.1418 16.5 9C16.5 8.49707 16.4482 8.00625 16.3541 7.53105Z" fill="#FFC107"/>
<path d="M2.36487 5.50918L4.82893 7.31621C5.49573 5.66543 7.11038 4.5 9.00002 4.5C10.1471 4.5 11.1908 4.93281 11.9854 5.63965L14.1069 3.51816C12.7672 2.26992 10.9756 1.5 9.00002 1.5C6.11936 1.5 3.62112 3.12637 2.36487 5.50918Z" fill="#FF3D00"/>
<path d="M8.99995 16.5C10.9373 16.5 12.6974 15.7586 14.0283 14.5529L11.707 12.5887C10.9541 13.1592 10.0181 13.5 8.99995 13.5C7.04917 13.5 5.39292 12.2561 4.7689 10.5203L2.323 12.4047C3.5644 14.8336 6.08511 16.5 8.99995 16.5Z" fill="#4CAF50"/>
<path d="M16.3541 7.53105H15.75V7.5H9V10.5H13.2387C12.9416 11.3389 12.402 12.0623 11.7061 12.5891C11.7064 12.5887 11.7068 12.5887 11.707 12.5883L14.0283 14.5525C13.8641 14.702 16.5 12.75 16.5 9C16.5 8.49707 16.4482 8.00625 16.3541 7.53105Z" fill="#1976D2"/>
</svg>
