<svg width="16" height="16" viewBox="0 0 16 16" fill="none" xmlns="http://www.w3.org/2000/svg">
<path d="M13.1667 14.3332H10.1667C9.7066 14.3332 9.33333 13.9599 9.33333 13.4998V10.4998C9.33333 10.1318 9.03472 9.83315 8.66667 9.83315H7.33333C6.96528 9.83315 6.66667 10.1318 6.66667 10.4998V13.4998C6.66667 13.9599 6.2934 14.3332 5.83333 14.3332H2.83333C2.37326 14.3332 2 13.9599 2 13.4998V7.13755C2 6.37135 2.35127 5.64739 2.95313 5.17343L7.69039 1.44021C7.87211 1.29727 8.12789 1.29727 8.30961 1.44021L13.0475 5.17343C13.6487 5.64739 14 6.37077 14 7.13697V13.4998C14 13.9599 13.6267 14.3332 13.1667 14.3332Z" fill="#56566B"/>
</svg>
