<svg width="14" height="16" viewBox="0 0 14 16" fill="none" xmlns="http://www.w3.org/2000/svg">
<path d="M2.88188 2.02773C3.65163 0.807472 5.01147 0 6.56671 0C8.97854 0 10.9204 1.94191 10.9204 4.35374V5.07936C11.7186 5.07936 12.3717 5.73243 12.3717 6.53061V11.5175L5.93352 5.07936H9.4692V4.35374C9.4692 2.70208 8.21837 1.45125 6.56671 1.45125C5.37577 1.45125 4.39323 2.10158 3.93775 3.08359L2.88188 2.02773Z" fill="#56566B"/>
<path d="M2.21297 4.5913V5.07936C1.41478 5.07936 0.761719 5.73243 0.761719 6.53061V13.7868C0.761719 14.585 1.41478 15.2381 2.21297 15.2381H10.9204C11.4439 15.2381 11.905 14.9572 12.1603 14.5387L8.00108 10.3794C7.89397 11.0739 7.28991 11.61 6.56671 11.61C5.76852 11.61 5.11546 10.9569 5.11546 10.1587C5.11546 9.43553 5.65158 8.83147 6.34602 8.72435L2.21297 4.5913Z" fill="#56566B"/>
<path fill-rule="evenodd" clip-rule="evenodd" d="M0.317117 2.60276C0.739941 2.17994 1.42547 2.17994 1.8483 2.60276L13.3972 14.1516C13.82 14.5745 13.82 15.26 13.3972 15.6828C12.9743 16.1056 12.2888 16.1056 11.866 15.6828L0.317117 4.13394C-0.105706 3.71112 -0.105706 3.02559 0.317117 2.60276Z" fill="#FF3D00"/>
</svg>
