<svg width="18" height="21" viewBox="0 0 18 21" fill="none" xmlns="http://www.w3.org/2000/svg">
<path fill-rule="evenodd" clip-rule="evenodd" d="M3.78272 2.6614C4.79301 1.05981 6.5778 0 8.61905 0C11.7846 0 14.3333 2.54875 14.3333 5.71429V6.66667C15.381 6.66667 16.2381 7.52381 16.2381 8.57143V15.1168L7.78799 6.66667H12.4286V5.71429C12.4286 3.54649 10.7868 1.90476 8.61905 1.90476C7.05594 1.90476 5.76636 2.75833 5.16854 4.04722L3.78272 2.6614ZM2.90476 6.02608V6.66667C1.85714 6.66667 1 7.52381 1 8.57143V18.0952C1 19.1429 1.85714 20 2.90476 20H14.3333C15.0204 20 15.6255 19.6313 15.9607 19.082L10.5017 13.623C10.3611 14.5344 9.56825 15.2381 8.61905 15.2381C7.57143 15.2381 6.71429 14.381 6.71429 13.3333C6.71429 12.3841 7.41795 11.5913 8.32939 11.4507L2.90476 6.02608Z" fill="white"/>
<path fill-rule="evenodd" clip-rule="evenodd" d="M0.416217 3.41622C0.971172 2.86126 1.87093 2.86126 2.42589 3.41622L17.5838 18.5741C18.1387 19.1291 18.1387 20.0288 17.5838 20.5838C17.0288 21.1387 16.1291 21.1387 15.5741 20.5838L0.416217 5.42589C-0.138739 4.87093 -0.138739 3.97117 0.416217 3.41622Z" fill="#FF3D00"/>
</svg>
