<svg width="13" height="16" viewBox="0 0 13 16" fill="none" xmlns="http://www.w3.org/2000/svg">
<path d="M6.09524 0.00891113C3.56281 0.00891113 1.52381 2.04791 1.52381 4.58034V5.34224C0.685714 5.34224 0 6.02796 0 6.86605V14.4851C0 15.3232 0.685714 16.0089 1.52381 16.0089H10.6667C11.5048 16.0089 12.1905 15.3232 12.1905 14.4851V6.86605C12.1905 6.02796 11.5048 5.34224 10.6667 5.34224V4.58034C10.6667 2.04791 8.62766 0.00891113 6.09524 0.00891113ZM6.09524 1.53272C7.82948 1.53272 9.14286 2.8461 9.14286 4.58034V5.34224H3.04762V4.58034C3.04762 2.8461 4.361 1.53272 6.09524 1.53272ZM6.09524 9.15177C6.93333 9.15177 7.61905 9.83748 7.61905 10.6756C7.61905 11.5137 6.93333 12.1994 6.09524 12.1994C5.25714 12.1994 4.57143 11.5137 4.57143 10.6756C4.57143 9.83748 5.25714 9.15177 6.09524 9.15177Z" fill="#56566B"/>
</svg>
