<svg width="16" height="16" viewBox="0 0 16 16" fill="none" xmlns="http://www.w3.org/2000/svg">
<g clip-path="url(#clip0_38_704)">
<path d="M4.26667 11.7334C1.92552 11.7334 0 9.81586 0 7.46673C0 5.11968 1.91962 3.20006 4.26667 3.20006C5.67795 3.20006 6.62413 3.86934 7.34792 4.78236C7.01198 5.29972 6.72882 5.83618 6.47396 6.33861C5.86493 5.36534 5.24167 4.80006 4.26667 4.80006C2.78438 4.80006 1.6 5.98444 1.6 7.46673C1.6 8.94694 2.7934 10.1334 4.26667 10.1334C5.02743 10.1334 5.47604 9.85562 5.95 9.31986C6.42396 8.78409 6.84531 7.9742 7.28125 7.10736C7.71719 6.24052 8.16823 5.31638 8.84583 4.55215C9.52344 3.78791 10.505 3.20006 11.7333 3.20006C14.0602 3.20006 16 5.11239 16 7.46673C16 9.81378 14.0804 11.7334 11.7333 11.7334C10.32 11.7334 9.37431 11.0586 8.65104 10.1396C8.98646 9.62072 9.2691 9.08322 9.52396 8.58027C10.1352 9.56326 10.7583 10.1334 11.7333 10.1334C13.2156 10.1334 14.4 8.94902 14.4 7.46673C14.4 5.99173 13.1835 4.80006 11.7333 4.80006C10.9689 4.80006 10.5179 5.07888 10.0427 5.61465C9.56753 6.15041 9.14618 6.95961 8.71042 7.82611C8.27465 8.6926 7.82483 9.61604 7.14896 10.3803C6.47309 11.1445 5.49271 11.7334 4.26667 11.7334Z" fill="#222222"/>
</g>
<defs>
<clipPath id="clip0_38_704">
<rect width="16" height="16" fill="white" transform="matrix(1 0 0 -1 0 16)"/>
</clipPath>
</defs>
</svg>
