<svg width="21" height="22" viewBox="0 0 21 22" fill="none" xmlns="http://www.w3.org/2000/svg">
<path d="M10.172 4.00672C14.0342 4.00672 17.1653 7.1378 17.1653 11C17.1653 14.8622 14.0342 17.9933 10.172 17.9933C6.30979 17.9933 3.17871 14.8622 3.17871 11C3.17871 7.1378 6.30979 4.00672 10.172 4.00672ZM10.8077 14.1788C10.8077 13.9878 10.8077 11.1909 10.8077 11C10.8077 10.649 10.5232 10.3642 10.172 10.3642C9.82078 10.3642 9.53624 10.649 9.53624 11C9.53624 11.1909 9.53624 13.9878 9.53624 14.1788C9.53624 14.5298 9.82078 14.8145 10.172 14.8145C10.5232 14.8145 10.8077 14.5298 10.8077 14.1788ZM10.172 9.41062C10.6987 9.41062 11.1256 8.98369 11.1256 8.45699C11.1256 7.93029 10.6987 7.50336 10.172 7.50336C9.64529 7.50336 9.21836 7.93029 9.21836 8.45699C9.21836 8.98369 9.64529 9.41062 10.172 9.41062Z" fill="white"/>
</svg>
