<svg width="20" height="20" viewBox="0 0 20 20" fill="none" xmlns="http://www.w3.org/2000/svg">
<path fill-rule="evenodd" clip-rule="evenodd" d="M6.88205 2.00017C5.51406 2.00017 4.34144 2.94088 4.34144 4.36313V5.79764C2.99425 6.17725 2 7.45705 2 8.97625V15.7065C2 17.5226 3.42107 19 5.16782 19H12.0544C13.8012 19 15.2222 17.5226 15.2222 15.7065V8.97625C15.2222 7.45705 14.228 6.17725 12.8808 5.79764V4.36313C12.8808 2.94088 11.8311 2.00017 10.4631 2.00017H6.88205ZM6.88205 2.85934H10.4631C11.3748 2.85934 12.0544 3.41521 12.0544 4.36313V5.68278H5.16782V4.36313C5.16782 3.41521 5.9703 2.85934 6.88205 2.85934ZM5.16782 6.54195H12.0544C13.3449 6.54195 14.3958 7.63455 14.3958 8.97625V15.7065C14.3958 17.0482 13.3449 18.1408 12.0544 18.1408H5.16782C3.87731 18.1408 2.82639 17.0482 2.82639 15.7065V8.97625C2.82639 7.63455 3.87731 6.54195 5.16782 6.54195ZM11.1538 8.7757H6.06838C5.39431 8.7757 4.84786 9.31423 4.84786 9.97854V14.9904C4.84786 15.6547 5.39431 16.1932 6.06838 16.1932H11.1538C11.8279 16.1932 12.3744 15.6547 12.3744 14.9904V9.97854C12.3744 9.31423 11.8279 8.7757 11.1538 8.7757ZM6.06838 7.9738C4.94493 7.9738 4.03419 8.87136 4.03419 9.97854V14.9904C4.03419 16.0976 4.94493 16.9951 6.06838 16.9951H11.1538C12.2773 16.9951 13.188 16.0976 13.188 14.9904V9.97854C13.188 8.87136 12.2773 7.9738 11.1538 7.9738H6.06838ZM7.08547 10.7804H10.1368C10.2491 10.7804 10.3402 10.8702 10.3402 10.9809V13.988C10.3402 14.0987 10.2491 14.1885 10.1368 14.1885H7.08547C6.97312 14.1885 6.88205 14.0987 6.88205 13.988V10.9809C6.88205 10.8702 6.97312 10.7804 7.08547 10.7804ZM6.06838 10.9809C6.06838 10.4273 6.52374 9.97854 7.08547 9.97854H10.1368C10.6985 9.97854 11.1538 10.4273 11.1538 10.9809V13.988C11.1538 14.5416 10.6985 14.9904 10.1368 14.9904H7.08547C6.52374 14.9904 6.06838 14.5416 6.06838 13.988V10.9809Z" fill="#222222"/>
</svg>
