<svg width="20" height="20" viewBox="0 0 20 20" fill="none" xmlns="http://www.w3.org/2000/svg">
<path fill-rule="evenodd" clip-rule="evenodd" d="M7.88205 2.00017C6.51406 2.00017 5.34144 2.94088 5.34144 4.36313V5.79764C3.99425 6.17725 3 7.45705 3 8.97625V15.7065C3 17.5226 4.42107 19 6.16782 19H13.0544C14.8012 19 16.2222 17.5226 16.2222 15.7065V8.97625C16.2222 7.45705 15.228 6.17725 13.8808 5.79764V4.36313C13.8808 2.94088 12.8311 2.00017 11.4631 2.00017H7.88205ZM7.88205 2.85934H11.4631C12.3748 2.85934 13.0544 3.41521 13.0544 4.36313V5.68278H6.16782V4.36313C6.16782 3.41521 6.9703 2.85934 7.88205 2.85934ZM6.16782 6.54195H13.0544C14.3449 6.54195 15.3958 7.63455 15.3958 8.97625V15.7065C15.3958 17.0482 14.3449 18.1408 13.0544 18.1408H6.16782C4.87731 18.1408 3.82639 17.0482 3.82639 15.7065V8.97625C3.82639 7.63455 4.87731 6.54195 6.16782 6.54195ZM12.1538 8.7757H7.06838C6.39431 8.7757 5.84786 9.31423 5.84786 9.97854V14.9904C5.84786 15.6547 6.39431 16.1932 7.06838 16.1932H12.1538C12.8279 16.1932 13.3744 15.6547 13.3744 14.9904V9.97854C13.3744 9.31423 12.8279 8.7757 12.1538 8.7757ZM7.06838 7.9738C5.94493 7.9738 5.03419 8.87136 5.03419 9.97854V14.9904C5.03419 16.0976 5.94493 16.9951 7.06838 16.9951H12.1538C13.2773 16.9951 14.188 16.0976 14.188 14.9904V9.97854C14.188 8.87136 13.2773 7.9738 12.1538 7.9738H7.06838ZM8.08547 10.7804H11.1368C11.2491 10.7804 11.3402 10.8702 11.3402 10.9809V13.988C11.3402 14.0987 11.2491 14.1885 11.1368 14.1885H8.08547C7.97312 14.1885 7.88205 14.0987 7.88205 13.988V10.9809C7.88205 10.8702 7.97312 10.7804 8.08547 10.7804ZM7.06838 10.9809C7.06838 10.4273 7.52374 9.97854 8.08547 9.97854H11.1368C11.6985 9.97854 12.1538 10.4273 12.1538 10.9809V13.988C12.1538 14.5416 11.6985 14.9904 11.1368 14.9904H8.08547C7.52374 14.9904 7.06838 14.5416 7.06838 13.988V10.9809Z" fill="white"/>
</svg>
