<svg width="16" height="16" viewBox="0 0 16 16" fill="none" xmlns="http://www.w3.org/2000/svg">
<path d="M7.98433 1.58542C7.39561 1.5941 6.9253 2.07795 6.93328 2.66667V6.93333H2.66662C2.2819 6.92795 1.92408 7.13003 1.73016 7.46233C1.53624 7.79444 1.53624 8.20556 1.73016 8.53767C1.92408 8.86997 2.2819 9.07205 2.66662 9.06667H6.93328V13.3333C6.9279 13.7181 7.12998 14.0759 7.46228 14.2698C7.79439 14.4637 8.20551 14.4637 8.53762 14.2698C8.86992 14.0759 9.072 13.7181 9.06662 13.3333V9.06667H13.3333C13.718 9.07205 14.0758 8.86997 14.2697 8.53767C14.4637 8.20556 14.4637 7.79444 14.2697 7.46233C14.0758 7.13003 13.718 6.92795 13.3333 6.93333H9.06662V2.66667C9.07061 2.37847 8.95776 2.10104 8.75394 1.8974C8.55012 1.69375 8.27252 1.58125 7.98433 1.58542Z" fill="white"/>
</svg>
