<svg width="77" height="54" viewBox="0 0 77 54" fill="none" xmlns="http://www.w3.org/2000/svg">
<path d="M14.9824 53.257L14.9827 53.257C17.9605 53.3154 60.1663 53.3145 63.15 53.2533L63.1501 53.2533C70.238 53.1061 75.9778 46.9471 75.9778 39.5481C75.9778 33.572 72.2193 28.3754 66.6968 26.5214C67.0509 24.9637 67.228 23.3894 67.228 21.8263C67.228 10.1793 57.8724 0.7 46.36 0.7C38.7232 0.7 31.8305 4.83706 28.1393 11.5561C26.9401 11.2132 25.7147 11.0396 24.4846 11.0396C17.4215 11.0396 11.5332 16.6256 10.9616 23.6563C4.87507 25.7169 0.7 31.5252 0.7 38.0722C0.699057 46.2717 7.09206 53.0951 14.9824 53.257ZM64.1154 27.022L64.1153 27.0223L64.2348 27.9445C64.3962 28.225 64.6646 28.426 64.9791 28.5028L64.9803 28.5031C70.0531 29.7201 73.6 34.2586 73.6 39.5481C73.6 45.6889 68.8751 50.7589 63.0998 50.8757L63.0996 50.8757C60.1825 50.9367 17.9498 50.9367 15.0365 50.8757L15.0364 50.8757C8.45705 50.7395 3.07773 45.0098 3.07773 38.0722C3.07773 32.2961 6.92265 27.2053 12.4222 25.6916C12.9328 25.5533 13.2861 25.094 13.2959 24.5671L13.2959 24.567C13.4088 18.4153 18.4302 13.4145 24.4846 13.4145C25.774 13.4145 27.0627 13.6511 28.3177 14.1141C28.89 14.3292 29.5317 14.0656 29.7991 13.5208L29.7993 13.5204C32.9517 7.07617 39.2982 3.07773 46.36 3.07773C56.5522 3.07773 64.8503 11.4829 64.8503 21.8263C64.8503 23.5524 64.6043 25.3017 64.1154 27.022ZM41.312 35.8167V20.9893C41.312 20.3329 40.7795 19.8005 40.1231 19.8005C39.4678 19.8005 38.9342 20.3327 38.9342 20.9893V35.8167H36.6824C36.2054 35.8167 35.7591 36.0645 35.5308 36.4795C35.3053 36.8893 35.322 37.41 35.6341 37.7932L35.6343 37.7934L39.172 42.1292C39.4091 42.4203 39.7642 42.6164 40.1641 42.6321C40.5343 42.6466 40.9584 42.5244 41.2155 42.1883C41.2157 42.1881 41.2159 42.1878 41.2161 42.1876L44.5587 37.8526L44.5591 37.8522C44.8362 37.4913 44.9715 36.9954 44.7433 36.53C44.526 36.0848 44.0605 35.8167 43.5647 35.8167H41.312Z" fill="#DADADA" stroke="#DADADA" stroke-width="0.6"/>
</svg>
