<svg width="24" height="24" viewBox="0 0 24 24" fill="none" xmlns="http://www.w3.org/2000/svg">
<path d="M16.5227 7.45316C16.1003 7.04301 15.4256 7.05258 15.0149 7.47452L11.9979 10.4915L8.98095 7.47452C8.71272 7.19867 8.31681 7.08855 7.94472 7.18639C7.57275 7.28411 7.28205 7.57481 7.18434 7.94678C7.0865 8.31887 7.19661 8.71478 7.47246 8.98301L10.4894 12L7.47246 15.017C7.19661 15.2852 7.0865 15.6811 7.18434 16.0532C7.28206 16.4252 7.57275 16.7159 7.94472 16.8136C8.31681 16.9114 8.71272 16.8013 8.98095 16.5255L11.9979 13.5085L15.0149 16.5255C15.2832 16.8013 15.6791 16.9114 16.0512 16.8136C16.4231 16.7159 16.7138 16.4252 16.8115 16.0532C16.9094 15.6811 16.7993 15.2852 16.5234 15.017L13.5064 12L16.5234 8.98301C16.73 8.78205 16.8464 8.50608 16.8463 8.21796C16.8462 7.92984 16.7294 7.65399 16.5227 7.45316Z" fill="white"/>
</svg>
