<svg width="22" height="22" viewBox="0 0 22 22" fill="none" xmlns="http://www.w3.org/2000/svg">
<path d="M20.4531 13.9219L1.54688 13.9219C1.2546 13.9219 1.03125 13.6985 1.03125 13.4062C1.03125 13.114 1.2546 12.8906 1.54688 12.8906L3.5579 12.8906C4.05629 9.52181 5.19071 6.6344 6.68589 4.72655C7.06411 4.24539 7.66567 4.00458 8.28446 4.09052L9.02344 4.19369C10.3297 4.3828 11.6703 4.3828 12.9766 4.19369L13.7155 4.09052C14.3171 4.00458 14.9359 4.24539 15.3141 4.72655C16.8265 6.6344 17.9437 9.52181 18.4421 12.8906L20.4531 12.8906C20.7454 12.8906 20.9688 13.114 20.9688 13.4062C20.9688 13.6985 20.7454 13.9219 20.4531 13.9219ZM5.15625 19.0781C4.21094 19.0781 3.4375 18.3047 3.4375 17.3594L3.4375 15.7438C3.4375 15.4515 3.67808 15.2282 3.95313 15.2282L18.0469 15.2969C18.3392 15.2969 18.5625 15.5202 18.5625 15.8125L18.5625 17.3594C18.5625 18.3047 17.7891 19.0781 16.8438 19.0781L5.15625 19.0781ZM8.59375 16.6719L6.875 16.6719C6.58272 16.6719 6.35938 16.8952 6.35938 17.1875C6.35938 17.4798 6.58272 17.7031 6.875 17.7031L8.59375 17.7031C8.88603 17.7031 9.10938 17.4798 9.10938 17.1875C9.10938 16.8952 8.88603 16.6719 8.59375 16.6719ZM15.4688 16.6719L13.75 16.6719C13.4577 16.6719 13.2344 16.8952 13.2344 17.1875C13.2344 17.4798 13.4577 17.7031 13.75 17.7031L15.4688 17.7031C15.761 17.7031 15.9844 17.4798 15.9844 17.1875C15.9844 16.8952 15.761 16.6719 15.4688 16.6719Z" fill="#6D6D81"/>
</svg>
