<svg width="16" height="16" viewBox="0 0 16 16" fill="none" xmlns="http://www.w3.org/2000/svg">
<g clip-path="url(#clip0_17_1594)">
<g clip-path="url(#clip1_17_1594)">
<path d="M10.851 12.8889C10.7075 12.8889 5.29077 12.8889 5.14727 12.8889C4.4725 12.8889 3.92505 13.4363 3.92505 14.1111C3.92505 14.7859 4.4725 15.3333 5.14727 15.3333C5.29077 15.3333 10.7075 15.3333 10.851 15.3333C11.5257 15.3333 12.0732 14.7859 12.0732 14.1111C12.0732 13.4363 11.5257 12.8889 10.851 12.8889Z" fill="#80808F"/>
<path fill-rule="evenodd" clip-rule="evenodd" d="M2.29552 12.8889H13.7029C15.053 12.8889 16.1474 11.7945 16.1474 10.4444V3.92592C16.1474 2.57586 15.053 1.48148 13.7029 1.48148H2.29552C0.945451 1.48148 -0.148926 2.57586 -0.148926 3.92592V10.4444C-0.148926 11.7945 0.945451 12.8889 2.29552 12.8889ZM2.29552 7.18518V6.74754C2.29552 6.08921 2.82918 5.55555 3.4875 5.55555H12.5109C13.1693 5.55555 13.7029 6.08921 13.7029 6.74754V7.18518C13.7029 8.98509 12.2338 10.4444 10.4437 10.4444C9.75326 10.4444 9.32804 10.1952 8.94799 9.97236C8.64093 9.79235 8.36335 9.62963 7.99922 9.62963C7.63509 9.62963 7.35752 9.79235 7.05045 9.97236C6.6704 10.1952 6.24518 10.4444 5.55478 10.4444C3.76468 10.4444 2.29552 8.98509 2.29552 7.18518ZM9.38695 8.16047C9.75192 8.75195 10.5275 8.93629 11.12 8.57106C11.7123 8.20609 11.8964 7.43053 11.5306 6.83798L9.38695 8.16047ZM6.6107 8.16047L4.46703 6.83798C4.10206 7.43053 4.28534 8.20609 4.87762 8.57106C5.47017 8.93629 6.24573 8.75301 6.6107 8.16047Z" fill="white"/>
</g>
</g>
<defs>
<clipPath id="clip0_17_1594">
<rect width="16" height="16" fill="white"/>
</clipPath>
<clipPath id="clip1_17_1594">
<rect width="19.5556" height="19.5556" fill="white" transform="translate(-1.77783 -1.77778)"/>
</clipPath>
</defs>
</svg>
