<svg width="20" height="20" viewBox="0 0 20 20" fill="none" xmlns="http://www.w3.org/2000/svg">
<path d="M18.5938 12.6475L1.40625 12.6475C1.14055 12.6475 0.937501 12.4444 0.937501 12.1787C0.937501 11.913 1.14055 11.71 1.40625 11.71L3.23446 11.71C3.68754 8.64743 4.71883 6.02251 6.07808 4.28809C6.42192 3.85067 6.96879 3.63176 7.53133 3.70989L8.20313 3.80368C9.39067 3.97559 10.6093 3.97559 11.7969 3.80368L12.4687 3.70989C13.0155 3.63176 13.5781 3.85067 13.9219 4.28809C15.2968 6.02251 16.3125 8.64742 16.7655 11.71L18.5938 11.71C18.8595 11.71 19.0625 11.913 19.0625 12.1787C19.0625 12.4444 18.8595 12.6475 18.5938 12.6475ZM4.6875 17.335C3.82813 17.335 3.125 16.6318 3.125 15.7725L3.125 14.3038C3.125 14.0381 3.34371 13.835 3.59375 13.835L16.4063 13.8975C16.672 13.8975 16.875 14.1005 16.875 14.3662L16.875 15.7725C16.875 16.6318 16.1719 17.335 15.3125 17.335L4.6875 17.335ZM7.8125 15.1475L6.25 15.1475C5.98429 15.1475 5.78125 15.3505 5.78125 15.6162C5.78125 15.8819 5.9843 16.085 6.25 16.085L7.8125 16.085C8.07821 16.085 8.28125 15.8819 8.28125 15.6162C8.28125 15.3505 8.07821 15.1475 7.8125 15.1475ZM14.0625 15.1475L12.5 15.1475C12.2343 15.1475 12.0313 15.3505 12.0313 15.6162C12.0313 15.8819 12.2343 16.085 12.5 16.085L14.0625 16.085C14.3282 16.085 14.5313 15.8819 14.5313 15.6162C14.5313 15.3505 14.3282 15.1475 14.0625 15.1475Z" fill="#00B134"/>
</svg>
