<svg width="16" height="16" viewBox="0 0 16 16" fill="none" xmlns="http://www.w3.org/2000/svg">
<g clip-path="url(#clip0_17_2596)">
<path d="M8.00566 0.634338C4.93983 0.634338 2.30799 2.51717 1.20433 5.19067C1.11166 5.40301 1.14099 5.649 1.28116 5.83367C1.42116 6.01834 1.65016 6.11267 1.87966 6.08067C2.10916 6.0485 2.30349 5.89484 2.38749 5.67884C3.29866 3.4715 5.46316 1.91434 8.00566 1.91434C11.3712 1.91434 14.0857 4.62884 14.0857 7.99434C14.0857 11.3598 11.3712 14.0743 8.00566 14.0743C5.46349 14.0743 3.29866 12.5178 2.38749 10.3107C2.30349 10.0947 2.10916 9.94084 1.87966 9.90884C1.65016 9.87667 1.42116 9.97117 1.28116 10.1558C1.14099 10.3403 1.11166 10.5863 1.20433 10.7988C2.30799 13.4722 4.94016 15.3543 8.00566 15.3543C12.0628 15.3543 15.3657 12.0517 15.3657 7.99434C15.3657 3.93717 12.0628 0.634338 8.00566 0.634338ZM8.62816 5.10817C8.36766 5.10817 8.13333 5.26601 8.03533 5.50734C7.93733 5.74867 7.99516 6.02517 8.18183 6.20684L9.32933 7.35434H1.27433C1.04349 7.35117 0.828827 7.47234 0.712494 7.67167C0.596161 7.87117 0.596161 8.11767 0.712494 8.31701C0.828827 8.51634 1.04349 8.63767 1.27433 8.63434H9.32933L8.18183 9.78184C8.01466 9.94234 7.94733 10.1808 8.00583 10.405C8.06433 10.6293 8.23949 10.8045 8.46366 10.863C8.68799 10.9213 8.92633 10.854 9.08683 10.6868L11.3268 8.44684C11.5767 8.197 11.5767 7.79184 11.3268 7.54184L9.08683 5.30184C8.96633 5.17801 8.80099 5.10817 8.62816 5.10817Z" fill="white"/>
</g>
<defs>
<clipPath id="clip0_17_2596">
<rect width="16" height="16" fill="white"/>
</clipPath>
</defs>
</svg>
