<svg width="18" height="18" viewBox="0 0 18 18" fill="none" xmlns="http://www.w3.org/2000/svg">
<path d="M10.1185 1.50001C9.85482 1.50326 9.62826 1.68946 9.57422 1.94727L8.72786 6.01043C6.89062 6.06186 5.23177 6.62045 4.00651 7.50782C3.66927 7.26759 3.25781 7.12501 2.8125 7.12501C1.67318 7.12501 0.75 8.04819 0.75 9.18751C0.75 9.9948 1.21419 10.6914 1.88932 11.03C1.88542 11.1035 1.875 11.1758 1.875 11.25C1.875 14.1497 5.0651 16.5 9 16.5C12.9349 16.5 16.125 14.1497 16.125 11.25C16.125 11.1758 16.1146 11.1035 16.1107 11.03C16.7858 10.6914 17.25 9.9948 17.25 9.18751C17.25 8.04819 16.3268 7.12501 15.1875 7.12501C14.7422 7.12501 14.3307 7.26759 13.9935 7.50782C12.903 6.71746 11.4674 6.18686 9.86979 6.04298L10.5632 2.71876L12.7975 3.14454C12.9453 3.70704 13.4538 4.12501 14.0625 4.12501C14.7865 4.12501 15.375 3.53647 15.375 2.81251C15.375 2.08855 14.7865 1.50001 14.0625 1.50001C13.6289 1.50001 13.2461 1.7142 13.0072 2.03907L10.2305 1.51043C10.1934 1.50326 10.1562 1.49936 10.1185 1.50001ZM6.1875 9.00001C6.91211 9.00001 7.5 9.5879 7.5 10.3125C7.5 11.0371 6.91211 11.625 6.1875 11.625C5.46289 11.625 4.875 11.0371 4.875 10.3125C4.875 9.5879 5.46289 9.00001 6.1875 9.00001ZM11.8125 9.00001C12.5371 9.00001 13.125 9.5879 13.125 10.3125C13.125 11.0371 12.5371 11.625 11.8125 11.625C11.0879 11.625 10.5 11.0371 10.5 10.3125C10.5 9.5879 11.0879 9.00001 11.8125 9.00001ZM6.5625 12.75C6.70638 12.75 6.85026 12.8047 6.96029 12.9147C6.97982 12.933 7.59831 13.5 8.99935 13.5C10.4141 13.5 11.0332 12.9206 11.0391 12.9147C11.2591 12.6953 11.6146 12.6953 11.8346 12.9147C12.054 13.1348 12.0547 13.4909 11.8353 13.7103C11.7415 13.804 10.8665 14.6244 9 14.6244C7.13346 14.6244 6.25846 13.804 6.16471 13.7103C5.94531 13.4909 5.94531 13.1348 6.16471 12.9147C6.27474 12.8047 6.41862 12.75 6.5625 12.75Z" fill="white"/>
</svg>
