<svg width="19" height="19" viewBox="0 0 19 19" fill="none" xmlns="http://www.w3.org/2000/svg">
<path d="M13.8707 2.76743C13.7635 2.77807 13.6589 2.83125 13.5857 2.93159L12.8147 3.98716C11.4661 3.07106 9.75954 2.66388 7.99236 3.01407C5.07488 3.59203 2.91837 6.18581 2.88948 9.15988C2.85195 13.0175 6.15212 15.9479 9.88256 15.5732C13.1671 15.2433 15.6162 12.4683 15.6057 9.23433C15.6045 8.89779 15.3059 8.63891 14.9686 8.67283C14.6668 8.70313 14.45 8.95619 14.4498 9.25641C14.4484 11.8941 12.4482 14.1538 9.76737 14.4231C6.71603 14.7293 4.01589 12.3332 4.04539 9.17794C4.06827 6.73166 5.85994 4.59582 8.26327 4.13888C9.68007 3.86957 11.0439 4.19748 12.1306 4.92454L11.3377 6.01001C11.142 6.27772 11.3335 6.65399 11.665 6.65399L14.8967 6.65439C15.1713 6.65439 15.3663 6.38709 15.2828 6.1256L14.2991 3.04738C14.2359 2.84991 14.0495 2.74957 13.8707 2.76743Z" fill="white"/>
</svg>
