<svg width="20" height="20" viewBox="0 0 20 20" fill="none" xmlns="http://www.w3.org/2000/svg">
<path d="M9.99995 0.799888C10.2885 0.795722 10.5568 0.947388 10.7022 1.19656C10.8477 1.44572 10.8477 1.75406 10.7022 2.00322C10.5568 2.25239 10.2885 2.40406 9.99995 2.39989C5.79308 2.39989 2.39995 5.79301 2.39995 9.99989C2.39995 14.2068 5.79308 17.5999 9.99995 17.5999C14.2068 17.5999 17.6 14.2068 17.6 9.99989C17.6 7.80947 16.6768 5.84322 15.2 4.4576V5.99989C15.2041 6.28843 15.0525 6.55676 14.8033 6.70218C14.5541 6.8476 14.2458 6.8476 13.9966 6.70218C13.7475 6.55676 13.5958 6.28843 13.6 5.99989V1.59989H18C18.2885 1.59572 18.5568 1.74739 18.7022 1.99656C18.8477 2.24572 18.8477 2.55405 18.7022 2.80322C18.5568 3.05239 18.2885 3.20406 18 3.19989H16.1897C18.0372 4.88364 19.2 7.30885 19.2 9.99989C19.2 15.0713 15.0714 19.1999 9.99995 19.1999C4.92849 19.1999 0.799952 15.0713 0.799952 9.99989C0.799952 4.92843 4.92849 0.799888 9.99995 0.799888Z" fill="white"/>
</svg>
