<svg width="16" height="17" viewBox="0 0 16 17" fill="none" xmlns="http://www.w3.org/2000/svg">
<path d="M5.11992 1.02C4.66712 1.02 4.25274 1.23657 3.94462 1.5447C3.63649 1.85282 3.41992 2.2672 3.41992 2.72V14.28C3.41992 14.8656 3.63242 15.3239 3.96711 15.6028C4.3018 15.8831 4.72272 15.98 5.11992 15.98H9.87992C10.3327 15.98 10.7471 15.7634 11.0552 15.4553C11.3633 15.1472 11.5799 14.7328 11.5799 14.28V2.72C11.5799 2.2672 11.3633 1.85282 11.0552 1.5447C10.7471 1.23657 10.3327 1.02 9.87992 1.02H5.11992ZM4.09992 3.74H10.8999V12.58H4.09992V3.74ZM5.45992 5.44C5.27274 5.44 5.11992 5.59282 5.11992 5.78V6.12C5.11868 6.24219 5.18243 6.35641 5.28868 6.41874C5.39493 6.48001 5.52491 6.48001 5.63116 6.41874C5.73741 6.35641 5.80116 6.24219 5.79992 6.12C5.92211 6.12124 6.03633 6.05749 6.09866 5.95124C6.15993 5.84499 6.15993 5.71501 6.09866 5.60876C6.03633 5.50251 5.92211 5.43876 5.79992 5.44H5.45992ZM7.25679 5.44L6.98461 5.57689L6.93148 5.87563L7.13867 6.09875L7.25679 6.12H7.74306L8.01523 5.98312L8.06836 5.68438L7.86117 5.46125L7.74306 5.44H7.25679ZM9.19992 5.44C9.07773 5.43876 8.96352 5.50251 8.90118 5.60876C8.83991 5.71501 8.83991 5.84499 8.90118 5.95124C8.96352 6.05749 9.07773 6.12124 9.19992 6.12C9.19868 6.24219 9.26243 6.35641 9.36868 6.41874C9.47493 6.48001 9.60491 6.48001 9.71116 6.41874C9.81741 6.35641 9.88116 6.24219 9.87992 6.12V5.78C9.87992 5.59282 9.7271 5.44 9.53992 5.44H9.19992ZM5.3643 7.54251L5.14117 7.75094L5.11992 7.86781V8.45219L5.25681 8.72313L5.55555 8.77749L5.77867 8.56906L5.79992 8.45219V7.86781L5.66304 7.59688L5.3643 7.54251ZM9.4443 7.54251L9.22117 7.75094L9.19992 7.86781V8.45219L9.33681 8.72313L9.63555 8.77749L9.85867 8.56906L9.87992 8.45219V7.86781L9.74304 7.59688L9.4443 7.54251ZM9.53992 9.52C9.35274 9.52 9.19992 9.67282 9.19992 9.86V10.2H8.85992C8.67274 10.2 8.51992 10.3528 8.51992 10.54C8.51992 10.7272 8.67274 10.88 8.85992 10.88H9.19992V11.22C9.19992 11.4072 9.35274 11.56 9.53992 11.56C9.7271 11.56 9.87992 11.4072 9.87992 11.22V10.88H10.2199C10.4071 10.88 10.5599 10.7272 10.5599 10.54C10.5599 10.3528 10.4071 10.2 10.2199 10.2H9.87992V9.86C9.87992 9.67282 9.7271 9.52 9.53992 9.52ZM5.45461 9.85469C5.26743 9.85876 5.11727 10.0128 5.11992 10.2V10.54C5.11992 10.7272 5.27274 10.88 5.45992 10.88H5.79992C5.92211 10.8812 6.03633 10.8175 6.09866 10.7112C6.15993 10.605 6.15993 10.475 6.09866 10.3688C6.03633 10.2625 5.92211 10.1988 5.79992 10.2C5.80116 10.1084 5.76539 10.0194 5.70022 9.95439C5.63523 9.88922 5.54616 9.85345 5.45461 9.85469ZM7.25679 10.2L6.98461 10.3369L6.93148 10.6356L7.13867 10.8588L7.25679 10.88H7.74306L8.01523 10.7431L8.06836 10.4444L7.86117 10.2213L7.74306 10.2H7.25679ZM7.49992 13.6C7.87587 13.6 8.17992 13.9041 8.17992 14.28C8.17992 14.6559 7.87587 14.96 7.49992 14.96C7.12397 14.96 6.81992 14.6559 6.81992 14.28C6.81992 13.9041 7.12397 13.6 7.49992 13.6Z" fill="white"/>
</svg>
