<svg width="28" height="28" viewBox="0 0 28 28" fill="none" xmlns="http://www.w3.org/2000/svg">
<path d="M23.926 14C24.7537 13.0067 25.5049 11.9355 26.1783 10.7976L26.1679 10.7869C25.8034 8.54501 24.6336 6.50302 22.8666 5.06768V5.05695C21.5416 5.06767 20.2391 5.178 18.9694 5.39901C18.5167 4.18468 17.9643 3.0032 17.3127 1.85458C15.1708 1.04802 12.8303 1.04802 10.6883 1.85458C10.0367 3.0032 9.48438 4.18468 9.03164 5.39901C7.76196 5.178 6.45943 5.06767 5.13442 5.05695V5.06768C3.36739 6.50302 2.19767 8.54501 1.83348 10.7869L1.82275 10.7976C2.49616 11.9345 3.24738 13.0056 4.07503 14C3.24738 14.9933 2.49616 16.0645 1.82275 17.2024L1.83348 17.2131C2.19767 19.455 3.36739 21.497 5.13442 22.9323V22.9431C6.45943 22.9323 7.76196 22.822 9.03164 22.601C9.48438 23.8153 10.0367 24.9968 10.6883 26.1454C12.8303 26.952 15.1708 26.952 17.3127 26.1454C17.9643 24.9968 18.5167 23.8153 18.9694 22.601C20.2391 22.822 21.5416 22.9323 22.8666 22.9431V22.9323C24.6336 21.497 25.8034 19.455 26.1679 17.2131L26.1783 17.2024C25.5049 16.0645 24.7547 14.9933 23.926 14Z" stroke="#EBEBEB" stroke-width="2.125" stroke-linecap="round" stroke-linejoin="round"/>
<path d="M18.25 14C18.25 11.653 16.347 9.75001 14 9.75001C11.653 9.75001 9.75 11.653 9.75 14C9.75 16.3471 11.653 18.25 14 18.25C16.347 18.25 18.25 16.3471 18.25 14Z" stroke="#EBEBEB" stroke-width="2.125" stroke-linecap="round" stroke-linejoin="round"/>
</svg>
