<svg width="13" height="14" viewBox="0 0 13 14" fill="none" xmlns="http://www.w3.org/2000/svg">
<path d="M5.35891 0.666656C5.03968 0.666656 4.76668 0.892351 4.70527 1.20572L4.48261 2.34895C3.93552 2.55576 3.42944 2.84483 2.98521 3.20963L1.88886 2.83202C1.58678 2.72807 1.25453 2.85285 1.09459 3.1289L0.08938 4.87108C-0.0699082 5.14778 -0.0119655 5.49891 0.228703 5.70832L1.10761 6.47265C1.06182 6.75346 1.03209 7.03949 1.03209 7.33332C1.03209 7.62716 1.06182 7.91318 1.10761 8.194L0.228703 8.95832C-0.0119655 9.16774 -0.0699082 9.51887 0.08938 9.79556L1.09459 11.5378C1.25388 11.8144 1.58678 11.9392 1.88886 11.8359L2.98521 11.4583C3.42944 11.8227 3.93573 12.1109 4.48261 12.3177L4.70527 13.4609C4.76668 13.7743 5.03968 14 5.35891 14H7.37193C7.69116 14 7.96416 13.7743 8.02558 13.4609L8.24823 12.3177C8.79533 12.1109 9.3014 11.8218 9.74563 11.457L10.842 11.8346C11.1441 11.9386 11.4763 11.8144 11.6363 11.5378L12.6415 9.79426C12.8008 9.51757 12.7428 9.16774 12.5021 8.95832L11.6232 8.194C11.669 7.91318 11.6988 7.62716 11.6988 7.33332C11.6988 7.03949 11.669 6.75346 11.6232 6.47265L12.5021 5.70832C12.7428 5.49891 12.8008 5.14778 12.6415 4.87108L11.6363 3.1289C11.477 2.8522 11.1441 2.72742 10.842 2.83072L9.74563 3.20832C9.3014 2.84396 8.79511 2.55576 8.24823 2.34895L8.02558 1.20572C7.96416 0.892351 7.69116 0.666656 7.37193 0.666656H5.35891ZM6.36542 4.66666C7.83808 4.66666 9.03209 5.86067 9.03209 7.33332C9.03209 8.80598 7.83808 9.99999 6.36542 9.99999C4.89277 9.99999 3.69875 8.80598 3.69875 7.33332C3.69875 5.86067 4.89277 4.66666 6.36542 4.66666Z" fill="white"/>
</svg>
