<svg width="14" height="14" viewBox="0 0 14 14" fill="none" xmlns="http://www.w3.org/2000/svg">
<g clip-path="url(#clip0_17_1758)">
<path d="M11.6667 0C10.3769 0 9.33333 1.04358 9.33333 2.33333C9.33333 2.49506 9.35608 2.6546 9.38802 2.80729L4.08333 5.46875C3.65487 4.9789 3.03508 4.66667 2.33333 4.66667C1.04358 4.66667 0 5.71025 0 7C0 8.28975 1.04358 9.33333 2.33333 9.33333C3.03508 9.33333 3.65487 9.0211 4.08333 8.53125L9.38802 11.1927C9.35608 11.3454 9.33333 11.5049 9.33333 11.6667C9.33333 12.9564 10.3769 14 11.6667 14C12.9564 14 14 12.9564 14 11.6667C14 10.3769 12.9564 9.33333 11.6667 9.33333C10.9649 9.33333 10.3451 9.64556 9.91667 10.1354L4.61198 7.47396C4.64392 7.32127 4.66667 7.16173 4.66667 7C4.66667 6.83827 4.64392 6.67873 4.61198 6.52604L9.91667 3.86458C10.3451 4.35444 10.9649 4.66667 11.6667 4.66667C12.9564 4.66667 14 3.62308 14 2.33333C14 1.04358 12.9564 0 11.6667 0Z" fill="white"/>
</g>
<defs>
<clipPath id="clip0_17_1758">
<rect width="14" height="14" fill="white"/>
</clipPath>
</defs>
</svg>
