<svg width="180" height="180" viewBox="0 0 180 180" fill="none" xmlns="http://www.w3.org/2000/svg">
<g opacity="0.1" clip-path="url(#clip0_1953_176)">
<path d="M90 165C87.9297 165 86.25 163.32 86.25 161.25C86.25 159.18 87.9297 157.5 90 157.5V165Z" fill="#107C42"/>
<path d="M93.75 161.25C93.75 163.32 92.0703 165 90 165V157.5C92.0703 157.5 93.75 159.18 93.75 161.25Z" fill="#185C37"/>
<path d="M161.25 41.25C161.25 43.3203 159.57 45 157.5 45C155.43 45 153.75 43.3203 153.75 41.25C153.75 39.1797 155.43 37.5 157.5 37.5C159.57 37.5 161.25 39.1797 161.25 41.25Z" fill="#21A366"/>
<path d="M26.25 41.25C26.25 43.3203 24.5703 45 22.5 45C20.4297 45 18.75 43.3203 18.75 41.25C18.75 39.1797 20.4297 37.5 22.5 37.5C24.5703 37.5 26.25 39.1797 26.25 41.25Z" fill="#33C481"/>
<path d="M90 161.25L91.6016 164.652C91.6016 164.652 148.391 135.027 159.402 90H90V161.25Z" fill="#185C37"/>
<path d="M161.25 41.25L157.5 37.5C115.793 37.5 115.207 15 90 15V90H159.402C160.582 85.1719 161.25 80.168 161.25 75C161.25 63.211 161.25 41.25 161.25 41.25Z" fill="#21A366"/>
<path d="M90 161.25L88.3985 164.652C88.3985 164.652 31.6094 135.027 20.5977 90H90V161.25Z" fill="#107C42"/>
<path d="M18.75 41.25L22.5 37.5C64.207 37.5 64.793 15 90 15V90H20.5977C19.418 85.1719 18.75 80.168 18.75 75C18.75 63.211 18.75 41.25 18.75 41.25Z" fill="#33C481"/>
<mask id="mask0_1953_176" style="mask-type:luminance" maskUnits="userSpaceOnUse" x="0" y="0" width="180" height="180">
<path d="M180 0H0V180H180V0Z" fill="black" fill-opacity="0.05"/>
</mask>
<g mask="url(#mask0_1953_176)">
<mask id="mask1_1953_176" style="mask-type:luminance" maskUnits="userSpaceOnUse" x="0" y="0" width="180" height="180">
<path d="M180 0H0V180H180V0Z" fill="white"/>
</mask>
<g mask="url(#mask1_1953_176)">
<path d="M120.645 60.6445L82.5 98.7891L63.1055 79.3945C60.1758 76.4648 55.4297 76.4648 52.5 79.3945L47.1992 84.6992C44.2695 87.625 44.2695 92.375 47.1992 95.3008L77.1992 125.301C80.125 128.23 84.875 128.23 87.8008 125.301L136.551 76.5508C139.48 73.625 139.48 68.875 136.551 65.9492L131.25 60.6445C128.32 57.7148 123.574 57.7148 120.645 60.6445Z" fill="black"/>
</g>
</g>
<mask id="mask2_1953_176" style="mask-type:luminance" maskUnits="userSpaceOnUse" x="0" y="0" width="180" height="180">
<path d="M180 0H0V180H180V0Z" fill="black" fill-opacity="0.07"/>
</mask>
<g mask="url(#mask2_1953_176)">
<mask id="mask3_1953_176" style="mask-type:luminance" maskUnits="userSpaceOnUse" x="0" y="0" width="180" height="180">
<path d="M180 0H0V180H180V0Z" fill="white"/>
</mask>
<g mask="url(#mask3_1953_176)">
<path d="M78.5195 123.98L48.5195 93.9805C46.3242 91.7812 46.3242 88.2187 48.5195 86.0234L53.8242 80.7227C56.0195 78.5234 59.582 78.5234 61.7773 80.7227L82.5 101.441L121.969 61.9727C124.168 59.7734 127.73 59.7734 129.922 61.9727L135.227 67.2734C137.422 69.4727 137.422 73.0352 135.227 75.2305L86.4766 123.98C84.2813 126.172 80.7188 126.172 78.5195 123.98Z" fill="black"/>
</g>
</g>
<path d="M79.8477 122.652L49.8477 92.6523C48.3828 91.1836 48.3828 88.8125 49.8477 87.3477L55.1523 82.0469C56.6172 80.5781 58.9922 80.5781 60.4531 82.0469L82.5 104.094L123.297 63.2969C124.762 61.8281 127.137 61.8281 128.598 63.2969L133.902 68.5977C135.367 70.0664 135.367 72.4375 133.902 73.9023L85.1523 122.652C83.6875 124.117 81.3125 124.117 79.8477 122.652Z" fill="white"/>
</g>
<defs>
<clipPath id="clip0_1953_176">
<rect width="180" height="180" fill="white"/>
</clipPath>
</defs>
</svg>
