<svg width="18" height="18" viewBox="0 0 18 18" fill="none" xmlns="http://www.w3.org/2000/svg">
<path d="M2.38216 15.3724C2.40104 15.3743 2.41927 15.375 2.43815 15.375C2.70313 15.375 2.9362 15.1882 2.98893 14.9225C3.77604 10.987 7.87826 10.7064 9.75 10.7936V13.6875C9.75 13.9147 9.88672 14.1198 10.097 14.207C10.3073 14.2936 10.5488 14.2461 10.7103 14.0853L15.9603 8.83529C16.1803 8.61589 16.1803 8.25911 15.9603 8.03971L10.7103 2.78971C10.5495 2.62891 10.3079 2.58073 10.097 2.66797C9.88672 2.75456 9.75 2.95964 9.75 3.1875V6.07292C7.63737 6.34896 1.875 7.75 1.875 14.8125C1.875 15.1016 2.0944 15.3438 2.38216 15.3724Z" fill="white"/>
</svg>
