<svg width="19" height="19" viewBox="0 0 19 19" fill="none" xmlns="http://www.w3.org/2000/svg">
<g clip-path="url(#clip0_1125_6)">
<path d="M3.78202 3.00033C3.46533 3.00033 3.1803 3.19081 3.06097 3.48181C2.9419 3.77281 3.01233 4.10652 3.23933 4.32565L8.13716 9.18364L3.23933 14.0416C3.03589 14.2354 2.95406 14.5229 3.02525 14.7933C3.09644 15.0639 3.30926 15.275 3.58212 15.3456C3.85473 15.4162 4.14457 15.335 4.3399 15.1333L9.23773 10.2753L14.1356 15.1333C14.3309 15.335 14.6207 15.4162 14.8933 15.3456C15.1662 15.2752 15.3793 15.0639 15.4502 14.7933C15.5214 14.5229 15.4396 14.2354 15.2361 14.0416L10.3383 9.18364L15.2361 4.32565C15.4664 4.10376 15.5356 3.76426 15.4104 3.47125C15.2853 3.178 14.9916 2.99103 14.6706 3.00033C14.4685 3.00636 14.2764 3.09004 14.1356 3.23403L9.23773 8.09203L4.3399 3.23403C4.19346 3.08451 3.99205 3.00033 3.78202 3.00033Z" fill="#222222" stroke="#222222" stroke-width="0.5"/>
</g>
<defs>
<clipPath id="clip0_1125_6">
<rect width="19" height="19" fill="white"/>
</clipPath>
</defs>
</svg>
