<svg width="16" height="16" viewBox="0 0 16 16" fill="none" xmlns="http://www.w3.org/2000/svg">
<g clip-path="url(#clip0_318_28)">
<path d="M8.47601 14.65C4.41935 14.9313 1.06868 11.5813 1.35001 7.52468C1.59468 3.99868 4.67068 1.33335 8.20468 1.33335H8.66668C9.40335 1.33335 10 1.93001 10 2.66668V4.66668C10 5.40335 10.5967 6.00001 11.3333 6.00001H13.3333C14.07 6.00001 14.6667 6.59668 14.6667 7.33335V7.79535C14.6667 11.3293 12.0013 14.4053 8.47601 14.65ZM7.00001 13.3333C7.55201 13.3333 8.00001 12.8853 8.00001 12.3333C8.00001 11.7813 7.55201 11.3333 7.00001 11.3333C6.44801 11.3333 6.00001 11.7813 6.00001 12.3333C6.00001 12.8853 6.44801 13.3333 7.00001 13.3333ZM3.66668 6.00001C3.11468 6.00001 2.66668 6.44801 2.66668 7.00001C2.66668 7.55201 3.11468 8.00001 3.66668 8.00001C4.21868 8.00001 4.66668 7.55201 4.66668 7.00001C4.66668 6.44801 4.21868 6.00001 3.66668 6.00001ZM4.33335 9.33335C3.78135 9.33335 3.33335 9.78135 3.33335 10.3333C3.33335 10.8853 3.78135 11.3333 4.33335 11.3333C4.88535 11.3333 5.33335 10.8853 5.33335 10.3333C5.33335 9.78135 4.88535 9.33335 4.33335 9.33335ZM7.33335 2.66668C6.59668 2.66668 6.00001 3.26335 6.00001 4.00001C6.00001 4.73668 6.59668 5.33335 7.33335 5.33335C8.07001 5.33335 8.66668 4.73668 8.66668 4.00001C8.66668 3.26335 8.07001 2.66668 7.33335 2.66668ZM10.3333 10.6667C9.78135 10.6667 9.33335 11.1147 9.33335 11.6667C9.33335 12.2187 9.78135 12.6667 10.3333 12.6667C10.8853 12.6667 11.3333 12.2187 11.3333 11.6667C11.3333 11.1147 10.8853 10.6667 10.3333 10.6667ZM12.3333 7.33335C11.7813 7.33335 11.3333 7.78135 11.3333 8.33335C11.3333 8.88535 11.7813 9.33335 12.3333 9.33335C12.8853 9.33335 13.3333 8.88535 13.3333 8.33335C13.3333 7.78135 12.8853 7.33335 12.3333 7.33335Z" fill="white"/>
</g>
<defs>
<clipPath id="clip0_318_28">
<rect width="16" height="16" fill="white"/>
</clipPath>
</defs>
</svg>
