<svg width="14" height="14" viewBox="0 0 14 14" fill="none" xmlns="http://www.w3.org/2000/svg">
<path d="M6.46029 10.2103C6.35026 10.3203 6.20638 10.375 6.0625 10.375C5.91862 10.375 5.77474 10.3203 5.66471 10.2103L3.78971 8.33529C3.56966 8.11589 3.56966 7.75977 3.78971 7.53971C4.00911 7.32031 4.36523 7.32031 4.58529 7.53971L6.06185 9.01693L13.5814 1.49805C13.265 0.764974 12.5352 0.25 11.6875 0.25H2.3125C1.17578 0.25 0.25 1.17578 0.25 2.3125V11.6875C0.25 12.8242 1.17578 13.75 2.3125 13.75H11.6875C12.8242 13.75 13.75 12.8242 13.75 11.6875V2.92057L6.46029 10.2103Z" fill="#00B134"/>
</svg>
