<svg width="16" height="16" viewBox="0 0 16 16" fill="none" xmlns="http://www.w3.org/2000/svg">
<path d="M7.80459 10.4713C7.67459 10.6013 7.50392 10.6667 7.33325 10.6667C7.16259 10.6667 6.99192 10.6013 6.86192 10.4713L4.19525 7.80466C3.93459 7.544 3.93459 7.12266 4.19525 6.862C4.45592 6.60133 4.87725 6.60133 5.13792 6.862L7.33325 9.05733L12.8999 3.49066C11.6819 2.16733 9.94059 1.33333 7.99992 1.33333C4.31792 1.33333 1.33325 4.318 1.33325 8C1.33325 11.682 4.31792 14.6667 7.99992 14.6667C11.6819 14.6667 14.6666 11.682 14.6666 8C14.6666 6.74333 14.3126 5.572 13.7079 4.568L7.80459 10.4713Z" fill="white"/>
</svg>
