<svg width="15" height="16" viewBox="0 0 15 16" fill="none" xmlns="http://www.w3.org/2000/svg">
<path d="M7.24047 10.5139C7.1011 10.6533 6.91814 10.7233 6.73517 10.7233C6.5522 10.7233 6.36923 10.6533 6.22987 10.5139L3.37101 7.65503C3.09155 7.37557 3.09155 6.92387 3.37101 6.64442C3.65046 6.36497 4.10216 6.36497 4.38161 6.64442L6.73517 8.99798L12.703 3.03011C11.3973 1.6114 9.53042 0.717289 7.44988 0.717289C3.50251 0.717289 0.302734 3.91707 0.302734 7.86444C0.302734 11.8118 3.50251 15.0116 7.44988 15.0116C11.3973 15.0116 14.597 11.8118 14.597 7.86444C14.597 6.5172 14.2175 5.26145 13.5693 4.18509L7.24047 10.5139Z" fill="#282836"/>
</svg>
