<svg width="30" height="30" viewBox="0 0 30 30" fill="none" xmlns="http://www.w3.org/2000/svg">
<path d="M2.4375 0.0997429C1.31777 0.412048 0.403711 1.33373 0.106641 2.46107C0.0228516 2.76576 0 3.69506 0 6.7724V10.6953L2.4375 13.1328L4.875 15.5703L8.09707 12.3482C9.86426 10.581 11.3496 9.13373 11.3877 9.13373C11.4258 9.13373 12.9111 10.581 14.6783 12.3482L17.9004 15.5703L21.1377 12.3329L24.375 9.09564L26.8125 11.5331L29.25 13.9706V8.47103C29.25 4.68529 29.2195 2.84193 29.1662 2.56771C28.9148 1.40228 27.9627 0.412048 26.782 0.0997429C26.2336 -0.0449829 2.96309 -0.0449829 2.4375 0.0997429Z" fill="#C5C5C5"/>
<path d="M8.09707 16.9185L4.875 20.1405L2.4375 17.703L0 15.2655V20.8261C0 26.8513 0 26.7827 0.418945 27.5597C0.670313 28.0167 1.2873 28.6261 1.73672 28.8546C2.52891 29.2583 2.01094 29.2431 14.6021 29.2431C22.9506 29.2431 26.3859 29.2202 26.6754 29.1593C27.8713 28.9003 28.9148 27.8644 29.1662 26.6685C29.2195 26.4019 29.25 24.9394 29.25 22.4029V18.5409L26.8125 16.1034L24.375 13.6659L21.1529 16.888C19.3857 18.6552 17.9004 20.1025 17.8623 20.1025C17.8166 20.1025 16.3465 18.6628 14.5869 16.9032C12.8273 15.1437 11.3725 13.704 11.3496 13.704C11.3268 13.704 9.86426 15.1513 8.09707 16.9185Z" fill="#C5C5C5"/>
</svg>
