<svg width="30" height="30" viewBox="0 0 30 30" fill="none" xmlns="http://www.w3.org/2000/svg">
<g clip-path="url(#clip0_563_826)">
<path d="M2.4375 0.108544C1.31777 0.420849 0.403711 1.34253 0.106641 2.46987C0.0228516 2.77456 0 3.70386 0 6.7812V10.704L2.4375 13.1415L4.875 15.579L8.09707 12.357C9.86426 10.5898 11.3496 9.14253 11.3877 9.14253C11.4258 9.14253 12.9111 10.5898 14.6783 12.357L17.9004 15.579L21.1377 12.3417L24.375 9.10444L26.8125 11.5419L29.25 13.9794V8.47983C29.25 4.69409 29.2195 2.85073 29.1662 2.57651C28.9148 1.41108 27.9627 0.420849 26.782 0.108544C26.2336 -0.0361814 2.96309 -0.0361814 2.4375 0.108544Z" fill="#6D6D81"/>
<path d="M8.09707 16.9273L4.875 20.1493L2.4375 17.7118L0 15.2743V20.8349C0 26.8601 0 26.7915 0.418945 27.5685C0.670313 28.0255 1.2873 28.6349 1.73672 28.8634C2.52891 29.2671 2.01094 29.2519 14.6021 29.2519C22.9506 29.2519 26.3859 29.229 26.6754 29.1681C27.8713 28.9091 28.9148 27.8732 29.1662 26.6773C29.2195 26.4107 29.25 24.9482 29.25 22.4116V18.5497L26.8125 16.1122L24.375 13.6747L21.1529 16.8968C19.3857 18.664 17.9004 20.1113 17.8623 20.1113C17.8166 20.1113 16.3465 18.6716 14.5869 16.912C12.8273 15.1525 11.3725 13.7128 11.3496 13.7128C11.3268 13.7128 9.86426 15.1601 8.09707 16.9273Z" fill="#6D6D81"/>
</g>
<defs>
<clipPath id="clip0_563_826">
<rect width="30" height="30" fill="white"/>
</clipPath>
</defs>
</svg>
