<svg width="11" height="11" viewBox="0 0 11 11" fill="none" xmlns="http://www.w3.org/2000/svg">
<g clip-path="url(#clip0_329_1283)">
<path d="M5.5 11.0001C5.22503 11.0001 5.04167 10.8168 5.04167 10.5418V10.0835C5.04167 9.80849 5.22503 9.62512 5.5 9.62512C5.77497 9.62512 5.95833 9.80849 5.95833 10.0835V10.5418C5.95833 10.8168 5.77497 11.0001 5.5 11.0001ZM1.92464 9.53381C1.81006 9.53381 1.69577 9.48756 1.60417 9.39596C1.4208 9.21259 1.4208 8.93747 1.60417 8.75411L1.92464 8.43363C2.10801 8.25027 2.38312 8.25027 2.56649 8.43363C2.74985 8.617 2.74985 8.89212 2.56649 9.07548L2.24601 9.39596C2.15441 9.48756 2.03923 9.53381 1.92464 9.53381ZM9.07536 9.53381C8.96077 9.53381 8.84559 9.48756 8.75399 9.39596L8.43351 9.07548C8.25015 8.89212 8.25015 8.617 8.43351 8.43363C8.61688 8.25027 8.89199 8.25027 9.07536 8.43363L9.39583 8.75411C9.5792 8.93747 9.5792 9.21259 9.39583 9.39596C9.30423 9.48756 9.18994 9.53381 9.07536 9.53381ZM5.5 8.70846C3.72814 8.70846 2.29167 7.27199 2.29167 5.50012C2.29167 3.72826 3.72814 2.29179 5.5 2.29179C7.27186 2.29179 8.70833 3.72826 8.70833 5.50012C8.70833 7.27199 7.27186 8.70846 5.5 8.70846ZM0.458333 5.95846C0.183363 5.95846 0 5.77509 0 5.50012C0 5.22515 0.183363 5.04179 0.458333 5.04179H0.916667C1.19164 5.04179 1.375 5.22515 1.375 5.50012C1.375 5.77509 1.19164 5.95846 0.916667 5.95846H0.458333ZM10.0833 5.95846C9.80836 5.95846 9.625 5.77509 9.625 5.50012C9.625 5.22515 9.80836 5.04179 10.0833 5.04179H10.5417C10.8166 5.04179 11 5.22515 11 5.50012C11 5.77509 10.8166 5.95846 10.5417 5.95846H10.0833ZM2.24601 2.70447C2.13143 2.70447 2.01625 2.65822 1.92464 2.56661L1.60417 2.24613C1.4208 2.06277 1.4208 1.78765 1.60417 1.60429C1.78753 1.42093 2.06265 1.42093 2.24601 1.60429L2.56649 1.92476C2.74985 2.10813 2.74985 2.38325 2.56649 2.56661C2.47488 2.65822 2.3606 2.70447 2.24601 2.70447ZM8.75399 2.70447C8.6394 2.70447 8.52512 2.65822 8.43351 2.56661C8.25015 2.38325 8.25015 2.10813 8.43351 1.92476L8.75399 1.60429C8.93735 1.42093 9.21247 1.42093 9.39583 1.60429C9.5792 1.78765 9.5792 2.06277 9.39583 2.24613L9.07536 2.56661C8.98375 2.65822 8.86857 2.70447 8.75399 2.70447ZM5.5 1.37512C5.22503 1.37512 5.04167 1.19176 5.04167 0.916789V0.458455C5.04167 0.183485 5.22503 0.00012207 5.5 0.00012207C5.77497 0.00012207 5.95833 0.183485 5.95833 0.458455V0.916789C5.95833 1.19176 5.77497 1.37512 5.5 1.37512Z" fill="white"/>
</g>
<defs>
<clipPath id="clip0_329_1283">
<rect width="11" height="11" fill="white" transform="matrix(1 0 0 -1 0 11.0001)"/>
</clipPath>
</defs>
</svg>
