<svg width="18" height="18" viewBox="0 0 18 18" fill="none" xmlns="http://www.w3.org/2000/svg">
<path d="M16.2062 4.20837H15.0157C15.0146 4.20837 15.0134 4.20837 15.0114 4.20837H13.8062C13.4749 4.20837 13.2062 4.47654 13.2062 4.80837C13.2062 5.14021 13.4749 5.40837 13.8062 5.40837H14.0888L11.4056 11.5404L9.96008 8.23669L11.198 5.40837H12.0056C12.3366 5.40837 12.6056 5.14021 12.6056 4.80837C12.6056 4.47654 12.3366 4.20837 12.0056 4.20837H10.8152C10.814 4.20837 10.8128 4.20837 10.8109 4.20837H10.205C9.87375 4.20837 9.605 4.47654 9.605 4.80837C9.605 5.03572 9.73625 5.22654 9.92297 5.32849L9.305 6.74099L8.68684 5.32849C8.87356 5.22712 9.005 5.0363 9.005 4.80837C9.005 4.47654 8.73606 4.20837 8.405 4.20837H7.80012C7.79895 4.20837 7.79778 4.20837 7.79582 4.20837H6.60012C6.59895 4.20837 6.59778 4.20837 6.59582 4.20837H6.00618C5.67493 4.20837 5.40618 4.47654 5.40618 4.80837C5.40618 5.14021 5.67493 5.40837 6.00618 5.40837H6.21379L8.0509 9.60837L7.20559 11.5404L4.48821 5.32849C4.67473 5.22712 4.80618 5.0363 4.80618 4.80837C4.80618 4.47654 4.53723 4.20837 4.20618 4.20837H3.60071C3.59954 4.20837 3.59836 4.20837 3.59661 4.20837H2.40012C2.39895 4.20837 2.39778 4.20837 2.39583 4.20837H1.80618C1.47493 4.20837 1.20618 4.47654 1.20618 4.80837C1.20618 5.14021 1.47493 5.40837 1.80618 5.40837H2.01379L6.05657 14.6484C6.15188 14.8668 6.36789 15.0084 6.60618 15.0084C6.84426 15.0084 7.06028 14.8674 7.15579 14.6484L8.70618 11.1049L10.2566 14.6484C10.3519 14.8668 10.5679 15.0084 10.8062 15.0084C11.0443 15.0084 11.2603 14.8674 11.3558 14.6484L15.3986 5.40837H16.2062C16.5372 5.40837 16.8062 5.14021 16.8062 4.80837C16.8062 4.47654 16.5372 4.20837 16.2062 4.20837Z" fill="white"/>
</svg>
