<svg width="18" height="18" viewBox="0 0 18 18" fill="none" xmlns="http://www.w3.org/2000/svg">
<g clip-path="url(#clip0_4953_573)">
<path d="M16.0312 0.210942H1.96871C0.998016 0.210942 0.210938 0.997985 0.210938 1.96875V16.0312C0.210938 17.002 0.998016 17.789 1.96875 17.789H16.0312C17.002 17.789 17.7891 17.002 17.7891 16.0312V1.96872C17.7891 0.997985 17.002 0.210907 16.0312 0.210907L16.0312 0.210942Z" fill="#FC3F1D"/>
<path d="M9.97446 12.7485V14.6392H8.03869V11.451L4.38574 3.50684H6.40568L9.25158 9.72176C9.80023 10.9094 9.97446 11.3221 9.97446 12.7485ZM13.6142 3.50684L11.2394 8.88901H9.27134L11.6459 3.50684H13.6142Z" fill="white"/>
</g>
<defs>
<clipPath id="clip0_4953_573">
<rect width="18" height="18" fill="white"/>
</clipPath>
</defs>
</svg>
