<svg width="20" height="14" viewBox="0 0 20 14" fill="none" xmlns="http://www.w3.org/2000/svg">
<path d="M18.7999 11.5375C18.6166 12.5 17.8374 13.2333 16.8749 13.3708C15.3624 13.6 12.8416 13.875 9.99992 13.875C7.20409 13.875 4.68325 13.6 3.12492 13.3708C2.16242 13.2333 1.38325 12.5 1.19992 11.5375C1.01659 10.4833 0.833252 8.925 0.833252 7C0.833252 5.075 1.01659 3.51667 1.19992 2.4625C1.38325 1.5 2.16242 0.766667 3.12492 0.629167C4.63742 0.4 7.15825 0.125 9.99992 0.125C12.8416 0.125 15.3166 0.4 16.8749 0.629167C17.8374 0.766667 18.6166 1.5 18.7999 2.4625C18.9833 3.51667 19.2124 5.075 19.2124 7C19.1666 8.925 18.9833 10.4833 18.7999 11.5375Z" fill="#FF3D00"/>
<path d="M8.1665 10.2083V3.79167L13.6665 7.00001L8.1665 10.2083Z" fill="white"/>
</svg>
